%TF.GenerationSoftware,KiCad,Pcbnew,8.0.4-8.0.4-0~ubuntu24.04.1*%
%TF.CreationDate,2024-08-14T02:08:49-05:00*%
%TF.ProjectId,FRCMotorTester,4652434d-6f74-46f7-9254-65737465722e,rev?*%
%TF.SameCoordinates,Original*%
%TF.FileFunction,Copper,L4,Bot*%
%TF.FilePolarity,Positive*%
%FSLAX46Y46*%
G04 Gerber Fmt 4.6, Leading zero omitted, Abs format (unit mm)*
G04 Created by KiCad (PCBNEW 8.0.4-8.0.4-0~ubuntu24.04.1) date 2024-08-14 02:08:49*
%MOMM*%
%LPD*%
G01*
G04 APERTURE LIST*
G04 Aperture macros list*
%AMRoundRect*
0 Rectangle with rounded corners*
0 $1 Rounding radius*
0 $2 $3 $4 $5 $6 $7 $8 $9 X,Y pos of 4 corners*
0 Add a 4 corners polygon primitive as box body*
4,1,4,$2,$3,$4,$5,$6,$7,$8,$9,$2,$3,0*
0 Add four circle primitives for the rounded corners*
1,1,$1+$1,$2,$3*
1,1,$1+$1,$4,$5*
1,1,$1+$1,$6,$7*
1,1,$1+$1,$8,$9*
0 Add four rect primitives between the rounded corners*
20,1,$1+$1,$2,$3,$4,$5,0*
20,1,$1+$1,$4,$5,$6,$7,0*
20,1,$1+$1,$6,$7,$8,$9,0*
20,1,$1+$1,$8,$9,$2,$3,0*%
G04 Aperture macros list end*
%TA.AperFunction,ComponentPad*%
%ADD10R,1.700000X1.700000*%
%TD*%
%TA.AperFunction,ComponentPad*%
%ADD11O,1.700000X1.700000*%
%TD*%
%TA.AperFunction,ComponentPad*%
%ADD12O,0.900000X1.600000*%
%TD*%
%TA.AperFunction,ComponentPad*%
%ADD13RoundRect,0.250000X-0.750000X-1.550000X0.750000X-1.550000X0.750000X1.550000X-0.750000X1.550000X0*%
%TD*%
%TA.AperFunction,ComponentPad*%
%ADD14O,2.000000X3.600000*%
%TD*%
%TA.AperFunction,ComponentPad*%
%ADD15RoundRect,0.250000X1.550000X-0.750000X1.550000X0.750000X-1.550000X0.750000X-1.550000X-0.750000X0*%
%TD*%
%TA.AperFunction,ComponentPad*%
%ADD16O,3.600000X2.000000*%
%TD*%
%TA.AperFunction,ComponentPad*%
%ADD17R,1.000000X1.000000*%
%TD*%
%TA.AperFunction,ComponentPad*%
%ADD18C,1.000000*%
%TD*%
%TA.AperFunction,ComponentPad*%
%ADD19O,2.416000X1.208000*%
%TD*%
%TA.AperFunction,ComponentPad*%
%ADD20R,2.000000X2.000000*%
%TD*%
%TA.AperFunction,ComponentPad*%
%ADD21C,2.000000*%
%TD*%
%TA.AperFunction,ComponentPad*%
%ADD22R,3.200000X2.000000*%
%TD*%
%TA.AperFunction,ViaPad*%
%ADD23C,0.600000*%
%TD*%
%TA.AperFunction,Conductor*%
%ADD24C,0.127000*%
%TD*%
%TA.AperFunction,Conductor*%
%ADD25C,0.508000*%
%TD*%
%TA.AperFunction,Conductor*%
%ADD26C,0.254000*%
%TD*%
G04 APERTURE END LIST*
D10*
%TO.P,J3,1,Pin_1*%
%TO.N,GND*%
X167675000Y-75475000D03*
D11*
%TO.P,J3,2,Pin_2*%
%TO.N,3V3*%
X170215000Y-75475000D03*
%TO.P,J3,3,Pin_3*%
%TO.N,ANALOG_IN*%
X172755000Y-75475000D03*
%TD*%
D12*
%TO.P,J1,6,Shield*%
%TO.N,GND*%
X123700000Y-105000000D03*
X130300000Y-105000000D03*
%TD*%
D13*
%TO.P,J2,1,Pin_1*%
%TO.N,GND*%
X113832000Y-41870500D03*
D14*
%TO.P,J2,2,Pin_2*%
%TO.N,/Power/VIN*%
X118832000Y-41870500D03*
%TD*%
D15*
%TO.P,J8,1,Pin_1*%
%TO.N,Net-(J8-Pin_1)*%
X95722500Y-82500000D03*
D16*
%TO.P,J8,2,Pin_2*%
%TO.N,Net-(J8-Pin_2)*%
X95722500Y-77500000D03*
%TD*%
D10*
%TO.P,J4,1,Pin_1*%
%TO.N,GND*%
X167675000Y-91575000D03*
D11*
%TO.P,J4,2,Pin_2*%
%TO.N,3V3*%
X170215000Y-91575000D03*
%TO.P,J4,3,Pin_3*%
%TO.N,GENIO_01*%
X172755000Y-91575000D03*
%TD*%
D10*
%TO.P,J6,1,Pin_1*%
%TO.N,GND*%
X167675000Y-80575000D03*
D11*
%TO.P,J6,2,Pin_2*%
%TO.N,3V3*%
X170215000Y-80575000D03*
%TO.P,J6,3,Pin_3*%
%TO.N,GENIO_03*%
X172755000Y-80575000D03*
%TD*%
D10*
%TO.P,J5,1,Pin_1*%
%TO.N,GND*%
X167700000Y-86100000D03*
D11*
%TO.P,J5,2,Pin_2*%
%TO.N,3V3*%
X170240000Y-86100000D03*
%TO.P,J5,3,Pin_3*%
%TO.N,GENIO_02*%
X172780000Y-86100000D03*
%TD*%
D10*
%TO.P,J9,1,Pin_1*%
%TO.N,SPARE1*%
X111200000Y-93000000D03*
D11*
%TO.P,J9,2,Pin_2*%
%TO.N,SPARE2*%
X108660000Y-93000000D03*
%TO.P,J9,3,Pin_3*%
%TO.N,SPARE3*%
X106120000Y-93000000D03*
%TO.P,J9,4,Pin_4*%
%TO.N,SPARE4*%
X103580000Y-93000000D03*
%TO.P,J9,5,Pin_5*%
%TO.N,SPARE5*%
X101040000Y-93000000D03*
%TO.P,J9,6,Pin_6*%
%TO.N,SPARE6*%
X98500000Y-93000000D03*
%TO.P,J9,7,Pin_7*%
%TO.N,SPARE7*%
X95960000Y-93000000D03*
%TO.P,J9,8,Pin_8*%
%TO.N,SPARE8*%
X93420000Y-93000000D03*
%TD*%
D17*
%TO.P,DS1,1,V0*%
%TO.N,Net-(DS1-V0)*%
X144388500Y-72360000D03*
D18*
%TO.P,DS1,2,V1*%
%TO.N,Net-(DS1-V1)*%
X142888500Y-72360000D03*
%TO.P,DS1,3,V2*%
%TO.N,Net-(DS1-V2)*%
X141388500Y-72360000D03*
%TO.P,DS1,4,V3*%
%TO.N,Net-(DS1-V3)*%
X139888500Y-72360000D03*
%TO.P,DS1,5,V4*%
%TO.N,Net-(DS1-V4)*%
X138388500Y-72360000D03*
%TO.P,DS1,6,C2-*%
%TO.N,Net-(DS1-C2-)*%
X136888500Y-72360000D03*
%TO.P,DS1,7,C2+*%
%TO.N,Net-(DS1-C2+)*%
X135388500Y-72360000D03*
%TO.P,DS1,8,C1+*%
%TO.N,Net-(DS1-C1+)*%
X133888500Y-72360000D03*
%TO.P,DS1,9,C1-*%
%TO.N,Net-(DS1-C1-)*%
X132388500Y-72360000D03*
%TO.P,DS1,10,VOUT*%
%TO.N,Net-(DS1-VOUT)*%
X130888500Y-72360000D03*
%TO.P,DS1,11,VSS*%
%TO.N,GND*%
X129388500Y-72360000D03*
%TO.P,DS1,12,VDD*%
%TO.N,3V3*%
X127888500Y-72360000D03*
%TO.P,DS1,13,SI*%
%TO.N,DISP_SI*%
X126388500Y-72360000D03*
%TO.P,DS1,14,SCL*%
%TO.N,DISP_SCLK*%
X124888500Y-72360000D03*
%TO.P,DS1,15,A0*%
%TO.N,DISP_DATA*%
X123388500Y-72360000D03*
%TO.P,DS1,16,~{RST}*%
%TO.N,DISP_RESET*%
X121888500Y-72360000D03*
%TO.P,DS1,17,~{CS1}*%
%TO.N,DISP_SS*%
X120388500Y-72360000D03*
D19*
%TO.P,DS1,A,LED+*%
%TO.N,3V0*%
X149688500Y-70560000D03*
%TO.P,DS1,K,LED-*%
%TO.N,GND*%
X115088500Y-70560000D03*
%TD*%
D20*
%TO.P,SW3,A,A*%
%TO.N,ENC2A*%
X172250000Y-58500000D03*
D21*
%TO.P,SW3,B,B*%
%TO.N,ENC2B*%
X172250000Y-63500000D03*
%TO.P,SW3,C,C*%
%TO.N,GND*%
X172250000Y-61000000D03*
D22*
%TO.P,SW3,MP*%
%TO.N,N/C*%
X164750000Y-66600000D03*
X164750000Y-55400000D03*
D21*
%TO.P,SW3,S1,S1*%
%TO.N,PRESS2*%
X157750000Y-63500000D03*
%TO.P,SW3,S2,S2*%
%TO.N,GND*%
X157750000Y-58500000D03*
%TD*%
D20*
%TO.P,SW2,A,A*%
%TO.N,ENC1A*%
X107250000Y-58500000D03*
D21*
%TO.P,SW2,B,B*%
%TO.N,ENC1B*%
X107250000Y-63500000D03*
%TO.P,SW2,C,C*%
%TO.N,GND*%
X107250000Y-61000000D03*
D22*
%TO.P,SW2,MP*%
%TO.N,N/C*%
X99750000Y-66600000D03*
X99750000Y-55400000D03*
D21*
%TO.P,SW2,S1,S1*%
%TO.N,PRESS1*%
X92750000Y-63500000D03*
%TO.P,SW2,S2,S2*%
%TO.N,GND*%
X92750000Y-58500000D03*
%TD*%
D23*
%TO.N,DISP_DATA*%
X128900000Y-80400000D03*
%TO.N,3V3*%
X127500000Y-86800000D03*
X145300000Y-99500000D03*
X113700000Y-77900000D03*
X162700000Y-72600000D03*
X124600000Y-88300000D03*
X152600000Y-81700000D03*
X162700000Y-78500000D03*
X141000000Y-87600000D03*
X162700000Y-83800000D03*
X159312500Y-102400000D03*
X125900000Y-54100000D03*
X114000000Y-78800000D03*
X126800000Y-54900000D03*
X132836500Y-92347788D03*
X141900000Y-84500000D03*
X141900000Y-85400000D03*
X124600000Y-86900000D03*
X162700000Y-89100000D03*
X132636500Y-94990721D03*
X132000000Y-82600000D03*
X134134018Y-82417406D03*
X132900000Y-79000000D03*
X128600000Y-65600000D03*
X138600000Y-87300000D03*
X138200000Y-86600000D03*
X141800000Y-91200000D03*
X159600000Y-105200000D03*
X127900000Y-70700000D03*
X146900000Y-83100000D03*
X133963500Y-94860350D03*
X134000000Y-79100000D03*
%TO.N,GND*%
X128600000Y-42400000D03*
X131200000Y-41600000D03*
X106000000Y-51600000D03*
X144800000Y-38000000D03*
X116100000Y-81900000D03*
X148700000Y-41900000D03*
X139600000Y-76600000D03*
X116846000Y-78300000D03*
X122400000Y-89100000D03*
X144836500Y-67443284D03*
X143500000Y-91200000D03*
X127000000Y-100000000D03*
X140700000Y-90100000D03*
X136179478Y-78744680D03*
X103600000Y-61000000D03*
X143300000Y-48900000D03*
X141900000Y-68100000D03*
X158300000Y-85500000D03*
X128100000Y-68100000D03*
X102600000Y-51600000D03*
X134000000Y-83500000D03*
X169700000Y-59900000D03*
X103600000Y-59900000D03*
X139500000Y-100300000D03*
X109000000Y-52200000D03*
X95000000Y-59500000D03*
X137700000Y-68100000D03*
X146000000Y-76600000D03*
X118600000Y-96000000D03*
X134736500Y-76039699D03*
X127690813Y-76830185D03*
X133400000Y-76200000D03*
X157900000Y-75000000D03*
X127600000Y-49800000D03*
X157800000Y-81100000D03*
X132300000Y-97800000D03*
X141600000Y-100000000D03*
X143000000Y-86500000D03*
X121700000Y-86300000D03*
X140400000Y-68200000D03*
X133963500Y-98600000D03*
X143500000Y-68200000D03*
X113700000Y-82000000D03*
X124400000Y-49800000D03*
X130800000Y-76100000D03*
X132800000Y-81600000D03*
X143800000Y-105700000D03*
X120400000Y-83600000D03*
X129146496Y-101076927D03*
X159700000Y-94100000D03*
X131600000Y-50400000D03*
%TO.N,VCC_MEAS*%
X136300000Y-75900000D03*
X131800000Y-78900000D03*
%TO.N,VCC*%
X127000000Y-95000000D03*
X115000000Y-82500000D03*
X137600000Y-74100000D03*
X136600000Y-54400000D03*
X121400000Y-51600000D03*
X117600000Y-97000000D03*
%TO.N,Net-(D3-A)*%
X146400000Y-45800000D03*
X134400000Y-42200000D03*
%TO.N,ENC1A*%
X115600000Y-93000000D03*
%TO.N,ENC1B*%
X115600000Y-94000000D03*
%TO.N,PRESS1*%
X105100000Y-74400000D03*
X127800000Y-81200000D03*
X118500000Y-75200000D03*
X95000000Y-72800000D03*
%TO.N,ENC2A*%
X161000000Y-98000000D03*
%TO.N,ENC2B*%
X149787851Y-95814579D03*
%TO.N,PRESS2*%
X150300000Y-95200000D03*
%TO.N,DISP_DATA*%
X124600000Y-75100000D03*
%TO.N,DISP_SCLK*%
X128254313Y-77948777D03*
%TO.N,DISP_SI*%
X127900000Y-79100000D03*
%TO.N,ID*%
X133800000Y-100600000D03*
X131400000Y-90600000D03*
%TO.N,SWDIO*%
X143700000Y-99500000D03*
X137300000Y-99500000D03*
%TO.N,CAN_TX*%
X137600000Y-87800000D03*
X119000000Y-83300000D03*
%TO.N,VIN_MEAS*%
X118800000Y-52800000D03*
X124500000Y-74000000D03*
%TO.N,Net-(J8-Pin_2)*%
X103600000Y-77800000D03*
X103200000Y-82600000D03*
%TO.N,ANALOG_IN*%
X138000000Y-79600000D03*
X159100000Y-77600000D03*
%TO.N,CAN_RX*%
X123500000Y-81700000D03*
X137398455Y-86801545D03*
%TO.N,CAN_EN*%
X127145006Y-80409802D03*
X120598455Y-76301545D03*
%TO.N,CAN_STB*%
X129700000Y-85000000D03*
X122800000Y-85000000D03*
%TO.N,LED1*%
X149700000Y-104400000D03*
X145100000Y-94500000D03*
%TO.N,LED2*%
X146200000Y-93900000D03*
X151200000Y-102000000D03*
%TO.N,NRST*%
X148800000Y-99800000D03*
X136500000Y-84800000D03*
X144000000Y-92200000D03*
X141700000Y-83700000D03*
%TD*%
D24*
%TO.N,DISP_DATA*%
X127810169Y-79965324D02*
X128465324Y-79965324D01*
X128465324Y-79965324D02*
X128900000Y-80400000D01*
X124600000Y-76600000D02*
X127810169Y-79810169D01*
X124600000Y-75100000D02*
X124600000Y-76600000D01*
%TO.N,CAN_EN*%
X127145006Y-80235566D02*
X127145006Y-80409802D01*
X123210985Y-76301545D02*
X127145006Y-80235566D01*
X120598455Y-76301545D02*
X123210985Y-76301545D01*
%TO.N,DISP_DATA*%
X127810169Y-79810169D02*
X127810169Y-79965324D01*
%TO.N,VCC_MEAS*%
X136300000Y-77400000D02*
X136300000Y-75900000D01*
X131800000Y-78900000D02*
X132200000Y-78900000D01*
X133700000Y-77400000D02*
X136300000Y-77400000D01*
X132200000Y-78900000D02*
X133700000Y-77400000D01*
D25*
%TO.N,VCC*%
X117600000Y-95000000D02*
X117600000Y-82600000D01*
D24*
X144275500Y-74000000D02*
X144175500Y-74100000D01*
X115000000Y-82500000D02*
X115100000Y-82600000D01*
X145400000Y-54600000D02*
X145400000Y-74000000D01*
D26*
X127000000Y-95000000D02*
X117600000Y-95000000D01*
D24*
X136600000Y-54400000D02*
X145200000Y-54400000D01*
D25*
X117600000Y-97000000D02*
X117600000Y-95000000D01*
X117600000Y-82600000D02*
X117600000Y-51600000D01*
D24*
X144175500Y-74100000D02*
X137600000Y-74100000D01*
X115100000Y-82600000D02*
X117600000Y-82600000D01*
X145400000Y-74000000D02*
X144275500Y-74000000D01*
X145200000Y-54400000D02*
X145400000Y-54600000D01*
D25*
X117600000Y-51600000D02*
X121400000Y-51600000D01*
D26*
%TO.N,Net-(D3-A)*%
X146400000Y-45800000D02*
X135200000Y-45800000D01*
X135200000Y-45800000D02*
X134600000Y-45200000D01*
X134600000Y-45200000D02*
X134400000Y-45000000D01*
X134400000Y-45000000D02*
X134400000Y-42200000D01*
D24*
%TO.N,ENC1A*%
X109100000Y-58800000D02*
X109100000Y-86500000D01*
X109100000Y-86500000D02*
X115600000Y-93000000D01*
X107250000Y-58500000D02*
X108800000Y-58500000D01*
X108800000Y-58500000D02*
X109100000Y-58800000D01*
%TO.N,ENC1B*%
X115600000Y-94000000D02*
X114800000Y-94000000D01*
X107250000Y-63500000D02*
X107250000Y-86450000D01*
X107250000Y-86450000D02*
X114800000Y-94000000D01*
%TO.N,PRESS1*%
X127800000Y-81200000D02*
X124500000Y-81200000D01*
X100400000Y-74400000D02*
X98900000Y-72900000D01*
X98900000Y-72900000D02*
X95100000Y-72900000D01*
X124500000Y-81200000D02*
X118500000Y-75200000D01*
X95100000Y-72900000D02*
X95000000Y-72800000D01*
X105100000Y-74400000D02*
X100400000Y-74400000D01*
%TO.N,ENC2A*%
X174000000Y-60250000D02*
X172250000Y-58500000D01*
X174000000Y-96400000D02*
X174000000Y-60250000D01*
X162600000Y-96400000D02*
X174000000Y-96400000D01*
X161000000Y-98000000D02*
X162600000Y-96400000D01*
%TO.N,ENC2B*%
X164800000Y-95400000D02*
X164385421Y-95814579D01*
X164800000Y-70950000D02*
X164800000Y-95400000D01*
X164385421Y-95814579D02*
X149787851Y-95814579D01*
X172250000Y-63500000D02*
X164800000Y-70950000D01*
%TO.N,PRESS2*%
X161100000Y-68100000D02*
X161100000Y-66850000D01*
X164200000Y-71200000D02*
X161100000Y-68100000D01*
X164200000Y-95000000D02*
X164200000Y-71200000D01*
X164000000Y-95200000D02*
X164200000Y-95000000D01*
X150300000Y-95200000D02*
X164000000Y-95200000D01*
X161100000Y-66850000D02*
X157750000Y-63500000D01*
%TO.N,DISP_SCLK*%
X128254313Y-75354313D02*
X128254313Y-77948777D01*
X125388499Y-75288499D02*
X125400000Y-75300000D01*
X124888500Y-72360000D02*
X125388499Y-72859999D01*
X125388499Y-72859999D02*
X125388499Y-75288499D01*
X125400000Y-75300000D02*
X128200000Y-75300000D01*
X128200000Y-75300000D02*
X128254313Y-75354313D01*
%TO.N,DISP_SI*%
X129100000Y-77900000D02*
X129100000Y-74700000D01*
X126388500Y-73888500D02*
X126388500Y-72360000D01*
X129100000Y-74700000D02*
X127200000Y-74700000D01*
X127900000Y-79100000D02*
X129100000Y-77900000D01*
X127200000Y-74700000D02*
X126388500Y-73888500D01*
%TO.N,ID*%
X133800000Y-100600000D02*
X133400000Y-100200000D01*
X133400000Y-100200000D02*
X133400000Y-90600000D01*
X133400000Y-90600000D02*
X131400000Y-90600000D01*
%TO.N,SWDIO*%
X143636500Y-99436500D02*
X143700000Y-99500000D01*
X137363500Y-99436500D02*
X143636500Y-99436500D01*
X137300000Y-99500000D02*
X137363500Y-99436500D01*
%TO.N,CAN_TX*%
X135500000Y-85700000D02*
X137600000Y-87800000D01*
X121400000Y-85700000D02*
X135500000Y-85700000D01*
X119000000Y-83300000D02*
X121400000Y-85700000D01*
%TO.N,VIN_MEAS*%
X124400000Y-74100000D02*
X124500000Y-74000000D01*
X118800000Y-74100000D02*
X124400000Y-74100000D01*
X118800000Y-74100000D02*
X118800000Y-52800000D01*
%TO.N,Net-(J8-Pin_2)*%
X103200000Y-82600000D02*
X103600000Y-82200000D01*
X103600000Y-82200000D02*
X103600000Y-77800000D01*
%TO.N,ANALOG_IN*%
X156100000Y-79600000D02*
X158000000Y-77700000D01*
X158000000Y-77700000D02*
X158100000Y-77600000D01*
X138000000Y-79600000D02*
X156100000Y-79600000D01*
X158100000Y-77600000D02*
X159100000Y-77600000D01*
%TO.N,CAN_RX*%
X125863500Y-84063500D02*
X134325948Y-84063500D01*
X123500000Y-81700000D02*
X125863500Y-84063500D01*
X134325948Y-84063500D02*
X137063993Y-86801545D01*
X137063993Y-86801545D02*
X137398455Y-86801545D01*
%TO.N,CAN_STB*%
X129700000Y-85000000D02*
X130000000Y-85000000D01*
X122800000Y-85000000D02*
X129700000Y-85000000D01*
%TO.N,LED1*%
X145100000Y-94500000D02*
X149700000Y-99100000D01*
X149700000Y-99100000D02*
X149700000Y-104400000D01*
%TO.N,LED2*%
X146500000Y-94200000D02*
X146500000Y-94800000D01*
X146500000Y-94800000D02*
X151200000Y-99500000D01*
X151200000Y-99500000D02*
X151200000Y-102000000D01*
X146200000Y-93900000D02*
X146500000Y-94200000D01*
%TO.N,NRST*%
X144000000Y-92200000D02*
X144000000Y-98300000D01*
X141700000Y-83700000D02*
X137900000Y-83700000D01*
X137900000Y-83700000D02*
X136800000Y-84800000D01*
X147500000Y-98500000D02*
X148800000Y-99800000D01*
X144200000Y-98500000D02*
X147500000Y-98500000D01*
X144000000Y-98300000D02*
X144200000Y-98500000D01*
X136800000Y-84800000D02*
X136500000Y-84800000D01*
%TD*%
%TA.AperFunction,Conductor*%
%TO.N,GND*%
G36*
X173369371Y-64622051D02*
G01*
X173419696Y-64670520D01*
X173436000Y-64731981D01*
X173436000Y-74107802D01*
X173416315Y-74174841D01*
X173363511Y-74220596D01*
X173294353Y-74230540D01*
X173259595Y-74220184D01*
X173254264Y-74217698D01*
X173218663Y-74201097D01*
X173218659Y-74201096D01*
X173218655Y-74201094D01*
X172990413Y-74139938D01*
X172990403Y-74139936D01*
X172755001Y-74119341D01*
X172754999Y-74119341D01*
X172519596Y-74139936D01*
X172519586Y-74139938D01*
X172291344Y-74201094D01*
X172291335Y-74201098D01*
X172077171Y-74300964D01*
X172077169Y-74300965D01*
X171883597Y-74436505D01*
X171716505Y-74603597D01*
X171586575Y-74789158D01*
X171531998Y-74832783D01*
X171462500Y-74839977D01*
X171400145Y-74808454D01*
X171383425Y-74789158D01*
X171253494Y-74603597D01*
X171086402Y-74436506D01*
X171086395Y-74436501D01*
X170892834Y-74300967D01*
X170892830Y-74300965D01*
X170846273Y-74279255D01*
X170678663Y-74201097D01*
X170678659Y-74201096D01*
X170678655Y-74201094D01*
X170450413Y-74139938D01*
X170450403Y-74139936D01*
X170215001Y-74119341D01*
X170214999Y-74119341D01*
X169979596Y-74139936D01*
X169979586Y-74139938D01*
X169751344Y-74201094D01*
X169751335Y-74201098D01*
X169537171Y-74300964D01*
X169537169Y-74300965D01*
X169343600Y-74436503D01*
X169221284Y-74558819D01*
X169159961Y-74592303D01*
X169090269Y-74587319D01*
X169034336Y-74545447D01*
X169017421Y-74514470D01*
X168968354Y-74382913D01*
X168968350Y-74382906D01*
X168882190Y-74267812D01*
X168882187Y-74267809D01*
X168767093Y-74181649D01*
X168767086Y-74181645D01*
X168632379Y-74131403D01*
X168632372Y-74131401D01*
X168572844Y-74125000D01*
X167925000Y-74125000D01*
X167925000Y-75041988D01*
X167867993Y-75009075D01*
X167740826Y-74975000D01*
X167609174Y-74975000D01*
X167482007Y-75009075D01*
X167425000Y-75041988D01*
X167425000Y-74125000D01*
X166777155Y-74125000D01*
X166717627Y-74131401D01*
X166717620Y-74131403D01*
X166582913Y-74181645D01*
X166582906Y-74181649D01*
X166467812Y-74267809D01*
X166467809Y-74267812D01*
X166381649Y-74382906D01*
X166381645Y-74382913D01*
X166331403Y-74517620D01*
X166331401Y-74517627D01*
X166325000Y-74577155D01*
X166325000Y-75225000D01*
X167241988Y-75225000D01*
X167209075Y-75282007D01*
X167175000Y-75409174D01*
X167175000Y-75540826D01*
X167209075Y-75667993D01*
X167241988Y-75725000D01*
X166325000Y-75725000D01*
X166325000Y-76372844D01*
X166331401Y-76432372D01*
X166331403Y-76432379D01*
X166381645Y-76567086D01*
X166381649Y-76567093D01*
X166467809Y-76682187D01*
X166467812Y-76682190D01*
X166582906Y-76768350D01*
X166582913Y-76768354D01*
X166717620Y-76818596D01*
X166717627Y-76818598D01*
X166777155Y-76824999D01*
X166777172Y-76825000D01*
X167425000Y-76825000D01*
X167425000Y-75908012D01*
X167482007Y-75940925D01*
X167609174Y-75975000D01*
X167740826Y-75975000D01*
X167867993Y-75940925D01*
X167925000Y-75908012D01*
X167925000Y-76825000D01*
X168572828Y-76825000D01*
X168572844Y-76824999D01*
X168632372Y-76818598D01*
X168632379Y-76818596D01*
X168767086Y-76768354D01*
X168767093Y-76768350D01*
X168882187Y-76682190D01*
X168882190Y-76682187D01*
X168968350Y-76567093D01*
X168968354Y-76567086D01*
X169017422Y-76435529D01*
X169059293Y-76379595D01*
X169124757Y-76355178D01*
X169193030Y-76370030D01*
X169221285Y-76391181D01*
X169343599Y-76513495D01*
X169420135Y-76567086D01*
X169537165Y-76649032D01*
X169537167Y-76649033D01*
X169537170Y-76649035D01*
X169751337Y-76748903D01*
X169979592Y-76810063D01*
X170150319Y-76825000D01*
X170214999Y-76830659D01*
X170215000Y-76830659D01*
X170215001Y-76830659D01*
X170279681Y-76825000D01*
X170450408Y-76810063D01*
X170678663Y-76748903D01*
X170892830Y-76649035D01*
X171086401Y-76513495D01*
X171253495Y-76346401D01*
X171383425Y-76160842D01*
X171438002Y-76117217D01*
X171507500Y-76110023D01*
X171569855Y-76141546D01*
X171586575Y-76160842D01*
X171712988Y-76341379D01*
X171716505Y-76346401D01*
X171883599Y-76513495D01*
X171960135Y-76567086D01*
X172077165Y-76649032D01*
X172077167Y-76649033D01*
X172077170Y-76649035D01*
X172291337Y-76748903D01*
X172519592Y-76810063D01*
X172690319Y-76825000D01*
X172754999Y-76830659D01*
X172755000Y-76830659D01*
X172755001Y-76830659D01*
X172819681Y-76825000D01*
X172990408Y-76810063D01*
X173218663Y-76748903D01*
X173259596Y-76729815D01*
X173328671Y-76719323D01*
X173392455Y-76747841D01*
X173430696Y-76806317D01*
X173436000Y-76842197D01*
X173436000Y-79207802D01*
X173416315Y-79274841D01*
X173363511Y-79320596D01*
X173294353Y-79330540D01*
X173259595Y-79320184D01*
X173218663Y-79301097D01*
X173218659Y-79301096D01*
X173218655Y-79301094D01*
X172990413Y-79239938D01*
X172990403Y-79239936D01*
X172755001Y-79219341D01*
X172754999Y-79219341D01*
X172519596Y-79239936D01*
X172519586Y-79239938D01*
X172291344Y-79301094D01*
X172291335Y-79301098D01*
X172077171Y-79400964D01*
X172077169Y-79400965D01*
X171883597Y-79536505D01*
X171716505Y-79703597D01*
X171586575Y-79889158D01*
X171531998Y-79932783D01*
X171462500Y-79939977D01*
X171400145Y-79908454D01*
X171383425Y-79889158D01*
X171253494Y-79703597D01*
X171086402Y-79536506D01*
X171086395Y-79536501D01*
X171076846Y-79529815D01*
X170984680Y-79465279D01*
X170892834Y-79400967D01*
X170892830Y-79400965D01*
X170821727Y-79367809D01*
X170678663Y-79301097D01*
X170678659Y-79301096D01*
X170678655Y-79301094D01*
X170450413Y-79239938D01*
X170450403Y-79239936D01*
X170215001Y-79219341D01*
X170214999Y-79219341D01*
X169979596Y-79239936D01*
X169979586Y-79239938D01*
X169751344Y-79301094D01*
X169751335Y-79301098D01*
X169537171Y-79400964D01*
X169537169Y-79400965D01*
X169343600Y-79536503D01*
X169221284Y-79658819D01*
X169159961Y-79692303D01*
X169090269Y-79687319D01*
X169034336Y-79645447D01*
X169017421Y-79614470D01*
X168968354Y-79482913D01*
X168968350Y-79482906D01*
X168882190Y-79367812D01*
X168882187Y-79367809D01*
X168767093Y-79281649D01*
X168767086Y-79281645D01*
X168632379Y-79231403D01*
X168632372Y-79231401D01*
X168572844Y-79225000D01*
X167925000Y-79225000D01*
X167925000Y-80141988D01*
X167867993Y-80109075D01*
X167740826Y-80075000D01*
X167609174Y-80075000D01*
X167482007Y-80109075D01*
X167425000Y-80141988D01*
X167425000Y-79225000D01*
X166777155Y-79225000D01*
X166717627Y-79231401D01*
X166717620Y-79231403D01*
X166582913Y-79281645D01*
X166582906Y-79281649D01*
X166467812Y-79367809D01*
X166467809Y-79367812D01*
X166381649Y-79482906D01*
X166381645Y-79482913D01*
X166331403Y-79617620D01*
X166331401Y-79617627D01*
X166325000Y-79677155D01*
X166325000Y-80325000D01*
X167241988Y-80325000D01*
X167209075Y-80382007D01*
X167175000Y-80509174D01*
X167175000Y-80640826D01*
X167209075Y-80767993D01*
X167241988Y-80825000D01*
X166325000Y-80825000D01*
X166325000Y-81472844D01*
X166331401Y-81532372D01*
X166331403Y-81532379D01*
X166381645Y-81667086D01*
X166381649Y-81667093D01*
X166467809Y-81782187D01*
X166467812Y-81782190D01*
X166582906Y-81868350D01*
X166582913Y-81868354D01*
X166717620Y-81918596D01*
X166717627Y-81918598D01*
X166777155Y-81924999D01*
X166777172Y-81925000D01*
X167425000Y-81925000D01*
X167425000Y-81008012D01*
X167482007Y-81040925D01*
X167609174Y-81075000D01*
X167740826Y-81075000D01*
X167867993Y-81040925D01*
X167925000Y-81008012D01*
X167925000Y-81925000D01*
X168572828Y-81925000D01*
X168572844Y-81924999D01*
X168632372Y-81918598D01*
X168632379Y-81918596D01*
X168767086Y-81868354D01*
X168767093Y-81868350D01*
X168882187Y-81782190D01*
X168882190Y-81782187D01*
X168968350Y-81667093D01*
X168968354Y-81667086D01*
X169017422Y-81535529D01*
X169059293Y-81479595D01*
X169124757Y-81455178D01*
X169193030Y-81470030D01*
X169221285Y-81491181D01*
X169343599Y-81613495D01*
X169420135Y-81667086D01*
X169537165Y-81749032D01*
X169537167Y-81749033D01*
X169537170Y-81749035D01*
X169751337Y-81848903D01*
X169979592Y-81910063D01*
X170159337Y-81925789D01*
X170214999Y-81930659D01*
X170215000Y-81930659D01*
X170215001Y-81930659D01*
X170270663Y-81925789D01*
X170450408Y-81910063D01*
X170678663Y-81848903D01*
X170892830Y-81749035D01*
X171086401Y-81613495D01*
X171253495Y-81446401D01*
X171383425Y-81260842D01*
X171438002Y-81217217D01*
X171507500Y-81210023D01*
X171569855Y-81241546D01*
X171586575Y-81260842D01*
X171705488Y-81430668D01*
X171716505Y-81446401D01*
X171883599Y-81613495D01*
X171960135Y-81667086D01*
X172077165Y-81749032D01*
X172077167Y-81749033D01*
X172077170Y-81749035D01*
X172291337Y-81848903D01*
X172519592Y-81910063D01*
X172699337Y-81925789D01*
X172754999Y-81930659D01*
X172755000Y-81930659D01*
X172755001Y-81930659D01*
X172810663Y-81925789D01*
X172990408Y-81910063D01*
X173218663Y-81848903D01*
X173259596Y-81829815D01*
X173328671Y-81819323D01*
X173392455Y-81847841D01*
X173430696Y-81906317D01*
X173436000Y-81942197D01*
X173436000Y-84721144D01*
X173416315Y-84788183D01*
X173363511Y-84833938D01*
X173294353Y-84843882D01*
X173259597Y-84833527D01*
X173243665Y-84826098D01*
X173243655Y-84826094D01*
X173015413Y-84764938D01*
X173015403Y-84764936D01*
X172780001Y-84744341D01*
X172779999Y-84744341D01*
X172544596Y-84764936D01*
X172544586Y-84764938D01*
X172316344Y-84826094D01*
X172316335Y-84826098D01*
X172102171Y-84925964D01*
X172102169Y-84925965D01*
X171908597Y-85061505D01*
X171741505Y-85228597D01*
X171611575Y-85414158D01*
X171556998Y-85457783D01*
X171487500Y-85464977D01*
X171425145Y-85433454D01*
X171408425Y-85414158D01*
X171278494Y-85228597D01*
X171111402Y-85061506D01*
X171111395Y-85061501D01*
X171095648Y-85050475D01*
X171046375Y-85015973D01*
X170917834Y-84925967D01*
X170917830Y-84925965D01*
X170827900Y-84884030D01*
X170703663Y-84826097D01*
X170703659Y-84826096D01*
X170703655Y-84826094D01*
X170475413Y-84764938D01*
X170475403Y-84764936D01*
X170240001Y-84744341D01*
X170239999Y-84744341D01*
X170004596Y-84764936D01*
X170004586Y-84764938D01*
X169776344Y-84826094D01*
X169776335Y-84826098D01*
X169562171Y-84925964D01*
X169562169Y-84925965D01*
X169368600Y-85061503D01*
X169246284Y-85183819D01*
X169184961Y-85217303D01*
X169115269Y-85212319D01*
X169059336Y-85170447D01*
X169042421Y-85139470D01*
X168993354Y-85007913D01*
X168993350Y-85007906D01*
X168907190Y-84892812D01*
X168907187Y-84892809D01*
X168792093Y-84806649D01*
X168792086Y-84806645D01*
X168657379Y-84756403D01*
X168657372Y-84756401D01*
X168597844Y-84750000D01*
X167950000Y-84750000D01*
X167950000Y-85666988D01*
X167892993Y-85634075D01*
X167765826Y-85600000D01*
X167634174Y-85600000D01*
X167507007Y-85634075D01*
X167450000Y-85666988D01*
X167450000Y-84750000D01*
X166802155Y-84750000D01*
X166742627Y-84756401D01*
X166742620Y-84756403D01*
X166607913Y-84806645D01*
X166607906Y-84806649D01*
X166492812Y-84892809D01*
X166492809Y-84892812D01*
X166406649Y-85007906D01*
X166406645Y-85007913D01*
X166356403Y-85142620D01*
X166356401Y-85142627D01*
X166350000Y-85202155D01*
X166350000Y-85850000D01*
X167266988Y-85850000D01*
X167234075Y-85907007D01*
X167200000Y-86034174D01*
X167200000Y-86165826D01*
X167234075Y-86292993D01*
X167266988Y-86350000D01*
X166350000Y-86350000D01*
X166350000Y-86997844D01*
X166356401Y-87057372D01*
X166356403Y-87057379D01*
X166406645Y-87192086D01*
X166406649Y-87192093D01*
X166492809Y-87307187D01*
X166492812Y-87307190D01*
X166607906Y-87393350D01*
X166607913Y-87393354D01*
X166742620Y-87443596D01*
X166742627Y-87443598D01*
X166802155Y-87449999D01*
X166802172Y-87450000D01*
X167450000Y-87450000D01*
X167450000Y-86533012D01*
X167507007Y-86565925D01*
X167634174Y-86600000D01*
X167765826Y-86600000D01*
X167892993Y-86565925D01*
X167950000Y-86533012D01*
X167950000Y-87450000D01*
X168597828Y-87450000D01*
X168597844Y-87449999D01*
X168657372Y-87443598D01*
X168657379Y-87443596D01*
X168792086Y-87393354D01*
X168792093Y-87393350D01*
X168907187Y-87307190D01*
X168907190Y-87307187D01*
X168993350Y-87192093D01*
X168993354Y-87192086D01*
X169042422Y-87060529D01*
X169084293Y-87004595D01*
X169149757Y-86980178D01*
X169218030Y-86995030D01*
X169246285Y-87016181D01*
X169368599Y-87138495D01*
X169384349Y-87149523D01*
X169562165Y-87274032D01*
X169562167Y-87274033D01*
X169562170Y-87274035D01*
X169776337Y-87373903D01*
X170004592Y-87435063D01*
X170175319Y-87450000D01*
X170239999Y-87455659D01*
X170240000Y-87455659D01*
X170240001Y-87455659D01*
X170304681Y-87450000D01*
X170475408Y-87435063D01*
X170703663Y-87373903D01*
X170917830Y-87274035D01*
X171111401Y-87138495D01*
X171278495Y-86971401D01*
X171408425Y-86785842D01*
X171463002Y-86742217D01*
X171532500Y-86735023D01*
X171594855Y-86766546D01*
X171611575Y-86785842D01*
X171740652Y-86970184D01*
X171741505Y-86971401D01*
X171908599Y-87138495D01*
X171924349Y-87149523D01*
X172102165Y-87274032D01*
X172102167Y-87274033D01*
X172102170Y-87274035D01*
X172316337Y-87373903D01*
X172544592Y-87435063D01*
X172715319Y-87450000D01*
X172779999Y-87455659D01*
X172780000Y-87455659D01*
X172780001Y-87455659D01*
X172844681Y-87450000D01*
X173015408Y-87435063D01*
X173243663Y-87373903D01*
X173259595Y-87366473D01*
X173328670Y-87355981D01*
X173392454Y-87384499D01*
X173430695Y-87442975D01*
X173436000Y-87478855D01*
X173436000Y-90207802D01*
X173416315Y-90274841D01*
X173363511Y-90320596D01*
X173294353Y-90330540D01*
X173259595Y-90320184D01*
X173218663Y-90301097D01*
X173218659Y-90301096D01*
X173218655Y-90301094D01*
X172990413Y-90239938D01*
X172990403Y-90239936D01*
X172755001Y-90219341D01*
X172754999Y-90219341D01*
X172519596Y-90239936D01*
X172519586Y-90239938D01*
X172291344Y-90301094D01*
X172291335Y-90301098D01*
X172077171Y-90400964D01*
X172077169Y-90400965D01*
X171883597Y-90536505D01*
X171716505Y-90703597D01*
X171586575Y-90889158D01*
X171531998Y-90932783D01*
X171462500Y-90939977D01*
X171400145Y-90908454D01*
X171383425Y-90889158D01*
X171253494Y-90703597D01*
X171086402Y-90536506D01*
X171086395Y-90536501D01*
X170892834Y-90400967D01*
X170892830Y-90400965D01*
X170821727Y-90367809D01*
X170678663Y-90301097D01*
X170678659Y-90301096D01*
X170678655Y-90301094D01*
X170450413Y-90239938D01*
X170450403Y-90239936D01*
X170215001Y-90219341D01*
X170214999Y-90219341D01*
X169979596Y-90239936D01*
X169979586Y-90239938D01*
X169751344Y-90301094D01*
X169751335Y-90301098D01*
X169537171Y-90400964D01*
X169537169Y-90400965D01*
X169343600Y-90536503D01*
X169221284Y-90658819D01*
X169159961Y-90692303D01*
X169090269Y-90687319D01*
X169034336Y-90645447D01*
X169017421Y-90614470D01*
X168968354Y-90482913D01*
X168968350Y-90482906D01*
X168882190Y-90367812D01*
X168882187Y-90367809D01*
X168767093Y-90281649D01*
X168767086Y-90281645D01*
X168632379Y-90231403D01*
X168632372Y-90231401D01*
X168572844Y-90225000D01*
X167925000Y-90225000D01*
X167925000Y-91141988D01*
X167867993Y-91109075D01*
X167740826Y-91075000D01*
X167609174Y-91075000D01*
X167482007Y-91109075D01*
X167425000Y-91141988D01*
X167425000Y-90225000D01*
X166777155Y-90225000D01*
X166717627Y-90231401D01*
X166717620Y-90231403D01*
X166582913Y-90281645D01*
X166582906Y-90281649D01*
X166467812Y-90367809D01*
X166467809Y-90367812D01*
X166381649Y-90482906D01*
X166381645Y-90482913D01*
X166331403Y-90617620D01*
X166331401Y-90617627D01*
X166325000Y-90677155D01*
X166325000Y-91325000D01*
X167241988Y-91325000D01*
X167209075Y-91382007D01*
X167175000Y-91509174D01*
X167175000Y-91640826D01*
X167209075Y-91767993D01*
X167241988Y-91825000D01*
X166325000Y-91825000D01*
X166325000Y-92472844D01*
X166331401Y-92532372D01*
X166331403Y-92532379D01*
X166381645Y-92667086D01*
X166381649Y-92667093D01*
X166467809Y-92782187D01*
X166467812Y-92782190D01*
X166582906Y-92868350D01*
X166582913Y-92868354D01*
X166717620Y-92918596D01*
X166717627Y-92918598D01*
X166777155Y-92924999D01*
X166777172Y-92925000D01*
X167425000Y-92925000D01*
X167425000Y-92008012D01*
X167482007Y-92040925D01*
X167609174Y-92075000D01*
X167740826Y-92075000D01*
X167867993Y-92040925D01*
X167925000Y-92008012D01*
X167925000Y-92925000D01*
X168572828Y-92925000D01*
X168572844Y-92924999D01*
X168632372Y-92918598D01*
X168632379Y-92918596D01*
X168767086Y-92868354D01*
X168767093Y-92868350D01*
X168882187Y-92782190D01*
X168882190Y-92782187D01*
X168968350Y-92667093D01*
X168968354Y-92667086D01*
X169017422Y-92535529D01*
X169059293Y-92479595D01*
X169124757Y-92455178D01*
X169193030Y-92470030D01*
X169221285Y-92491181D01*
X169343599Y-92613495D01*
X169396416Y-92650478D01*
X169537165Y-92749032D01*
X169537167Y-92749033D01*
X169537170Y-92749035D01*
X169751337Y-92848903D01*
X169751343Y-92848904D01*
X169751344Y-92848905D01*
X169806285Y-92863626D01*
X169979592Y-92910063D01*
X170150319Y-92925000D01*
X170214999Y-92930659D01*
X170215000Y-92930659D01*
X170215001Y-92930659D01*
X170279681Y-92925000D01*
X170450408Y-92910063D01*
X170678663Y-92848903D01*
X170892830Y-92749035D01*
X171086401Y-92613495D01*
X171253495Y-92446401D01*
X171383425Y-92260842D01*
X171438002Y-92217217D01*
X171507500Y-92210023D01*
X171569855Y-92241546D01*
X171586575Y-92260842D01*
X171669488Y-92379255D01*
X171716505Y-92446401D01*
X171883599Y-92613495D01*
X171936416Y-92650478D01*
X172077165Y-92749032D01*
X172077167Y-92749033D01*
X172077170Y-92749035D01*
X172291337Y-92848903D01*
X172291343Y-92848904D01*
X172291344Y-92848905D01*
X172346285Y-92863626D01*
X172519592Y-92910063D01*
X172690319Y-92925000D01*
X172754999Y-92930659D01*
X172755000Y-92930659D01*
X172755001Y-92930659D01*
X172819681Y-92925000D01*
X172990408Y-92910063D01*
X173218663Y-92848903D01*
X173259596Y-92829815D01*
X173328671Y-92819323D01*
X173392455Y-92847841D01*
X173430696Y-92906317D01*
X173436000Y-92942197D01*
X173436000Y-95712000D01*
X173416315Y-95779039D01*
X173363511Y-95824794D01*
X173312000Y-95836000D01*
X165414301Y-95836000D01*
X165347262Y-95816315D01*
X165301507Y-95763511D01*
X165291563Y-95694353D01*
X165306912Y-95650002D01*
X165325565Y-95617696D01*
X165364000Y-95474252D01*
X165364000Y-71234977D01*
X165383685Y-71167938D01*
X165400314Y-71147301D01*
X171608025Y-64939589D01*
X171669346Y-64906106D01*
X171735965Y-64909990D01*
X171822187Y-64939591D01*
X171880385Y-64959571D01*
X172125665Y-65000500D01*
X172374335Y-65000500D01*
X172619614Y-64959571D01*
X172854810Y-64878828D01*
X173073509Y-64760474D01*
X173235839Y-64634127D01*
X173300832Y-64608485D01*
X173369371Y-64622051D01*
G37*
%TD.AperFunction*%
%TA.AperFunction,Conductor*%
G36*
X118559703Y-76057765D02*
G01*
X118566181Y-76063797D01*
X123252517Y-80750133D01*
X123286002Y-80811456D01*
X123281018Y-80881148D01*
X123239146Y-80937081D01*
X123205791Y-80954855D01*
X123150480Y-80974209D01*
X122997737Y-81070184D01*
X122870184Y-81197737D01*
X122774211Y-81350476D01*
X122714631Y-81520745D01*
X122714630Y-81520750D01*
X122694435Y-81699996D01*
X122694435Y-81700003D01*
X122714630Y-81879249D01*
X122714631Y-81879254D01*
X122774211Y-82049523D01*
X122837646Y-82150478D01*
X122870184Y-82202262D01*
X122997738Y-82329816D01*
X123068392Y-82374211D01*
X123142450Y-82420745D01*
X123150478Y-82425789D01*
X123277352Y-82470184D01*
X123320745Y-82485368D01*
X123320749Y-82485369D01*
X123421616Y-82496733D01*
X123465841Y-82501716D01*
X123530255Y-82528782D01*
X123539639Y-82537255D01*
X125226703Y-84224319D01*
X125260188Y-84285642D01*
X125255204Y-84355334D01*
X125213332Y-84411267D01*
X125147868Y-84435684D01*
X125139022Y-84436000D01*
X123419440Y-84436000D01*
X123352401Y-84416315D01*
X123331759Y-84399681D01*
X123302262Y-84370184D01*
X123149523Y-84274211D01*
X122979254Y-84214631D01*
X122979249Y-84214630D01*
X122800004Y-84194435D01*
X122799996Y-84194435D01*
X122620750Y-84214630D01*
X122620745Y-84214631D01*
X122450476Y-84274211D01*
X122297737Y-84370184D01*
X122170184Y-84497737D01*
X122074211Y-84650476D01*
X122014631Y-84820745D01*
X122014630Y-84820750D01*
X121994435Y-84999996D01*
X121994435Y-85006963D01*
X121992671Y-85006963D01*
X121982174Y-85066928D01*
X121934829Y-85118312D01*
X121871003Y-85136000D01*
X121684979Y-85136000D01*
X121617940Y-85116315D01*
X121597298Y-85099681D01*
X119837255Y-83339638D01*
X119803770Y-83278315D01*
X119801716Y-83265840D01*
X119785369Y-83120750D01*
X119785368Y-83120745D01*
X119725789Y-82950478D01*
X119725188Y-82949522D01*
X119629815Y-82797737D01*
X119502262Y-82670184D01*
X119349523Y-82574211D01*
X119179254Y-82514631D01*
X119179249Y-82514630D01*
X119000004Y-82494435D01*
X118999996Y-82494435D01*
X118820750Y-82514630D01*
X118820745Y-82514631D01*
X118650476Y-82574211D01*
X118544472Y-82640819D01*
X118477235Y-82659819D01*
X118410400Y-82639451D01*
X118365186Y-82586184D01*
X118354500Y-82535825D01*
X118354500Y-76151478D01*
X118374185Y-76084439D01*
X118426989Y-76038684D01*
X118496147Y-76028740D01*
X118559703Y-76057765D01*
G37*
%TD.AperFunction*%
%TA.AperFunction,Conductor*%
G36*
X125320086Y-75862483D02*
G01*
X125325748Y-75864000D01*
X127566313Y-75864000D01*
X127633352Y-75883685D01*
X127679107Y-75936489D01*
X127690313Y-75988000D01*
X127690313Y-77329337D01*
X127670628Y-77396376D01*
X127653994Y-77417018D01*
X127624497Y-77446514D01*
X127528524Y-77599253D01*
X127468944Y-77769522D01*
X127468943Y-77769527D01*
X127448748Y-77948773D01*
X127448748Y-77948780D01*
X127468943Y-78128026D01*
X127468946Y-78128039D01*
X127521595Y-78278499D01*
X127525157Y-78348278D01*
X127490429Y-78408905D01*
X127470526Y-78424448D01*
X127401670Y-78467713D01*
X127334433Y-78486713D01*
X127267598Y-78466345D01*
X127248017Y-78450400D01*
X125200319Y-76402702D01*
X125166834Y-76341379D01*
X125164000Y-76315021D01*
X125164000Y-75982259D01*
X125183685Y-75915220D01*
X125236489Y-75869465D01*
X125305647Y-75859521D01*
X125320086Y-75862483D01*
G37*
%TD.AperFunction*%
%TA.AperFunction,Conductor*%
G36*
X108499681Y-61896128D02*
G01*
X108533166Y-61957451D01*
X108536000Y-61983809D01*
X108536000Y-62363708D01*
X108516315Y-62430747D01*
X108463511Y-62476502D01*
X108394353Y-62486446D01*
X108330797Y-62457421D01*
X108320771Y-62447692D01*
X108269742Y-62392260D01*
X108168623Y-62313556D01*
X108127810Y-62256846D01*
X108123697Y-62227249D01*
X107379409Y-61482962D01*
X107442993Y-61465925D01*
X107557007Y-61400099D01*
X107650099Y-61307007D01*
X107715925Y-61192993D01*
X107732962Y-61129410D01*
X108499681Y-61896128D01*
G37*
%TD.AperFunction*%
%TA.AperFunction,Conductor*%
G36*
X175210539Y-36588185D02*
G01*
X175256294Y-36640989D01*
X175267500Y-36692500D01*
X175267500Y-106199500D01*
X175247815Y-106266539D01*
X175195011Y-106312294D01*
X175143500Y-106323500D01*
X130961783Y-106323500D01*
X130894744Y-106303815D01*
X130848989Y-106251011D01*
X130839045Y-106181853D01*
X130868070Y-106118297D01*
X130892892Y-106096398D01*
X130905589Y-106087913D01*
X130905593Y-106087910D01*
X131037910Y-105955593D01*
X131037913Y-105955589D01*
X131141875Y-105800000D01*
X131141880Y-105799991D01*
X131213491Y-105627105D01*
X131213493Y-105627097D01*
X131249999Y-105443571D01*
X131250000Y-105443569D01*
X131250000Y-105250000D01*
X130550000Y-105250000D01*
X130550000Y-104750000D01*
X131250000Y-104750000D01*
X131250000Y-104556430D01*
X131249999Y-104556428D01*
X131213493Y-104372902D01*
X131213491Y-104372894D01*
X131141880Y-104200008D01*
X131141875Y-104199999D01*
X131037913Y-104044410D01*
X131037910Y-104044406D01*
X130905593Y-103912089D01*
X130905589Y-103912086D01*
X130808878Y-103847465D01*
X138094200Y-103847465D01*
X138094200Y-103984534D01*
X138120937Y-104118949D01*
X138120940Y-104118961D01*
X138173386Y-104245578D01*
X138173393Y-104245591D01*
X138249536Y-104359546D01*
X138249539Y-104359550D01*
X138346449Y-104456460D01*
X138346453Y-104456463D01*
X138460408Y-104532606D01*
X138460421Y-104532613D01*
X138573026Y-104579255D01*
X138587043Y-104585061D01*
X138721465Y-104611799D01*
X138721469Y-104611800D01*
X138721470Y-104611800D01*
X138858531Y-104611800D01*
X138858532Y-104611799D01*
X138992957Y-104585061D01*
X139119585Y-104532610D01*
X139233547Y-104456463D01*
X139330463Y-104359547D01*
X139406610Y-104245585D01*
X139459061Y-104118957D01*
X139485800Y-103984530D01*
X139485800Y-103847470D01*
X139459061Y-103713043D01*
X139459059Y-103713038D01*
X139406613Y-103586421D01*
X139406606Y-103586408D01*
X139330463Y-103472453D01*
X139330460Y-103472449D01*
X139233550Y-103375539D01*
X139233546Y-103375536D01*
X139119591Y-103299393D01*
X139119578Y-103299386D01*
X138992961Y-103246940D01*
X138992949Y-103246937D01*
X138858534Y-103220200D01*
X138858530Y-103220200D01*
X138721470Y-103220200D01*
X138721465Y-103220200D01*
X138587050Y-103246937D01*
X138587038Y-103246940D01*
X138460421Y-103299386D01*
X138460408Y-103299393D01*
X138346453Y-103375536D01*
X138346449Y-103375539D01*
X138249539Y-103472449D01*
X138249536Y-103472453D01*
X138173393Y-103586408D01*
X138173386Y-103586421D01*
X138120940Y-103713038D01*
X138120937Y-103713050D01*
X138094200Y-103847465D01*
X130808878Y-103847465D01*
X130750000Y-103808124D01*
X130749991Y-103808119D01*
X130577103Y-103736507D01*
X130577100Y-103736506D01*
X130550000Y-103731115D01*
X130550000Y-104600272D01*
X130511940Y-104508386D01*
X130441614Y-104438060D01*
X130349728Y-104400000D01*
X130250272Y-104400000D01*
X130158386Y-104438060D01*
X130088060Y-104508386D01*
X130050000Y-104600272D01*
X130050000Y-103731116D01*
X130049999Y-103731115D01*
X130022899Y-103736506D01*
X130022896Y-103736507D01*
X129850008Y-103808119D01*
X129849999Y-103808124D01*
X129694410Y-103912086D01*
X129694406Y-103912089D01*
X129562089Y-104044406D01*
X129562086Y-104044410D01*
X129458124Y-104199999D01*
X129458119Y-104200008D01*
X129386508Y-104372894D01*
X129386506Y-104372902D01*
X129350000Y-104556428D01*
X129350000Y-104750000D01*
X130050000Y-104750000D01*
X130050000Y-105250000D01*
X129350000Y-105250000D01*
X129350000Y-105443571D01*
X129386506Y-105627097D01*
X129386508Y-105627105D01*
X129458119Y-105799991D01*
X129458124Y-105800000D01*
X129562086Y-105955589D01*
X129562089Y-105955593D01*
X129694406Y-106087910D01*
X129694410Y-106087913D01*
X129707108Y-106096398D01*
X129751913Y-106150011D01*
X129760620Y-106219336D01*
X129730465Y-106282363D01*
X129671022Y-106319082D01*
X129638217Y-106323500D01*
X124361783Y-106323500D01*
X124294744Y-106303815D01*
X124248989Y-106251011D01*
X124239045Y-106181853D01*
X124268070Y-106118297D01*
X124292892Y-106096398D01*
X124305589Y-106087913D01*
X124305593Y-106087910D01*
X124437910Y-105955593D01*
X124437913Y-105955589D01*
X124541875Y-105800000D01*
X124541880Y-105799991D01*
X124613491Y-105627105D01*
X124613493Y-105627097D01*
X124649999Y-105443571D01*
X124650000Y-105443569D01*
X124650000Y-105250000D01*
X123950000Y-105250000D01*
X123950000Y-104750000D01*
X124650000Y-104750000D01*
X124650000Y-104556430D01*
X124649999Y-104556428D01*
X124613493Y-104372902D01*
X124613491Y-104372894D01*
X124541880Y-104200008D01*
X124541875Y-104199999D01*
X124437913Y-104044410D01*
X124437910Y-104044406D01*
X124305593Y-103912089D01*
X124305589Y-103912086D01*
X124150000Y-103808124D01*
X124149991Y-103808119D01*
X123977103Y-103736507D01*
X123977100Y-103736506D01*
X123950000Y-103731115D01*
X123950000Y-104600272D01*
X123911940Y-104508386D01*
X123841614Y-104438060D01*
X123749728Y-104400000D01*
X123650272Y-104400000D01*
X123558386Y-104438060D01*
X123488060Y-104508386D01*
X123450000Y-104600272D01*
X123450000Y-103731116D01*
X123449999Y-103731115D01*
X123422899Y-103736506D01*
X123422896Y-103736507D01*
X123250008Y-103808119D01*
X123249999Y-103808124D01*
X123094410Y-103912086D01*
X123094406Y-103912089D01*
X122962089Y-104044406D01*
X122962086Y-104044410D01*
X122858124Y-104199999D01*
X122858119Y-104200008D01*
X122786508Y-104372894D01*
X122786506Y-104372902D01*
X122750000Y-104556428D01*
X122750000Y-104750000D01*
X123450000Y-104750000D01*
X123450000Y-105250000D01*
X122750000Y-105250000D01*
X122750000Y-105443571D01*
X122786506Y-105627097D01*
X122786508Y-105627105D01*
X122858119Y-105799991D01*
X122858124Y-105800000D01*
X122962086Y-105955589D01*
X122962089Y-105955593D01*
X123094406Y-106087910D01*
X123094410Y-106087913D01*
X123107108Y-106096398D01*
X123151913Y-106150011D01*
X123160620Y-106219336D01*
X123130465Y-106282363D01*
X123071022Y-106319082D01*
X123038217Y-106323500D01*
X90794500Y-106323500D01*
X90727461Y-106303815D01*
X90681706Y-106251011D01*
X90670500Y-106199500D01*
X90670500Y-100345946D01*
X96649500Y-100345946D01*
X96649500Y-100654053D01*
X96649501Y-100654069D01*
X96689717Y-100959542D01*
X96769464Y-101257162D01*
X96887376Y-101541826D01*
X96887381Y-101541837D01*
X96980014Y-101702280D01*
X97041438Y-101808670D01*
X97041440Y-101808673D01*
X97041441Y-101808674D01*
X97229007Y-102053115D01*
X97229013Y-102053122D01*
X97446877Y-102270986D01*
X97446884Y-102270992D01*
X97514205Y-102322649D01*
X97691330Y-102458562D01*
X97855004Y-102553059D01*
X97958162Y-102612618D01*
X97958167Y-102612620D01*
X97958170Y-102612622D01*
X98242836Y-102730535D01*
X98540456Y-102810282D01*
X98845940Y-102850500D01*
X98845947Y-102850500D01*
X99154053Y-102850500D01*
X99154060Y-102850500D01*
X99298644Y-102831465D01*
X145714200Y-102831465D01*
X145714200Y-102968534D01*
X145740937Y-103102949D01*
X145740940Y-103102961D01*
X145793386Y-103229578D01*
X145793393Y-103229591D01*
X145869536Y-103343546D01*
X145869539Y-103343550D01*
X145966449Y-103440460D01*
X145966453Y-103440463D01*
X146080408Y-103516606D01*
X146080421Y-103516613D01*
X146207038Y-103569059D01*
X146207043Y-103569061D01*
X146341465Y-103595799D01*
X146341469Y-103595800D01*
X146341470Y-103595800D01*
X146478531Y-103595800D01*
X146478532Y-103595799D01*
X146612957Y-103569061D01*
X146739585Y-103516610D01*
X146853547Y-103440463D01*
X146950463Y-103343547D01*
X147026610Y-103229585D01*
X147079061Y-103102957D01*
X147105800Y-102968530D01*
X147105800Y-102831470D01*
X147079061Y-102697043D01*
X147051215Y-102629816D01*
X147026613Y-102570421D01*
X147026606Y-102570408D01*
X146950463Y-102456453D01*
X146950460Y-102456449D01*
X146853550Y-102359539D01*
X146853546Y-102359536D01*
X146739591Y-102283393D01*
X146739578Y-102283386D01*
X146612961Y-102230940D01*
X146612949Y-102230937D01*
X146478534Y-102204200D01*
X146478530Y-102204200D01*
X146341470Y-102204200D01*
X146341465Y-102204200D01*
X146207050Y-102230937D01*
X146207038Y-102230940D01*
X146080421Y-102283386D01*
X146080408Y-102283393D01*
X145966453Y-102359536D01*
X145966449Y-102359539D01*
X145869539Y-102456449D01*
X145869536Y-102456453D01*
X145793393Y-102570408D01*
X145793386Y-102570421D01*
X145740940Y-102697038D01*
X145740937Y-102697050D01*
X145714200Y-102831465D01*
X99298644Y-102831465D01*
X99459544Y-102810282D01*
X99757164Y-102730535D01*
X100041830Y-102612622D01*
X100308670Y-102458562D01*
X100553117Y-102270991D01*
X100770991Y-102053117D01*
X100953348Y-101815465D01*
X138094200Y-101815465D01*
X138094200Y-101952534D01*
X138120937Y-102086949D01*
X138120940Y-102086961D01*
X138173386Y-102213578D01*
X138173393Y-102213591D01*
X138249536Y-102327546D01*
X138249539Y-102327550D01*
X138346449Y-102424460D01*
X138346453Y-102424463D01*
X138460408Y-102500606D01*
X138460421Y-102500613D01*
X138587038Y-102553059D01*
X138587043Y-102553061D01*
X138718700Y-102579249D01*
X138721465Y-102579799D01*
X138721469Y-102579800D01*
X138721470Y-102579800D01*
X138858531Y-102579800D01*
X138858532Y-102579799D01*
X138992957Y-102553061D01*
X139119585Y-102500610D01*
X139233547Y-102424463D01*
X139330463Y-102327547D01*
X139406610Y-102213585D01*
X139459061Y-102086957D01*
X139485800Y-101952530D01*
X139485800Y-101815470D01*
X139459061Y-101681043D01*
X139456231Y-101674211D01*
X139406613Y-101554421D01*
X139406606Y-101554408D01*
X139330463Y-101440453D01*
X139330460Y-101440449D01*
X139233550Y-101343539D01*
X139233546Y-101343536D01*
X139119591Y-101267393D01*
X139119578Y-101267386D01*
X138992961Y-101214940D01*
X138992949Y-101214937D01*
X138858534Y-101188200D01*
X138858530Y-101188200D01*
X138721470Y-101188200D01*
X138721465Y-101188200D01*
X138587050Y-101214937D01*
X138587038Y-101214940D01*
X138460421Y-101267386D01*
X138460408Y-101267393D01*
X138346453Y-101343536D01*
X138346449Y-101343539D01*
X138249539Y-101440449D01*
X138249536Y-101440453D01*
X138173393Y-101554408D01*
X138173386Y-101554421D01*
X138120940Y-101681038D01*
X138120937Y-101681050D01*
X138094200Y-101815465D01*
X100953348Y-101815465D01*
X100958562Y-101808670D01*
X101112622Y-101541830D01*
X101230535Y-101257164D01*
X101310282Y-100959544D01*
X101350500Y-100654060D01*
X101350500Y-100345940D01*
X101310282Y-100040456D01*
X101230535Y-99742836D01*
X101112622Y-99458170D01*
X101112620Y-99458167D01*
X101112618Y-99458162D01*
X101056877Y-99361616D01*
X100958562Y-99191330D01*
X100845777Y-99044346D01*
X100770992Y-98946884D01*
X100770986Y-98946877D01*
X100553122Y-98729013D01*
X100553115Y-98729007D01*
X100308674Y-98541441D01*
X100308673Y-98541440D01*
X100308670Y-98541438D01*
X100202280Y-98480014D01*
X100041837Y-98387381D01*
X100041826Y-98387376D01*
X99757162Y-98269464D01*
X99459542Y-98189717D01*
X99154069Y-98149501D01*
X99154066Y-98149500D01*
X99154060Y-98149500D01*
X98845940Y-98149500D01*
X98845934Y-98149500D01*
X98845930Y-98149501D01*
X98540457Y-98189717D01*
X98242837Y-98269464D01*
X97958173Y-98387376D01*
X97958162Y-98387381D01*
X97691325Y-98541441D01*
X97446884Y-98729007D01*
X97446877Y-98729013D01*
X97229013Y-98946877D01*
X97229007Y-98946884D01*
X97041441Y-99191325D01*
X96887381Y-99458162D01*
X96887376Y-99458173D01*
X96769464Y-99742837D01*
X96689717Y-100040457D01*
X96649501Y-100345930D01*
X96649500Y-100345946D01*
X90670500Y-100345946D01*
X90670500Y-92999999D01*
X92064341Y-92999999D01*
X92064341Y-93000000D01*
X92084936Y-93235403D01*
X92084938Y-93235413D01*
X92146094Y-93463655D01*
X92146096Y-93463659D01*
X92146097Y-93463663D01*
X92186579Y-93550476D01*
X92245965Y-93677830D01*
X92245967Y-93677834D01*
X92313453Y-93774213D01*
X92381505Y-93871401D01*
X92548599Y-94038495D01*
X92645384Y-94106265D01*
X92742165Y-94174032D01*
X92742167Y-94174033D01*
X92742170Y-94174035D01*
X92956337Y-94273903D01*
X93184592Y-94335063D01*
X93361034Y-94350500D01*
X93419999Y-94355659D01*
X93420000Y-94355659D01*
X93420001Y-94355659D01*
X93478966Y-94350500D01*
X93655408Y-94335063D01*
X93883663Y-94273903D01*
X94097830Y-94174035D01*
X94291401Y-94038495D01*
X94458495Y-93871401D01*
X94588425Y-93685842D01*
X94643002Y-93642217D01*
X94712500Y-93635023D01*
X94774855Y-93666546D01*
X94791575Y-93685842D01*
X94921500Y-93871395D01*
X94921505Y-93871401D01*
X95088599Y-94038495D01*
X95185384Y-94106265D01*
X95282165Y-94174032D01*
X95282167Y-94174033D01*
X95282170Y-94174035D01*
X95496337Y-94273903D01*
X95724592Y-94335063D01*
X95901034Y-94350500D01*
X95959999Y-94355659D01*
X95960000Y-94355659D01*
X95960001Y-94355659D01*
X96018966Y-94350500D01*
X96195408Y-94335063D01*
X96423663Y-94273903D01*
X96637830Y-94174035D01*
X96831401Y-94038495D01*
X96998495Y-93871401D01*
X97128425Y-93685842D01*
X97183002Y-93642217D01*
X97252500Y-93635023D01*
X97314855Y-93666546D01*
X97331575Y-93685842D01*
X97461500Y-93871395D01*
X97461505Y-93871401D01*
X97628599Y-94038495D01*
X97725384Y-94106265D01*
X97822165Y-94174032D01*
X97822167Y-94174033D01*
X97822170Y-94174035D01*
X98036337Y-94273903D01*
X98264592Y-94335063D01*
X98441034Y-94350500D01*
X98499999Y-94355659D01*
X98500000Y-94355659D01*
X98500001Y-94355659D01*
X98558966Y-94350500D01*
X98735408Y-94335063D01*
X98963663Y-94273903D01*
X99177830Y-94174035D01*
X99371401Y-94038495D01*
X99538495Y-93871401D01*
X99668425Y-93685842D01*
X99723002Y-93642217D01*
X99792500Y-93635023D01*
X99854855Y-93666546D01*
X99871575Y-93685842D01*
X100001500Y-93871395D01*
X100001505Y-93871401D01*
X100168599Y-94038495D01*
X100265384Y-94106265D01*
X100362165Y-94174032D01*
X100362167Y-94174033D01*
X100362170Y-94174035D01*
X100576337Y-94273903D01*
X100804592Y-94335063D01*
X100981034Y-94350500D01*
X101039999Y-94355659D01*
X101040000Y-94355659D01*
X101040001Y-94355659D01*
X101098966Y-94350500D01*
X101275408Y-94335063D01*
X101503663Y-94273903D01*
X101717830Y-94174035D01*
X101911401Y-94038495D01*
X102078495Y-93871401D01*
X102208425Y-93685842D01*
X102263002Y-93642217D01*
X102332500Y-93635023D01*
X102394855Y-93666546D01*
X102411575Y-93685842D01*
X102541500Y-93871395D01*
X102541505Y-93871401D01*
X102708599Y-94038495D01*
X102805384Y-94106265D01*
X102902165Y-94174032D01*
X102902167Y-94174033D01*
X102902170Y-94174035D01*
X103116337Y-94273903D01*
X103344592Y-94335063D01*
X103521034Y-94350500D01*
X103579999Y-94355659D01*
X103580000Y-94355659D01*
X103580001Y-94355659D01*
X103638966Y-94350500D01*
X103815408Y-94335063D01*
X104043663Y-94273903D01*
X104257830Y-94174035D01*
X104451401Y-94038495D01*
X104618495Y-93871401D01*
X104748425Y-93685842D01*
X104803002Y-93642217D01*
X104872500Y-93635023D01*
X104934855Y-93666546D01*
X104951575Y-93685842D01*
X105081500Y-93871395D01*
X105081505Y-93871401D01*
X105248599Y-94038495D01*
X105345384Y-94106265D01*
X105442165Y-94174032D01*
X105442167Y-94174033D01*
X105442170Y-94174035D01*
X105656337Y-94273903D01*
X105884592Y-94335063D01*
X106061034Y-94350500D01*
X106119999Y-94355659D01*
X106120000Y-94355659D01*
X106120001Y-94355659D01*
X106178966Y-94350500D01*
X106355408Y-94335063D01*
X106583663Y-94273903D01*
X106797830Y-94174035D01*
X106991401Y-94038495D01*
X107158495Y-93871401D01*
X107288425Y-93685842D01*
X107343002Y-93642217D01*
X107412500Y-93635023D01*
X107474855Y-93666546D01*
X107491575Y-93685842D01*
X107621500Y-93871395D01*
X107621505Y-93871401D01*
X107788599Y-94038495D01*
X107885384Y-94106265D01*
X107982165Y-94174032D01*
X107982167Y-94174033D01*
X107982170Y-94174035D01*
X108196337Y-94273903D01*
X108424592Y-94335063D01*
X108601034Y-94350500D01*
X108659999Y-94355659D01*
X108660000Y-94355659D01*
X108660001Y-94355659D01*
X108718966Y-94350500D01*
X108895408Y-94335063D01*
X109123663Y-94273903D01*
X109337830Y-94174035D01*
X109531401Y-94038495D01*
X109653329Y-93916566D01*
X109714648Y-93883084D01*
X109784340Y-93888068D01*
X109840274Y-93929939D01*
X109857189Y-93960917D01*
X109906202Y-94092328D01*
X109906206Y-94092335D01*
X109992452Y-94207544D01*
X109992455Y-94207547D01*
X110107664Y-94293793D01*
X110107671Y-94293797D01*
X110242517Y-94344091D01*
X110242516Y-94344091D01*
X110249444Y-94344835D01*
X110302127Y-94350500D01*
X112097872Y-94350499D01*
X112157483Y-94344091D01*
X112292331Y-94293796D01*
X112407546Y-94207546D01*
X112493796Y-94092331D01*
X112544091Y-93957483D01*
X112550500Y-93897873D01*
X112550499Y-92847476D01*
X112570183Y-92780438D01*
X112622987Y-92734683D01*
X112692146Y-92724739D01*
X112755702Y-92753764D01*
X112762180Y-92759796D01*
X114344346Y-94341962D01*
X114344356Y-94341973D01*
X114453697Y-94451314D01*
X114475142Y-94463695D01*
X114518035Y-94488459D01*
X114582303Y-94525565D01*
X114725747Y-94564000D01*
X114725748Y-94564000D01*
X114980560Y-94564000D01*
X115047599Y-94583685D01*
X115068241Y-94600319D01*
X115097738Y-94629816D01*
X115179348Y-94681095D01*
X115205833Y-94697737D01*
X115250478Y-94725789D01*
X115420745Y-94785368D01*
X115420750Y-94785369D01*
X115599996Y-94805565D01*
X115600000Y-94805565D01*
X115600004Y-94805565D01*
X115779249Y-94785369D01*
X115779252Y-94785368D01*
X115779255Y-94785368D01*
X115949522Y-94725789D01*
X116102262Y-94629816D01*
X116229816Y-94502262D01*
X116325789Y-94349522D01*
X116385368Y-94179255D01*
X116385956Y-94174035D01*
X116405565Y-94000003D01*
X116405565Y-93999996D01*
X116385369Y-93820750D01*
X116385368Y-93820745D01*
X116325788Y-93650475D01*
X116272691Y-93565973D01*
X116253690Y-93498736D01*
X116272691Y-93434027D01*
X116325788Y-93349524D01*
X116325789Y-93349522D01*
X116385368Y-93179255D01*
X116385369Y-93179249D01*
X116405565Y-93000003D01*
X116405565Y-92999996D01*
X116385369Y-92820750D01*
X116385368Y-92820745D01*
X116361453Y-92752401D01*
X116325789Y-92650478D01*
X116229816Y-92497738D01*
X116102262Y-92370184D01*
X116025847Y-92322169D01*
X115949523Y-92274211D01*
X115779254Y-92214631D01*
X115779249Y-92214630D01*
X115634158Y-92198283D01*
X115569744Y-92171217D01*
X115560360Y-92162744D01*
X109700319Y-86302703D01*
X109666834Y-86241380D01*
X109664000Y-86215022D01*
X109664000Y-77899996D01*
X112894435Y-77899996D01*
X112894435Y-77900003D01*
X112914630Y-78079249D01*
X112914631Y-78079254D01*
X112974211Y-78249523D01*
X113070184Y-78402262D01*
X113179929Y-78512007D01*
X113213414Y-78573330D01*
X113213282Y-78613585D01*
X113215411Y-78613825D01*
X113194435Y-78799996D01*
X113194435Y-78800003D01*
X113214630Y-78979249D01*
X113214631Y-78979254D01*
X113274211Y-79149523D01*
X113337646Y-79250478D01*
X113370184Y-79302262D01*
X113497738Y-79429816D01*
X113554177Y-79465279D01*
X113631736Y-79514013D01*
X113650478Y-79525789D01*
X113780298Y-79571215D01*
X113820745Y-79585368D01*
X113820750Y-79585369D01*
X113999996Y-79605565D01*
X114000000Y-79605565D01*
X114000004Y-79605565D01*
X114179249Y-79585369D01*
X114179252Y-79585368D01*
X114179255Y-79585368D01*
X114349522Y-79525789D01*
X114502262Y-79429816D01*
X114629816Y-79302262D01*
X114725789Y-79149522D01*
X114785368Y-78979255D01*
X114791960Y-78920750D01*
X114805565Y-78800003D01*
X114805565Y-78799996D01*
X114785369Y-78620750D01*
X114785368Y-78620745D01*
X114782863Y-78613585D01*
X114725789Y-78450478D01*
X114629816Y-78297738D01*
X114520070Y-78187992D01*
X114486585Y-78126669D01*
X114486826Y-78086428D01*
X114484589Y-78086176D01*
X114505565Y-77900003D01*
X114505565Y-77899996D01*
X114485369Y-77720750D01*
X114485368Y-77720745D01*
X114449310Y-77617698D01*
X114425789Y-77550478D01*
X114329816Y-77397738D01*
X114202262Y-77270184D01*
X114170897Y-77250476D01*
X114049523Y-77174211D01*
X113879254Y-77114631D01*
X113879249Y-77114630D01*
X113700004Y-77094435D01*
X113699996Y-77094435D01*
X113520750Y-77114630D01*
X113520745Y-77114631D01*
X113350476Y-77174211D01*
X113197737Y-77270184D01*
X113070184Y-77397737D01*
X112974211Y-77550476D01*
X112914631Y-77720745D01*
X112914630Y-77720750D01*
X112894435Y-77899996D01*
X109664000Y-77899996D01*
X109664000Y-72430943D01*
X111688000Y-72430943D01*
X111688000Y-72589057D01*
X111690949Y-72600060D01*
X111728923Y-72741783D01*
X111728926Y-72741790D01*
X111807975Y-72878709D01*
X111807979Y-72878714D01*
X111807980Y-72878716D01*
X111919784Y-72990520D01*
X111919786Y-72990521D01*
X111919790Y-72990524D01*
X112014817Y-73045387D01*
X112056716Y-73069577D01*
X112209443Y-73110500D01*
X112209445Y-73110500D01*
X112367555Y-73110500D01*
X112367557Y-73110500D01*
X112520284Y-73069577D01*
X112657216Y-72990520D01*
X112769020Y-72878716D01*
X112848077Y-72741784D01*
X112889000Y-72589057D01*
X112889000Y-72430943D01*
X112848077Y-72278216D01*
X112832063Y-72250478D01*
X112769024Y-72141290D01*
X112769018Y-72141282D01*
X112657217Y-72029481D01*
X112657209Y-72029475D01*
X112520290Y-71950426D01*
X112520286Y-71950424D01*
X112520284Y-71950423D01*
X112367557Y-71909500D01*
X112209443Y-71909500D01*
X112056716Y-71950423D01*
X112056709Y-71950426D01*
X111919790Y-72029475D01*
X111919782Y-72029481D01*
X111807981Y-72141282D01*
X111807975Y-72141290D01*
X111728926Y-72278209D01*
X111728923Y-72278216D01*
X111688000Y-72430943D01*
X109664000Y-72430943D01*
X109664000Y-70310000D01*
X113406334Y-70310000D01*
X114543525Y-70310000D01*
X114508430Y-70345095D01*
X114462352Y-70424905D01*
X114438500Y-70513922D01*
X114438500Y-70606078D01*
X114462352Y-70695095D01*
X114508430Y-70774905D01*
X114543525Y-70810000D01*
X113406334Y-70810000D01*
X113407683Y-70818516D01*
X113407684Y-70818523D01*
X113461384Y-70983791D01*
X113540274Y-71138622D01*
X113642418Y-71279209D01*
X113642418Y-71279210D01*
X113765289Y-71402081D01*
X113905877Y-71504225D01*
X114060706Y-71583115D01*
X114225978Y-71636816D01*
X114397608Y-71664000D01*
X114838500Y-71664000D01*
X114838500Y-70910000D01*
X115338500Y-70910000D01*
X115338500Y-71664000D01*
X115779392Y-71664000D01*
X115951021Y-71636816D01*
X116116293Y-71583115D01*
X116271122Y-71504225D01*
X116411709Y-71402081D01*
X116411710Y-71402081D01*
X116534581Y-71279210D01*
X116534581Y-71279209D01*
X116621182Y-71160016D01*
X116676512Y-71117351D01*
X116746126Y-71111372D01*
X116807921Y-71143978D01*
X116842278Y-71204817D01*
X116845500Y-71232902D01*
X116845500Y-81912000D01*
X116825815Y-81979039D01*
X116773011Y-82024794D01*
X116721500Y-82036000D01*
X115719440Y-82036000D01*
X115652401Y-82016315D01*
X115631759Y-81999681D01*
X115502262Y-81870184D01*
X115349523Y-81774211D01*
X115179254Y-81714631D01*
X115179249Y-81714630D01*
X115000004Y-81694435D01*
X114999996Y-81694435D01*
X114820750Y-81714630D01*
X114820745Y-81714631D01*
X114650476Y-81774211D01*
X114497737Y-81870184D01*
X114370184Y-81997737D01*
X114274211Y-82150476D01*
X114214631Y-82320745D01*
X114214630Y-82320750D01*
X114194435Y-82499996D01*
X114194435Y-82500003D01*
X114214630Y-82679249D01*
X114214631Y-82679254D01*
X114274211Y-82849523D01*
X114337646Y-82950478D01*
X114370184Y-83002262D01*
X114497738Y-83129816D01*
X114561982Y-83170183D01*
X114605833Y-83197737D01*
X114650478Y-83225789D01*
X114764937Y-83265840D01*
X114820745Y-83285368D01*
X114820750Y-83285369D01*
X114999996Y-83305565D01*
X115000000Y-83305565D01*
X115000004Y-83305565D01*
X115179249Y-83285369D01*
X115179251Y-83285368D01*
X115179255Y-83285368D01*
X115179258Y-83285366D01*
X115179262Y-83285366D01*
X115269377Y-83253832D01*
X115349522Y-83225789D01*
X115417611Y-83183005D01*
X115483583Y-83164000D01*
X116721500Y-83164000D01*
X116788539Y-83183685D01*
X116834294Y-83236489D01*
X116845500Y-83288000D01*
X116845500Y-96711459D01*
X116838542Y-96752414D01*
X116814631Y-96820745D01*
X116814630Y-96820750D01*
X116794435Y-96999996D01*
X116794435Y-97000003D01*
X116814630Y-97179249D01*
X116814631Y-97179254D01*
X116874211Y-97349523D01*
X116967341Y-97497737D01*
X116970184Y-97502262D01*
X117097738Y-97629816D01*
X117188080Y-97686582D01*
X117248138Y-97724319D01*
X117250478Y-97725789D01*
X117420745Y-97785368D01*
X117420750Y-97785369D01*
X117599996Y-97805565D01*
X117600000Y-97805565D01*
X117600004Y-97805565D01*
X117779249Y-97785369D01*
X117779252Y-97785368D01*
X117779255Y-97785368D01*
X117949522Y-97725789D01*
X118102262Y-97629816D01*
X118229816Y-97502262D01*
X118325789Y-97349522D01*
X118385368Y-97179255D01*
X118385369Y-97179249D01*
X118405565Y-97000003D01*
X118405565Y-96999996D01*
X118385369Y-96820750D01*
X118385368Y-96820745D01*
X118361458Y-96752414D01*
X118354500Y-96711459D01*
X118354500Y-95751500D01*
X118374185Y-95684461D01*
X118426989Y-95638706D01*
X118478500Y-95627500D01*
X126458328Y-95627500D01*
X126524300Y-95646506D01*
X126635710Y-95716510D01*
X126650478Y-95725789D01*
X126802658Y-95779039D01*
X126820745Y-95785368D01*
X126820750Y-95785369D01*
X126999996Y-95805565D01*
X127000000Y-95805565D01*
X127000004Y-95805565D01*
X127179249Y-95785369D01*
X127179252Y-95785368D01*
X127179255Y-95785368D01*
X127349522Y-95725789D01*
X127502262Y-95629816D01*
X127629816Y-95502262D01*
X127725789Y-95349522D01*
X127785368Y-95179255D01*
X127785369Y-95179249D01*
X127805565Y-95000003D01*
X127805565Y-94999996D01*
X127785369Y-94820750D01*
X127785368Y-94820745D01*
X127742326Y-94697738D01*
X127725789Y-94650478D01*
X127719957Y-94641197D01*
X127671451Y-94564000D01*
X127629816Y-94497738D01*
X127502262Y-94370184D01*
X127475700Y-94353494D01*
X127349523Y-94274211D01*
X127179254Y-94214631D01*
X127179249Y-94214630D01*
X127000004Y-94194435D01*
X126999996Y-94194435D01*
X126820750Y-94214630D01*
X126820745Y-94214631D01*
X126650476Y-94274211D01*
X126524300Y-94353494D01*
X126458328Y-94372500D01*
X118478500Y-94372500D01*
X118411461Y-94352815D01*
X118365706Y-94300011D01*
X118354500Y-94248500D01*
X118354500Y-90599996D01*
X130594435Y-90599996D01*
X130594435Y-90600003D01*
X130614630Y-90779249D01*
X130614631Y-90779254D01*
X130674211Y-90949523D01*
X130753054Y-91075000D01*
X130770184Y-91102262D01*
X130897738Y-91229816D01*
X131050478Y-91325789D01*
X131089925Y-91339592D01*
X131220745Y-91385368D01*
X131220750Y-91385369D01*
X131399996Y-91405565D01*
X131400000Y-91405565D01*
X131400004Y-91405565D01*
X131579249Y-91385369D01*
X131579252Y-91385368D01*
X131579255Y-91385368D01*
X131749522Y-91325789D01*
X131902262Y-91229816D01*
X131931759Y-91200319D01*
X131993082Y-91166834D01*
X132019440Y-91164000D01*
X132712000Y-91164000D01*
X132779039Y-91183685D01*
X132824794Y-91236489D01*
X132836000Y-91288000D01*
X132836000Y-91431465D01*
X132816315Y-91498504D01*
X132763511Y-91544259D01*
X132725884Y-91554685D01*
X132657250Y-91562418D01*
X132486978Y-91621998D01*
X132334237Y-91717972D01*
X132206684Y-91845525D01*
X132110711Y-91998264D01*
X132051131Y-92168533D01*
X132051130Y-92168538D01*
X132030935Y-92347784D01*
X132030935Y-92347791D01*
X132051130Y-92527037D01*
X132051131Y-92527042D01*
X132110711Y-92697311D01*
X132193970Y-92829816D01*
X132206684Y-92850050D01*
X132334238Y-92977604D01*
X132486978Y-93073577D01*
X132657245Y-93133156D01*
X132725884Y-93140889D01*
X132790296Y-93167954D01*
X132829852Y-93225548D01*
X132836000Y-93264109D01*
X132836000Y-94068877D01*
X132816315Y-94135916D01*
X132763511Y-94181671D01*
X132698118Y-94192098D01*
X132658315Y-94187613D01*
X132636500Y-94185156D01*
X132636498Y-94185156D01*
X132636497Y-94185156D01*
X132636496Y-94185156D01*
X132457250Y-94205351D01*
X132457245Y-94205352D01*
X132286976Y-94264932D01*
X132134237Y-94360905D01*
X132043830Y-94451313D01*
X132006684Y-94488459D01*
X131971016Y-94545224D01*
X131910711Y-94641197D01*
X131851131Y-94811466D01*
X131851130Y-94811471D01*
X131830935Y-94990717D01*
X131830935Y-94990724D01*
X131851130Y-95169970D01*
X131851131Y-95169975D01*
X131910711Y-95340244D01*
X132004913Y-95490165D01*
X132006684Y-95492983D01*
X132134238Y-95620537D01*
X132186619Y-95653450D01*
X132276031Y-95709632D01*
X132286978Y-95716510D01*
X132386974Y-95751500D01*
X132457245Y-95776089D01*
X132457250Y-95776090D01*
X132636496Y-95796286D01*
X132636500Y-95796286D01*
X132636501Y-95796286D01*
X132644824Y-95795348D01*
X132698117Y-95789343D01*
X132766937Y-95801397D01*
X132818317Y-95848745D01*
X132836000Y-95912563D01*
X132836000Y-100274252D01*
X132874435Y-100417696D01*
X132948687Y-100546304D01*
X132948689Y-100546306D01*
X132962743Y-100560360D01*
X132996228Y-100621683D01*
X132998282Y-100634157D01*
X133014630Y-100779250D01*
X133014631Y-100779254D01*
X133074211Y-100949523D01*
X133080508Y-100959544D01*
X133170184Y-101102262D01*
X133297738Y-101229816D01*
X133450478Y-101325789D01*
X133501199Y-101343537D01*
X133620745Y-101385368D01*
X133620750Y-101385369D01*
X133799996Y-101405565D01*
X133800000Y-101405565D01*
X133800004Y-101405565D01*
X133979249Y-101385369D01*
X133979252Y-101385368D01*
X133979255Y-101385368D01*
X134149522Y-101325789D01*
X134302262Y-101229816D01*
X134429816Y-101102262D01*
X134525789Y-100949522D01*
X134585368Y-100779255D01*
X134585369Y-100779249D01*
X134605565Y-100600003D01*
X134605565Y-100599996D01*
X134585369Y-100420750D01*
X134585368Y-100420745D01*
X134559195Y-100345946D01*
X134525789Y-100250478D01*
X134429816Y-100097738D01*
X134302262Y-99970184D01*
X134188197Y-99898512D01*
X134149521Y-99874210D01*
X134047046Y-99838353D01*
X133990270Y-99797631D01*
X133964522Y-99732678D01*
X133964000Y-99721311D01*
X133964000Y-99499996D01*
X136494435Y-99499996D01*
X136494435Y-99500003D01*
X136514630Y-99679249D01*
X136514631Y-99679254D01*
X136574211Y-99849523D01*
X136655727Y-99979254D01*
X136670184Y-100002262D01*
X136797738Y-100129816D01*
X136950478Y-100225789D01*
X137088977Y-100274252D01*
X137120745Y-100285368D01*
X137120750Y-100285369D01*
X137299996Y-100305565D01*
X137300000Y-100305565D01*
X137300004Y-100305565D01*
X137479249Y-100285369D01*
X137479252Y-100285368D01*
X137479255Y-100285368D01*
X137649522Y-100225789D01*
X137802262Y-100129816D01*
X137895260Y-100036818D01*
X137956584Y-100003334D01*
X137982941Y-100000500D01*
X143017059Y-100000500D01*
X143084098Y-100020185D01*
X143104740Y-100036818D01*
X143197738Y-100129816D01*
X143350478Y-100225789D01*
X143488977Y-100274252D01*
X143520745Y-100285368D01*
X143520750Y-100285369D01*
X143699996Y-100305565D01*
X143700000Y-100305565D01*
X143700004Y-100305565D01*
X143879249Y-100285369D01*
X143879252Y-100285368D01*
X143879255Y-100285368D01*
X144049522Y-100225789D01*
X144202262Y-100129816D01*
X144329816Y-100002262D01*
X144395007Y-99898510D01*
X144447341Y-99852221D01*
X144516394Y-99841573D01*
X144580243Y-99869948D01*
X144604992Y-99898509D01*
X144670184Y-100002262D01*
X144797738Y-100129816D01*
X144950478Y-100225789D01*
X145088977Y-100274252D01*
X145120745Y-100285368D01*
X145120750Y-100285369D01*
X145299996Y-100305565D01*
X145300000Y-100305565D01*
X145300004Y-100305565D01*
X145479249Y-100285369D01*
X145479252Y-100285368D01*
X145479255Y-100285368D01*
X145649522Y-100225789D01*
X145802262Y-100129816D01*
X145929816Y-100002262D01*
X146025789Y-99849522D01*
X146085368Y-99679255D01*
X146085369Y-99679249D01*
X146105565Y-99500003D01*
X146105565Y-99499996D01*
X146085369Y-99320750D01*
X146085366Y-99320737D01*
X146053250Y-99228955D01*
X146049688Y-99159176D01*
X146084416Y-99098549D01*
X146146410Y-99066321D01*
X146170291Y-99064000D01*
X147215022Y-99064000D01*
X147282061Y-99083685D01*
X147302703Y-99100319D01*
X147962743Y-99760360D01*
X147996228Y-99821683D01*
X147998282Y-99834157D01*
X148014630Y-99979250D01*
X148014631Y-99979254D01*
X148074211Y-100149523D01*
X148152584Y-100274252D01*
X148170184Y-100302262D01*
X148297738Y-100429816D01*
X148450478Y-100525789D01*
X148617390Y-100584194D01*
X148620745Y-100585368D01*
X148620750Y-100585369D01*
X148799996Y-100605565D01*
X148800000Y-100605565D01*
X148800004Y-100605565D01*
X148979242Y-100585370D01*
X148979246Y-100585368D01*
X148979255Y-100585368D01*
X148979262Y-100585365D01*
X148984393Y-100584194D01*
X149054132Y-100588459D01*
X149110495Y-100629751D01*
X149135586Y-100694960D01*
X149136000Y-100705082D01*
X149136000Y-103780560D01*
X149116315Y-103847599D01*
X149099681Y-103868241D01*
X149070184Y-103897737D01*
X148974211Y-104050476D01*
X148914631Y-104220745D01*
X148914630Y-104220750D01*
X148894435Y-104399996D01*
X148894435Y-104400003D01*
X148914630Y-104579249D01*
X148914631Y-104579254D01*
X148974211Y-104749523D01*
X149037646Y-104850478D01*
X149070184Y-104902262D01*
X149197738Y-105029816D01*
X149350478Y-105125789D01*
X149520745Y-105185368D01*
X149520750Y-105185369D01*
X149699996Y-105205565D01*
X149700000Y-105205565D01*
X149700004Y-105205565D01*
X149749430Y-105199996D01*
X158794435Y-105199996D01*
X158794435Y-105200003D01*
X158814630Y-105379249D01*
X158814631Y-105379254D01*
X158874211Y-105549523D01*
X158970184Y-105702262D01*
X159097738Y-105829816D01*
X159250478Y-105925789D01*
X159335642Y-105955589D01*
X159420745Y-105985368D01*
X159420750Y-105985369D01*
X159599996Y-106005565D01*
X159600000Y-106005565D01*
X159600004Y-106005565D01*
X159779249Y-105985369D01*
X159779252Y-105985368D01*
X159779255Y-105985368D01*
X159949522Y-105925789D01*
X160102262Y-105829816D01*
X160229816Y-105702262D01*
X160325789Y-105549522D01*
X160385368Y-105379255D01*
X160385369Y-105379249D01*
X160405565Y-105200003D01*
X160405565Y-105199996D01*
X160385369Y-105020750D01*
X160385368Y-105020745D01*
X160325788Y-104850476D01*
X160229815Y-104697737D01*
X160102262Y-104570184D01*
X159949523Y-104474211D01*
X159779254Y-104414631D01*
X159779249Y-104414630D01*
X159600004Y-104394435D01*
X159599996Y-104394435D01*
X159420750Y-104414630D01*
X159420745Y-104414631D01*
X159250476Y-104474211D01*
X159097737Y-104570184D01*
X158970184Y-104697737D01*
X158874211Y-104850476D01*
X158814631Y-105020745D01*
X158814630Y-105020750D01*
X158794435Y-105199996D01*
X149749430Y-105199996D01*
X149879249Y-105185369D01*
X149879252Y-105185368D01*
X149879255Y-105185368D01*
X150049522Y-105125789D01*
X150202262Y-105029816D01*
X150329816Y-104902262D01*
X150425789Y-104749522D01*
X150485368Y-104579255D01*
X150487940Y-104556428D01*
X150505565Y-104400003D01*
X150505565Y-104399996D01*
X150485369Y-104220750D01*
X150485368Y-104220745D01*
X150425788Y-104050476D01*
X150329815Y-103897737D01*
X150300319Y-103868241D01*
X150266834Y-103806918D01*
X150264000Y-103780560D01*
X150264000Y-102445387D01*
X150283685Y-102378348D01*
X150336489Y-102332593D01*
X150405647Y-102322649D01*
X150469203Y-102351674D01*
X150492994Y-102379415D01*
X150570184Y-102502262D01*
X150697738Y-102629816D01*
X150850478Y-102725789D01*
X150918306Y-102749523D01*
X151020745Y-102785368D01*
X151020750Y-102785369D01*
X151199996Y-102805565D01*
X151200000Y-102805565D01*
X151200004Y-102805565D01*
X151379249Y-102785369D01*
X151379252Y-102785368D01*
X151379255Y-102785368D01*
X151549522Y-102725789D01*
X151702262Y-102629816D01*
X151829816Y-102502262D01*
X151894074Y-102399996D01*
X158506935Y-102399996D01*
X158506935Y-102400003D01*
X158527130Y-102579249D01*
X158527131Y-102579254D01*
X158586711Y-102749523D01*
X158638202Y-102831470D01*
X158682684Y-102902262D01*
X158810238Y-103029816D01*
X158962978Y-103125789D01*
X159133245Y-103185368D01*
X159133250Y-103185369D01*
X159312496Y-103205565D01*
X159312500Y-103205565D01*
X159312504Y-103205565D01*
X159491749Y-103185369D01*
X159491752Y-103185368D01*
X159491755Y-103185368D01*
X159662022Y-103125789D01*
X159814762Y-103029816D01*
X159942316Y-102902262D01*
X160038289Y-102749522D01*
X160097868Y-102579255D01*
X160097869Y-102579249D01*
X160118065Y-102400003D01*
X160118065Y-102399996D01*
X160097869Y-102220750D01*
X160097868Y-102220745D01*
X160051055Y-102086961D01*
X160038289Y-102050478D01*
X159942316Y-101897738D01*
X159814762Y-101770184D01*
X159662023Y-101674211D01*
X159491754Y-101614631D01*
X159491749Y-101614630D01*
X159312504Y-101594435D01*
X159312496Y-101594435D01*
X159133250Y-101614630D01*
X159133245Y-101614631D01*
X158962976Y-101674211D01*
X158810237Y-101770184D01*
X158682684Y-101897737D01*
X158586711Y-102050476D01*
X158527131Y-102220745D01*
X158527130Y-102220750D01*
X158506935Y-102399996D01*
X151894074Y-102399996D01*
X151925789Y-102349522D01*
X151985368Y-102179255D01*
X151995767Y-102086961D01*
X152005565Y-102000003D01*
X152005565Y-101999996D01*
X151985369Y-101820750D01*
X151985368Y-101820745D01*
X151967676Y-101770184D01*
X151925789Y-101650478D01*
X151924953Y-101649148D01*
X151865432Y-101554421D01*
X151829816Y-101497738D01*
X151800319Y-101468241D01*
X151766834Y-101406918D01*
X151764000Y-101380560D01*
X151764000Y-100345946D01*
X162749500Y-100345946D01*
X162749500Y-100654053D01*
X162749501Y-100654069D01*
X162789717Y-100959542D01*
X162869464Y-101257162D01*
X162987376Y-101541826D01*
X162987381Y-101541837D01*
X163080014Y-101702280D01*
X163141438Y-101808670D01*
X163141440Y-101808673D01*
X163141441Y-101808674D01*
X163329007Y-102053115D01*
X163329013Y-102053122D01*
X163546877Y-102270986D01*
X163546884Y-102270992D01*
X163614205Y-102322649D01*
X163791330Y-102458562D01*
X163955004Y-102553059D01*
X164058162Y-102612618D01*
X164058167Y-102612620D01*
X164058170Y-102612622D01*
X164342836Y-102730535D01*
X164640456Y-102810282D01*
X164945940Y-102850500D01*
X164945947Y-102850500D01*
X165254053Y-102850500D01*
X165254060Y-102850500D01*
X165559544Y-102810282D01*
X165857164Y-102730535D01*
X166141830Y-102612622D01*
X166408670Y-102458562D01*
X166653117Y-102270991D01*
X166870991Y-102053117D01*
X167058562Y-101808670D01*
X167212622Y-101541830D01*
X167330535Y-101257164D01*
X167410282Y-100959544D01*
X167450500Y-100654060D01*
X167450500Y-100345940D01*
X167410282Y-100040456D01*
X167330535Y-99742836D01*
X167212622Y-99458170D01*
X167212620Y-99458167D01*
X167212618Y-99458162D01*
X167156877Y-99361616D01*
X167058562Y-99191330D01*
X166945777Y-99044346D01*
X166870992Y-98946884D01*
X166870986Y-98946877D01*
X166653122Y-98729013D01*
X166653115Y-98729007D01*
X166408674Y-98541441D01*
X166408673Y-98541440D01*
X166408670Y-98541438D01*
X166302280Y-98480014D01*
X166141837Y-98387381D01*
X166141826Y-98387376D01*
X165857162Y-98269464D01*
X165559542Y-98189717D01*
X165254069Y-98149501D01*
X165254066Y-98149500D01*
X165254060Y-98149500D01*
X164945940Y-98149500D01*
X164945934Y-98149500D01*
X164945930Y-98149501D01*
X164640457Y-98189717D01*
X164342837Y-98269464D01*
X164058173Y-98387376D01*
X164058162Y-98387381D01*
X163791325Y-98541441D01*
X163546884Y-98729007D01*
X163546877Y-98729013D01*
X163329013Y-98946877D01*
X163329007Y-98946884D01*
X163141441Y-99191325D01*
X162987381Y-99458162D01*
X162987376Y-99458173D01*
X162869464Y-99742837D01*
X162789717Y-100040457D01*
X162749501Y-100345930D01*
X162749500Y-100345946D01*
X151764000Y-100345946D01*
X151764000Y-99584255D01*
X151764001Y-99584242D01*
X151764001Y-99425750D01*
X151764001Y-99425748D01*
X151725565Y-99282304D01*
X151688903Y-99218804D01*
X151688903Y-99218803D01*
X151651317Y-99153702D01*
X151651314Y-99153698D01*
X151651313Y-99153696D01*
X151546304Y-99048687D01*
X151546303Y-99048686D01*
X151541973Y-99044356D01*
X151541962Y-99044346D01*
X149139334Y-96641718D01*
X149105849Y-96580395D01*
X149110833Y-96510703D01*
X149152705Y-96454770D01*
X149218169Y-96430353D01*
X149286442Y-96445205D01*
X149292975Y-96449036D01*
X149438329Y-96540368D01*
X149580912Y-96590260D01*
X149608596Y-96599947D01*
X149608601Y-96599948D01*
X149787847Y-96620144D01*
X149787851Y-96620144D01*
X149787855Y-96620144D01*
X149967100Y-96599948D01*
X149967103Y-96599947D01*
X149967106Y-96599947D01*
X150137373Y-96540368D01*
X150290113Y-96444395D01*
X150319610Y-96414898D01*
X150380933Y-96381413D01*
X150407291Y-96378579D01*
X161524442Y-96378579D01*
X161591481Y-96398264D01*
X161637236Y-96451068D01*
X161647180Y-96520226D01*
X161618155Y-96583782D01*
X161612123Y-96590260D01*
X161039637Y-97162744D01*
X160978314Y-97196229D01*
X160965840Y-97198283D01*
X160820749Y-97214630D01*
X160820745Y-97214631D01*
X160650476Y-97274211D01*
X160497737Y-97370184D01*
X160370184Y-97497737D01*
X160274211Y-97650476D01*
X160214631Y-97820745D01*
X160214630Y-97820750D01*
X160194435Y-97999996D01*
X160194435Y-98000003D01*
X160214630Y-98179249D01*
X160214631Y-98179254D01*
X160274211Y-98349523D01*
X160297999Y-98387381D01*
X160370184Y-98502262D01*
X160497738Y-98629816D01*
X160588080Y-98686582D01*
X160632721Y-98714632D01*
X160650478Y-98725789D01*
X160788860Y-98774211D01*
X160820745Y-98785368D01*
X160820750Y-98785369D01*
X160999996Y-98805565D01*
X161000000Y-98805565D01*
X161000004Y-98805565D01*
X161179249Y-98785369D01*
X161179252Y-98785368D01*
X161179255Y-98785368D01*
X161349522Y-98725789D01*
X161502262Y-98629816D01*
X161629816Y-98502262D01*
X161725789Y-98349522D01*
X161785368Y-98179255D01*
X161788721Y-98149501D01*
X161801716Y-98034158D01*
X161828782Y-97969744D01*
X161837245Y-97960370D01*
X162797298Y-97000319D01*
X162858621Y-96966834D01*
X162884979Y-96964000D01*
X174074250Y-96964000D01*
X174074252Y-96964000D01*
X174217696Y-96925565D01*
X174346304Y-96851313D01*
X174451313Y-96746304D01*
X174525565Y-96617696D01*
X174564000Y-96474252D01*
X174564000Y-60334255D01*
X174564001Y-60334242D01*
X174564001Y-60175750D01*
X174564001Y-60175748D01*
X174525565Y-60032304D01*
X174507328Y-60000717D01*
X174451315Y-59903699D01*
X174451310Y-59903693D01*
X173786818Y-59239201D01*
X173753333Y-59177878D01*
X173750499Y-59151520D01*
X173750499Y-57452129D01*
X173750498Y-57452123D01*
X173750497Y-57452116D01*
X173744091Y-57392517D01*
X173700778Y-57276390D01*
X173693797Y-57257671D01*
X173693793Y-57257664D01*
X173607547Y-57142455D01*
X173607544Y-57142452D01*
X173492335Y-57056206D01*
X173492328Y-57056202D01*
X173357482Y-57005908D01*
X173357483Y-57005908D01*
X173297883Y-56999501D01*
X173297881Y-56999500D01*
X173297873Y-56999500D01*
X173297864Y-56999500D01*
X171202129Y-56999500D01*
X171202123Y-56999501D01*
X171142516Y-57005908D01*
X171007671Y-57056202D01*
X171007664Y-57056206D01*
X170892455Y-57142452D01*
X170892452Y-57142455D01*
X170806206Y-57257664D01*
X170806202Y-57257671D01*
X170755908Y-57392517D01*
X170749501Y-57452116D01*
X170749501Y-57452123D01*
X170749500Y-57452135D01*
X170749500Y-59547870D01*
X170749501Y-59547876D01*
X170755908Y-59607483D01*
X170806202Y-59742328D01*
X170806206Y-59742335D01*
X170892452Y-59857544D01*
X170892455Y-59857547D01*
X171008986Y-59944783D01*
X171050857Y-60000717D01*
X171055841Y-60070408D01*
X171038484Y-60111870D01*
X170926267Y-60283631D01*
X170826412Y-60511282D01*
X170765387Y-60752261D01*
X170765385Y-60752270D01*
X170744859Y-60999994D01*
X170744859Y-61000005D01*
X170765385Y-61247729D01*
X170765387Y-61247738D01*
X170826412Y-61488717D01*
X170926266Y-61716364D01*
X171026564Y-61869882D01*
X171767037Y-61129409D01*
X171784075Y-61192993D01*
X171849901Y-61307007D01*
X171942993Y-61400099D01*
X172057007Y-61465925D01*
X172120588Y-61482962D01*
X171374100Y-62229450D01*
X171363482Y-62276148D01*
X171331376Y-62313556D01*
X171230255Y-62392262D01*
X171061833Y-62575217D01*
X170925826Y-62783393D01*
X170825936Y-63011118D01*
X170764892Y-63252175D01*
X170764890Y-63252187D01*
X170744357Y-63499994D01*
X170744357Y-63500005D01*
X170764890Y-63747812D01*
X170764892Y-63747824D01*
X170825936Y-63988878D01*
X170833850Y-64006922D01*
X170842750Y-64076223D01*
X170812771Y-64139334D01*
X170807973Y-64144409D01*
X167008735Y-67943647D01*
X166947412Y-67977132D01*
X166877720Y-67972148D01*
X166821787Y-67930276D01*
X166797370Y-67864812D01*
X166804871Y-67812636D01*
X166844091Y-67707483D01*
X166850500Y-67647873D01*
X166850499Y-65552128D01*
X166844091Y-65492517D01*
X166793796Y-65357669D01*
X166793795Y-65357668D01*
X166793793Y-65357664D01*
X166707547Y-65242455D01*
X166707544Y-65242452D01*
X166592335Y-65156206D01*
X166592328Y-65156202D01*
X166457482Y-65105908D01*
X166457483Y-65105908D01*
X166397883Y-65099501D01*
X166397881Y-65099500D01*
X166397873Y-65099500D01*
X166397864Y-65099500D01*
X163102129Y-65099500D01*
X163102123Y-65099501D01*
X163042516Y-65105908D01*
X162907671Y-65156202D01*
X162907664Y-65156206D01*
X162792455Y-65242452D01*
X162792452Y-65242455D01*
X162706206Y-65357664D01*
X162706202Y-65357671D01*
X162655908Y-65492517D01*
X162649501Y-65552116D01*
X162649501Y-65552123D01*
X162649500Y-65552135D01*
X162649500Y-67647870D01*
X162649501Y-67647876D01*
X162655908Y-67707483D01*
X162706202Y-67842328D01*
X162706206Y-67842335D01*
X162792452Y-67957544D01*
X162792455Y-67957547D01*
X162907664Y-68043793D01*
X162907671Y-68043797D01*
X163042517Y-68094091D01*
X163042516Y-68094091D01*
X163049444Y-68094835D01*
X163102127Y-68100500D01*
X166397872Y-68100499D01*
X166457483Y-68094091D01*
X166562635Y-68054871D01*
X166632324Y-68049888D01*
X166693647Y-68083373D01*
X166727132Y-68144696D01*
X166722148Y-68214387D01*
X166693647Y-68258735D01*
X164462680Y-70489702D01*
X164401357Y-70523187D01*
X164331665Y-70518203D01*
X164287318Y-70489702D01*
X161700319Y-67902703D01*
X161666834Y-67841380D01*
X161664000Y-67815022D01*
X161664000Y-66775750D01*
X161664000Y-66775748D01*
X161625565Y-66632304D01*
X161625565Y-66632303D01*
X161598386Y-66585229D01*
X161551313Y-66503696D01*
X161446304Y-66398687D01*
X161446303Y-66398686D01*
X161441973Y-66394356D01*
X161441962Y-66394346D01*
X159192025Y-64144409D01*
X159158540Y-64083086D01*
X159163524Y-64013394D01*
X159166149Y-64006922D01*
X159174063Y-63988881D01*
X159235108Y-63747821D01*
X159255643Y-63500000D01*
X159235108Y-63252179D01*
X159174063Y-63011119D01*
X159074173Y-62783393D01*
X159036000Y-62724964D01*
X158938166Y-62575217D01*
X158847292Y-62476502D01*
X158769744Y-62392262D01*
X158573509Y-62239526D01*
X158573507Y-62239525D01*
X158573506Y-62239524D01*
X158354811Y-62121172D01*
X158354802Y-62121169D01*
X158119616Y-62040429D01*
X157874335Y-61999500D01*
X157625665Y-61999500D01*
X157380383Y-62040429D01*
X157145197Y-62121169D01*
X157145188Y-62121172D01*
X156926493Y-62239524D01*
X156730257Y-62392261D01*
X156561833Y-62575217D01*
X156425826Y-62783393D01*
X156325936Y-63011118D01*
X156264892Y-63252175D01*
X156264890Y-63252187D01*
X156244357Y-63499994D01*
X156244357Y-63500005D01*
X156264890Y-63747812D01*
X156264892Y-63747824D01*
X156325936Y-63988881D01*
X156425826Y-64216606D01*
X156561833Y-64424782D01*
X156561836Y-64424785D01*
X156730256Y-64607738D01*
X156926491Y-64760474D01*
X156926493Y-64760475D01*
X157136658Y-64874211D01*
X157145190Y-64878828D01*
X157380386Y-64959571D01*
X157625665Y-65000500D01*
X157874335Y-65000500D01*
X158119614Y-64959571D01*
X158119617Y-64959570D01*
X158264033Y-64909990D01*
X158333828Y-64906841D01*
X158391975Y-64939591D01*
X160499681Y-67047297D01*
X160533166Y-67108620D01*
X160536000Y-67134978D01*
X160536000Y-68174252D01*
X160574435Y-68317696D01*
X160648687Y-68446304D01*
X160648689Y-68446306D01*
X160760761Y-68558378D01*
X160760767Y-68558383D01*
X163599681Y-71397297D01*
X163633166Y-71458620D01*
X163636000Y-71484978D01*
X163636000Y-72154612D01*
X163616315Y-72221651D01*
X163563511Y-72267406D01*
X163494353Y-72277350D01*
X163430797Y-72248325D01*
X163407007Y-72220585D01*
X163329817Y-72097739D01*
X163202262Y-71970184D01*
X163049523Y-71874211D01*
X162879254Y-71814631D01*
X162879249Y-71814630D01*
X162700004Y-71794435D01*
X162699996Y-71794435D01*
X162520750Y-71814630D01*
X162520745Y-71814631D01*
X162350476Y-71874211D01*
X162197737Y-71970184D01*
X162070184Y-72097737D01*
X161974211Y-72250476D01*
X161914631Y-72420745D01*
X161914630Y-72420750D01*
X161894435Y-72599996D01*
X161894435Y-72600003D01*
X161914630Y-72779249D01*
X161914631Y-72779254D01*
X161974211Y-72949523D01*
X162050467Y-73070883D01*
X162070184Y-73102262D01*
X162197738Y-73229816D01*
X162268392Y-73274211D01*
X162332721Y-73314632D01*
X162350478Y-73325789D01*
X162477352Y-73370184D01*
X162520745Y-73385368D01*
X162520750Y-73385369D01*
X162699996Y-73405565D01*
X162700000Y-73405565D01*
X162700004Y-73405565D01*
X162879249Y-73385369D01*
X162879252Y-73385368D01*
X162879255Y-73385368D01*
X163049522Y-73325789D01*
X163202262Y-73229816D01*
X163329816Y-73102262D01*
X163407006Y-72979415D01*
X163459341Y-72933124D01*
X163528395Y-72922476D01*
X163592243Y-72950851D01*
X163630615Y-73009241D01*
X163636000Y-73045387D01*
X163636000Y-78054612D01*
X163616315Y-78121651D01*
X163563511Y-78167406D01*
X163494353Y-78177350D01*
X163430797Y-78148325D01*
X163407007Y-78120585D01*
X163329817Y-77997739D01*
X163202262Y-77870184D01*
X163049523Y-77774211D01*
X162879254Y-77714631D01*
X162879249Y-77714630D01*
X162700004Y-77694435D01*
X162699996Y-77694435D01*
X162520750Y-77714630D01*
X162520745Y-77714631D01*
X162350476Y-77774211D01*
X162197737Y-77870184D01*
X162070184Y-77997737D01*
X161974211Y-78150476D01*
X161914631Y-78320745D01*
X161914630Y-78320750D01*
X161894435Y-78499996D01*
X161894435Y-78500003D01*
X161914630Y-78679249D01*
X161914631Y-78679254D01*
X161974211Y-78849523D01*
X162034447Y-78945387D01*
X162070184Y-79002262D01*
X162197738Y-79129816D01*
X162350478Y-79225789D01*
X162490661Y-79274841D01*
X162520745Y-79285368D01*
X162520750Y-79285369D01*
X162699996Y-79305565D01*
X162700000Y-79305565D01*
X162700004Y-79305565D01*
X162879249Y-79285369D01*
X162879252Y-79285368D01*
X162879255Y-79285368D01*
X163049522Y-79225789D01*
X163202262Y-79129816D01*
X163329816Y-79002262D01*
X163407006Y-78879415D01*
X163459341Y-78833124D01*
X163528395Y-78822476D01*
X163592243Y-78850851D01*
X163630615Y-78909241D01*
X163636000Y-78945387D01*
X163636000Y-83354612D01*
X163616315Y-83421651D01*
X163563511Y-83467406D01*
X163494353Y-83477350D01*
X163430797Y-83448325D01*
X163407007Y-83420585D01*
X163329817Y-83297739D01*
X163202262Y-83170184D01*
X163049523Y-83074211D01*
X162879254Y-83014631D01*
X162879249Y-83014630D01*
X162700004Y-82994435D01*
X162699996Y-82994435D01*
X162520750Y-83014630D01*
X162520745Y-83014631D01*
X162350476Y-83074211D01*
X162197737Y-83170184D01*
X162070184Y-83297737D01*
X161974211Y-83450476D01*
X161914631Y-83620745D01*
X161914630Y-83620750D01*
X161894435Y-83799996D01*
X161894435Y-83800003D01*
X161914630Y-83979249D01*
X161914631Y-83979254D01*
X161974211Y-84149523D01*
X162015122Y-84214632D01*
X162070184Y-84302262D01*
X162197738Y-84429816D01*
X162288080Y-84486582D01*
X162305833Y-84497737D01*
X162350478Y-84525789D01*
X162396958Y-84542053D01*
X162520745Y-84585368D01*
X162520750Y-84585369D01*
X162699996Y-84605565D01*
X162700000Y-84605565D01*
X162700004Y-84605565D01*
X162879249Y-84585369D01*
X162879252Y-84585368D01*
X162879255Y-84585368D01*
X163049522Y-84525789D01*
X163202262Y-84429816D01*
X163329816Y-84302262D01*
X163407006Y-84179415D01*
X163459341Y-84133124D01*
X163528395Y-84122476D01*
X163592243Y-84150851D01*
X163630615Y-84209241D01*
X163636000Y-84245387D01*
X163636000Y-88654612D01*
X163616315Y-88721651D01*
X163563511Y-88767406D01*
X163494353Y-88777350D01*
X163430797Y-88748325D01*
X163407007Y-88720585D01*
X163329817Y-88597739D01*
X163202262Y-88470184D01*
X163049523Y-88374211D01*
X162879254Y-88314631D01*
X162879249Y-88314630D01*
X162700004Y-88294435D01*
X162699996Y-88294435D01*
X162520750Y-88314630D01*
X162520745Y-88314631D01*
X162350476Y-88374211D01*
X162197737Y-88470184D01*
X162070184Y-88597737D01*
X161974211Y-88750476D01*
X161914631Y-88920745D01*
X161914630Y-88920750D01*
X161894435Y-89099996D01*
X161894435Y-89100003D01*
X161914630Y-89279249D01*
X161914631Y-89279254D01*
X161974211Y-89449523D01*
X161992994Y-89479415D01*
X162070184Y-89602262D01*
X162197738Y-89729816D01*
X162288080Y-89786582D01*
X162332721Y-89814632D01*
X162350478Y-89825789D01*
X162488860Y-89874211D01*
X162520745Y-89885368D01*
X162520750Y-89885369D01*
X162699996Y-89905565D01*
X162700000Y-89905565D01*
X162700004Y-89905565D01*
X162879249Y-89885369D01*
X162879252Y-89885368D01*
X162879255Y-89885368D01*
X163049522Y-89825789D01*
X163202262Y-89729816D01*
X163329816Y-89602262D01*
X163407006Y-89479415D01*
X163459341Y-89433124D01*
X163528395Y-89422476D01*
X163592243Y-89450851D01*
X163630615Y-89509241D01*
X163636000Y-89545387D01*
X163636000Y-94512000D01*
X163616315Y-94579039D01*
X163563511Y-94624794D01*
X163512000Y-94636000D01*
X150919440Y-94636000D01*
X150852401Y-94616315D01*
X150831759Y-94599681D01*
X150802262Y-94570184D01*
X150649523Y-94474211D01*
X150479254Y-94414631D01*
X150479249Y-94414630D01*
X150300004Y-94394435D01*
X150299996Y-94394435D01*
X150120750Y-94414630D01*
X150120745Y-94414631D01*
X149950476Y-94474211D01*
X149797737Y-94570184D01*
X149670184Y-94697737D01*
X149574210Y-94850478D01*
X149517869Y-95011494D01*
X149477147Y-95068271D01*
X149441789Y-95087579D01*
X149438330Y-95088789D01*
X149438326Y-95088791D01*
X149285588Y-95184763D01*
X149158035Y-95312316D01*
X149062062Y-95465055D01*
X149002482Y-95635324D01*
X149002481Y-95635329D01*
X148982286Y-95814575D01*
X148982286Y-95814582D01*
X149002481Y-95993828D01*
X149002482Y-95993833D01*
X149062062Y-96164102D01*
X149153386Y-96309442D01*
X149172386Y-96376678D01*
X149152018Y-96443514D01*
X149098751Y-96488728D01*
X149029494Y-96497966D01*
X148966238Y-96468294D01*
X148960711Y-96463095D01*
X147100319Y-94602703D01*
X147066834Y-94541380D01*
X147064000Y-94515022D01*
X147064000Y-94125749D01*
X147064000Y-94125748D01*
X147051542Y-94079255D01*
X147040620Y-94038493D01*
X147025567Y-93982310D01*
X147025566Y-93982308D01*
X147025565Y-93982304D01*
X147021470Y-93975211D01*
X147005001Y-93907311D01*
X147005565Y-93900268D01*
X147005565Y-93899997D01*
X146985369Y-93720750D01*
X146985368Y-93720745D01*
X146966403Y-93666546D01*
X146925789Y-93550478D01*
X146829816Y-93397738D01*
X146702262Y-93270184D01*
X146649993Y-93237341D01*
X146549523Y-93174211D01*
X146379254Y-93114631D01*
X146379249Y-93114630D01*
X146200004Y-93094435D01*
X146199996Y-93094435D01*
X146020750Y-93114630D01*
X146020745Y-93114631D01*
X145850476Y-93174211D01*
X145697737Y-93270184D01*
X145570184Y-93397737D01*
X145474211Y-93550476D01*
X145442725Y-93640460D01*
X145402003Y-93697236D01*
X145337050Y-93722983D01*
X145284732Y-93716548D01*
X145279253Y-93714631D01*
X145100004Y-93694435D01*
X145099996Y-93694435D01*
X144920750Y-93714630D01*
X144920745Y-93714631D01*
X144750470Y-93774213D01*
X144744205Y-93777231D01*
X144743164Y-93775070D01*
X144686725Y-93791014D01*
X144619891Y-93770642D01*
X144574682Y-93717370D01*
X144564000Y-93667021D01*
X144564000Y-92819440D01*
X144583685Y-92752401D01*
X144600319Y-92731759D01*
X144607339Y-92724739D01*
X144629816Y-92702262D01*
X144725789Y-92549522D01*
X144785368Y-92379255D01*
X144786977Y-92364977D01*
X144805565Y-92200003D01*
X144805565Y-92199996D01*
X144785369Y-92020750D01*
X144785368Y-92020745D01*
X144725788Y-91850476D01*
X144642530Y-91717972D01*
X144629816Y-91697738D01*
X144502262Y-91570184D01*
X144349523Y-91474211D01*
X144179254Y-91414631D01*
X144179249Y-91414630D01*
X144000004Y-91394435D01*
X143999996Y-91394435D01*
X143820750Y-91414630D01*
X143820745Y-91414631D01*
X143650476Y-91474211D01*
X143497737Y-91570184D01*
X143370184Y-91697737D01*
X143274211Y-91850476D01*
X143214631Y-92020745D01*
X143214630Y-92020750D01*
X143194435Y-92199996D01*
X143194435Y-92200003D01*
X143214630Y-92379249D01*
X143214631Y-92379254D01*
X143274211Y-92549523D01*
X143370184Y-92702262D01*
X143399681Y-92731759D01*
X143433166Y-92793082D01*
X143436000Y-92819440D01*
X143436000Y-98374251D01*
X143474435Y-98517695D01*
X143474436Y-98517698D01*
X143501978Y-98565402D01*
X143518451Y-98633302D01*
X143495598Y-98699329D01*
X143440677Y-98742520D01*
X143435546Y-98744443D01*
X143350480Y-98774209D01*
X143224300Y-98853494D01*
X143158328Y-98872500D01*
X137841672Y-98872500D01*
X137775700Y-98853494D01*
X137649523Y-98774211D01*
X137479254Y-98714631D01*
X137479249Y-98714630D01*
X137300004Y-98694435D01*
X137299996Y-98694435D01*
X137120750Y-98714630D01*
X137120745Y-98714631D01*
X136950476Y-98774211D01*
X136797737Y-98870184D01*
X136670184Y-98997737D01*
X136574211Y-99150476D01*
X136514631Y-99320745D01*
X136514630Y-99320750D01*
X136494435Y-99499996D01*
X133964000Y-99499996D01*
X133964000Y-95776671D01*
X133983685Y-95709632D01*
X134036489Y-95663877D01*
X134074112Y-95653451D01*
X134142755Y-95645718D01*
X134313022Y-95586139D01*
X134465762Y-95490166D01*
X134593316Y-95362612D01*
X134689289Y-95209872D01*
X134748868Y-95039605D01*
X134750993Y-95020745D01*
X134769065Y-94860353D01*
X134769065Y-94860346D01*
X134748869Y-94681100D01*
X134748868Y-94681095D01*
X134734907Y-94641197D01*
X134689289Y-94510828D01*
X134681063Y-94497737D01*
X134616154Y-94394435D01*
X134593316Y-94358088D01*
X134465762Y-94230534D01*
X134436961Y-94212437D01*
X134313021Y-94134560D01*
X134165349Y-94082888D01*
X134142755Y-94074982D01*
X134142754Y-94074981D01*
X134142749Y-94074980D01*
X134074116Y-94067247D01*
X134009702Y-94040180D01*
X133970147Y-93982585D01*
X133964000Y-93944027D01*
X133964000Y-91199996D01*
X140994435Y-91199996D01*
X140994435Y-91200003D01*
X141014630Y-91379249D01*
X141014631Y-91379254D01*
X141074211Y-91549523D01*
X141131581Y-91640826D01*
X141170184Y-91702262D01*
X141297738Y-91829816D01*
X141450478Y-91925789D01*
X141591398Y-91975099D01*
X141620745Y-91985368D01*
X141620750Y-91985369D01*
X141799996Y-92005565D01*
X141800000Y-92005565D01*
X141800004Y-92005565D01*
X141979249Y-91985369D01*
X141979252Y-91985368D01*
X141979255Y-91985368D01*
X142149522Y-91925789D01*
X142302262Y-91829816D01*
X142429816Y-91702262D01*
X142525789Y-91549522D01*
X142585368Y-91379255D01*
X142591392Y-91325789D01*
X142605565Y-91200003D01*
X142605565Y-91199996D01*
X142585369Y-91020750D01*
X142585368Y-91020745D01*
X142554589Y-90932783D01*
X142525789Y-90850478D01*
X142429816Y-90697738D01*
X142302262Y-90570184D01*
X142248664Y-90536506D01*
X142149523Y-90474211D01*
X141979254Y-90414631D01*
X141979249Y-90414630D01*
X141800004Y-90394435D01*
X141799996Y-90394435D01*
X141620750Y-90414630D01*
X141620745Y-90414631D01*
X141450476Y-90474211D01*
X141297737Y-90570184D01*
X141170184Y-90697737D01*
X141074211Y-90850476D01*
X141014631Y-91020745D01*
X141014630Y-91020750D01*
X140994435Y-91199996D01*
X133964000Y-91199996D01*
X133964000Y-90525750D01*
X133964000Y-90525748D01*
X133925565Y-90382304D01*
X133851313Y-90253696D01*
X133746304Y-90148687D01*
X133617696Y-90074435D01*
X133474252Y-90036000D01*
X133474251Y-90036000D01*
X132019440Y-90036000D01*
X131952401Y-90016315D01*
X131931759Y-89999681D01*
X131902262Y-89970184D01*
X131749523Y-89874211D01*
X131579254Y-89814631D01*
X131579249Y-89814630D01*
X131400004Y-89794435D01*
X131399996Y-89794435D01*
X131220750Y-89814630D01*
X131220745Y-89814631D01*
X131050476Y-89874211D01*
X130897737Y-89970184D01*
X130770184Y-90097737D01*
X130674211Y-90250476D01*
X130614631Y-90420745D01*
X130614630Y-90420750D01*
X130594435Y-90599996D01*
X118354500Y-90599996D01*
X118354500Y-84064174D01*
X118374185Y-83997135D01*
X118426989Y-83951380D01*
X118496147Y-83941436D01*
X118544470Y-83959180D01*
X118576410Y-83979249D01*
X118650475Y-84025788D01*
X118820745Y-84085368D01*
X118820750Y-84085369D01*
X118932915Y-84098006D01*
X118965840Y-84101716D01*
X119030254Y-84128782D01*
X119039638Y-84137255D01*
X121053696Y-86151313D01*
X121053697Y-86151314D01*
X121053699Y-86151315D01*
X121182300Y-86225563D01*
X121182301Y-86225563D01*
X121182304Y-86225565D01*
X121325748Y-86264001D01*
X121325751Y-86264001D01*
X121481849Y-86264001D01*
X121481865Y-86264000D01*
X123829856Y-86264000D01*
X123896895Y-86283685D01*
X123942650Y-86336489D01*
X123952594Y-86405647D01*
X123934850Y-86453972D01*
X123874211Y-86550477D01*
X123814631Y-86720745D01*
X123814630Y-86720750D01*
X123794435Y-86899996D01*
X123794435Y-86900003D01*
X123814630Y-87079249D01*
X123814631Y-87079254D01*
X123874211Y-87249523D01*
X123970184Y-87402262D01*
X124080241Y-87512319D01*
X124113726Y-87573642D01*
X124108742Y-87643334D01*
X124080241Y-87687681D01*
X123970184Y-87797737D01*
X123874211Y-87950476D01*
X123814631Y-88120745D01*
X123814630Y-88120750D01*
X123794435Y-88299996D01*
X123794435Y-88300003D01*
X123814630Y-88479249D01*
X123814631Y-88479254D01*
X123874211Y-88649523D01*
X123954531Y-88777350D01*
X123970184Y-88802262D01*
X124097738Y-88929816D01*
X124250478Y-89025789D01*
X124420745Y-89085368D01*
X124420750Y-89085369D01*
X124599996Y-89105565D01*
X124600000Y-89105565D01*
X124600004Y-89105565D01*
X124779249Y-89085369D01*
X124779252Y-89085368D01*
X124779255Y-89085368D01*
X124949522Y-89025789D01*
X125102262Y-88929816D01*
X125229816Y-88802262D01*
X125325789Y-88649522D01*
X125385368Y-88479255D01*
X125386390Y-88470184D01*
X125405565Y-88300003D01*
X125405565Y-88299996D01*
X125385369Y-88120750D01*
X125385368Y-88120745D01*
X125380056Y-88105565D01*
X125325789Y-87950478D01*
X125325188Y-87949522D01*
X125252700Y-87834158D01*
X125229816Y-87797738D01*
X125119759Y-87687681D01*
X125086274Y-87626358D01*
X125091258Y-87556666D01*
X125119759Y-87512319D01*
X125153223Y-87478855D01*
X125229816Y-87402262D01*
X125325789Y-87249522D01*
X125385368Y-87079255D01*
X125394858Y-86995030D01*
X125405565Y-86900003D01*
X125405565Y-86899996D01*
X125385369Y-86720750D01*
X125385368Y-86720745D01*
X125366806Y-86667698D01*
X125325789Y-86550478D01*
X125265149Y-86453971D01*
X125246150Y-86386736D01*
X125266518Y-86319900D01*
X125319785Y-86274686D01*
X125370144Y-86264000D01*
X126667021Y-86264000D01*
X126734060Y-86283685D01*
X126779815Y-86336489D01*
X126789759Y-86405647D01*
X126775847Y-86443538D01*
X126777231Y-86444205D01*
X126774213Y-86450470D01*
X126714631Y-86620745D01*
X126714630Y-86620750D01*
X126694435Y-86799996D01*
X126694435Y-86800003D01*
X126714630Y-86979249D01*
X126714631Y-86979254D01*
X126774211Y-87149523D01*
X126837646Y-87250478D01*
X126870184Y-87302262D01*
X126997738Y-87429816D01*
X127019669Y-87443596D01*
X127129040Y-87512319D01*
X127150478Y-87525789D01*
X127287234Y-87573642D01*
X127320745Y-87585368D01*
X127320750Y-87585369D01*
X127499996Y-87605565D01*
X127500000Y-87605565D01*
X127500004Y-87605565D01*
X127679249Y-87585369D01*
X127679252Y-87585368D01*
X127679255Y-87585368D01*
X127849522Y-87525789D01*
X128002262Y-87429816D01*
X128129816Y-87302262D01*
X128225789Y-87149522D01*
X128285368Y-86979255D01*
X128286253Y-86971401D01*
X128305565Y-86800003D01*
X128305565Y-86799996D01*
X128285369Y-86620750D01*
X128285368Y-86620745D01*
X128260894Y-86550803D01*
X128225789Y-86450478D01*
X128225788Y-86450477D01*
X128225786Y-86450470D01*
X128222769Y-86444205D01*
X128224929Y-86443164D01*
X128208986Y-86386725D01*
X128229358Y-86319891D01*
X128282630Y-86274682D01*
X128332979Y-86264000D01*
X135215022Y-86264000D01*
X135282061Y-86283685D01*
X135302703Y-86300319D01*
X136762744Y-87760360D01*
X136796229Y-87821683D01*
X136798283Y-87834158D01*
X136814630Y-87979249D01*
X136814631Y-87979254D01*
X136874211Y-88149523D01*
X136924662Y-88229815D01*
X136970184Y-88302262D01*
X137097738Y-88429816D01*
X137250478Y-88525789D01*
X137420745Y-88585368D01*
X137420750Y-88585369D01*
X137599996Y-88605565D01*
X137600000Y-88605565D01*
X137600004Y-88605565D01*
X137779249Y-88585369D01*
X137779252Y-88585368D01*
X137779255Y-88585368D01*
X137949522Y-88525789D01*
X138102262Y-88429816D01*
X138229816Y-88302262D01*
X138325789Y-88149522D01*
X138325789Y-88149519D01*
X138328259Y-88145590D01*
X138380594Y-88099299D01*
X138447136Y-88088342D01*
X138599996Y-88105565D01*
X138600000Y-88105565D01*
X138600004Y-88105565D01*
X138779249Y-88085369D01*
X138779252Y-88085368D01*
X138779255Y-88085368D01*
X138949522Y-88025789D01*
X139102262Y-87929816D01*
X139229816Y-87802262D01*
X139325789Y-87649522D01*
X139343119Y-87599996D01*
X140194435Y-87599996D01*
X140194435Y-87600003D01*
X140214630Y-87779249D01*
X140214631Y-87779254D01*
X140274211Y-87949523D01*
X140345366Y-88062764D01*
X140370184Y-88102262D01*
X140497738Y-88229816D01*
X140588080Y-88286582D01*
X140632721Y-88314632D01*
X140650478Y-88325789D01*
X140788860Y-88374211D01*
X140820745Y-88385368D01*
X140820750Y-88385369D01*
X140999996Y-88405565D01*
X141000000Y-88405565D01*
X141000004Y-88405565D01*
X141179249Y-88385369D01*
X141179252Y-88385368D01*
X141179255Y-88385368D01*
X141349522Y-88325789D01*
X141502262Y-88229816D01*
X141629816Y-88102262D01*
X141725789Y-87949522D01*
X141785368Y-87779255D01*
X141795686Y-87687681D01*
X141805565Y-87600003D01*
X141805565Y-87599996D01*
X141785369Y-87420750D01*
X141785368Y-87420745D01*
X141725789Y-87250478D01*
X141725188Y-87249522D01*
X141629815Y-87097737D01*
X141502262Y-86970184D01*
X141349523Y-86874211D01*
X141179254Y-86814631D01*
X141179249Y-86814630D01*
X141000004Y-86794435D01*
X140999996Y-86794435D01*
X140820750Y-86814630D01*
X140820745Y-86814631D01*
X140650476Y-86874211D01*
X140497737Y-86970184D01*
X140370184Y-87097737D01*
X140274211Y-87250476D01*
X140214631Y-87420745D01*
X140214630Y-87420750D01*
X140194435Y-87599996D01*
X139343119Y-87599996D01*
X139385368Y-87479255D01*
X139388027Y-87455659D01*
X139405565Y-87300003D01*
X139405565Y-87299996D01*
X139385369Y-87120750D01*
X139385368Y-87120745D01*
X139325789Y-86950478D01*
X139229816Y-86797738D01*
X139102262Y-86670184D01*
X139057269Y-86641913D01*
X139010979Y-86589579D01*
X139000022Y-86550803D01*
X138985369Y-86420750D01*
X138985368Y-86420745D01*
X138980085Y-86405647D01*
X138925789Y-86250478D01*
X138920072Y-86241380D01*
X138884878Y-86185368D01*
X138829816Y-86097738D01*
X138702262Y-85970184D01*
X138549523Y-85874211D01*
X138379254Y-85814631D01*
X138379249Y-85814630D01*
X138200004Y-85794435D01*
X138199996Y-85794435D01*
X138020750Y-85814630D01*
X138020745Y-85814631D01*
X137850476Y-85874211D01*
X137697736Y-85970185D01*
X137686444Y-85981477D01*
X137625119Y-86014960D01*
X137584873Y-86014793D01*
X137584630Y-86016956D01*
X137398459Y-85995980D01*
X137398451Y-85995980D01*
X137219201Y-86016176D01*
X137219196Y-86016177D01*
X137186836Y-86027500D01*
X137117057Y-86031061D01*
X137058203Y-85998139D01*
X136793743Y-85733679D01*
X136760258Y-85672356D01*
X136765242Y-85602664D01*
X136807114Y-85546731D01*
X136840475Y-85528955D01*
X136849520Y-85525790D01*
X136849522Y-85525789D01*
X137002262Y-85429816D01*
X137129816Y-85302262D01*
X137180646Y-85221365D01*
X137197950Y-85199665D01*
X137251313Y-85146304D01*
X137251313Y-85146302D01*
X137261518Y-85136098D01*
X137261521Y-85136093D01*
X138097297Y-84300319D01*
X138158620Y-84266834D01*
X138184978Y-84264000D01*
X140982269Y-84264000D01*
X141049308Y-84283685D01*
X141095063Y-84336489D01*
X141105489Y-84401883D01*
X141094435Y-84499995D01*
X141094435Y-84500003D01*
X141114630Y-84679249D01*
X141114633Y-84679262D01*
X141174209Y-84849519D01*
X141195893Y-84884030D01*
X141214892Y-84951267D01*
X141195893Y-85015970D01*
X141174209Y-85050480D01*
X141114633Y-85220737D01*
X141114630Y-85220750D01*
X141094435Y-85399996D01*
X141094435Y-85400003D01*
X141114630Y-85579249D01*
X141114631Y-85579254D01*
X141174211Y-85749523D01*
X141246514Y-85864592D01*
X141270184Y-85902262D01*
X141397738Y-86029816D01*
X141435006Y-86053233D01*
X141505833Y-86097737D01*
X141550478Y-86125789D01*
X141664897Y-86165826D01*
X141720745Y-86185368D01*
X141720750Y-86185369D01*
X141899996Y-86205565D01*
X141900000Y-86205565D01*
X141900004Y-86205565D01*
X142079249Y-86185369D01*
X142079252Y-86185368D01*
X142079255Y-86185368D01*
X142249522Y-86125789D01*
X142402262Y-86029816D01*
X142529816Y-85902262D01*
X142625789Y-85749522D01*
X142685368Y-85579255D01*
X142689033Y-85546731D01*
X142705565Y-85400003D01*
X142705565Y-85399996D01*
X142685369Y-85220750D01*
X142685368Y-85220745D01*
X142625788Y-85050475D01*
X142604108Y-85015973D01*
X142585107Y-84948737D01*
X142604108Y-84884027D01*
X142625788Y-84849524D01*
X142625790Y-84849519D01*
X142685368Y-84679255D01*
X142685369Y-84679249D01*
X142705565Y-84500003D01*
X142705565Y-84499996D01*
X142685369Y-84320750D01*
X142685368Y-84320745D01*
X142625789Y-84150478D01*
X142625188Y-84149522D01*
X142577867Y-84074211D01*
X142529816Y-83997738D01*
X142520070Y-83987992D01*
X142486585Y-83926669D01*
X142486826Y-83886428D01*
X142484589Y-83886176D01*
X142505565Y-83700003D01*
X142505565Y-83699996D01*
X142485369Y-83520750D01*
X142485368Y-83520745D01*
X142462623Y-83455743D01*
X142425789Y-83350478D01*
X142329816Y-83197738D01*
X142232074Y-83099996D01*
X146094435Y-83099996D01*
X146094435Y-83100003D01*
X146114630Y-83279249D01*
X146114631Y-83279254D01*
X146174211Y-83449523D01*
X146229765Y-83537936D01*
X146270184Y-83602262D01*
X146397738Y-83729816D01*
X146550478Y-83825789D01*
X146703275Y-83879255D01*
X146720745Y-83885368D01*
X146720750Y-83885369D01*
X146899996Y-83905565D01*
X146900000Y-83905565D01*
X146900004Y-83905565D01*
X147079249Y-83885369D01*
X147079252Y-83885368D01*
X147079255Y-83885368D01*
X147249522Y-83825789D01*
X147402262Y-83729816D01*
X147529816Y-83602262D01*
X147625789Y-83449522D01*
X147685368Y-83279255D01*
X147686354Y-83270506D01*
X147705565Y-83100003D01*
X147705565Y-83099996D01*
X147685369Y-82920750D01*
X147685368Y-82920745D01*
X147642326Y-82797738D01*
X147625789Y-82750478D01*
X147529816Y-82597738D01*
X147402262Y-82470184D01*
X147331608Y-82425789D01*
X147249523Y-82374211D01*
X147079254Y-82314631D01*
X147079249Y-82314630D01*
X146900004Y-82294435D01*
X146899996Y-82294435D01*
X146720750Y-82314630D01*
X146720745Y-82314631D01*
X146550476Y-82374211D01*
X146397737Y-82470184D01*
X146270184Y-82597737D01*
X146174211Y-82750476D01*
X146114631Y-82920745D01*
X146114630Y-82920750D01*
X146094435Y-83099996D01*
X142232074Y-83099996D01*
X142202262Y-83070184D01*
X142113852Y-83014632D01*
X142049523Y-82974211D01*
X141879254Y-82914631D01*
X141879249Y-82914630D01*
X141700004Y-82894435D01*
X141699996Y-82894435D01*
X141520750Y-82914630D01*
X141520745Y-82914631D01*
X141350476Y-82974211D01*
X141197737Y-83070184D01*
X141168241Y-83099681D01*
X141106918Y-83133166D01*
X141080560Y-83136000D01*
X137825747Y-83136000D01*
X137698169Y-83170184D01*
X137698168Y-83170183D01*
X137682305Y-83174434D01*
X137682300Y-83174436D01*
X137553699Y-83248684D01*
X137553693Y-83248689D01*
X137448685Y-83353698D01*
X136814721Y-83987661D01*
X136753398Y-84021146D01*
X136686087Y-84017022D01*
X136679254Y-84014631D01*
X136500004Y-83994435D01*
X136499996Y-83994435D01*
X136320750Y-84014630D01*
X136320745Y-84014631D01*
X136150476Y-84074211D01*
X135997737Y-84170184D01*
X135870184Y-84297737D01*
X135774208Y-84450481D01*
X135771041Y-84459533D01*
X135730318Y-84516308D01*
X135665364Y-84542053D01*
X135596803Y-84528595D01*
X135566320Y-84506256D01*
X134784331Y-83724267D01*
X134784329Y-83724264D01*
X134672254Y-83612189D01*
X134672252Y-83612187D01*
X134543646Y-83537936D01*
X134543645Y-83537935D01*
X134505877Y-83527815D01*
X134468110Y-83517696D01*
X134468109Y-83517695D01*
X134418396Y-83504375D01*
X134400201Y-83499500D01*
X134400200Y-83499500D01*
X132503476Y-83499500D01*
X132436437Y-83479815D01*
X132390682Y-83427011D01*
X132380738Y-83357853D01*
X132409763Y-83294297D01*
X132437504Y-83270506D01*
X132444930Y-83265840D01*
X132502262Y-83229816D01*
X132629816Y-83102262D01*
X132725789Y-82949522D01*
X132785368Y-82779255D01*
X132786757Y-82766928D01*
X132805565Y-82600003D01*
X132805565Y-82599996D01*
X132785369Y-82420750D01*
X132785368Y-82420745D01*
X132784198Y-82417402D01*
X133328453Y-82417402D01*
X133328453Y-82417409D01*
X133348648Y-82596655D01*
X133348649Y-82596660D01*
X133408229Y-82766929D01*
X133460126Y-82849522D01*
X133504202Y-82919668D01*
X133631756Y-83047222D01*
X133784496Y-83143195D01*
X133900210Y-83183685D01*
X133954763Y-83202774D01*
X133954768Y-83202775D01*
X134134014Y-83222971D01*
X134134018Y-83222971D01*
X134134022Y-83222971D01*
X134313267Y-83202775D01*
X134313270Y-83202774D01*
X134313273Y-83202774D01*
X134483540Y-83143195D01*
X134636280Y-83047222D01*
X134763834Y-82919668D01*
X134859807Y-82766928D01*
X134919386Y-82596661D01*
X134919815Y-82592856D01*
X134939583Y-82417409D01*
X134939583Y-82417402D01*
X134919387Y-82238156D01*
X134919386Y-82238151D01*
X134859806Y-82067882D01*
X134798418Y-81970184D01*
X134763834Y-81915144D01*
X134636280Y-81787590D01*
X134627681Y-81782187D01*
X134496876Y-81699996D01*
X151794435Y-81699996D01*
X151794435Y-81700003D01*
X151814630Y-81879249D01*
X151814631Y-81879254D01*
X151874211Y-82049523D01*
X151937646Y-82150478D01*
X151970184Y-82202262D01*
X152097738Y-82329816D01*
X152168392Y-82374211D01*
X152242450Y-82420745D01*
X152250478Y-82425789D01*
X152377352Y-82470184D01*
X152420745Y-82485368D01*
X152420750Y-82485369D01*
X152599996Y-82505565D01*
X152600000Y-82505565D01*
X152600004Y-82505565D01*
X152779249Y-82485369D01*
X152779252Y-82485368D01*
X152779255Y-82485368D01*
X152949522Y-82425789D01*
X153102262Y-82329816D01*
X153229816Y-82202262D01*
X153325789Y-82049522D01*
X153385368Y-81879255D01*
X153385369Y-81879249D01*
X153405565Y-81700003D01*
X153405565Y-81699996D01*
X153385369Y-81520750D01*
X153385368Y-81520745D01*
X153353847Y-81430663D01*
X153325789Y-81350478D01*
X153229816Y-81197738D01*
X153102262Y-81070184D01*
X153038017Y-81029816D01*
X152949523Y-80974211D01*
X152779254Y-80914631D01*
X152779249Y-80914630D01*
X152600004Y-80894435D01*
X152599996Y-80894435D01*
X152420750Y-80914630D01*
X152420745Y-80914631D01*
X152250476Y-80974211D01*
X152097737Y-81070184D01*
X151970184Y-81197737D01*
X151874211Y-81350476D01*
X151814631Y-81520745D01*
X151814630Y-81520750D01*
X151794435Y-81699996D01*
X134496876Y-81699996D01*
X134483541Y-81691617D01*
X134313272Y-81632037D01*
X134313267Y-81632036D01*
X134134022Y-81611841D01*
X134134014Y-81611841D01*
X133954768Y-81632036D01*
X133954763Y-81632037D01*
X133784494Y-81691617D01*
X133631755Y-81787590D01*
X133504202Y-81915143D01*
X133408229Y-82067882D01*
X133348649Y-82238151D01*
X133348648Y-82238156D01*
X133328453Y-82417402D01*
X132784198Y-82417402D01*
X132769085Y-82374211D01*
X132725789Y-82250478D01*
X132718043Y-82238151D01*
X132662955Y-82150478D01*
X132629816Y-82097738D01*
X132502262Y-81970184D01*
X132457721Y-81942197D01*
X132349523Y-81874211D01*
X132179254Y-81814631D01*
X132179249Y-81814630D01*
X132000004Y-81794435D01*
X131999996Y-81794435D01*
X131820750Y-81814630D01*
X131820745Y-81814631D01*
X131650476Y-81874211D01*
X131497737Y-81970184D01*
X131370184Y-82097737D01*
X131274211Y-82250476D01*
X131214631Y-82420745D01*
X131214630Y-82420750D01*
X131194435Y-82599996D01*
X131194435Y-82600003D01*
X131214630Y-82779249D01*
X131214631Y-82779254D01*
X131274211Y-82949523D01*
X131315122Y-83014632D01*
X131370184Y-83102262D01*
X131497738Y-83229816D01*
X131555070Y-83265840D01*
X131562496Y-83270506D01*
X131608787Y-83322841D01*
X131619435Y-83391894D01*
X131591060Y-83455743D01*
X131532670Y-83494115D01*
X131496524Y-83499500D01*
X126148478Y-83499500D01*
X126081439Y-83479815D01*
X126060797Y-83463181D01*
X124573297Y-81975681D01*
X124539812Y-81914358D01*
X124544796Y-81844666D01*
X124586668Y-81788733D01*
X124652132Y-81764316D01*
X124660978Y-81764000D01*
X127180560Y-81764000D01*
X127247599Y-81783685D01*
X127268241Y-81800319D01*
X127297738Y-81829816D01*
X127359071Y-81868354D01*
X127449220Y-81924999D01*
X127450478Y-81925789D01*
X127577352Y-81970184D01*
X127620745Y-81985368D01*
X127620750Y-81985369D01*
X127799996Y-82005565D01*
X127800000Y-82005565D01*
X127800004Y-82005565D01*
X127979249Y-81985369D01*
X127979252Y-81985368D01*
X127979255Y-81985368D01*
X128149522Y-81925789D01*
X128302262Y-81829816D01*
X128429816Y-81702262D01*
X128525789Y-81549522D01*
X128585368Y-81379255D01*
X128594753Y-81295957D01*
X128621819Y-81231544D01*
X128679413Y-81191988D01*
X128731857Y-81186620D01*
X128899997Y-81205565D01*
X128900000Y-81205565D01*
X128900004Y-81205565D01*
X129079249Y-81185369D01*
X129079252Y-81185368D01*
X129079255Y-81185368D01*
X129249522Y-81125789D01*
X129402262Y-81029816D01*
X129529816Y-80902262D01*
X129625789Y-80749522D01*
X129685368Y-80579255D01*
X129685369Y-80579249D01*
X129705565Y-80400003D01*
X129705565Y-80399996D01*
X129685369Y-80220750D01*
X129685368Y-80220745D01*
X129646293Y-80109075D01*
X129625789Y-80050478D01*
X129529816Y-79897738D01*
X129402262Y-79770184D01*
X129338017Y-79729816D01*
X129249523Y-79674211D01*
X129079254Y-79614631D01*
X129079250Y-79614630D01*
X128934157Y-79598282D01*
X128869743Y-79571215D01*
X128860360Y-79562743D01*
X128811630Y-79514013D01*
X128811628Y-79514011D01*
X128727222Y-79465279D01*
X128679007Y-79414711D01*
X128665785Y-79346104D01*
X128672180Y-79316941D01*
X128685368Y-79279255D01*
X128701716Y-79134155D01*
X128728782Y-79069743D01*
X128737245Y-79060369D01*
X128897618Y-78899996D01*
X130994435Y-78899996D01*
X130994435Y-78900003D01*
X131014630Y-79079249D01*
X131014631Y-79079254D01*
X131074211Y-79249523D01*
X131169368Y-79400964D01*
X131170184Y-79402262D01*
X131297738Y-79529816D01*
X131350141Y-79562743D01*
X131432721Y-79614632D01*
X131450478Y-79625789D01*
X131588860Y-79674211D01*
X131620745Y-79685368D01*
X131620750Y-79685369D01*
X131799996Y-79705565D01*
X131800000Y-79705565D01*
X131800004Y-79705565D01*
X131979249Y-79685369D01*
X131979252Y-79685368D01*
X131979255Y-79685368D01*
X132149522Y-79625789D01*
X132215756Y-79584170D01*
X132282988Y-79565171D01*
X132349823Y-79585538D01*
X132369406Y-79601484D01*
X132397738Y-79629816D01*
X132422615Y-79645447D01*
X132515159Y-79703597D01*
X132550478Y-79725789D01*
X132561984Y-79729815D01*
X132720745Y-79785368D01*
X132720750Y-79785369D01*
X132899996Y-79805565D01*
X132900000Y-79805565D01*
X132900004Y-79805565D01*
X133079249Y-79785369D01*
X133079252Y-79785368D01*
X133079255Y-79785368D01*
X133249522Y-79725789D01*
X133315756Y-79684170D01*
X133382988Y-79665171D01*
X133449823Y-79685538D01*
X133469406Y-79701484D01*
X133497738Y-79729816D01*
X133650478Y-79825789D01*
X133820745Y-79885368D01*
X133820750Y-79885369D01*
X133999996Y-79905565D01*
X134000000Y-79905565D01*
X134000004Y-79905565D01*
X134179249Y-79885369D01*
X134179252Y-79885368D01*
X134179255Y-79885368D01*
X134349522Y-79825789D01*
X134502262Y-79729816D01*
X134629816Y-79602262D01*
X134631240Y-79599996D01*
X137194435Y-79599996D01*
X137194435Y-79600003D01*
X137214630Y-79779249D01*
X137214631Y-79779254D01*
X137274211Y-79949523D01*
X137338171Y-80051314D01*
X137370184Y-80102262D01*
X137497738Y-80229816D01*
X137650478Y-80325789D01*
X137689925Y-80339592D01*
X137820745Y-80385368D01*
X137820750Y-80385369D01*
X137999996Y-80405565D01*
X138000000Y-80405565D01*
X138000004Y-80405565D01*
X138179249Y-80385369D01*
X138179252Y-80385368D01*
X138179255Y-80385368D01*
X138349522Y-80325789D01*
X138502262Y-80229816D01*
X138531759Y-80200319D01*
X138593082Y-80166834D01*
X138619440Y-80164000D01*
X156174251Y-80164000D01*
X156174253Y-80164000D01*
X156317696Y-80125565D01*
X156446304Y-80051313D01*
X156551313Y-79946304D01*
X156551313Y-79946302D01*
X156561517Y-79936099D01*
X156561520Y-79936094D01*
X158297297Y-78200319D01*
X158358620Y-78166834D01*
X158384978Y-78164000D01*
X158480560Y-78164000D01*
X158547599Y-78183685D01*
X158568241Y-78200319D01*
X158597738Y-78229816D01*
X158687843Y-78286433D01*
X158742450Y-78320745D01*
X158750478Y-78325789D01*
X158826531Y-78352401D01*
X158920745Y-78385368D01*
X158920750Y-78385369D01*
X159099996Y-78405565D01*
X159100000Y-78405565D01*
X159100004Y-78405565D01*
X159279249Y-78385369D01*
X159279252Y-78385368D01*
X159279255Y-78385368D01*
X159449522Y-78325789D01*
X159602262Y-78229816D01*
X159729816Y-78102262D01*
X159825789Y-77949522D01*
X159885368Y-77779255D01*
X159885369Y-77779249D01*
X159905565Y-77600003D01*
X159905565Y-77599996D01*
X159885369Y-77420750D01*
X159885368Y-77420745D01*
X159884064Y-77417018D01*
X159825789Y-77250478D01*
X159729816Y-77097738D01*
X159602262Y-76970184D01*
X159540476Y-76931361D01*
X159449523Y-76874211D01*
X159279254Y-76814631D01*
X159279249Y-76814630D01*
X159100004Y-76794435D01*
X159099996Y-76794435D01*
X158920750Y-76814630D01*
X158920745Y-76814631D01*
X158750476Y-76874211D01*
X158597737Y-76970184D01*
X158568241Y-76999681D01*
X158506918Y-77033166D01*
X158480560Y-77036000D01*
X158025747Y-77036000D01*
X157882303Y-77074435D01*
X157847663Y-77094435D01*
X157753699Y-77148685D01*
X157753693Y-77148689D01*
X157651907Y-77250476D01*
X157648687Y-77253696D01*
X157648685Y-77253698D01*
X156759440Y-78142944D01*
X155902703Y-78999681D01*
X155841380Y-79033166D01*
X155815022Y-79036000D01*
X138619440Y-79036000D01*
X138552401Y-79016315D01*
X138531759Y-78999681D01*
X138502262Y-78970184D01*
X138349523Y-78874211D01*
X138179254Y-78814631D01*
X138179249Y-78814630D01*
X138000004Y-78794435D01*
X137999996Y-78794435D01*
X137820750Y-78814630D01*
X137820745Y-78814631D01*
X137650476Y-78874211D01*
X137497737Y-78970184D01*
X137370184Y-79097737D01*
X137274211Y-79250476D01*
X137214631Y-79420745D01*
X137214630Y-79420750D01*
X137194435Y-79599996D01*
X134631240Y-79599996D01*
X134725789Y-79449522D01*
X134785368Y-79279255D01*
X134785369Y-79279247D01*
X134805565Y-79100003D01*
X134805565Y-79099996D01*
X134785369Y-78920750D01*
X134785368Y-78920745D01*
X134748237Y-78814630D01*
X134725789Y-78750478D01*
X134707106Y-78720745D01*
X134629815Y-78597737D01*
X134502262Y-78470184D01*
X134349523Y-78374211D01*
X134179254Y-78314631D01*
X134179249Y-78314630D01*
X134000004Y-78294435D01*
X133999996Y-78294435D01*
X133904935Y-78305145D01*
X133836113Y-78293090D01*
X133784734Y-78245741D01*
X133767110Y-78178130D01*
X133788837Y-78111725D01*
X133803361Y-78094254D01*
X133897299Y-78000316D01*
X133958621Y-77966834D01*
X133984978Y-77964000D01*
X136374250Y-77964000D01*
X136374252Y-77964000D01*
X136517696Y-77925565D01*
X136646304Y-77851313D01*
X136751313Y-77746304D01*
X136825565Y-77617696D01*
X136864000Y-77474252D01*
X136864000Y-76519440D01*
X136883685Y-76452401D01*
X136900319Y-76431759D01*
X136929816Y-76402262D01*
X137025789Y-76249522D01*
X137085368Y-76079255D01*
X137087110Y-76063797D01*
X137105565Y-75900003D01*
X137105565Y-75899996D01*
X137085369Y-75720750D01*
X137085368Y-75720745D01*
X137075688Y-75693082D01*
X137025789Y-75550478D01*
X136929816Y-75397738D01*
X136802262Y-75270184D01*
X136753575Y-75239592D01*
X136649523Y-75174211D01*
X136479254Y-75114631D01*
X136479249Y-75114630D01*
X136300004Y-75094435D01*
X136299996Y-75094435D01*
X136120750Y-75114630D01*
X136120745Y-75114631D01*
X135950476Y-75174211D01*
X135797737Y-75270184D01*
X135670184Y-75397737D01*
X135574211Y-75550476D01*
X135514631Y-75720745D01*
X135514630Y-75720750D01*
X135494435Y-75899996D01*
X135494435Y-75900003D01*
X135514630Y-76079249D01*
X135514631Y-76079254D01*
X135574211Y-76249523D01*
X135670184Y-76402262D01*
X135699681Y-76431759D01*
X135733166Y-76493082D01*
X135736000Y-76519440D01*
X135736000Y-76712000D01*
X135716315Y-76779039D01*
X135663511Y-76824794D01*
X135612000Y-76836000D01*
X133625747Y-76836000D01*
X133482303Y-76874435D01*
X133482300Y-76874436D01*
X133435229Y-76901612D01*
X133435229Y-76901613D01*
X133353696Y-76948687D01*
X133353693Y-76948689D01*
X133248685Y-77053698D01*
X132188799Y-78113583D01*
X132127476Y-78147068D01*
X132060166Y-78142944D01*
X131979255Y-78114632D01*
X131979251Y-78114631D01*
X131979247Y-78114630D01*
X131800004Y-78094435D01*
X131799996Y-78094435D01*
X131620750Y-78114630D01*
X131620745Y-78114631D01*
X131450476Y-78174211D01*
X131297737Y-78270184D01*
X131170184Y-78397737D01*
X131074211Y-78550476D01*
X131014631Y-78720745D01*
X131014630Y-78720750D01*
X130994435Y-78899996D01*
X128897618Y-78899996D01*
X129436094Y-78361521D01*
X129436099Y-78361517D01*
X129446302Y-78351313D01*
X129446304Y-78351313D01*
X129551313Y-78246304D01*
X129625565Y-78117696D01*
X129647849Y-78034530D01*
X129664000Y-77974253D01*
X129664000Y-77825748D01*
X129664000Y-74625748D01*
X129625565Y-74482304D01*
X129551313Y-74353696D01*
X129446304Y-74248687D01*
X129317696Y-74174435D01*
X129174252Y-74136000D01*
X129174251Y-74136000D01*
X127484978Y-74136000D01*
X127417939Y-74116315D01*
X127397297Y-74099681D01*
X126988819Y-73691203D01*
X126955334Y-73629880D01*
X126952500Y-73603522D01*
X126952500Y-73250074D01*
X126972185Y-73183035D01*
X126997833Y-73154222D01*
X127059836Y-73103337D01*
X127124143Y-73076026D01*
X127193011Y-73087817D01*
X127217164Y-73103339D01*
X127329960Y-73195909D01*
X127329967Y-73195913D01*
X127503766Y-73288811D01*
X127503769Y-73288811D01*
X127503773Y-73288814D01*
X127692368Y-73346024D01*
X127888500Y-73365341D01*
X128084632Y-73346024D01*
X128273227Y-73288814D01*
X128300548Y-73274211D01*
X128398087Y-73222075D01*
X128879976Y-73222075D01*
X129003962Y-73288348D01*
X129192469Y-73345531D01*
X129192465Y-73345531D01*
X129388500Y-73364838D01*
X129584532Y-73345531D01*
X129773037Y-73288348D01*
X129897023Y-73222076D01*
X129897023Y-73222075D01*
X129388501Y-72713553D01*
X129388500Y-72713553D01*
X128879976Y-73222075D01*
X128398087Y-73222075D01*
X128409542Y-73215952D01*
X128447038Y-73195910D01*
X128599383Y-73070883D01*
X128724410Y-72918538D01*
X128787772Y-72799996D01*
X128817311Y-72744733D01*
X128817313Y-72744728D01*
X128817314Y-72744727D01*
X128874524Y-72556132D01*
X128874524Y-72556126D01*
X128874526Y-72556122D01*
X128875713Y-72550157D01*
X128878138Y-72550639D01*
X128900206Y-72495926D01*
X128909798Y-72485147D01*
X129034946Y-72359999D01*
X128995451Y-72320504D01*
X129088500Y-72320504D01*
X129088500Y-72399496D01*
X129108944Y-72475796D01*
X129148440Y-72544205D01*
X129204295Y-72600060D01*
X129272704Y-72639556D01*
X129349004Y-72660000D01*
X129427996Y-72660000D01*
X129504296Y-72639556D01*
X129572705Y-72600060D01*
X129628560Y-72544205D01*
X129668056Y-72475796D01*
X129688500Y-72399496D01*
X129688500Y-72359999D01*
X129742053Y-72359999D01*
X129867201Y-72485147D01*
X129900686Y-72546471D01*
X129901267Y-72550160D01*
X129901287Y-72550157D01*
X129902476Y-72556135D01*
X129959686Y-72744728D01*
X130052586Y-72918532D01*
X130052590Y-72918539D01*
X130177616Y-73070883D01*
X130329960Y-73195909D01*
X130329967Y-73195913D01*
X130503766Y-73288811D01*
X130503769Y-73288811D01*
X130503773Y-73288814D01*
X130692368Y-73346024D01*
X130888500Y-73365341D01*
X131084632Y-73346024D01*
X131273227Y-73288814D01*
X131300548Y-73274211D01*
X131409542Y-73215952D01*
X131447038Y-73195910D01*
X131559835Y-73103338D01*
X131624144Y-73076026D01*
X131693012Y-73087817D01*
X131717162Y-73103337D01*
X131759395Y-73137997D01*
X131829960Y-73195909D01*
X131829967Y-73195913D01*
X132003766Y-73288811D01*
X132003769Y-73288811D01*
X132003773Y-73288814D01*
X132192368Y-73346024D01*
X132388500Y-73365341D01*
X132584632Y-73346024D01*
X132773227Y-73288814D01*
X132800548Y-73274211D01*
X132909542Y-73215952D01*
X132947038Y-73195910D01*
X133059835Y-73103338D01*
X133124144Y-73076026D01*
X133193012Y-73087817D01*
X133217162Y-73103337D01*
X133259395Y-73137997D01*
X133329960Y-73195909D01*
X133329967Y-73195913D01*
X133503766Y-73288811D01*
X133503769Y-73288811D01*
X133503773Y-73288814D01*
X133692368Y-73346024D01*
X133888500Y-73365341D01*
X134084632Y-73346024D01*
X134273227Y-73288814D01*
X134300548Y-73274211D01*
X134409542Y-73215952D01*
X134447038Y-73195910D01*
X134559835Y-73103338D01*
X134624144Y-73076026D01*
X134693012Y-73087817D01*
X134717162Y-73103337D01*
X134759395Y-73137997D01*
X134829960Y-73195909D01*
X134829967Y-73195913D01*
X135003766Y-73288811D01*
X135003769Y-73288811D01*
X135003773Y-73288814D01*
X135192368Y-73346024D01*
X135388500Y-73365341D01*
X135584632Y-73346024D01*
X135773227Y-73288814D01*
X135800548Y-73274211D01*
X135909542Y-73215952D01*
X135947038Y-73195910D01*
X136059835Y-73103338D01*
X136124144Y-73076026D01*
X136193012Y-73087817D01*
X136217162Y-73103337D01*
X136259395Y-73137997D01*
X136329960Y-73195909D01*
X136329967Y-73195913D01*
X136503766Y-73288811D01*
X136503769Y-73288811D01*
X136503773Y-73288814D01*
X136692368Y-73346024D01*
X136888500Y-73365341D01*
X136892000Y-73364996D01*
X136893820Y-73365341D01*
X136894592Y-73365341D01*
X136894592Y-73365487D01*
X136960647Y-73378011D01*
X137011360Y-73426073D01*
X137028038Y-73493923D01*
X137005386Y-73560019D01*
X136991844Y-73576078D01*
X136970183Y-73597739D01*
X136874211Y-73750476D01*
X136814631Y-73920745D01*
X136814630Y-73920750D01*
X136794435Y-74099996D01*
X136794435Y-74100003D01*
X136814630Y-74279249D01*
X136814631Y-74279254D01*
X136874211Y-74449523D01*
X136942887Y-74558819D01*
X136970184Y-74602262D01*
X137097738Y-74729816D01*
X137188080Y-74786582D01*
X137222889Y-74808454D01*
X137250478Y-74825789D01*
X137323430Y-74851316D01*
X137420745Y-74885368D01*
X137420750Y-74885369D01*
X137599996Y-74905565D01*
X137600000Y-74905565D01*
X137600004Y-74905565D01*
X137779249Y-74885369D01*
X137779252Y-74885368D01*
X137779255Y-74885368D01*
X137949522Y-74825789D01*
X138102262Y-74729816D01*
X138131759Y-74700319D01*
X138193082Y-74666834D01*
X138219440Y-74664000D01*
X144249751Y-74664000D01*
X144249753Y-74664000D01*
X144393196Y-74625565D01*
X144406825Y-74617696D01*
X144471057Y-74580612D01*
X144533055Y-74564000D01*
X145474250Y-74564000D01*
X145474252Y-74564000D01*
X145617696Y-74525565D01*
X145746304Y-74451313D01*
X145851313Y-74346304D01*
X145925565Y-74217696D01*
X145964000Y-74074252D01*
X145964000Y-72430943D01*
X151888000Y-72430943D01*
X151888000Y-72589057D01*
X151890949Y-72600060D01*
X151928923Y-72741783D01*
X151928926Y-72741790D01*
X152007975Y-72878709D01*
X152007979Y-72878714D01*
X152007980Y-72878716D01*
X152119784Y-72990520D01*
X152119786Y-72990521D01*
X152119790Y-72990524D01*
X152214817Y-73045387D01*
X152256716Y-73069577D01*
X152409443Y-73110500D01*
X152409445Y-73110500D01*
X152567555Y-73110500D01*
X152567557Y-73110500D01*
X152720284Y-73069577D01*
X152857216Y-72990520D01*
X152969020Y-72878716D01*
X153048077Y-72741784D01*
X153089000Y-72589057D01*
X153089000Y-72430943D01*
X153048077Y-72278216D01*
X153032063Y-72250478D01*
X152969024Y-72141290D01*
X152969018Y-72141282D01*
X152857217Y-72029481D01*
X152857209Y-72029475D01*
X152720290Y-71950426D01*
X152720286Y-71950424D01*
X152720284Y-71950423D01*
X152567557Y-71909500D01*
X152409443Y-71909500D01*
X152256716Y-71950423D01*
X152256709Y-71950426D01*
X152119790Y-72029475D01*
X152119782Y-72029481D01*
X152007981Y-72141282D01*
X152007975Y-72141290D01*
X151928926Y-72278209D01*
X151928923Y-72278216D01*
X151888000Y-72430943D01*
X145964000Y-72430943D01*
X145964000Y-70473074D01*
X147980000Y-70473074D01*
X147980000Y-70646925D01*
X148007197Y-70818639D01*
X148007197Y-70818642D01*
X148060918Y-70983978D01*
X148060920Y-70983981D01*
X148139847Y-71138884D01*
X148242035Y-71279533D01*
X148364967Y-71402465D01*
X148505616Y-71504653D01*
X148611326Y-71558515D01*
X148660521Y-71583581D01*
X148825858Y-71637302D01*
X148825859Y-71637302D01*
X148825862Y-71637303D01*
X148997574Y-71664500D01*
X148997575Y-71664500D01*
X150379425Y-71664500D01*
X150379426Y-71664500D01*
X150551138Y-71637303D01*
X150551141Y-71637302D01*
X150551142Y-71637302D01*
X150716478Y-71583581D01*
X150716478Y-71583580D01*
X150716481Y-71583580D01*
X150871384Y-71504653D01*
X151012033Y-71402465D01*
X151134965Y-71279533D01*
X151237153Y-71138884D01*
X151316080Y-70983981D01*
X151347868Y-70886148D01*
X151369802Y-70818642D01*
X151369802Y-70818641D01*
X151369803Y-70818638D01*
X151397000Y-70646926D01*
X151397000Y-70473074D01*
X151369803Y-70301362D01*
X151369802Y-70301358D01*
X151369802Y-70301357D01*
X151316081Y-70136021D01*
X151246719Y-69999891D01*
X151237153Y-69981116D01*
X151134965Y-69840467D01*
X151012033Y-69717535D01*
X150871384Y-69615347D01*
X150716478Y-69536418D01*
X150551141Y-69482697D01*
X150422354Y-69462299D01*
X150379426Y-69455500D01*
X148997574Y-69455500D01*
X148940336Y-69464565D01*
X148825860Y-69482697D01*
X148825857Y-69482697D01*
X148660521Y-69536418D01*
X148505615Y-69615347D01*
X148425369Y-69673649D01*
X148364967Y-69717535D01*
X148364965Y-69717537D01*
X148364964Y-69717537D01*
X148242037Y-69840464D01*
X148242037Y-69840465D01*
X148242035Y-69840467D01*
X148208156Y-69887097D01*
X148139847Y-69981115D01*
X148060918Y-70136021D01*
X148007197Y-70301357D01*
X148007197Y-70301360D01*
X147980000Y-70473074D01*
X145964000Y-70473074D01*
X145964000Y-58499994D01*
X156244859Y-58499994D01*
X156244859Y-58500005D01*
X156265385Y-58747729D01*
X156265387Y-58747738D01*
X156326412Y-58988717D01*
X156426266Y-59216364D01*
X156526564Y-59369882D01*
X157267037Y-58629409D01*
X157284075Y-58692993D01*
X157349901Y-58807007D01*
X157442993Y-58900099D01*
X157557007Y-58965925D01*
X157620590Y-58982962D01*
X156879942Y-59723609D01*
X156926768Y-59760055D01*
X156926770Y-59760056D01*
X157145385Y-59878364D01*
X157145396Y-59878369D01*
X157380506Y-59959083D01*
X157625707Y-60000000D01*
X157874293Y-60000000D01*
X158119493Y-59959083D01*
X158354603Y-59878369D01*
X158354614Y-59878364D01*
X158573228Y-59760057D01*
X158573231Y-59760055D01*
X158620056Y-59723609D01*
X157879409Y-58982962D01*
X157942993Y-58965925D01*
X158057007Y-58900099D01*
X158150099Y-58807007D01*
X158215925Y-58692993D01*
X158232962Y-58629410D01*
X158973434Y-59369882D01*
X159073731Y-59216369D01*
X159173587Y-58988717D01*
X159234612Y-58747738D01*
X159234614Y-58747729D01*
X159255141Y-58500005D01*
X159255141Y-58499994D01*
X159234614Y-58252270D01*
X159234612Y-58252261D01*
X159173587Y-58011282D01*
X159073731Y-57783630D01*
X158973434Y-57630116D01*
X158232962Y-58370589D01*
X158215925Y-58307007D01*
X158150099Y-58192993D01*
X158057007Y-58099901D01*
X157942993Y-58034075D01*
X157879410Y-58017037D01*
X158620057Y-57276390D01*
X158620056Y-57276389D01*
X158573229Y-57239943D01*
X158354614Y-57121635D01*
X158354603Y-57121630D01*
X158119493Y-57040916D01*
X157874293Y-57000000D01*
X157625707Y-57000000D01*
X157380506Y-57040916D01*
X157145396Y-57121630D01*
X157145390Y-57121632D01*
X156926761Y-57239949D01*
X156879942Y-57276388D01*
X156879942Y-57276390D01*
X157620590Y-58017037D01*
X157557007Y-58034075D01*
X157442993Y-58099901D01*
X157349901Y-58192993D01*
X157284075Y-58307007D01*
X157267037Y-58370589D01*
X156526564Y-57630116D01*
X156426267Y-57783632D01*
X156326412Y-58011282D01*
X156265387Y-58252261D01*
X156265385Y-58252270D01*
X156244859Y-58499994D01*
X145964000Y-58499994D01*
X145964000Y-54684255D01*
X145964001Y-54684242D01*
X145964001Y-54525750D01*
X145964001Y-54525748D01*
X145925565Y-54382304D01*
X145908146Y-54352135D01*
X162649500Y-54352135D01*
X162649500Y-56447870D01*
X162649501Y-56447876D01*
X162655908Y-56507483D01*
X162706202Y-56642328D01*
X162706206Y-56642335D01*
X162792452Y-56757544D01*
X162792455Y-56757547D01*
X162907664Y-56843793D01*
X162907671Y-56843797D01*
X163042517Y-56894091D01*
X163042516Y-56894091D01*
X163049444Y-56894835D01*
X163102127Y-56900500D01*
X166397872Y-56900499D01*
X166457483Y-56894091D01*
X166592331Y-56843796D01*
X166707546Y-56757546D01*
X166793796Y-56642331D01*
X166844091Y-56507483D01*
X166850500Y-56447873D01*
X166850499Y-54352128D01*
X166844091Y-54292517D01*
X166839144Y-54279254D01*
X166793797Y-54157671D01*
X166793793Y-54157664D01*
X166707547Y-54042455D01*
X166707544Y-54042452D01*
X166592335Y-53956206D01*
X166592328Y-53956202D01*
X166457482Y-53905908D01*
X166457483Y-53905908D01*
X166397883Y-53899501D01*
X166397881Y-53899500D01*
X166397873Y-53899500D01*
X166397864Y-53899500D01*
X163102129Y-53899500D01*
X163102123Y-53899501D01*
X163042516Y-53905908D01*
X162907671Y-53956202D01*
X162907664Y-53956206D01*
X162792455Y-54042452D01*
X162792452Y-54042455D01*
X162706206Y-54157664D01*
X162706202Y-54157671D01*
X162655908Y-54292517D01*
X162649501Y-54352116D01*
X162649501Y-54352123D01*
X162649500Y-54352135D01*
X145908146Y-54352135D01*
X145908143Y-54352129D01*
X145851313Y-54253696D01*
X145818362Y-54220745D01*
X145668752Y-54071136D01*
X145668751Y-54071134D01*
X145546306Y-53948689D01*
X145546304Y-53948687D01*
X145417698Y-53874436D01*
X145417697Y-53874435D01*
X145392097Y-53867576D01*
X145366499Y-53860717D01*
X145366498Y-53860716D01*
X145298969Y-53842622D01*
X145274253Y-53836000D01*
X145274252Y-53836000D01*
X137219440Y-53836000D01*
X137152401Y-53816315D01*
X137131759Y-53799681D01*
X137102262Y-53770184D01*
X136949523Y-53674211D01*
X136779254Y-53614631D01*
X136779249Y-53614630D01*
X136600004Y-53594435D01*
X136599996Y-53594435D01*
X136420750Y-53614630D01*
X136420745Y-53614631D01*
X136250476Y-53674211D01*
X136097737Y-53770184D01*
X135970184Y-53897737D01*
X135874211Y-54050476D01*
X135814631Y-54220745D01*
X135814630Y-54220750D01*
X135794435Y-54399996D01*
X135794435Y-54400003D01*
X135814630Y-54579249D01*
X135814631Y-54579254D01*
X135874211Y-54749523D01*
X135959569Y-54885368D01*
X135970184Y-54902262D01*
X136097738Y-55029816D01*
X136250478Y-55125789D01*
X136420745Y-55185368D01*
X136420750Y-55185369D01*
X136599996Y-55205565D01*
X136600000Y-55205565D01*
X136600004Y-55205565D01*
X136779249Y-55185369D01*
X136779252Y-55185368D01*
X136779255Y-55185368D01*
X136949522Y-55125789D01*
X137102262Y-55029816D01*
X137131759Y-55000319D01*
X137193082Y-54966834D01*
X137219440Y-54964000D01*
X144712000Y-54964000D01*
X144779039Y-54983685D01*
X144824794Y-55036489D01*
X144836000Y-55088000D01*
X144836000Y-71235500D01*
X144816315Y-71302539D01*
X144763511Y-71348294D01*
X144712000Y-71359500D01*
X143840629Y-71359500D01*
X143840623Y-71359501D01*
X143781016Y-71365908D01*
X143646171Y-71416202D01*
X143646169Y-71416203D01*
X143542306Y-71493956D01*
X143476842Y-71518373D01*
X143409542Y-71504047D01*
X143273233Y-71431188D01*
X143273227Y-71431186D01*
X143084632Y-71373976D01*
X143084629Y-71373975D01*
X142888500Y-71354659D01*
X142692370Y-71373975D01*
X142503766Y-71431188D01*
X142329967Y-71524086D01*
X142329960Y-71524090D01*
X142217165Y-71616660D01*
X142152855Y-71643973D01*
X142083987Y-71632182D01*
X142059835Y-71616660D01*
X141947039Y-71524090D01*
X141947032Y-71524086D01*
X141773233Y-71431188D01*
X141773227Y-71431186D01*
X141584632Y-71373976D01*
X141584629Y-71373975D01*
X141388500Y-71354659D01*
X141192370Y-71373975D01*
X141003766Y-71431188D01*
X140829967Y-71524086D01*
X140829960Y-71524090D01*
X140717165Y-71616660D01*
X140652855Y-71643973D01*
X140583987Y-71632182D01*
X140559835Y-71616660D01*
X140447039Y-71524090D01*
X140447032Y-71524086D01*
X140273233Y-71431188D01*
X140273227Y-71431186D01*
X140084632Y-71373976D01*
X140084629Y-71373975D01*
X139888500Y-71354659D01*
X139692370Y-71373975D01*
X139503766Y-71431188D01*
X139329967Y-71524086D01*
X139329960Y-71524090D01*
X139217165Y-71616660D01*
X139152855Y-71643973D01*
X139083987Y-71632182D01*
X139059835Y-71616660D01*
X138947039Y-71524090D01*
X138947032Y-71524086D01*
X138773233Y-71431188D01*
X138773227Y-71431186D01*
X138584632Y-71373976D01*
X138584629Y-71373975D01*
X138388500Y-71354659D01*
X138192370Y-71373975D01*
X138003766Y-71431188D01*
X137829967Y-71524086D01*
X137829960Y-71524090D01*
X137717165Y-71616660D01*
X137652855Y-71643973D01*
X137583987Y-71632182D01*
X137559835Y-71616660D01*
X137447039Y-71524090D01*
X137447032Y-71524086D01*
X137273233Y-71431188D01*
X137273227Y-71431186D01*
X137084632Y-71373976D01*
X137084629Y-71373975D01*
X136888500Y-71354659D01*
X136692370Y-71373975D01*
X136503766Y-71431188D01*
X136329967Y-71524086D01*
X136329960Y-71524090D01*
X136217165Y-71616660D01*
X136152855Y-71643973D01*
X136083987Y-71632182D01*
X136059835Y-71616660D01*
X135947039Y-71524090D01*
X135947032Y-71524086D01*
X135773233Y-71431188D01*
X135773227Y-71431186D01*
X135584632Y-71373976D01*
X135584629Y-71373975D01*
X135388500Y-71354659D01*
X135192370Y-71373975D01*
X135003766Y-71431188D01*
X134829967Y-71524086D01*
X134829960Y-71524090D01*
X134717165Y-71616660D01*
X134652855Y-71643973D01*
X134583987Y-71632182D01*
X134559835Y-71616660D01*
X134447039Y-71524090D01*
X134447032Y-71524086D01*
X134273233Y-71431188D01*
X134273227Y-71431186D01*
X134084632Y-71373976D01*
X134084629Y-71373975D01*
X133888500Y-71354659D01*
X133692370Y-71373975D01*
X133503766Y-71431188D01*
X133329967Y-71524086D01*
X133329960Y-71524090D01*
X133217165Y-71616660D01*
X133152855Y-71643973D01*
X133083987Y-71632182D01*
X133059835Y-71616660D01*
X132947039Y-71524090D01*
X132947032Y-71524086D01*
X132773233Y-71431188D01*
X132773227Y-71431186D01*
X132584632Y-71373976D01*
X132584629Y-71373975D01*
X132388500Y-71354659D01*
X132192370Y-71373975D01*
X132003766Y-71431188D01*
X131829967Y-71524086D01*
X131829960Y-71524090D01*
X131717165Y-71616660D01*
X131652855Y-71643973D01*
X131583987Y-71632182D01*
X131559835Y-71616660D01*
X131447039Y-71524090D01*
X131447032Y-71524086D01*
X131273233Y-71431188D01*
X131273227Y-71431186D01*
X131084632Y-71373976D01*
X131084629Y-71373975D01*
X130888500Y-71354659D01*
X130692370Y-71373975D01*
X130503766Y-71431188D01*
X130329967Y-71524086D01*
X130329960Y-71524090D01*
X130177616Y-71649116D01*
X130052590Y-71801460D01*
X130052586Y-71801467D01*
X129959686Y-71975271D01*
X129902476Y-72163864D01*
X129901287Y-72169843D01*
X129898876Y-72169363D01*
X129876738Y-72224140D01*
X129867202Y-72234848D01*
X129742053Y-72359999D01*
X129688500Y-72359999D01*
X129688500Y-72320504D01*
X129668056Y-72244204D01*
X129628560Y-72175795D01*
X129572705Y-72119940D01*
X129504296Y-72080444D01*
X129427996Y-72060000D01*
X129349004Y-72060000D01*
X129272704Y-72080444D01*
X129204295Y-72119940D01*
X129148440Y-72175795D01*
X129108944Y-72244204D01*
X129088500Y-72320504D01*
X128995451Y-72320504D01*
X128909798Y-72234851D01*
X128876313Y-72173528D01*
X128875732Y-72169839D01*
X128875713Y-72169843D01*
X128874526Y-72163877D01*
X128874524Y-72163871D01*
X128874524Y-72163868D01*
X128817314Y-71975273D01*
X128817311Y-71975269D01*
X128817311Y-71975266D01*
X128724413Y-71801467D01*
X128724409Y-71801460D01*
X128599383Y-71649116D01*
X128447039Y-71524090D01*
X128447031Y-71524085D01*
X128438704Y-71519634D01*
X128416603Y-71497923D01*
X128879976Y-71497923D01*
X129388500Y-72006447D01*
X129388501Y-72006447D01*
X129897022Y-71497923D01*
X129773037Y-71431651D01*
X129584530Y-71374468D01*
X129584534Y-71374468D01*
X129388500Y-71355161D01*
X129192467Y-71374468D01*
X129003966Y-71431649D01*
X128879976Y-71497923D01*
X128416603Y-71497923D01*
X128388861Y-71470670D01*
X128373403Y-71402532D01*
X128397237Y-71336853D01*
X128409467Y-71322610D01*
X128529816Y-71202262D01*
X128625789Y-71049522D01*
X128685368Y-70879255D01*
X128689783Y-70840070D01*
X128705565Y-70700003D01*
X128705565Y-70699996D01*
X128685369Y-70520750D01*
X128685368Y-70520745D01*
X128625788Y-70350476D01*
X128552508Y-70233852D01*
X128529816Y-70197738D01*
X128402262Y-70070184D01*
X128249523Y-69974211D01*
X128079254Y-69914631D01*
X128079249Y-69914630D01*
X127900004Y-69894435D01*
X127899996Y-69894435D01*
X127720750Y-69914630D01*
X127720745Y-69914631D01*
X127550476Y-69974211D01*
X127397737Y-70070184D01*
X127270184Y-70197737D01*
X127174211Y-70350476D01*
X127114631Y-70520745D01*
X127114630Y-70520750D01*
X127094435Y-70699996D01*
X127094435Y-70700003D01*
X127114630Y-70879249D01*
X127114631Y-70879254D01*
X127174211Y-71049523D01*
X127270184Y-71202262D01*
X127382508Y-71314586D01*
X127415993Y-71375909D01*
X127411009Y-71445601D01*
X127369137Y-71501534D01*
X127353281Y-71511625D01*
X127329964Y-71524088D01*
X127329960Y-71524090D01*
X127217165Y-71616660D01*
X127152855Y-71643973D01*
X127083987Y-71632182D01*
X127059835Y-71616660D01*
X126947039Y-71524090D01*
X126947032Y-71524086D01*
X126773233Y-71431188D01*
X126773227Y-71431186D01*
X126584632Y-71373976D01*
X126584629Y-71373975D01*
X126388500Y-71354659D01*
X126192370Y-71373975D01*
X126003766Y-71431188D01*
X125829967Y-71524086D01*
X125829960Y-71524090D01*
X125717165Y-71616660D01*
X125652855Y-71643973D01*
X125583987Y-71632182D01*
X125559835Y-71616660D01*
X125447039Y-71524090D01*
X125447032Y-71524086D01*
X125273233Y-71431188D01*
X125273227Y-71431186D01*
X125084632Y-71373976D01*
X125084629Y-71373975D01*
X124888500Y-71354659D01*
X124692370Y-71373975D01*
X124503766Y-71431188D01*
X124329967Y-71524086D01*
X124329960Y-71524090D01*
X124217165Y-71616660D01*
X124152855Y-71643973D01*
X124083987Y-71632182D01*
X124059835Y-71616660D01*
X123947039Y-71524090D01*
X123947032Y-71524086D01*
X123773233Y-71431188D01*
X123773227Y-71431186D01*
X123584632Y-71373976D01*
X123584629Y-71373975D01*
X123388500Y-71354659D01*
X123192370Y-71373975D01*
X123003766Y-71431188D01*
X122829967Y-71524086D01*
X122829960Y-71524090D01*
X122717165Y-71616660D01*
X122652855Y-71643973D01*
X122583987Y-71632182D01*
X122559835Y-71616660D01*
X122447039Y-71524090D01*
X122447032Y-71524086D01*
X122273233Y-71431188D01*
X122273227Y-71431186D01*
X122084632Y-71373976D01*
X122084629Y-71373975D01*
X121888500Y-71354659D01*
X121692370Y-71373975D01*
X121503766Y-71431188D01*
X121329967Y-71524086D01*
X121329960Y-71524090D01*
X121217165Y-71616660D01*
X121152855Y-71643973D01*
X121083987Y-71632182D01*
X121059835Y-71616660D01*
X120947039Y-71524090D01*
X120947032Y-71524086D01*
X120773233Y-71431188D01*
X120773227Y-71431186D01*
X120584632Y-71373976D01*
X120584629Y-71373975D01*
X120388500Y-71354659D01*
X120192370Y-71373975D01*
X120003766Y-71431188D01*
X119829967Y-71524086D01*
X119829960Y-71524090D01*
X119677616Y-71649116D01*
X119583853Y-71763367D01*
X119526107Y-71802701D01*
X119456262Y-71804572D01*
X119396494Y-71768384D01*
X119365778Y-71705628D01*
X119364000Y-71684702D01*
X119364000Y-65599996D01*
X127794435Y-65599996D01*
X127794435Y-65600003D01*
X127814630Y-65779249D01*
X127814631Y-65779254D01*
X127874211Y-65949523D01*
X127970184Y-66102262D01*
X128097738Y-66229816D01*
X128250478Y-66325789D01*
X128420745Y-66385368D01*
X128420750Y-66385369D01*
X128599996Y-66405565D01*
X128600000Y-66405565D01*
X128600004Y-66405565D01*
X128779249Y-66385369D01*
X128779252Y-66385368D01*
X128779255Y-66385368D01*
X128949522Y-66325789D01*
X129102262Y-66229816D01*
X129229816Y-66102262D01*
X129325789Y-65949522D01*
X129385368Y-65779255D01*
X129405565Y-65600000D01*
X129400171Y-65552129D01*
X129385369Y-65420750D01*
X129385368Y-65420745D01*
X129325788Y-65250476D01*
X129234950Y-65105909D01*
X129229816Y-65097738D01*
X129102262Y-64970184D01*
X129014382Y-64914965D01*
X128949523Y-64874211D01*
X128779254Y-64814631D01*
X128779249Y-64814630D01*
X128600004Y-64794435D01*
X128599996Y-64794435D01*
X128420750Y-64814630D01*
X128420745Y-64814631D01*
X128250476Y-64874211D01*
X128097737Y-64970184D01*
X127970184Y-65097737D01*
X127874211Y-65250476D01*
X127814631Y-65420745D01*
X127814630Y-65420750D01*
X127794435Y-65599996D01*
X119364000Y-65599996D01*
X119364000Y-54099996D01*
X125094435Y-54099996D01*
X125094435Y-54100003D01*
X125114630Y-54279249D01*
X125114631Y-54279254D01*
X125174211Y-54449523D01*
X125237646Y-54550478D01*
X125270184Y-54602262D01*
X125397738Y-54729816D01*
X125550478Y-54825789D01*
X125720745Y-54885368D01*
X125720750Y-54885369D01*
X125898018Y-54905342D01*
X125962432Y-54932408D01*
X126001987Y-54990003D01*
X126007355Y-55014678D01*
X126014630Y-55079250D01*
X126014631Y-55079254D01*
X126074211Y-55249523D01*
X126170184Y-55402262D01*
X126297738Y-55529816D01*
X126450478Y-55625789D01*
X126620745Y-55685368D01*
X126620750Y-55685369D01*
X126799996Y-55705565D01*
X126800000Y-55705565D01*
X126800004Y-55705565D01*
X126979249Y-55685369D01*
X126979252Y-55685368D01*
X126979255Y-55685368D01*
X127149522Y-55625789D01*
X127302262Y-55529816D01*
X127429816Y-55402262D01*
X127525789Y-55249522D01*
X127585368Y-55079255D01*
X127590187Y-55036489D01*
X127605565Y-54900003D01*
X127605565Y-54899996D01*
X127585369Y-54720750D01*
X127585368Y-54720745D01*
X127543909Y-54602262D01*
X127525789Y-54550478D01*
X127510251Y-54525750D01*
X127431237Y-54400000D01*
X127429816Y-54397738D01*
X127302262Y-54270184D01*
X127276022Y-54253696D01*
X127149523Y-54174211D01*
X126979254Y-54114631D01*
X126979250Y-54114630D01*
X126801980Y-54094657D01*
X126737566Y-54067590D01*
X126698011Y-54009995D01*
X126692644Y-53985320D01*
X126685369Y-53920749D01*
X126685368Y-53920745D01*
X126677934Y-53899500D01*
X126625789Y-53750478D01*
X126529816Y-53597738D01*
X126402262Y-53470184D01*
X126249523Y-53374211D01*
X126079254Y-53314631D01*
X126079249Y-53314630D01*
X125900004Y-53294435D01*
X125899996Y-53294435D01*
X125720750Y-53314630D01*
X125720745Y-53314631D01*
X125550476Y-53374211D01*
X125397737Y-53470184D01*
X125270184Y-53597737D01*
X125174211Y-53750476D01*
X125114631Y-53920745D01*
X125114630Y-53920750D01*
X125094435Y-54099996D01*
X119364000Y-54099996D01*
X119364000Y-53419440D01*
X119383685Y-53352401D01*
X119400319Y-53331759D01*
X119429816Y-53302262D01*
X119525789Y-53149522D01*
X119585368Y-52979255D01*
X119605565Y-52800000D01*
X119585368Y-52620745D01*
X119585367Y-52620743D01*
X119585366Y-52620737D01*
X119549926Y-52519455D01*
X119546364Y-52449676D01*
X119581092Y-52389049D01*
X119643086Y-52356821D01*
X119666967Y-52354500D01*
X121111460Y-52354500D01*
X121152415Y-52361459D01*
X121220737Y-52385366D01*
X121220743Y-52385367D01*
X121220745Y-52385368D01*
X121220746Y-52385368D01*
X121220750Y-52385369D01*
X121399996Y-52405565D01*
X121400000Y-52405565D01*
X121400004Y-52405565D01*
X121579249Y-52385369D01*
X121579252Y-52385368D01*
X121579255Y-52385368D01*
X121749522Y-52325789D01*
X121902262Y-52229816D01*
X122029816Y-52102262D01*
X122125789Y-51949522D01*
X122185368Y-51779255D01*
X122205565Y-51600000D01*
X122197192Y-51525688D01*
X122185369Y-51420750D01*
X122185368Y-51420745D01*
X122125788Y-51250476D01*
X122029815Y-51097737D01*
X121902262Y-50970184D01*
X121749523Y-50874211D01*
X121579254Y-50814631D01*
X121579249Y-50814630D01*
X121400004Y-50794435D01*
X121399996Y-50794435D01*
X121220750Y-50814630D01*
X121220737Y-50814633D01*
X121152415Y-50838541D01*
X121111460Y-50845500D01*
X117525683Y-50845500D01*
X117379927Y-50874493D01*
X117379919Y-50874495D01*
X117242608Y-50931371D01*
X117119035Y-51013939D01*
X117119028Y-51013945D01*
X117013945Y-51119028D01*
X117013939Y-51119035D01*
X116931371Y-51242608D01*
X116874495Y-51379919D01*
X116874493Y-51379927D01*
X116845500Y-51525683D01*
X116845500Y-69887097D01*
X116825815Y-69954136D01*
X116773011Y-69999891D01*
X116703853Y-70009835D01*
X116640297Y-69980810D01*
X116621182Y-69959983D01*
X116534582Y-69840790D01*
X116411710Y-69717918D01*
X116271122Y-69615774D01*
X116116293Y-69536884D01*
X115951021Y-69483183D01*
X115779392Y-69456000D01*
X115338500Y-69456000D01*
X115338500Y-70210000D01*
X114838500Y-70210000D01*
X114838500Y-69456000D01*
X114397608Y-69456000D01*
X114225978Y-69483183D01*
X114060706Y-69536884D01*
X113905877Y-69615774D01*
X113765290Y-69717918D01*
X113765289Y-69717918D01*
X113642418Y-69840789D01*
X113642418Y-69840790D01*
X113540274Y-69981377D01*
X113461384Y-70136208D01*
X113407684Y-70301476D01*
X113407683Y-70301483D01*
X113406334Y-70310000D01*
X109664000Y-70310000D01*
X109664000Y-58725750D01*
X109664000Y-58725748D01*
X109625565Y-58582304D01*
X109551313Y-58453696D01*
X109446304Y-58348687D01*
X109446303Y-58348686D01*
X109441973Y-58344356D01*
X109441962Y-58344346D01*
X109258383Y-58160767D01*
X109258381Y-58160764D01*
X109146306Y-58048689D01*
X109146304Y-58048687D01*
X109017696Y-57974435D01*
X108874253Y-57936000D01*
X108874252Y-57936000D01*
X108866193Y-57934939D01*
X108866367Y-57933612D01*
X108807460Y-57916315D01*
X108761705Y-57863511D01*
X108750499Y-57812000D01*
X108750499Y-57452129D01*
X108750498Y-57452123D01*
X108750497Y-57452116D01*
X108744091Y-57392517D01*
X108700778Y-57276390D01*
X108693797Y-57257671D01*
X108693793Y-57257664D01*
X108607547Y-57142455D01*
X108607544Y-57142452D01*
X108492335Y-57056206D01*
X108492328Y-57056202D01*
X108357482Y-57005908D01*
X108357483Y-57005908D01*
X108297883Y-56999501D01*
X108297881Y-56999500D01*
X108297873Y-56999500D01*
X108297864Y-56999500D01*
X106202129Y-56999500D01*
X106202123Y-56999501D01*
X106142516Y-57005908D01*
X106007671Y-57056202D01*
X106007664Y-57056206D01*
X105892455Y-57142452D01*
X105892452Y-57142455D01*
X105806206Y-57257664D01*
X105806202Y-57257671D01*
X105755908Y-57392517D01*
X105749501Y-57452116D01*
X105749501Y-57452123D01*
X105749500Y-57452135D01*
X105749500Y-59547870D01*
X105749501Y-59547876D01*
X105755908Y-59607483D01*
X105806202Y-59742328D01*
X105806206Y-59742335D01*
X105892452Y-59857544D01*
X105892455Y-59857547D01*
X106008986Y-59944783D01*
X106050857Y-60000717D01*
X106055841Y-60070408D01*
X106038484Y-60111870D01*
X105926267Y-60283631D01*
X105826412Y-60511282D01*
X105765387Y-60752261D01*
X105765385Y-60752270D01*
X105744859Y-60999994D01*
X105744859Y-61000005D01*
X105765385Y-61247729D01*
X105765387Y-61247738D01*
X105826412Y-61488717D01*
X105926266Y-61716364D01*
X106026564Y-61869882D01*
X106767037Y-61129408D01*
X106784075Y-61192993D01*
X106849901Y-61307007D01*
X106942993Y-61400099D01*
X107057007Y-61465925D01*
X107120590Y-61482962D01*
X106374100Y-62229450D01*
X106363482Y-62276148D01*
X106331376Y-62313556D01*
X106230255Y-62392262D01*
X106061833Y-62575217D01*
X105925826Y-62783393D01*
X105825936Y-63011118D01*
X105764892Y-63252175D01*
X105764890Y-63252187D01*
X105744357Y-63499994D01*
X105744357Y-63500005D01*
X105764890Y-63747812D01*
X105764892Y-63747824D01*
X105825936Y-63988881D01*
X105925826Y-64216606D01*
X106061833Y-64424782D01*
X106061836Y-64424785D01*
X106230256Y-64607738D01*
X106426491Y-64760474D01*
X106426494Y-64760476D01*
X106426496Y-64760477D01*
X106621017Y-64865746D01*
X106670608Y-64914965D01*
X106686000Y-64974801D01*
X106686000Y-86524254D01*
X106699385Y-86574210D01*
X106699386Y-86574210D01*
X106699386Y-86574211D01*
X106699398Y-86574254D01*
X106724435Y-86667697D01*
X106724436Y-86667698D01*
X106798687Y-86796304D01*
X106798689Y-86796306D01*
X106910761Y-86908378D01*
X106910767Y-86908383D01*
X111440203Y-91437819D01*
X111473688Y-91499142D01*
X111468704Y-91568834D01*
X111426832Y-91624767D01*
X111361368Y-91649184D01*
X111352522Y-91649500D01*
X110302129Y-91649500D01*
X110302123Y-91649501D01*
X110242516Y-91655908D01*
X110107671Y-91706202D01*
X110107664Y-91706206D01*
X109992455Y-91792452D01*
X109992452Y-91792455D01*
X109906206Y-91907664D01*
X109906203Y-91907669D01*
X109857189Y-92039083D01*
X109815317Y-92095016D01*
X109749853Y-92119433D01*
X109681580Y-92104581D01*
X109653326Y-92083430D01*
X109531402Y-91961506D01*
X109531395Y-91961501D01*
X109337834Y-91825967D01*
X109337830Y-91825965D01*
X109304468Y-91810408D01*
X109123663Y-91726097D01*
X109123659Y-91726096D01*
X109123655Y-91726094D01*
X108895413Y-91664938D01*
X108895403Y-91664936D01*
X108660001Y-91644341D01*
X108659999Y-91644341D01*
X108424596Y-91664936D01*
X108424586Y-91664938D01*
X108196344Y-91726094D01*
X108196335Y-91726098D01*
X107982171Y-91825964D01*
X107982169Y-91825965D01*
X107788597Y-91961505D01*
X107621505Y-92128597D01*
X107491575Y-92314158D01*
X107436998Y-92357783D01*
X107367500Y-92364977D01*
X107305145Y-92333454D01*
X107288425Y-92314158D01*
X107158494Y-92128597D01*
X106991402Y-91961506D01*
X106991395Y-91961501D01*
X106797834Y-91825967D01*
X106797830Y-91825965D01*
X106764468Y-91810408D01*
X106583663Y-91726097D01*
X106583659Y-91726096D01*
X106583655Y-91726094D01*
X106355413Y-91664938D01*
X106355403Y-91664936D01*
X106120001Y-91644341D01*
X106119999Y-91644341D01*
X105884596Y-91664936D01*
X105884586Y-91664938D01*
X105656344Y-91726094D01*
X105656335Y-91726098D01*
X105442171Y-91825964D01*
X105442169Y-91825965D01*
X105248597Y-91961505D01*
X105081505Y-92128597D01*
X104951575Y-92314158D01*
X104896998Y-92357783D01*
X104827500Y-92364977D01*
X104765145Y-92333454D01*
X104748425Y-92314158D01*
X104618494Y-92128597D01*
X104451402Y-91961506D01*
X104451395Y-91961501D01*
X104257834Y-91825967D01*
X104257830Y-91825965D01*
X104224468Y-91810408D01*
X104043663Y-91726097D01*
X104043659Y-91726096D01*
X104043655Y-91726094D01*
X103815413Y-91664938D01*
X103815403Y-91664936D01*
X103580001Y-91644341D01*
X103579999Y-91644341D01*
X103344596Y-91664936D01*
X103344586Y-91664938D01*
X103116344Y-91726094D01*
X103116335Y-91726098D01*
X102902171Y-91825964D01*
X102902169Y-91825965D01*
X102708597Y-91961505D01*
X102541505Y-92128597D01*
X102411575Y-92314158D01*
X102356998Y-92357783D01*
X102287500Y-92364977D01*
X102225145Y-92333454D01*
X102208425Y-92314158D01*
X102078494Y-92128597D01*
X101911402Y-91961506D01*
X101911395Y-91961501D01*
X101717834Y-91825967D01*
X101717830Y-91825965D01*
X101684468Y-91810408D01*
X101503663Y-91726097D01*
X101503659Y-91726096D01*
X101503655Y-91726094D01*
X101275413Y-91664938D01*
X101275403Y-91664936D01*
X101040001Y-91644341D01*
X101039999Y-91644341D01*
X100804596Y-91664936D01*
X100804586Y-91664938D01*
X100576344Y-91726094D01*
X100576335Y-91726098D01*
X100362171Y-91825964D01*
X100362169Y-91825965D01*
X100168597Y-91961505D01*
X100001505Y-92128597D01*
X99871575Y-92314158D01*
X99816998Y-92357783D01*
X99747500Y-92364977D01*
X99685145Y-92333454D01*
X99668425Y-92314158D01*
X99538494Y-92128597D01*
X99371402Y-91961506D01*
X99371395Y-91961501D01*
X99177834Y-91825967D01*
X99177830Y-91825965D01*
X99144468Y-91810408D01*
X98963663Y-91726097D01*
X98963659Y-91726096D01*
X98963655Y-91726094D01*
X98735413Y-91664938D01*
X98735403Y-91664936D01*
X98500001Y-91644341D01*
X98499999Y-91644341D01*
X98264596Y-91664936D01*
X98264586Y-91664938D01*
X98036344Y-91726094D01*
X98036335Y-91726098D01*
X97822171Y-91825964D01*
X97822169Y-91825965D01*
X97628597Y-91961505D01*
X97461505Y-92128597D01*
X97331575Y-92314158D01*
X97276998Y-92357783D01*
X97207500Y-92364977D01*
X97145145Y-92333454D01*
X97128425Y-92314158D01*
X96998494Y-92128597D01*
X96831402Y-91961506D01*
X96831395Y-91961501D01*
X96637834Y-91825967D01*
X96637830Y-91825965D01*
X96604468Y-91810408D01*
X96423663Y-91726097D01*
X96423659Y-91726096D01*
X96423655Y-91726094D01*
X96195413Y-91664938D01*
X96195403Y-91664936D01*
X95960001Y-91644341D01*
X95959999Y-91644341D01*
X95724596Y-91664936D01*
X95724586Y-91664938D01*
X95496344Y-91726094D01*
X95496335Y-91726098D01*
X95282171Y-91825964D01*
X95282169Y-91825965D01*
X95088597Y-91961505D01*
X94921505Y-92128597D01*
X94791575Y-92314158D01*
X94736998Y-92357783D01*
X94667500Y-92364977D01*
X94605145Y-92333454D01*
X94588425Y-92314158D01*
X94458494Y-92128597D01*
X94291402Y-91961506D01*
X94291395Y-91961501D01*
X94097834Y-91825967D01*
X94097830Y-91825965D01*
X94064468Y-91810408D01*
X93883663Y-91726097D01*
X93883659Y-91726096D01*
X93883655Y-91726094D01*
X93655413Y-91664938D01*
X93655403Y-91664936D01*
X93420001Y-91644341D01*
X93419999Y-91644341D01*
X93184596Y-91664936D01*
X93184586Y-91664938D01*
X92956344Y-91726094D01*
X92956335Y-91726098D01*
X92742171Y-91825964D01*
X92742169Y-91825965D01*
X92548597Y-91961505D01*
X92381505Y-92128597D01*
X92245965Y-92322169D01*
X92245964Y-92322171D01*
X92146098Y-92536335D01*
X92146094Y-92536344D01*
X92084938Y-92764586D01*
X92084936Y-92764596D01*
X92064341Y-92999999D01*
X90670500Y-92999999D01*
X90670500Y-81699983D01*
X93422000Y-81699983D01*
X93422000Y-83300001D01*
X93422001Y-83300018D01*
X93432500Y-83402796D01*
X93432501Y-83402799D01*
X93487685Y-83569331D01*
X93487687Y-83569336D01*
X93514118Y-83612187D01*
X93579788Y-83718656D01*
X93703844Y-83842712D01*
X93853166Y-83934814D01*
X94019703Y-83989999D01*
X94122491Y-84000500D01*
X97322508Y-84000499D01*
X97425297Y-83989999D01*
X97591834Y-83934814D01*
X97741156Y-83842712D01*
X97865212Y-83718656D01*
X97957314Y-83569334D01*
X98012499Y-83402797D01*
X98023000Y-83300009D01*
X98023000Y-82599996D01*
X102394435Y-82599996D01*
X102394435Y-82600003D01*
X102414630Y-82779249D01*
X102414631Y-82779254D01*
X102474211Y-82949523D01*
X102515122Y-83014632D01*
X102570184Y-83102262D01*
X102697738Y-83229816D01*
X102755070Y-83265840D01*
X102809460Y-83300016D01*
X102850478Y-83325789D01*
X102942112Y-83357853D01*
X103020745Y-83385368D01*
X103020750Y-83385369D01*
X103199996Y-83405565D01*
X103200000Y-83405565D01*
X103200004Y-83405565D01*
X103379249Y-83385369D01*
X103379252Y-83385368D01*
X103379255Y-83385368D01*
X103549522Y-83325789D01*
X103702262Y-83229816D01*
X103829816Y-83102262D01*
X103925789Y-82949522D01*
X103985368Y-82779255D01*
X103988611Y-82750478D01*
X104001716Y-82634158D01*
X104028782Y-82569744D01*
X104037233Y-82560382D01*
X104051313Y-82546304D01*
X104110851Y-82443182D01*
X104125565Y-82417697D01*
X104164000Y-82274253D01*
X104164000Y-82125748D01*
X104164000Y-78419440D01*
X104183685Y-78352401D01*
X104200319Y-78331759D01*
X104211333Y-78320745D01*
X104229816Y-78302262D01*
X104325789Y-78149522D01*
X104385368Y-77979255D01*
X104385932Y-77974251D01*
X104405565Y-77800003D01*
X104405565Y-77799996D01*
X104385369Y-77620750D01*
X104385368Y-77620745D01*
X104377848Y-77599253D01*
X104325789Y-77450478D01*
X104307106Y-77420745D01*
X104229815Y-77297737D01*
X104102262Y-77170184D01*
X103949523Y-77074211D01*
X103779254Y-77014631D01*
X103779249Y-77014630D01*
X103600004Y-76994435D01*
X103599996Y-76994435D01*
X103420750Y-77014630D01*
X103420745Y-77014631D01*
X103250476Y-77074211D01*
X103097737Y-77170184D01*
X102970184Y-77297737D01*
X102874211Y-77450476D01*
X102814631Y-77620745D01*
X102814630Y-77620750D01*
X102794435Y-77799996D01*
X102794435Y-77800003D01*
X102814630Y-77979249D01*
X102814631Y-77979254D01*
X102874211Y-78149523D01*
X102970184Y-78302262D01*
X102999681Y-78331759D01*
X103033166Y-78393082D01*
X103036000Y-78419440D01*
X103036000Y-81721311D01*
X103016315Y-81788350D01*
X102963511Y-81834105D01*
X102952954Y-81838353D01*
X102850478Y-81874210D01*
X102697737Y-81970184D01*
X102570184Y-82097737D01*
X102474211Y-82250476D01*
X102414631Y-82420745D01*
X102414630Y-82420750D01*
X102394435Y-82599996D01*
X98023000Y-82599996D01*
X98022999Y-81699992D01*
X98022143Y-81691617D01*
X98012499Y-81597203D01*
X98012498Y-81597200D01*
X97987163Y-81520745D01*
X97957314Y-81430666D01*
X97865212Y-81281344D01*
X97741156Y-81157288D01*
X97591834Y-81065186D01*
X97425297Y-81010001D01*
X97425295Y-81010000D01*
X97322510Y-80999500D01*
X94122498Y-80999500D01*
X94122481Y-80999501D01*
X94019703Y-81010000D01*
X94019700Y-81010001D01*
X93853168Y-81065185D01*
X93853163Y-81065187D01*
X93703842Y-81157289D01*
X93579789Y-81281342D01*
X93487687Y-81430663D01*
X93487685Y-81430668D01*
X93467633Y-81491181D01*
X93432501Y-81597203D01*
X93432501Y-81597204D01*
X93432500Y-81597204D01*
X93422000Y-81699983D01*
X90670500Y-81699983D01*
X90670500Y-77381902D01*
X93422000Y-77381902D01*
X93422000Y-77618097D01*
X93458946Y-77851368D01*
X93531933Y-78075996D01*
X93610309Y-78229816D01*
X93639157Y-78286433D01*
X93777983Y-78477510D01*
X93944990Y-78644517D01*
X94136067Y-78783343D01*
X94212870Y-78822476D01*
X94346503Y-78890566D01*
X94346505Y-78890566D01*
X94346508Y-78890568D01*
X94466912Y-78929689D01*
X94571131Y-78963553D01*
X94804403Y-79000500D01*
X94804408Y-79000500D01*
X96640597Y-79000500D01*
X96873868Y-78963553D01*
X97098492Y-78890568D01*
X97308933Y-78783343D01*
X97500010Y-78644517D01*
X97667017Y-78477510D01*
X97805843Y-78286433D01*
X97913068Y-78075992D01*
X97986053Y-77851368D01*
X97990111Y-77825748D01*
X98023000Y-77618097D01*
X98023000Y-77381902D01*
X97986053Y-77148631D01*
X97952189Y-77044412D01*
X97913068Y-76924008D01*
X97913066Y-76924005D01*
X97913066Y-76924003D01*
X97847047Y-76794435D01*
X97805843Y-76713567D01*
X97667017Y-76522490D01*
X97500010Y-76355483D01*
X97308933Y-76216657D01*
X97098496Y-76109433D01*
X96873868Y-76036446D01*
X96640597Y-75999500D01*
X96640592Y-75999500D01*
X94804408Y-75999500D01*
X94804403Y-75999500D01*
X94571131Y-76036446D01*
X94346503Y-76109433D01*
X94136066Y-76216657D01*
X94027050Y-76295862D01*
X93944990Y-76355483D01*
X93944988Y-76355485D01*
X93944987Y-76355485D01*
X93777985Y-76522487D01*
X93777985Y-76522488D01*
X93777983Y-76522490D01*
X93745582Y-76567086D01*
X93639157Y-76713566D01*
X93531933Y-76924003D01*
X93458946Y-77148631D01*
X93422000Y-77381902D01*
X90670500Y-77381902D01*
X90670500Y-72799996D01*
X94194435Y-72799996D01*
X94194435Y-72800003D01*
X94214630Y-72979249D01*
X94214631Y-72979254D01*
X94274211Y-73149523D01*
X94322292Y-73226043D01*
X94370184Y-73302262D01*
X94497738Y-73429816D01*
X94650478Y-73525789D01*
X94748302Y-73560019D01*
X94820745Y-73585368D01*
X94820750Y-73585369D01*
X94999996Y-73605565D01*
X95000000Y-73605565D01*
X95000004Y-73605565D01*
X95179249Y-73585369D01*
X95179251Y-73585368D01*
X95179255Y-73585368D01*
X95179258Y-73585366D01*
X95179262Y-73585366D01*
X95269377Y-73553832D01*
X95349522Y-73525789D01*
X95417611Y-73483005D01*
X95483583Y-73464000D01*
X98615022Y-73464000D01*
X98682061Y-73483685D01*
X98702703Y-73500319D01*
X99944346Y-74741962D01*
X99944356Y-74741973D01*
X99948686Y-74746303D01*
X99948687Y-74746304D01*
X100053696Y-74851313D01*
X100093954Y-74874556D01*
X100107372Y-74882303D01*
X100107373Y-74882304D01*
X100107374Y-74882304D01*
X100173954Y-74920745D01*
X100182303Y-74925565D01*
X100325747Y-74964000D01*
X100325748Y-74964000D01*
X104480560Y-74964000D01*
X104547599Y-74983685D01*
X104568241Y-75000319D01*
X104597738Y-75029816D01*
X104669490Y-75074901D01*
X104732721Y-75114632D01*
X104750478Y-75125789D01*
X104864940Y-75165841D01*
X104920745Y-75185368D01*
X104920750Y-75185369D01*
X105099996Y-75205565D01*
X105100000Y-75205565D01*
X105100004Y-75205565D01*
X105279249Y-75185369D01*
X105279252Y-75185368D01*
X105279255Y-75185368D01*
X105449522Y-75125789D01*
X105602262Y-75029816D01*
X105729816Y-74902262D01*
X105825789Y-74749522D01*
X105885368Y-74579255D01*
X105887671Y-74558819D01*
X105905565Y-74400003D01*
X105905565Y-74399996D01*
X105885369Y-74220750D01*
X105885368Y-74220745D01*
X105848826Y-74116315D01*
X105825789Y-74050478D01*
X105729816Y-73897738D01*
X105602262Y-73770184D01*
X105476565Y-73691203D01*
X105449523Y-73674211D01*
X105279254Y-73614631D01*
X105279249Y-73614630D01*
X105100004Y-73594435D01*
X105099996Y-73594435D01*
X104920750Y-73614630D01*
X104920745Y-73614631D01*
X104750476Y-73674211D01*
X104597737Y-73770184D01*
X104568241Y-73799681D01*
X104506918Y-73833166D01*
X104480560Y-73836000D01*
X100684978Y-73836000D01*
X100617939Y-73816315D01*
X100597297Y-73799681D01*
X99358383Y-72560767D01*
X99358381Y-72560764D01*
X99246306Y-72448689D01*
X99246304Y-72448687D01*
X99117698Y-72374436D01*
X99117697Y-72374435D01*
X99090759Y-72367217D01*
X99063823Y-72360000D01*
X99063822Y-72359999D01*
X98998252Y-72342430D01*
X98974253Y-72336000D01*
X98974252Y-72336000D01*
X95719440Y-72336000D01*
X95652401Y-72316315D01*
X95631759Y-72299681D01*
X95502262Y-72170184D01*
X95349523Y-72074211D01*
X95179254Y-72014631D01*
X95179249Y-72014630D01*
X95000004Y-71994435D01*
X94999996Y-71994435D01*
X94820750Y-72014630D01*
X94820745Y-72014631D01*
X94650476Y-72074211D01*
X94497737Y-72170184D01*
X94370184Y-72297737D01*
X94274211Y-72450476D01*
X94214631Y-72620745D01*
X94214630Y-72620750D01*
X94194435Y-72799996D01*
X90670500Y-72799996D01*
X90670500Y-65552135D01*
X97649500Y-65552135D01*
X97649500Y-67647870D01*
X97649501Y-67647876D01*
X97655908Y-67707483D01*
X97706202Y-67842328D01*
X97706206Y-67842335D01*
X97792452Y-67957544D01*
X97792455Y-67957547D01*
X97907664Y-68043793D01*
X97907671Y-68043797D01*
X98042517Y-68094091D01*
X98042516Y-68094091D01*
X98049444Y-68094835D01*
X98102127Y-68100500D01*
X101397872Y-68100499D01*
X101457483Y-68094091D01*
X101592331Y-68043796D01*
X101707546Y-67957546D01*
X101793796Y-67842331D01*
X101844091Y-67707483D01*
X101850500Y-67647873D01*
X101850499Y-65552128D01*
X101844091Y-65492517D01*
X101793796Y-65357669D01*
X101793795Y-65357668D01*
X101793793Y-65357664D01*
X101707547Y-65242455D01*
X101707544Y-65242452D01*
X101592335Y-65156206D01*
X101592328Y-65156202D01*
X101457482Y-65105908D01*
X101457483Y-65105908D01*
X101397883Y-65099501D01*
X101397881Y-65099500D01*
X101397873Y-65099500D01*
X101397864Y-65099500D01*
X98102129Y-65099500D01*
X98102123Y-65099501D01*
X98042516Y-65105908D01*
X97907671Y-65156202D01*
X97907664Y-65156206D01*
X97792455Y-65242452D01*
X97792452Y-65242455D01*
X97706206Y-65357664D01*
X97706202Y-65357671D01*
X97655908Y-65492517D01*
X97649501Y-65552116D01*
X97649501Y-65552123D01*
X97649500Y-65552135D01*
X90670500Y-65552135D01*
X90670500Y-63499994D01*
X91244357Y-63499994D01*
X91244357Y-63500005D01*
X91264890Y-63747812D01*
X91264892Y-63747824D01*
X91325936Y-63988881D01*
X91425826Y-64216606D01*
X91561833Y-64424782D01*
X91561836Y-64424785D01*
X91730256Y-64607738D01*
X91926491Y-64760474D01*
X91926493Y-64760475D01*
X92136658Y-64874211D01*
X92145190Y-64878828D01*
X92380386Y-64959571D01*
X92625665Y-65000500D01*
X92874335Y-65000500D01*
X93119614Y-64959571D01*
X93354810Y-64878828D01*
X93573509Y-64760474D01*
X93769744Y-64607738D01*
X93938164Y-64424785D01*
X94074173Y-64216607D01*
X94174063Y-63988881D01*
X94235108Y-63747821D01*
X94255643Y-63500000D01*
X94235108Y-63252179D01*
X94174063Y-63011119D01*
X94074173Y-62783393D01*
X94036000Y-62724964D01*
X93938166Y-62575217D01*
X93847292Y-62476502D01*
X93769744Y-62392262D01*
X93573509Y-62239526D01*
X93573507Y-62239525D01*
X93573506Y-62239524D01*
X93354811Y-62121172D01*
X93354802Y-62121169D01*
X93119616Y-62040429D01*
X92874335Y-61999500D01*
X92625665Y-61999500D01*
X92380383Y-62040429D01*
X92145197Y-62121169D01*
X92145188Y-62121172D01*
X91926493Y-62239524D01*
X91730257Y-62392261D01*
X91561833Y-62575217D01*
X91425826Y-62783393D01*
X91325936Y-63011118D01*
X91264892Y-63252175D01*
X91264890Y-63252187D01*
X91244357Y-63499994D01*
X90670500Y-63499994D01*
X90670500Y-58499994D01*
X91244859Y-58499994D01*
X91244859Y-58500005D01*
X91265385Y-58747729D01*
X91265387Y-58747738D01*
X91326412Y-58988717D01*
X91426266Y-59216364D01*
X91526564Y-59369882D01*
X92267037Y-58629409D01*
X92284075Y-58692993D01*
X92349901Y-58807007D01*
X92442993Y-58900099D01*
X92557007Y-58965925D01*
X92620590Y-58982962D01*
X91879942Y-59723609D01*
X91926768Y-59760055D01*
X91926770Y-59760056D01*
X92145385Y-59878364D01*
X92145396Y-59878369D01*
X92380506Y-59959083D01*
X92625707Y-60000000D01*
X92874293Y-60000000D01*
X93119493Y-59959083D01*
X93354603Y-59878369D01*
X93354614Y-59878364D01*
X93573228Y-59760057D01*
X93573231Y-59760055D01*
X93620056Y-59723609D01*
X92879409Y-58982962D01*
X92942993Y-58965925D01*
X93057007Y-58900099D01*
X93150099Y-58807007D01*
X93215925Y-58692993D01*
X93232962Y-58629410D01*
X93973434Y-59369882D01*
X94073731Y-59216369D01*
X94173587Y-58988717D01*
X94234612Y-58747738D01*
X94234614Y-58747729D01*
X94255141Y-58500005D01*
X94255141Y-58499994D01*
X94234614Y-58252270D01*
X94234612Y-58252261D01*
X94173587Y-58011282D01*
X94073731Y-57783630D01*
X93973434Y-57630116D01*
X93232962Y-58370589D01*
X93215925Y-58307007D01*
X93150099Y-58192993D01*
X93057007Y-58099901D01*
X92942993Y-58034075D01*
X92879410Y-58017037D01*
X93620057Y-57276390D01*
X93620056Y-57276389D01*
X93573229Y-57239943D01*
X93354614Y-57121635D01*
X93354603Y-57121630D01*
X93119493Y-57040916D01*
X92874293Y-57000000D01*
X92625707Y-57000000D01*
X92380506Y-57040916D01*
X92145396Y-57121630D01*
X92145390Y-57121632D01*
X91926761Y-57239949D01*
X91879942Y-57276388D01*
X91879942Y-57276390D01*
X92620590Y-58017037D01*
X92557007Y-58034075D01*
X92442993Y-58099901D01*
X92349901Y-58192993D01*
X92284075Y-58307007D01*
X92267037Y-58370589D01*
X91526564Y-57630116D01*
X91426267Y-57783632D01*
X91326412Y-58011282D01*
X91265387Y-58252261D01*
X91265385Y-58252270D01*
X91244859Y-58499994D01*
X90670500Y-58499994D01*
X90670500Y-54352135D01*
X97649500Y-54352135D01*
X97649500Y-56447870D01*
X97649501Y-56447876D01*
X97655908Y-56507483D01*
X97706202Y-56642328D01*
X97706206Y-56642335D01*
X97792452Y-56757544D01*
X97792455Y-56757547D01*
X97907664Y-56843793D01*
X97907671Y-56843797D01*
X98042517Y-56894091D01*
X98042516Y-56894091D01*
X98049444Y-56894835D01*
X98102127Y-56900500D01*
X101397872Y-56900499D01*
X101457483Y-56894091D01*
X101592331Y-56843796D01*
X101707546Y-56757546D01*
X101793796Y-56642331D01*
X101844091Y-56507483D01*
X101850500Y-56447873D01*
X101850499Y-54352128D01*
X101844091Y-54292517D01*
X101839144Y-54279254D01*
X101793797Y-54157671D01*
X101793793Y-54157664D01*
X101707547Y-54042455D01*
X101707544Y-54042452D01*
X101592335Y-53956206D01*
X101592328Y-53956202D01*
X101457482Y-53905908D01*
X101457483Y-53905908D01*
X101397883Y-53899501D01*
X101397881Y-53899500D01*
X101397873Y-53899500D01*
X101397864Y-53899500D01*
X98102129Y-53899500D01*
X98102123Y-53899501D01*
X98042516Y-53905908D01*
X97907671Y-53956202D01*
X97907664Y-53956206D01*
X97792455Y-54042452D01*
X97792452Y-54042455D01*
X97706206Y-54157664D01*
X97706202Y-54157671D01*
X97655908Y-54292517D01*
X97649501Y-54352116D01*
X97649501Y-54352123D01*
X97649500Y-54352135D01*
X90670500Y-54352135D01*
X90670500Y-49330943D01*
X111688000Y-49330943D01*
X111688000Y-49489056D01*
X111728923Y-49641783D01*
X111728926Y-49641790D01*
X111807975Y-49778709D01*
X111807979Y-49778714D01*
X111807980Y-49778716D01*
X111919784Y-49890520D01*
X111919786Y-49890521D01*
X111919790Y-49890524D01*
X112056709Y-49969573D01*
X112056716Y-49969577D01*
X112209443Y-50010500D01*
X112209445Y-50010500D01*
X112367555Y-50010500D01*
X112367557Y-50010500D01*
X112520284Y-49969577D01*
X112657216Y-49890520D01*
X112769020Y-49778716D01*
X112848077Y-49641784D01*
X112889000Y-49489057D01*
X112889000Y-49330943D01*
X151888000Y-49330943D01*
X151888000Y-49489056D01*
X151928923Y-49641783D01*
X151928926Y-49641790D01*
X152007975Y-49778709D01*
X152007979Y-49778714D01*
X152007980Y-49778716D01*
X152119784Y-49890520D01*
X152119786Y-49890521D01*
X152119790Y-49890524D01*
X152256709Y-49969573D01*
X152256716Y-49969577D01*
X152409443Y-50010500D01*
X152409445Y-50010500D01*
X152567555Y-50010500D01*
X152567557Y-50010500D01*
X152720284Y-49969577D01*
X152857216Y-49890520D01*
X152969020Y-49778716D01*
X153048077Y-49641784D01*
X153089000Y-49489057D01*
X153089000Y-49330943D01*
X153048077Y-49178216D01*
X153048073Y-49178209D01*
X152969024Y-49041290D01*
X152969018Y-49041282D01*
X152857217Y-48929481D01*
X152857209Y-48929475D01*
X152720290Y-48850426D01*
X152720286Y-48850424D01*
X152720284Y-48850423D01*
X152567557Y-48809500D01*
X152409443Y-48809500D01*
X152256716Y-48850423D01*
X152256709Y-48850426D01*
X152119790Y-48929475D01*
X152119782Y-48929481D01*
X152007981Y-49041282D01*
X152007975Y-49041290D01*
X151928926Y-49178209D01*
X151928923Y-49178216D01*
X151888000Y-49330943D01*
X112889000Y-49330943D01*
X112848077Y-49178216D01*
X112848073Y-49178209D01*
X112769024Y-49041290D01*
X112769018Y-49041282D01*
X112657217Y-48929481D01*
X112657209Y-48929475D01*
X112520290Y-48850426D01*
X112520286Y-48850424D01*
X112520284Y-48850423D01*
X112367557Y-48809500D01*
X112209443Y-48809500D01*
X112056716Y-48850423D01*
X112056709Y-48850426D01*
X111919790Y-48929475D01*
X111919782Y-48929481D01*
X111807981Y-49041282D01*
X111807975Y-49041290D01*
X111728926Y-49178209D01*
X111728923Y-49178216D01*
X111688000Y-49330943D01*
X90670500Y-49330943D01*
X90670500Y-42345946D01*
X96709500Y-42345946D01*
X96709500Y-42654053D01*
X96709501Y-42654069D01*
X96749717Y-42959542D01*
X96829464Y-43257162D01*
X96947376Y-43541826D01*
X96947381Y-43541837D01*
X97008682Y-43648012D01*
X97101438Y-43808670D01*
X97101440Y-43808673D01*
X97101441Y-43808674D01*
X97289007Y-44053115D01*
X97289013Y-44053122D01*
X97506877Y-44270986D01*
X97506883Y-44270991D01*
X97751330Y-44458562D01*
X97922830Y-44557578D01*
X98018162Y-44612618D01*
X98018167Y-44612620D01*
X98018170Y-44612622D01*
X98302836Y-44730535D01*
X98600456Y-44810282D01*
X98905940Y-44850500D01*
X98905947Y-44850500D01*
X99214053Y-44850500D01*
X99214060Y-44850500D01*
X99519544Y-44810282D01*
X99817164Y-44730535D01*
X100101830Y-44612622D01*
X100368670Y-44458562D01*
X100613117Y-44270991D01*
X100830991Y-44053117D01*
X101018562Y-43808670D01*
X101172622Y-43541830D01*
X101290535Y-43257164D01*
X101370282Y-42959544D01*
X101410500Y-42654060D01*
X101410500Y-42345940D01*
X101370282Y-42040456D01*
X101290535Y-41742836D01*
X101172622Y-41458170D01*
X101172620Y-41458167D01*
X101172618Y-41458162D01*
X101117578Y-41362830D01*
X101018562Y-41191330D01*
X100941188Y-41090494D01*
X100830992Y-40946884D01*
X100830986Y-40946877D01*
X100613122Y-40729013D01*
X100613115Y-40729007D01*
X100368674Y-40541441D01*
X100368673Y-40541440D01*
X100368670Y-40541438D01*
X100195512Y-40441465D01*
X100101837Y-40387381D01*
X100101826Y-40387376D01*
X99819695Y-40270513D01*
X112332000Y-40270513D01*
X112332000Y-41620500D01*
X113177879Y-41620500D01*
X113158901Y-41666318D01*
X113132000Y-41801556D01*
X113132000Y-41939444D01*
X113158901Y-42074682D01*
X113177879Y-42120500D01*
X112332001Y-42120500D01*
X112332001Y-43470486D01*
X112342494Y-43573197D01*
X112397641Y-43739619D01*
X112397643Y-43739624D01*
X112489684Y-43888845D01*
X112613654Y-44012815D01*
X112762875Y-44104856D01*
X112762880Y-44104858D01*
X112929302Y-44160005D01*
X112929309Y-44160006D01*
X113032019Y-44170499D01*
X113581999Y-44170499D01*
X113582000Y-44170498D01*
X113582000Y-42524620D01*
X113627818Y-42543599D01*
X113763056Y-42570500D01*
X113900944Y-42570500D01*
X114036182Y-42543599D01*
X114082000Y-42524620D01*
X114082000Y-44170499D01*
X114631972Y-44170499D01*
X114631986Y-44170498D01*
X114734697Y-44160005D01*
X114901119Y-44104858D01*
X114901124Y-44104856D01*
X115050345Y-44012815D01*
X115174315Y-43888845D01*
X115266356Y-43739624D01*
X115266358Y-43739619D01*
X115321505Y-43573197D01*
X115321506Y-43573190D01*
X115331999Y-43470486D01*
X115332000Y-43470473D01*
X115332000Y-42120500D01*
X114486121Y-42120500D01*
X114505099Y-42074682D01*
X114532000Y-41939444D01*
X114532000Y-41801556D01*
X114505099Y-41666318D01*
X114486121Y-41620500D01*
X115331999Y-41620500D01*
X115331999Y-40952402D01*
X117331500Y-40952402D01*
X117331500Y-42788597D01*
X117368446Y-43021868D01*
X117441433Y-43246496D01*
X117534507Y-43429162D01*
X117548657Y-43456933D01*
X117687483Y-43648010D01*
X117854490Y-43815017D01*
X118045567Y-43953843D01*
X118098218Y-43980670D01*
X118256003Y-44061066D01*
X118256005Y-44061066D01*
X118256008Y-44061068D01*
X118376412Y-44100189D01*
X118480631Y-44134053D01*
X118713903Y-44171000D01*
X118713908Y-44171000D01*
X118950097Y-44171000D01*
X119183368Y-44134053D01*
X119407992Y-44061068D01*
X119618433Y-43953843D01*
X119809510Y-43815017D01*
X119976517Y-43648010D01*
X120115343Y-43456933D01*
X120222568Y-43246492D01*
X120295553Y-43021868D01*
X120305424Y-42959544D01*
X120332500Y-42788597D01*
X120332500Y-42199996D01*
X133594435Y-42199996D01*
X133594435Y-42200003D01*
X133614630Y-42379249D01*
X133614631Y-42379254D01*
X133674211Y-42549524D01*
X133753493Y-42675698D01*
X133772500Y-42741671D01*
X133772500Y-45061807D01*
X133796612Y-45183028D01*
X133796614Y-45183035D01*
X133821833Y-45243917D01*
X133843913Y-45297225D01*
X133843920Y-45297238D01*
X133901248Y-45383035D01*
X133901249Y-45383036D01*
X133912590Y-45400010D01*
X133912591Y-45400011D01*
X134112589Y-45600008D01*
X134712589Y-46200008D01*
X134799992Y-46287411D01*
X134799993Y-46287412D01*
X134902760Y-46356079D01*
X134902773Y-46356086D01*
X135016960Y-46403383D01*
X135016965Y-46403385D01*
X135016969Y-46403385D01*
X135016970Y-46403386D01*
X135138194Y-46427500D01*
X135138197Y-46427500D01*
X135261803Y-46427500D01*
X145858328Y-46427500D01*
X145924299Y-46446505D01*
X146050478Y-46525789D01*
X146220745Y-46585368D01*
X146220750Y-46585369D01*
X146399996Y-46605565D01*
X146400000Y-46605565D01*
X146400004Y-46605565D01*
X146579249Y-46585369D01*
X146579252Y-46585368D01*
X146579255Y-46585368D01*
X146749522Y-46525789D01*
X146902262Y-46429816D01*
X147029816Y-46302262D01*
X147125789Y-46149522D01*
X147185368Y-45979255D01*
X147205565Y-45800000D01*
X147185368Y-45620745D01*
X147125789Y-45450478D01*
X147029816Y-45297738D01*
X146902262Y-45170184D01*
X146875700Y-45153494D01*
X146749523Y-45074211D01*
X146579254Y-45014631D01*
X146579249Y-45014630D01*
X146400004Y-44994435D01*
X146399996Y-44994435D01*
X146220750Y-45014630D01*
X146220745Y-45014631D01*
X146050476Y-45074211D01*
X145924300Y-45153494D01*
X145858328Y-45172500D01*
X135511281Y-45172500D01*
X135444242Y-45152815D01*
X135423600Y-45136181D01*
X135063819Y-44776400D01*
X135030334Y-44715077D01*
X135027500Y-44688719D01*
X135027500Y-42741671D01*
X135046507Y-42675698D01*
X135125788Y-42549524D01*
X135125789Y-42549522D01*
X135136838Y-42517946D01*
X162649500Y-42517946D01*
X162649500Y-42826053D01*
X162649501Y-42826069D01*
X162689717Y-43131542D01*
X162769464Y-43429162D01*
X162887376Y-43713826D01*
X162887381Y-43713837D01*
X162945798Y-43815017D01*
X163041438Y-43980670D01*
X163041440Y-43980673D01*
X163041441Y-43980674D01*
X163229007Y-44225115D01*
X163229013Y-44225122D01*
X163446877Y-44442986D01*
X163446883Y-44442991D01*
X163691330Y-44630562D01*
X163862830Y-44729578D01*
X163958162Y-44784618D01*
X163958167Y-44784620D01*
X163958170Y-44784622D01*
X164242836Y-44902535D01*
X164540456Y-44982282D01*
X164845940Y-45022500D01*
X164845947Y-45022500D01*
X165154053Y-45022500D01*
X165154060Y-45022500D01*
X165459544Y-44982282D01*
X165757164Y-44902535D01*
X166041830Y-44784622D01*
X166308670Y-44630562D01*
X166553117Y-44442991D01*
X166770991Y-44225117D01*
X166958562Y-43980670D01*
X167112622Y-43713830D01*
X167230535Y-43429164D01*
X167310282Y-43131544D01*
X167350500Y-42826060D01*
X167350500Y-42517940D01*
X167310282Y-42212456D01*
X167230535Y-41914836D01*
X167112622Y-41630170D01*
X167112620Y-41630167D01*
X167112618Y-41630162D01*
X167022579Y-41474211D01*
X166958562Y-41363330D01*
X166770991Y-41118883D01*
X166770986Y-41118877D01*
X166553122Y-40901013D01*
X166553115Y-40901007D01*
X166308674Y-40713441D01*
X166308673Y-40713440D01*
X166308670Y-40713438D01*
X166202280Y-40652014D01*
X166041837Y-40559381D01*
X166041826Y-40559376D01*
X165757162Y-40441464D01*
X165459542Y-40361717D01*
X165154069Y-40321501D01*
X165154066Y-40321500D01*
X165154060Y-40321500D01*
X164845940Y-40321500D01*
X164845934Y-40321500D01*
X164845930Y-40321501D01*
X164540457Y-40361717D01*
X164242837Y-40441464D01*
X163958173Y-40559376D01*
X163958162Y-40559381D01*
X163691325Y-40713441D01*
X163446884Y-40901007D01*
X163446877Y-40901013D01*
X163229013Y-41118877D01*
X163229007Y-41118884D01*
X163041441Y-41363325D01*
X162887381Y-41630162D01*
X162887376Y-41630173D01*
X162769464Y-41914837D01*
X162689717Y-42212457D01*
X162649501Y-42517930D01*
X162649500Y-42517946D01*
X135136838Y-42517946D01*
X135185368Y-42379255D01*
X135189123Y-42345930D01*
X135205565Y-42200003D01*
X135205565Y-42199996D01*
X135185369Y-42020750D01*
X135185368Y-42020745D01*
X135125789Y-41850478D01*
X135029816Y-41697738D01*
X134902262Y-41570184D01*
X134749523Y-41474211D01*
X134579254Y-41414631D01*
X134579249Y-41414630D01*
X134400004Y-41394435D01*
X134399996Y-41394435D01*
X134220750Y-41414630D01*
X134220745Y-41414631D01*
X134050476Y-41474211D01*
X133897737Y-41570184D01*
X133770184Y-41697737D01*
X133674211Y-41850476D01*
X133614631Y-42020745D01*
X133614630Y-42020750D01*
X133594435Y-42199996D01*
X120332500Y-42199996D01*
X120332500Y-40952402D01*
X120295553Y-40719131D01*
X120261689Y-40614912D01*
X120222568Y-40494508D01*
X120222566Y-40494505D01*
X120222566Y-40494503D01*
X120154908Y-40361717D01*
X120115343Y-40284067D01*
X119976517Y-40092990D01*
X119809510Y-39925983D01*
X119618433Y-39787157D01*
X119407996Y-39679933D01*
X119183368Y-39606946D01*
X118950097Y-39570000D01*
X118950092Y-39570000D01*
X118713908Y-39570000D01*
X118713903Y-39570000D01*
X118480631Y-39606946D01*
X118256003Y-39679933D01*
X118045566Y-39787157D01*
X117936550Y-39866362D01*
X117854490Y-39925983D01*
X117854488Y-39925985D01*
X117854487Y-39925985D01*
X117687485Y-40092987D01*
X117687485Y-40092988D01*
X117687483Y-40092990D01*
X117646426Y-40149500D01*
X117548657Y-40284066D01*
X117441433Y-40494503D01*
X117368446Y-40719131D01*
X117331500Y-40952402D01*
X115331999Y-40952402D01*
X115331999Y-40270528D01*
X115331998Y-40270513D01*
X115321505Y-40167802D01*
X115266358Y-40001380D01*
X115266356Y-40001375D01*
X115174315Y-39852154D01*
X115050345Y-39728184D01*
X114901124Y-39636143D01*
X114901119Y-39636141D01*
X114734697Y-39580994D01*
X114734690Y-39580993D01*
X114631986Y-39570500D01*
X114082000Y-39570500D01*
X114082000Y-41216379D01*
X114036182Y-41197401D01*
X113900944Y-41170500D01*
X113763056Y-41170500D01*
X113627818Y-41197401D01*
X113582000Y-41216379D01*
X113582000Y-39570500D01*
X113032028Y-39570500D01*
X113032012Y-39570501D01*
X112929302Y-39580994D01*
X112762880Y-39636141D01*
X112762875Y-39636143D01*
X112613654Y-39728184D01*
X112489684Y-39852154D01*
X112397643Y-40001375D01*
X112397641Y-40001380D01*
X112342494Y-40167802D01*
X112342493Y-40167809D01*
X112332000Y-40270513D01*
X99819695Y-40270513D01*
X99817162Y-40269464D01*
X99519542Y-40189717D01*
X99214069Y-40149501D01*
X99214066Y-40149500D01*
X99214060Y-40149500D01*
X98905940Y-40149500D01*
X98905934Y-40149500D01*
X98905930Y-40149501D01*
X98600457Y-40189717D01*
X98302837Y-40269464D01*
X98018173Y-40387376D01*
X98018162Y-40387381D01*
X97751325Y-40541441D01*
X97506884Y-40729007D01*
X97506877Y-40729013D01*
X97289013Y-40946877D01*
X97289007Y-40946884D01*
X97101441Y-41191325D01*
X96947381Y-41458162D01*
X96947376Y-41458173D01*
X96829464Y-41742837D01*
X96749717Y-42040457D01*
X96709501Y-42345930D01*
X96709500Y-42345946D01*
X90670500Y-42345946D01*
X90670500Y-36692500D01*
X90690185Y-36625461D01*
X90742989Y-36579706D01*
X90794500Y-36568500D01*
X175143500Y-36568500D01*
X175210539Y-36588185D01*
G37*
%TD.AperFunction*%
%TD*%
M02*
