M48
; DRILL file {KiCad 8.0.2-8.0.2-0~ubuntu22.04.1} date 2024-05-19T11:55:39-0500
; FORMAT={-:-/ absolute / inch / decimal}
; #@! TF.CreationDate,2024-05-19T11:55:39-05:00
; #@! TF.GenerationSoftware,Kicad,Pcbnew,8.0.2-8.0.2-0~ubuntu22.04.1
; #@! TF.FileFunction,Plated,1,4,PTH
FMAT,2
INCH
; #@! TA.AperFunction,Plated,PTH,ViaDrill
T1C0.0079
; #@! TA.AperFunction,Plated,PTH,ComponentDrill
T2C0.0197
; #@! TA.AperFunction,Plated,PTH,ComponentDrill
T3C0.0236
; #@! TA.AperFunction,Plated,PTH,ComponentDrill
T4C0.0276
; #@! TA.AperFunction,Plated,PTH,ComponentDrill
T5C0.0394
; #@! TA.AperFunction,Plated,PTH,ComponentDrill
T6C0.0551
; #@! TA.AperFunction,Plated,PTH,ComponentDrill
T7C0.0591
%
G90
G05
T1
X3.88Y-3.87
X3.89Y-2.795
X3.97Y-3.27
X4.03Y-1.94
X4.09Y-3.255
X4.165Y-3.47
X4.195Y-3.07
X4.203Y-3.021
X4.22Y-3.28
X4.225Y-3.505
X4.23Y-4.285
X4.265Y-3.015
X4.285Y-3.115
X4.29Y-3.84
X4.295Y-2.92
X4.3Y-4.255
X4.3165Y-3.0707
X4.325Y-2.9
X4.325Y-3.555
X4.345Y-3.225
X4.345Y-3.335
X4.35Y-3.115
X4.355Y-3.46
X4.378Y-3.482
X4.395Y-3.505
X4.4Y-3.105
X4.425Y-3.085
X4.43Y-3.225
X4.43Y-3.335
X4.4312Y-2.9428
X4.4562Y-3.0657
X4.46Y-3.015
X4.47Y-3.555
X4.4966Y-3.0657
X4.535Y-3.505
X4.54Y-3.555
X4.565Y-3.36
X4.6Y-3.87
X4.629Y-3.3056
X4.665Y-3.59
X4.675Y-4.24
X4.679Y-3.483
X4.735Y-3.535
X4.76Y-3.56
X4.765Y-3.505
X4.765Y-3.59
X4.7938Y-3.4662
X4.795Y-3.265
X4.806Y-2.514
X4.82Y-3.888
X4.825Y-3.445
X4.905Y-3.315
X4.961Y-3.406
X4.986Y-2.334
X4.9881Y-3.4881
X4.9899Y-3.4433
X4.9945Y-3.652
X4.995Y-2.915
X4.995Y-3.755
X4.995Y-3.8
X4.9951Y-3.6993
X4.9985Y-3.5619
X5.0Y-3.625
X5.0Y-3.888
X5.0074Y-3.5078
X5.012Y-3.412
X5.015Y-3.4712
X5.025Y-3.6767
X5.025Y-3.295
X5.025Y-3.755
X5.0262Y-3.6051
X5.03Y-3.555
X5.045Y-1.47
X5.045Y-1.655
X5.046Y-2.266
X5.085Y-3.415
X5.09Y-2.134
X5.1148Y-3.3785
X5.12Y-3.415
X5.12Y-3.615
X5.12Y-3.835
X5.1344Y-4.18
X5.135Y-3.86
X5.148Y-2.217
X5.155Y-3.42
X5.162Y-2.39
X5.186Y-3.608
X5.186Y-3.674
X5.19Y-4.18
X5.19Y-3.4382
X5.195Y-3.4
X5.2Y-3.8553
X5.21Y-4.279
X5.22Y-1.91
X5.223Y-3.877
X5.245Y-3.825
X5.252Y-3.61
X5.252Y-3.674
X5.26Y-3.55
X5.265Y-3.455
X5.2764Y-3.8393
X5.296Y-1.705
X5.305Y-3.44
X5.385Y-3.41
X5.41Y-3.7473
X5.4343Y-3.59
X5.4474Y-3.7158
X5.46Y-2.284
X5.4741Y-3.699
X5.4796Y-3.6672
X5.5Y-3.582
X5.515Y-4.16
X5.525Y-3.48
X5.525Y-3.6027
X5.57Y-3.27
X5.615Y-3.56
X5.62Y-3.21
X5.642Y-3.23
X5.646Y-3.5427
X5.655Y-3.77
X5.6627Y-3.2557
X5.668Y-2.284
X5.67Y-3.905
X5.684Y-3.402
X5.685Y-4.16
X5.686Y-3.278
X5.69Y-3.95
X5.704Y-3.522
X5.709Y-1.62
X5.71Y-3.305
X5.725Y-4.005
X5.75Y-3.075
X5.8Y-3.74
X5.802Y-1.748
X5.81Y-3.685
X6.125Y-3.43
X6.195Y-1.71
X6.215Y-1.955
X6.22Y-4.01
X6.305Y-2.755
X6.458Y-2.742
X6.575Y-3.435
X6.58Y-3.02
X6.58Y-3.87
X6.62Y-3.515
X6.625Y-3.945
X6.645Y-3.1
X6.77Y-1.975
T3
X4.7397Y-2.8488
X4.7988Y-2.8488
X4.8578Y-2.8488
X4.9169Y-2.8488
X4.9759Y-2.8488
X5.035Y-2.8488
X5.094Y-2.8488
X5.1531Y-2.8488
X5.2121Y-2.8488
X5.2712Y-2.8488
X5.3303Y-2.8488
X5.3893Y-2.8488
X5.4484Y-2.8488
X5.5074Y-2.8488
X5.5665Y-2.8488
X5.6255Y-2.8488
X5.6846Y-2.8488
T5
X3.6346Y-2.3016
X3.6346Y-2.4984
X4.2054Y-2.3016
X4.2054Y-2.4
X4.2054Y-2.4984
X4.2944Y-4.446
X4.3944Y-4.446
X4.4944Y-4.446
X6.2346Y-2.3016
X6.2346Y-2.4984
X6.801Y-2.955
X6.801Y-3.055
X6.801Y-3.155
X6.801Y-3.4156
X6.801Y-3.5156
X6.801Y-3.6156
X6.8031Y-3.82
X6.8031Y-3.92
X6.8031Y-4.02
X6.8054Y-2.3016
X6.8054Y-2.4
X6.8054Y-2.4984
T6
X3.7657Y-3.1585
X3.7657Y-3.3554
X4.4816Y-1.6484
X4.6784Y-1.6484
T2
G00X5.0301Y-4.4738
M15
G01X5.0301Y-4.4462
M16
G05
G00X5.2899Y-4.4738
M15
G01X5.2899Y-4.4462
M16
G05
T4
G00X4.5429Y-2.778
M15
G01X4.5192Y-2.778
M16
G05
G00X5.9051Y-2.778
M15
G01X5.8814Y-2.778
M16
G05
T7
G00X3.9357Y-2.1795
M15
G01X3.8846Y-2.1795
M16
G05
G00X3.9357Y-2.6205
M15
G01X3.8846Y-2.6205
M16
G05
G00X6.5357Y-2.1795
M15
G01X6.4846Y-2.1795
M16
G05
G00X6.5357Y-2.6205
M15
G01X6.4846Y-2.6205
M16
G05
M30
