%TF.GenerationSoftware,KiCad,Pcbnew,8.0.6-8.0.6-0~ubuntu24.04.1*%
%TF.CreationDate,2024-11-23T19:36:30-06:00*%
%TF.ProjectId,FRCMotorTester,4652434d-6f74-46f7-9254-65737465722e,rev?*%
%TF.SameCoordinates,Original*%
%TF.FileFunction,Copper,L2,Inr*%
%TF.FilePolarity,Positive*%
%FSLAX46Y46*%
G04 Gerber Fmt 4.6, Leading zero omitted, Abs format (unit mm)*
G04 Created by KiCad (PCBNEW 8.0.6-8.0.6-0~ubuntu24.04.1) date 2024-11-23 19:36:30*
%MOMM*%
%LPD*%
G01*
G04 APERTURE LIST*
G04 Aperture macros list*
%AMRoundRect*
0 Rectangle with rounded corners*
0 $1 Rounding radius*
0 $2 $3 $4 $5 $6 $7 $8 $9 X,Y pos of 4 corners*
0 Add a 4 corners polygon primitive as box body*
4,1,4,$2,$3,$4,$5,$6,$7,$8,$9,$2,$3,0*
0 Add four circle primitives for the rounded corners*
1,1,$1+$1,$2,$3*
1,1,$1+$1,$4,$5*
1,1,$1+$1,$6,$7*
1,1,$1+$1,$8,$9*
0 Add four rect primitives between the rounded corners*
20,1,$1+$1,$2,$3,$4,$5,0*
20,1,$1+$1,$4,$5,$6,$7,0*
20,1,$1+$1,$6,$7,$8,$9,0*
20,1,$1+$1,$8,$9,$2,$3,0*%
G04 Aperture macros list end*
%TA.AperFunction,ComponentPad*%
%ADD10RoundRect,0.250000X0.350000X0.625000X-0.350000X0.625000X-0.350000X-0.625000X0.350000X-0.625000X0*%
%TD*%
%TA.AperFunction,ComponentPad*%
%ADD11O,1.200000X1.750000*%
%TD*%
%TA.AperFunction,ComponentPad*%
%ADD12O,0.900000X1.600000*%
%TD*%
%TA.AperFunction,ComponentPad*%
%ADD13R,1.700000X1.700000*%
%TD*%
%TA.AperFunction,ComponentPad*%
%ADD14O,1.700000X1.700000*%
%TD*%
%TA.AperFunction,ComponentPad*%
%ADD15O,2.416000X1.208000*%
%TD*%
%TA.AperFunction,ComponentPad*%
%ADD16C,1.000000*%
%TD*%
%TA.AperFunction,ComponentPad*%
%ADD17R,1.000000X1.000000*%
%TD*%
%TA.AperFunction,ComponentPad*%
%ADD18C,2.000000*%
%TD*%
%TA.AperFunction,ComponentPad*%
%ADD19R,3.200000X2.000000*%
%TD*%
%TA.AperFunction,ComponentPad*%
%ADD20R,2.000000X2.000000*%
%TD*%
%TA.AperFunction,ViaPad*%
%ADD21C,0.600000*%
%TD*%
G04 APERTURE END LIST*
D10*
%TO.N,3V3*%
%TO.C,J3*%
X167687000Y-43450000D03*
D11*
%TO.N,GND*%
X165687000Y-43450000D03*
%TO.N,GENIO_01*%
X163687000Y-43450000D03*
%TO.N,GENIO_02*%
X161687000Y-43450000D03*
%TO.N,GENIO_03*%
X159687000Y-43450000D03*
%TO.N,ANALOG_IN*%
X157687000Y-43450000D03*
%TD*%
%TO.N,/Power/VIN*%
%TO.C,J2*%
X114000000Y-43450000D03*
D10*
%TO.N,GND*%
X116000000Y-43450000D03*
%TD*%
%TO.N,Net-(J10-Pin_1)*%
%TO.C,J10*%
X101000000Y-43550000D03*
D11*
%TO.N,Net-(J10-Pin_2)*%
X99000000Y-43550000D03*
%TO.N,Net-(J10-Pin_1)*%
X97000000Y-43550000D03*
%TO.N,Net-(J10-Pin_2)*%
X95000000Y-43550000D03*
%TD*%
D12*
%TO.N,GND*%
%TO.C,J1*%
X123700000Y-105000000D03*
X130300000Y-105000000D03*
%TD*%
D13*
%TO.N,SPARE1*%
%TO.C,J9*%
X111200000Y-93000000D03*
D14*
%TO.N,SPARE2*%
X108660000Y-93000000D03*
%TO.N,SPARE3*%
X106120000Y-93000000D03*
%TO.N,SPARE4*%
X103580000Y-93000000D03*
%TO.N,SPARE5*%
X101040000Y-93000000D03*
%TO.N,SPARE6*%
X98500000Y-93000000D03*
%TO.N,SPARE7*%
X95960000Y-93000000D03*
%TO.N,SPARE8*%
X93420000Y-93000000D03*
%TD*%
D15*
%TO.N,GND*%
%TO.C,DS1*%
X115088500Y-70560000D03*
%TO.N,3V0*%
X149688500Y-70560000D03*
D16*
%TO.N,DISP_SS*%
X120388500Y-72360000D03*
%TO.N,DISP_RESET*%
X121888500Y-72360000D03*
%TO.N,DISP_DATA*%
X123388500Y-72360000D03*
%TO.N,DISP_SCLK*%
X124888500Y-72360000D03*
%TO.N,DISP_SI*%
X126388500Y-72360000D03*
%TO.N,3V3*%
X127888500Y-72360000D03*
%TO.N,GND*%
X129388500Y-72360000D03*
%TO.N,Net-(DS1-VOUT)*%
X130888500Y-72360000D03*
%TO.N,Net-(DS1-C1-)*%
X132388500Y-72360000D03*
%TO.N,Net-(DS1-C1+)*%
X133888500Y-72360000D03*
%TO.N,Net-(DS1-C2+)*%
X135388500Y-72360000D03*
%TO.N,Net-(DS1-C2-)*%
X136888500Y-72360000D03*
%TO.N,Net-(DS1-V4)*%
X138388500Y-72360000D03*
%TO.N,Net-(DS1-V3)*%
X139888500Y-72360000D03*
%TO.N,Net-(DS1-V2)*%
X141388500Y-72360000D03*
%TO.N,Net-(DS1-V1)*%
X142888500Y-72360000D03*
D17*
%TO.N,Net-(DS1-V0)*%
X144388500Y-72360000D03*
%TD*%
D18*
%TO.N,GND*%
%TO.C,SW3*%
X157750000Y-58500000D03*
%TO.N,PRESS2*%
X157750000Y-63500000D03*
D19*
%TO.N,N/C*%
X164750000Y-55400000D03*
X164750000Y-66600000D03*
D18*
%TO.N,GND*%
X172250000Y-61000000D03*
%TO.N,ENC2B*%
X172250000Y-63500000D03*
D20*
%TO.N,ENC2A*%
X172250000Y-58500000D03*
%TD*%
D18*
%TO.N,GND*%
%TO.C,SW2*%
X92750000Y-58500000D03*
%TO.N,PRESS1*%
X92750000Y-63500000D03*
D19*
%TO.N,N/C*%
X99750000Y-55400000D03*
X99750000Y-66600000D03*
D18*
%TO.N,GND*%
X107250000Y-61000000D03*
%TO.N,ENC1B*%
X107250000Y-63500000D03*
D20*
%TO.N,ENC1A*%
X107250000Y-58500000D03*
%TD*%
D21*
%TO.N,GND*%
X130600000Y-95750000D03*
X124968000Y-84328000D03*
X132588000Y-84836000D03*
X132588000Y-87630000D03*
X108204000Y-69342000D03*
X170180000Y-79502000D03*
X170180000Y-74168000D03*
%TO.N,Net-(J10-Pin_2)*%
X104394000Y-79756000D03*
%TO.N,3V3*%
X167894000Y-46228000D03*
%TO.N,ANALOG_IN*%
X151638000Y-79756004D03*
%TO.N,3V3*%
X127500000Y-86800000D03*
X145300000Y-99500000D03*
X113700000Y-77900000D03*
X124600000Y-88300000D03*
X152600000Y-81700000D03*
X141000000Y-87600000D03*
%TO.N,ANALOG_IN*%
X162700000Y-83800000D03*
%TO.N,3V3*%
X159312500Y-102400000D03*
X125900000Y-54100000D03*
X114000000Y-78800000D03*
X126800000Y-54900000D03*
X132836500Y-92347788D03*
X141900000Y-84500000D03*
X141900000Y-85400000D03*
X124600000Y-86900000D03*
X132636500Y-94990721D03*
X132000000Y-82600000D03*
X134134018Y-82417406D03*
X132900000Y-79000000D03*
X128600000Y-65600000D03*
X138600000Y-87300000D03*
X138200000Y-86600000D03*
X141800000Y-91200000D03*
X159600000Y-105200000D03*
X127900000Y-70700000D03*
X146900000Y-83100000D03*
X133963500Y-94860350D03*
X134000000Y-79100000D03*
%TO.N,GND*%
X128600000Y-42400000D03*
X131200000Y-41600000D03*
X106000000Y-51600000D03*
X144800000Y-38000000D03*
X116100000Y-81900000D03*
X148700000Y-41900000D03*
X139600000Y-76600000D03*
X116846000Y-78300000D03*
X122400000Y-89100000D03*
X144836500Y-67443284D03*
X143500000Y-91200000D03*
X127000000Y-100000000D03*
X140700000Y-90100000D03*
X136179478Y-78744680D03*
X103600000Y-61000000D03*
X143300000Y-48900000D03*
X141900000Y-68100000D03*
X158300000Y-85500000D03*
X128100000Y-68100000D03*
X102600000Y-51600000D03*
X134000000Y-83500000D03*
X169700000Y-59900000D03*
X103600000Y-59900000D03*
X139500000Y-100300000D03*
X109000000Y-52200000D03*
X95000000Y-59500000D03*
X137700000Y-68100000D03*
X146000000Y-76600000D03*
X118600000Y-96000000D03*
X134736500Y-76039699D03*
X127690813Y-76830185D03*
X133400000Y-76200000D03*
X127600000Y-49800000D03*
X132300000Y-97800000D03*
X141600000Y-100000000D03*
X143000000Y-86500000D03*
X121700000Y-86300000D03*
X140400000Y-68200000D03*
X133963500Y-98600000D03*
X143500000Y-68200000D03*
X113700000Y-82000000D03*
X124400000Y-49800000D03*
X130800000Y-76100000D03*
X132800000Y-81600000D03*
X143800000Y-105700000D03*
X120400000Y-83600000D03*
X129146496Y-101076927D03*
X159700000Y-94100000D03*
X131600000Y-50400000D03*
%TO.N,VCC_MEAS*%
X136300000Y-75900000D03*
X131800000Y-78900000D03*
%TO.N,VCC*%
X127000000Y-95000000D03*
X115000000Y-82500000D03*
X137600000Y-74100000D03*
X136600000Y-54400000D03*
X121400000Y-51600000D03*
X117600000Y-97000000D03*
%TO.N,Net-(D3-A)*%
X146400000Y-45800000D03*
X134400000Y-42200000D03*
%TO.N,ENC1A*%
X115600000Y-93000000D03*
%TO.N,ENC1B*%
X115600000Y-94000000D03*
%TO.N,PRESS1*%
X105100000Y-74400000D03*
X127800000Y-81200000D03*
X118500000Y-75200000D03*
X95000000Y-72800000D03*
%TO.N,ENC2A*%
X161000000Y-98000000D03*
%TO.N,ENC2B*%
X149787851Y-95814579D03*
%TO.N,PRESS2*%
X150300000Y-95200000D03*
%TO.N,DISP_DATA*%
X128900000Y-80400000D03*
X124600000Y-75100000D03*
%TO.N,DISP_SCLK*%
X128254313Y-77948777D03*
%TO.N,ID*%
X133800000Y-100600000D03*
X131400000Y-90600000D03*
%TO.N,DISP_SI*%
X127900000Y-79100000D03*
%TO.N,SWDIO*%
X143700000Y-99500000D03*
X137300000Y-99500000D03*
%TO.N,CAN_TX*%
X137600000Y-87800000D03*
X119000000Y-83300000D03*
%TO.N,VIN_MEAS*%
X118800000Y-52800000D03*
X124500000Y-74000000D03*
%TO.N,Net-(J10-Pin_2)*%
X103200000Y-82600000D03*
%TO.N,ANALOG_IN*%
X138000000Y-79600000D03*
%TO.N,CAN_RX*%
X123500000Y-81700000D03*
X137398455Y-86801545D03*
%TO.N,CAN_EN*%
X127145006Y-80409802D03*
X120598455Y-76301545D03*
%TO.N,CAN_STB*%
X129700000Y-85000000D03*
X122800000Y-85000000D03*
%TO.N,LED1*%
X149700000Y-104400000D03*
X145100000Y-94500000D03*
%TO.N,LED2*%
X146200000Y-93900000D03*
X151200000Y-102000000D03*
%TO.N,NRST*%
X148800000Y-99800000D03*
X136500000Y-84800000D03*
X144000000Y-92200000D03*
X141700000Y-83700000D03*
%TD*%
%TA.AperFunction,Conductor*%
%TO.N,GND*%
G36*
X175210539Y-36588185D02*
G01*
X175256294Y-36640989D01*
X175267500Y-36692500D01*
X175267500Y-106199500D01*
X175247815Y-106266539D01*
X175195011Y-106312294D01*
X175143500Y-106323500D01*
X130961783Y-106323500D01*
X130894744Y-106303815D01*
X130848989Y-106251011D01*
X130839045Y-106181853D01*
X130868070Y-106118297D01*
X130892892Y-106096398D01*
X130905589Y-106087913D01*
X130905593Y-106087910D01*
X131037910Y-105955593D01*
X131037913Y-105955589D01*
X131141875Y-105800000D01*
X131141880Y-105799991D01*
X131213491Y-105627105D01*
X131213493Y-105627097D01*
X131249999Y-105443571D01*
X131250000Y-105443569D01*
X131250000Y-105250000D01*
X130550000Y-105250000D01*
X130550000Y-104750000D01*
X131250000Y-104750000D01*
X131250000Y-104556430D01*
X131249999Y-104556428D01*
X131213493Y-104372902D01*
X131213491Y-104372894D01*
X131141880Y-104200008D01*
X131141875Y-104199999D01*
X131037913Y-104044410D01*
X131037910Y-104044406D01*
X130905593Y-103912089D01*
X130905589Y-103912086D01*
X130808878Y-103847465D01*
X138094200Y-103847465D01*
X138094200Y-103984534D01*
X138120937Y-104118949D01*
X138120940Y-104118961D01*
X138173386Y-104245578D01*
X138173393Y-104245591D01*
X138249536Y-104359546D01*
X138249539Y-104359550D01*
X138346449Y-104456460D01*
X138346453Y-104456463D01*
X138460408Y-104532606D01*
X138460421Y-104532613D01*
X138573026Y-104579255D01*
X138587043Y-104585061D01*
X138721465Y-104611799D01*
X138721469Y-104611800D01*
X138721470Y-104611800D01*
X138858531Y-104611800D01*
X138858532Y-104611799D01*
X138992957Y-104585061D01*
X139119585Y-104532610D01*
X139233547Y-104456463D01*
X139290014Y-104399996D01*
X148894435Y-104399996D01*
X148894435Y-104400003D01*
X148914630Y-104579249D01*
X148914631Y-104579254D01*
X148974211Y-104749523D01*
X149037646Y-104850478D01*
X149070184Y-104902262D01*
X149197738Y-105029816D01*
X149350478Y-105125789D01*
X149520745Y-105185368D01*
X149520750Y-105185369D01*
X149699996Y-105205565D01*
X149700000Y-105205565D01*
X149700004Y-105205565D01*
X149749430Y-105199996D01*
X158794435Y-105199996D01*
X158794435Y-105200003D01*
X158814630Y-105379249D01*
X158814631Y-105379254D01*
X158874211Y-105549523D01*
X158970184Y-105702262D01*
X159097738Y-105829816D01*
X159250478Y-105925789D01*
X159335642Y-105955589D01*
X159420745Y-105985368D01*
X159420750Y-105985369D01*
X159599996Y-106005565D01*
X159600000Y-106005565D01*
X159600004Y-106005565D01*
X159779249Y-105985369D01*
X159779252Y-105985368D01*
X159779255Y-105985368D01*
X159949522Y-105925789D01*
X160102262Y-105829816D01*
X160229816Y-105702262D01*
X160325789Y-105549522D01*
X160385368Y-105379255D01*
X160385369Y-105379249D01*
X160405565Y-105200003D01*
X160405565Y-105199996D01*
X160385369Y-105020750D01*
X160385368Y-105020745D01*
X160325788Y-104850476D01*
X160229815Y-104697737D01*
X160102262Y-104570184D01*
X159949523Y-104474211D01*
X159779254Y-104414631D01*
X159779249Y-104414630D01*
X159600004Y-104394435D01*
X159599996Y-104394435D01*
X159420750Y-104414630D01*
X159420745Y-104414631D01*
X159250476Y-104474211D01*
X159097737Y-104570184D01*
X158970184Y-104697737D01*
X158874211Y-104850476D01*
X158814631Y-105020745D01*
X158814630Y-105020750D01*
X158794435Y-105199996D01*
X149749430Y-105199996D01*
X149879249Y-105185369D01*
X149879252Y-105185368D01*
X149879255Y-105185368D01*
X150049522Y-105125789D01*
X150202262Y-105029816D01*
X150329816Y-104902262D01*
X150425789Y-104749522D01*
X150485368Y-104579255D01*
X150487940Y-104556428D01*
X150505565Y-104400003D01*
X150505565Y-104399996D01*
X150485369Y-104220750D01*
X150485368Y-104220745D01*
X150425788Y-104050476D01*
X150329815Y-103897737D01*
X150202262Y-103770184D01*
X150049523Y-103674211D01*
X149879254Y-103614631D01*
X149879249Y-103614630D01*
X149700004Y-103594435D01*
X149699996Y-103594435D01*
X149520750Y-103614630D01*
X149520745Y-103614631D01*
X149350476Y-103674211D01*
X149197737Y-103770184D01*
X149070184Y-103897737D01*
X148974211Y-104050476D01*
X148914631Y-104220745D01*
X148914630Y-104220750D01*
X148894435Y-104399996D01*
X139290014Y-104399996D01*
X139330463Y-104359547D01*
X139406610Y-104245585D01*
X139459061Y-104118957D01*
X139485800Y-103984530D01*
X139485800Y-103847470D01*
X139459061Y-103713043D01*
X139418298Y-103614632D01*
X139406613Y-103586421D01*
X139406606Y-103586408D01*
X139330463Y-103472453D01*
X139330460Y-103472449D01*
X139233550Y-103375539D01*
X139233546Y-103375536D01*
X139119591Y-103299393D01*
X139119578Y-103299386D01*
X138992961Y-103246940D01*
X138992949Y-103246937D01*
X138858534Y-103220200D01*
X138858530Y-103220200D01*
X138721470Y-103220200D01*
X138721465Y-103220200D01*
X138587050Y-103246937D01*
X138587038Y-103246940D01*
X138460421Y-103299386D01*
X138460408Y-103299393D01*
X138346453Y-103375536D01*
X138346449Y-103375539D01*
X138249539Y-103472449D01*
X138249536Y-103472453D01*
X138173393Y-103586408D01*
X138173386Y-103586421D01*
X138120940Y-103713038D01*
X138120937Y-103713050D01*
X138094200Y-103847465D01*
X130808878Y-103847465D01*
X130750000Y-103808124D01*
X130749991Y-103808119D01*
X130577103Y-103736507D01*
X130577100Y-103736506D01*
X130550000Y-103731115D01*
X130550000Y-104600272D01*
X130511940Y-104508386D01*
X130441614Y-104438060D01*
X130349728Y-104400000D01*
X130250272Y-104400000D01*
X130158386Y-104438060D01*
X130088060Y-104508386D01*
X130050000Y-104600272D01*
X130050000Y-103731116D01*
X130049999Y-103731115D01*
X130022899Y-103736506D01*
X130022896Y-103736507D01*
X129850008Y-103808119D01*
X129849999Y-103808124D01*
X129694410Y-103912086D01*
X129694406Y-103912089D01*
X129562089Y-104044406D01*
X129562086Y-104044410D01*
X129458124Y-104199999D01*
X129458119Y-104200008D01*
X129386508Y-104372894D01*
X129386506Y-104372902D01*
X129350000Y-104556428D01*
X129350000Y-104750000D01*
X130050000Y-104750000D01*
X130050000Y-105250000D01*
X129350000Y-105250000D01*
X129350000Y-105443571D01*
X129386506Y-105627097D01*
X129386508Y-105627105D01*
X129458119Y-105799991D01*
X129458124Y-105800000D01*
X129562086Y-105955589D01*
X129562089Y-105955593D01*
X129694406Y-106087910D01*
X129694410Y-106087913D01*
X129707108Y-106096398D01*
X129751913Y-106150011D01*
X129760620Y-106219336D01*
X129730465Y-106282363D01*
X129671022Y-106319082D01*
X129638217Y-106323500D01*
X124361783Y-106323500D01*
X124294744Y-106303815D01*
X124248989Y-106251011D01*
X124239045Y-106181853D01*
X124268070Y-106118297D01*
X124292892Y-106096398D01*
X124305589Y-106087913D01*
X124305593Y-106087910D01*
X124437910Y-105955593D01*
X124437913Y-105955589D01*
X124541875Y-105800000D01*
X124541880Y-105799991D01*
X124613491Y-105627105D01*
X124613493Y-105627097D01*
X124649999Y-105443571D01*
X124650000Y-105443569D01*
X124650000Y-105250000D01*
X123950000Y-105250000D01*
X123950000Y-104750000D01*
X124650000Y-104750000D01*
X124650000Y-104556430D01*
X124649999Y-104556428D01*
X124613493Y-104372902D01*
X124613491Y-104372894D01*
X124541880Y-104200008D01*
X124541875Y-104199999D01*
X124437913Y-104044410D01*
X124437910Y-104044406D01*
X124305593Y-103912089D01*
X124305589Y-103912086D01*
X124150000Y-103808124D01*
X124149991Y-103808119D01*
X123977103Y-103736507D01*
X123977100Y-103736506D01*
X123950000Y-103731115D01*
X123950000Y-104600272D01*
X123911940Y-104508386D01*
X123841614Y-104438060D01*
X123749728Y-104400000D01*
X123650272Y-104400000D01*
X123558386Y-104438060D01*
X123488060Y-104508386D01*
X123450000Y-104600272D01*
X123450000Y-103731116D01*
X123449999Y-103731115D01*
X123422899Y-103736506D01*
X123422896Y-103736507D01*
X123250008Y-103808119D01*
X123249999Y-103808124D01*
X123094410Y-103912086D01*
X123094406Y-103912089D01*
X122962089Y-104044406D01*
X122962086Y-104044410D01*
X122858124Y-104199999D01*
X122858119Y-104200008D01*
X122786508Y-104372894D01*
X122786506Y-104372902D01*
X122750000Y-104556428D01*
X122750000Y-104750000D01*
X123450000Y-104750000D01*
X123450000Y-105250000D01*
X122750000Y-105250000D01*
X122750000Y-105443571D01*
X122786506Y-105627097D01*
X122786508Y-105627105D01*
X122858119Y-105799991D01*
X122858124Y-105800000D01*
X122962086Y-105955589D01*
X122962089Y-105955593D01*
X123094406Y-106087910D01*
X123094410Y-106087913D01*
X123107108Y-106096398D01*
X123151913Y-106150011D01*
X123160620Y-106219336D01*
X123130465Y-106282363D01*
X123071022Y-106319082D01*
X123038217Y-106323500D01*
X90794500Y-106323500D01*
X90727461Y-106303815D01*
X90681706Y-106251011D01*
X90670500Y-106199500D01*
X90670500Y-102831465D01*
X145714200Y-102831465D01*
X145714200Y-102968534D01*
X145740937Y-103102949D01*
X145740940Y-103102961D01*
X145793386Y-103229578D01*
X145793393Y-103229591D01*
X145869536Y-103343546D01*
X145869539Y-103343550D01*
X145966449Y-103440460D01*
X145966453Y-103440463D01*
X146080408Y-103516606D01*
X146080421Y-103516613D01*
X146207038Y-103569059D01*
X146207043Y-103569061D01*
X146334608Y-103594435D01*
X146341465Y-103595799D01*
X146341469Y-103595800D01*
X146341470Y-103595800D01*
X146478531Y-103595800D01*
X146478532Y-103595799D01*
X146612957Y-103569061D01*
X146739585Y-103516610D01*
X146853547Y-103440463D01*
X146950463Y-103343547D01*
X147026610Y-103229585D01*
X147079061Y-103102957D01*
X147105800Y-102968530D01*
X147105800Y-102831470D01*
X147079061Y-102697043D01*
X147051215Y-102629816D01*
X147026613Y-102570421D01*
X147026606Y-102570408D01*
X146950463Y-102456453D01*
X146950460Y-102456449D01*
X146853550Y-102359539D01*
X146853546Y-102359536D01*
X146739591Y-102283393D01*
X146739578Y-102283386D01*
X146612961Y-102230940D01*
X146612949Y-102230937D01*
X146478534Y-102204200D01*
X146478530Y-102204200D01*
X146341470Y-102204200D01*
X146341465Y-102204200D01*
X146207050Y-102230937D01*
X146207038Y-102230940D01*
X146080421Y-102283386D01*
X146080408Y-102283393D01*
X145966453Y-102359536D01*
X145966449Y-102359539D01*
X145869539Y-102456449D01*
X145869536Y-102456453D01*
X145793393Y-102570408D01*
X145793386Y-102570421D01*
X145740940Y-102697038D01*
X145740937Y-102697050D01*
X145714200Y-102831465D01*
X90670500Y-102831465D01*
X90670500Y-101815465D01*
X138094200Y-101815465D01*
X138094200Y-101952534D01*
X138120937Y-102086949D01*
X138120940Y-102086961D01*
X138173386Y-102213578D01*
X138173393Y-102213591D01*
X138249536Y-102327546D01*
X138249539Y-102327550D01*
X138346449Y-102424460D01*
X138346453Y-102424463D01*
X138460408Y-102500606D01*
X138460421Y-102500613D01*
X138587038Y-102553059D01*
X138587043Y-102553061D01*
X138718700Y-102579249D01*
X138721465Y-102579799D01*
X138721469Y-102579800D01*
X138721470Y-102579800D01*
X138858531Y-102579800D01*
X138858532Y-102579799D01*
X138992957Y-102553061D01*
X139119585Y-102500610D01*
X139233547Y-102424463D01*
X139330463Y-102327547D01*
X139406610Y-102213585D01*
X139459061Y-102086957D01*
X139476358Y-101999996D01*
X150394435Y-101999996D01*
X150394435Y-102000003D01*
X150414630Y-102179249D01*
X150414631Y-102179254D01*
X150474211Y-102349523D01*
X150541398Y-102456449D01*
X150570184Y-102502262D01*
X150697738Y-102629816D01*
X150850478Y-102725789D01*
X150918306Y-102749523D01*
X151020745Y-102785368D01*
X151020750Y-102785369D01*
X151199996Y-102805565D01*
X151200000Y-102805565D01*
X151200004Y-102805565D01*
X151379249Y-102785369D01*
X151379252Y-102785368D01*
X151379255Y-102785368D01*
X151549522Y-102725789D01*
X151702262Y-102629816D01*
X151829816Y-102502262D01*
X151894074Y-102399996D01*
X158506935Y-102399996D01*
X158506935Y-102400003D01*
X158527130Y-102579249D01*
X158527131Y-102579254D01*
X158586711Y-102749523D01*
X158638202Y-102831470D01*
X158682684Y-102902262D01*
X158810238Y-103029816D01*
X158962978Y-103125789D01*
X159133245Y-103185368D01*
X159133250Y-103185369D01*
X159312496Y-103205565D01*
X159312500Y-103205565D01*
X159312504Y-103205565D01*
X159491749Y-103185369D01*
X159491752Y-103185368D01*
X159491755Y-103185368D01*
X159662022Y-103125789D01*
X159814762Y-103029816D01*
X159942316Y-102902262D01*
X160038289Y-102749522D01*
X160097868Y-102579255D01*
X160097869Y-102579249D01*
X160118065Y-102400003D01*
X160118065Y-102399996D01*
X160097869Y-102220750D01*
X160097868Y-102220745D01*
X160051055Y-102086961D01*
X160038289Y-102050478D01*
X159942316Y-101897738D01*
X159814762Y-101770184D01*
X159662023Y-101674211D01*
X159491754Y-101614631D01*
X159491749Y-101614630D01*
X159312504Y-101594435D01*
X159312496Y-101594435D01*
X159133250Y-101614630D01*
X159133245Y-101614631D01*
X158962976Y-101674211D01*
X158810237Y-101770184D01*
X158682684Y-101897737D01*
X158586711Y-102050476D01*
X158527131Y-102220745D01*
X158527130Y-102220750D01*
X158506935Y-102399996D01*
X151894074Y-102399996D01*
X151925789Y-102349522D01*
X151985368Y-102179255D01*
X151995767Y-102086961D01*
X152005565Y-102000003D01*
X152005565Y-101999996D01*
X151985369Y-101820750D01*
X151985368Y-101820745D01*
X151967676Y-101770184D01*
X151925789Y-101650478D01*
X151903265Y-101614632D01*
X151865432Y-101554421D01*
X151829816Y-101497738D01*
X151702262Y-101370184D01*
X151631608Y-101325789D01*
X151549523Y-101274211D01*
X151379254Y-101214631D01*
X151379249Y-101214630D01*
X151200004Y-101194435D01*
X151199996Y-101194435D01*
X151020750Y-101214630D01*
X151020745Y-101214631D01*
X150850476Y-101274211D01*
X150697737Y-101370184D01*
X150570184Y-101497737D01*
X150474211Y-101650476D01*
X150414631Y-101820745D01*
X150414630Y-101820750D01*
X150394435Y-101999996D01*
X139476358Y-101999996D01*
X139485800Y-101952530D01*
X139485800Y-101815470D01*
X139459061Y-101681043D01*
X139431553Y-101614632D01*
X139406613Y-101554421D01*
X139406606Y-101554408D01*
X139330463Y-101440453D01*
X139330460Y-101440449D01*
X139233550Y-101343539D01*
X139233546Y-101343536D01*
X139119591Y-101267393D01*
X139119578Y-101267386D01*
X138992961Y-101214940D01*
X138992949Y-101214937D01*
X138858534Y-101188200D01*
X138858530Y-101188200D01*
X138721470Y-101188200D01*
X138721465Y-101188200D01*
X138587050Y-101214937D01*
X138587038Y-101214940D01*
X138460421Y-101267386D01*
X138460408Y-101267393D01*
X138346453Y-101343536D01*
X138346449Y-101343539D01*
X138249539Y-101440449D01*
X138249536Y-101440453D01*
X138173393Y-101554408D01*
X138173386Y-101554421D01*
X138120940Y-101681038D01*
X138120937Y-101681050D01*
X138094200Y-101815465D01*
X90670500Y-101815465D01*
X90670500Y-100599996D01*
X132994435Y-100599996D01*
X132994435Y-100600003D01*
X133014630Y-100779249D01*
X133014631Y-100779254D01*
X133074211Y-100949523D01*
X133170184Y-101102262D01*
X133297738Y-101229816D01*
X133450478Y-101325789D01*
X133501199Y-101343537D01*
X133620745Y-101385368D01*
X133620750Y-101385369D01*
X133799996Y-101405565D01*
X133800000Y-101405565D01*
X133800004Y-101405565D01*
X133979249Y-101385369D01*
X133979252Y-101385368D01*
X133979255Y-101385368D01*
X134149522Y-101325789D01*
X134302262Y-101229816D01*
X134429816Y-101102262D01*
X134525789Y-100949522D01*
X134585368Y-100779255D01*
X134605565Y-100600000D01*
X134603916Y-100585369D01*
X134585369Y-100420750D01*
X134585368Y-100420745D01*
X134537998Y-100285369D01*
X134525789Y-100250478D01*
X134429816Y-100097738D01*
X134302262Y-99970184D01*
X134149523Y-99874211D01*
X133979254Y-99814631D01*
X133979249Y-99814630D01*
X133800004Y-99794435D01*
X133799996Y-99794435D01*
X133620750Y-99814630D01*
X133620745Y-99814631D01*
X133450476Y-99874211D01*
X133297737Y-99970184D01*
X133170184Y-100097737D01*
X133074211Y-100250476D01*
X133014631Y-100420745D01*
X133014630Y-100420750D01*
X132994435Y-100599996D01*
X90670500Y-100599996D01*
X90670500Y-99499996D01*
X136494435Y-99499996D01*
X136494435Y-99500003D01*
X136514630Y-99679249D01*
X136514631Y-99679254D01*
X136574211Y-99849523D01*
X136589724Y-99874211D01*
X136670184Y-100002262D01*
X136797738Y-100129816D01*
X136950478Y-100225789D01*
X137120745Y-100285368D01*
X137120750Y-100285369D01*
X137299996Y-100305565D01*
X137300000Y-100305565D01*
X137300004Y-100305565D01*
X137479249Y-100285369D01*
X137479252Y-100285368D01*
X137479255Y-100285368D01*
X137649522Y-100225789D01*
X137802262Y-100129816D01*
X137929816Y-100002262D01*
X138025789Y-99849522D01*
X138085368Y-99679255D01*
X138091960Y-99620750D01*
X138105565Y-99500003D01*
X138105565Y-99499996D01*
X142894435Y-99499996D01*
X142894435Y-99500003D01*
X142914630Y-99679249D01*
X142914631Y-99679254D01*
X142974211Y-99849523D01*
X142989724Y-99874211D01*
X143070184Y-100002262D01*
X143197738Y-100129816D01*
X143350478Y-100225789D01*
X143520745Y-100285368D01*
X143520750Y-100285369D01*
X143699996Y-100305565D01*
X143700000Y-100305565D01*
X143700004Y-100305565D01*
X143879249Y-100285369D01*
X143879252Y-100285368D01*
X143879255Y-100285368D01*
X144049522Y-100225789D01*
X144202262Y-100129816D01*
X144329816Y-100002262D01*
X144395007Y-99898510D01*
X144447341Y-99852221D01*
X144516394Y-99841573D01*
X144580243Y-99869948D01*
X144604992Y-99898509D01*
X144670184Y-100002262D01*
X144797738Y-100129816D01*
X144950478Y-100225789D01*
X145120745Y-100285368D01*
X145120750Y-100285369D01*
X145299996Y-100305565D01*
X145300000Y-100305565D01*
X145300004Y-100305565D01*
X145479249Y-100285369D01*
X145479252Y-100285368D01*
X145479255Y-100285368D01*
X145649522Y-100225789D01*
X145802262Y-100129816D01*
X145929816Y-100002262D01*
X146025789Y-99849522D01*
X146043119Y-99799996D01*
X147994435Y-99799996D01*
X147994435Y-99800003D01*
X148014630Y-99979249D01*
X148014631Y-99979254D01*
X148074211Y-100149523D01*
X148137646Y-100250478D01*
X148170184Y-100302262D01*
X148297738Y-100429816D01*
X148450478Y-100525789D01*
X148620745Y-100585368D01*
X148620750Y-100585369D01*
X148799996Y-100605565D01*
X148800000Y-100605565D01*
X148800004Y-100605565D01*
X148979249Y-100585369D01*
X148979252Y-100585368D01*
X148979255Y-100585368D01*
X149149522Y-100525789D01*
X149302262Y-100429816D01*
X149429816Y-100302262D01*
X149525789Y-100149522D01*
X149585368Y-99979255D01*
X149586390Y-99970184D01*
X149605565Y-99800003D01*
X149605565Y-99799996D01*
X149585369Y-99620750D01*
X149585368Y-99620745D01*
X149560400Y-99549391D01*
X149525789Y-99450478D01*
X149429816Y-99297738D01*
X149302262Y-99170184D01*
X149238391Y-99130051D01*
X149149523Y-99074211D01*
X148979254Y-99014631D01*
X148979249Y-99014630D01*
X148800004Y-98994435D01*
X148799996Y-98994435D01*
X148620750Y-99014630D01*
X148620745Y-99014631D01*
X148450476Y-99074211D01*
X148297737Y-99170184D01*
X148170184Y-99297737D01*
X148074211Y-99450476D01*
X148014631Y-99620745D01*
X148014630Y-99620750D01*
X147994435Y-99799996D01*
X146043119Y-99799996D01*
X146085368Y-99679255D01*
X146091960Y-99620750D01*
X146105565Y-99500003D01*
X146105565Y-99499996D01*
X146085369Y-99320750D01*
X146085368Y-99320745D01*
X146025789Y-99150478D01*
X146024092Y-99147778D01*
X145940431Y-99014632D01*
X145929816Y-98997738D01*
X145802262Y-98870184D01*
X145699422Y-98805565D01*
X145649523Y-98774211D01*
X145479254Y-98714631D01*
X145479249Y-98714630D01*
X145300004Y-98694435D01*
X145299996Y-98694435D01*
X145120750Y-98714630D01*
X145120745Y-98714631D01*
X144950476Y-98774211D01*
X144797737Y-98870184D01*
X144670184Y-98997737D01*
X144604994Y-99101487D01*
X144552659Y-99147778D01*
X144483605Y-99158426D01*
X144419757Y-99130051D01*
X144395006Y-99101487D01*
X144340431Y-99014632D01*
X144329816Y-98997738D01*
X144202262Y-98870184D01*
X144099422Y-98805565D01*
X144049523Y-98774211D01*
X143879254Y-98714631D01*
X143879249Y-98714630D01*
X143700004Y-98694435D01*
X143699996Y-98694435D01*
X143520750Y-98714630D01*
X143520745Y-98714631D01*
X143350476Y-98774211D01*
X143197737Y-98870184D01*
X143070184Y-98997737D01*
X142974211Y-99150476D01*
X142914631Y-99320745D01*
X142914630Y-99320750D01*
X142894435Y-99499996D01*
X138105565Y-99499996D01*
X138085369Y-99320750D01*
X138085368Y-99320745D01*
X138025789Y-99150478D01*
X138024092Y-99147778D01*
X137940431Y-99014632D01*
X137929816Y-98997738D01*
X137802262Y-98870184D01*
X137699422Y-98805565D01*
X137649523Y-98774211D01*
X137479254Y-98714631D01*
X137479249Y-98714630D01*
X137300004Y-98694435D01*
X137299996Y-98694435D01*
X137120750Y-98714630D01*
X137120745Y-98714631D01*
X136950476Y-98774211D01*
X136797737Y-98870184D01*
X136670184Y-98997737D01*
X136574211Y-99150476D01*
X136514631Y-99320745D01*
X136514630Y-99320750D01*
X136494435Y-99499996D01*
X90670500Y-99499996D01*
X90670500Y-97999996D01*
X160194435Y-97999996D01*
X160194435Y-98000003D01*
X160214630Y-98179249D01*
X160214631Y-98179254D01*
X160274211Y-98349523D01*
X160370184Y-98502262D01*
X160497738Y-98629816D01*
X160588080Y-98686582D01*
X160632721Y-98714632D01*
X160650478Y-98725789D01*
X160788860Y-98774211D01*
X160820745Y-98785368D01*
X160820750Y-98785369D01*
X160999996Y-98805565D01*
X161000000Y-98805565D01*
X161000004Y-98805565D01*
X161179249Y-98785369D01*
X161179252Y-98785368D01*
X161179255Y-98785368D01*
X161349522Y-98725789D01*
X161502262Y-98629816D01*
X161629816Y-98502262D01*
X161725789Y-98349522D01*
X161785368Y-98179255D01*
X161805565Y-98000000D01*
X161785368Y-97820745D01*
X161725789Y-97650478D01*
X161629816Y-97497738D01*
X161502262Y-97370184D01*
X161469379Y-97349522D01*
X161349523Y-97274211D01*
X161179254Y-97214631D01*
X161179249Y-97214630D01*
X161000004Y-97194435D01*
X160999996Y-97194435D01*
X160820750Y-97214630D01*
X160820745Y-97214631D01*
X160650476Y-97274211D01*
X160497737Y-97370184D01*
X160370184Y-97497737D01*
X160274211Y-97650476D01*
X160214631Y-97820745D01*
X160214630Y-97820750D01*
X160194435Y-97999996D01*
X90670500Y-97999996D01*
X90670500Y-96999996D01*
X116794435Y-96999996D01*
X116794435Y-97000003D01*
X116814630Y-97179249D01*
X116814631Y-97179254D01*
X116874211Y-97349523D01*
X116967341Y-97497737D01*
X116970184Y-97502262D01*
X117097738Y-97629816D01*
X117250478Y-97725789D01*
X117420745Y-97785368D01*
X117420750Y-97785369D01*
X117599996Y-97805565D01*
X117600000Y-97805565D01*
X117600004Y-97805565D01*
X117779249Y-97785369D01*
X117779252Y-97785368D01*
X117779255Y-97785368D01*
X117949522Y-97725789D01*
X118102262Y-97629816D01*
X118229816Y-97502262D01*
X118325789Y-97349522D01*
X118385368Y-97179255D01*
X118405565Y-97000000D01*
X118385368Y-96820745D01*
X118325789Y-96650478D01*
X118229816Y-96497738D01*
X118102262Y-96370184D01*
X117949523Y-96274211D01*
X117779254Y-96214631D01*
X117779249Y-96214630D01*
X117600004Y-96194435D01*
X117599996Y-96194435D01*
X117420750Y-96214630D01*
X117420745Y-96214631D01*
X117250476Y-96274211D01*
X117097737Y-96370184D01*
X116970184Y-96497737D01*
X116874211Y-96650476D01*
X116814631Y-96820745D01*
X116814630Y-96820750D01*
X116794435Y-96999996D01*
X90670500Y-96999996D01*
X90670500Y-95814575D01*
X148982286Y-95814575D01*
X148982286Y-95814582D01*
X149002481Y-95993828D01*
X149002482Y-95993833D01*
X149062062Y-96164102D01*
X149131249Y-96274211D01*
X149158035Y-96316841D01*
X149285589Y-96444395D01*
X149438329Y-96540368D01*
X149608596Y-96599947D01*
X149608601Y-96599948D01*
X149787847Y-96620144D01*
X149787851Y-96620144D01*
X149787855Y-96620144D01*
X149967100Y-96599948D01*
X149967103Y-96599947D01*
X149967106Y-96599947D01*
X150137373Y-96540368D01*
X150290113Y-96444395D01*
X150417667Y-96316841D01*
X150513640Y-96164101D01*
X150569982Y-96003083D01*
X150610704Y-95946308D01*
X150646075Y-95926994D01*
X150649522Y-95925789D01*
X150802262Y-95829816D01*
X150929816Y-95702262D01*
X151025789Y-95549522D01*
X151085368Y-95379255D01*
X151085369Y-95379249D01*
X151105565Y-95200003D01*
X151105565Y-95199996D01*
X151085369Y-95020750D01*
X151085368Y-95020745D01*
X151082131Y-95011494D01*
X151025789Y-94850478D01*
X151025188Y-94849522D01*
X150968648Y-94759539D01*
X150929816Y-94697738D01*
X150802262Y-94570184D01*
X150738017Y-94529816D01*
X150649523Y-94474211D01*
X150479254Y-94414631D01*
X150479249Y-94414630D01*
X150300004Y-94394435D01*
X150299996Y-94394435D01*
X150120750Y-94414630D01*
X150120745Y-94414631D01*
X149950476Y-94474211D01*
X149797737Y-94570184D01*
X149670184Y-94697737D01*
X149574210Y-94850478D01*
X149517869Y-95011494D01*
X149477147Y-95068271D01*
X149441789Y-95087579D01*
X149438330Y-95088789D01*
X149438326Y-95088791D01*
X149285588Y-95184763D01*
X149158035Y-95312316D01*
X149062062Y-95465055D01*
X149002482Y-95635324D01*
X149002481Y-95635329D01*
X148982286Y-95814575D01*
X90670500Y-95814575D01*
X90670500Y-94999996D01*
X126194435Y-94999996D01*
X126194435Y-95000003D01*
X126214630Y-95179249D01*
X126214631Y-95179254D01*
X126274211Y-95349523D01*
X126356879Y-95481088D01*
X126370184Y-95502262D01*
X126497738Y-95629816D01*
X126555189Y-95665915D01*
X126635710Y-95716510D01*
X126650478Y-95725789D01*
X126794227Y-95776089D01*
X126820745Y-95785368D01*
X126820750Y-95785369D01*
X126999996Y-95805565D01*
X127000000Y-95805565D01*
X127000004Y-95805565D01*
X127179249Y-95785369D01*
X127179252Y-95785368D01*
X127179255Y-95785368D01*
X127349522Y-95725789D01*
X127502262Y-95629816D01*
X127629816Y-95502262D01*
X127725789Y-95349522D01*
X127785368Y-95179255D01*
X127785369Y-95179249D01*
X127805565Y-95000003D01*
X127805565Y-94999996D01*
X127804520Y-94990717D01*
X131830935Y-94990717D01*
X131830935Y-94990724D01*
X131851130Y-95169970D01*
X131851131Y-95169975D01*
X131910711Y-95340244D01*
X131978710Y-95448463D01*
X132006684Y-95492983D01*
X132134238Y-95620537D01*
X132286978Y-95716510D01*
X132457245Y-95776089D01*
X132457250Y-95776090D01*
X132636496Y-95796286D01*
X132636500Y-95796286D01*
X132636504Y-95796286D01*
X132815749Y-95776090D01*
X132815752Y-95776089D01*
X132815755Y-95776089D01*
X132986022Y-95716510D01*
X133138762Y-95620537D01*
X133266316Y-95492983D01*
X133266324Y-95492968D01*
X133267524Y-95491466D01*
X133268561Y-95490737D01*
X133271240Y-95488059D01*
X133271708Y-95488527D01*
X133324708Y-95451320D01*
X133394519Y-95448463D01*
X133452160Y-95481088D01*
X133461238Y-95490166D01*
X133613978Y-95586139D01*
X133712279Y-95620536D01*
X133784245Y-95645718D01*
X133784250Y-95645719D01*
X133963496Y-95665915D01*
X133963500Y-95665915D01*
X133963504Y-95665915D01*
X134142749Y-95645719D01*
X134142752Y-95645718D01*
X134142755Y-95645718D01*
X134313022Y-95586139D01*
X134465762Y-95490166D01*
X134593316Y-95362612D01*
X134689289Y-95209872D01*
X134748868Y-95039605D01*
X134748869Y-95039599D01*
X134769065Y-94860353D01*
X134769065Y-94860346D01*
X134748869Y-94681100D01*
X134748868Y-94681095D01*
X134730924Y-94629815D01*
X134689289Y-94510828D01*
X134682485Y-94500000D01*
X134682482Y-94499996D01*
X144294435Y-94499996D01*
X144294435Y-94500003D01*
X144314630Y-94679249D01*
X144314631Y-94679254D01*
X144374211Y-94849523D01*
X144462930Y-94990717D01*
X144470184Y-95002262D01*
X144597738Y-95129816D01*
X144750478Y-95225789D01*
X144920745Y-95285368D01*
X144920750Y-95285369D01*
X145099996Y-95305565D01*
X145100000Y-95305565D01*
X145100004Y-95305565D01*
X145279249Y-95285369D01*
X145279252Y-95285368D01*
X145279255Y-95285368D01*
X145449522Y-95225789D01*
X145602262Y-95129816D01*
X145729816Y-95002262D01*
X145825789Y-94849522D01*
X145857275Y-94759537D01*
X145897996Y-94702763D01*
X145962949Y-94677015D01*
X146015272Y-94683453D01*
X146020745Y-94685368D01*
X146020752Y-94685368D01*
X146020753Y-94685369D01*
X146199996Y-94705565D01*
X146200000Y-94705565D01*
X146200004Y-94705565D01*
X146379249Y-94685369D01*
X146379252Y-94685368D01*
X146379255Y-94685368D01*
X146549522Y-94625789D01*
X146702262Y-94529816D01*
X146829816Y-94402262D01*
X146925789Y-94249522D01*
X146985368Y-94079255D01*
X146985369Y-94079249D01*
X147005565Y-93900003D01*
X147005565Y-93899996D01*
X146985369Y-93720750D01*
X146985368Y-93720745D01*
X146960781Y-93650479D01*
X146925789Y-93550478D01*
X146829816Y-93397738D01*
X146702262Y-93270184D01*
X146549523Y-93174211D01*
X146379254Y-93114631D01*
X146379249Y-93114630D01*
X146200004Y-93094435D01*
X146199996Y-93094435D01*
X146020750Y-93114630D01*
X146020745Y-93114631D01*
X145850476Y-93174211D01*
X145697737Y-93270184D01*
X145570184Y-93397737D01*
X145474211Y-93550476D01*
X145442725Y-93640460D01*
X145402003Y-93697236D01*
X145337050Y-93722983D01*
X145284732Y-93716548D01*
X145279253Y-93714631D01*
X145100004Y-93694435D01*
X145099996Y-93694435D01*
X144920750Y-93714630D01*
X144920745Y-93714631D01*
X144750476Y-93774211D01*
X144597737Y-93870184D01*
X144470184Y-93997737D01*
X144374211Y-94150476D01*
X144314631Y-94320745D01*
X144314630Y-94320750D01*
X144294435Y-94499996D01*
X134682482Y-94499996D01*
X134600916Y-94370184D01*
X134593316Y-94358088D01*
X134465762Y-94230534D01*
X134440451Y-94214630D01*
X134313023Y-94134561D01*
X134142754Y-94074981D01*
X134142749Y-94074980D01*
X133963504Y-94054785D01*
X133963496Y-94054785D01*
X133784250Y-94074980D01*
X133784245Y-94074981D01*
X133613976Y-94134561D01*
X133461237Y-94230534D01*
X133333684Y-94358087D01*
X133332463Y-94359619D01*
X133331423Y-94360348D01*
X133328760Y-94363012D01*
X133328293Y-94362545D01*
X133275272Y-94399756D01*
X133205461Y-94402602D01*
X133147839Y-94369982D01*
X133138762Y-94360905D01*
X132986023Y-94264932D01*
X132815754Y-94205352D01*
X132815749Y-94205351D01*
X132636504Y-94185156D01*
X132636496Y-94185156D01*
X132457250Y-94205351D01*
X132457245Y-94205352D01*
X132286976Y-94264932D01*
X132134237Y-94360905D01*
X132006684Y-94488458D01*
X131910711Y-94641197D01*
X131851131Y-94811466D01*
X131851130Y-94811471D01*
X131830935Y-94990717D01*
X127804520Y-94990717D01*
X127785369Y-94820750D01*
X127785368Y-94820745D01*
X127742326Y-94697738D01*
X127725789Y-94650478D01*
X127719957Y-94641197D01*
X127638041Y-94510828D01*
X127629816Y-94497738D01*
X127502262Y-94370184D01*
X127469379Y-94349522D01*
X127349523Y-94274211D01*
X127179254Y-94214631D01*
X127179249Y-94214630D01*
X127000004Y-94194435D01*
X126999996Y-94194435D01*
X126820750Y-94214630D01*
X126820745Y-94214631D01*
X126650476Y-94274211D01*
X126497737Y-94370184D01*
X126370184Y-94497737D01*
X126274211Y-94650476D01*
X126214631Y-94820745D01*
X126214630Y-94820750D01*
X126194435Y-94999996D01*
X90670500Y-94999996D01*
X90670500Y-92999999D01*
X92064341Y-92999999D01*
X92064341Y-93000000D01*
X92084936Y-93235403D01*
X92084938Y-93235413D01*
X92146094Y-93463655D01*
X92146096Y-93463659D01*
X92146097Y-93463663D01*
X92163632Y-93501266D01*
X92245965Y-93677830D01*
X92245967Y-93677834D01*
X92346030Y-93820737D01*
X92381505Y-93871401D01*
X92548599Y-94038495D01*
X92645384Y-94106265D01*
X92742165Y-94174032D01*
X92742167Y-94174033D01*
X92742170Y-94174035D01*
X92956337Y-94273903D01*
X93184592Y-94335063D01*
X93361034Y-94350500D01*
X93419999Y-94355659D01*
X93420000Y-94355659D01*
X93420001Y-94355659D01*
X93478966Y-94350500D01*
X93655408Y-94335063D01*
X93883663Y-94273903D01*
X94097830Y-94174035D01*
X94291401Y-94038495D01*
X94458495Y-93871401D01*
X94588425Y-93685842D01*
X94643002Y-93642217D01*
X94712500Y-93635023D01*
X94774855Y-93666546D01*
X94791575Y-93685842D01*
X94921500Y-93871395D01*
X94921505Y-93871401D01*
X95088599Y-94038495D01*
X95185384Y-94106265D01*
X95282165Y-94174032D01*
X95282167Y-94174033D01*
X95282170Y-94174035D01*
X95496337Y-94273903D01*
X95724592Y-94335063D01*
X95901034Y-94350500D01*
X95959999Y-94355659D01*
X95960000Y-94355659D01*
X95960001Y-94355659D01*
X96018966Y-94350500D01*
X96195408Y-94335063D01*
X96423663Y-94273903D01*
X96637830Y-94174035D01*
X96831401Y-94038495D01*
X96998495Y-93871401D01*
X97128425Y-93685842D01*
X97183002Y-93642217D01*
X97252500Y-93635023D01*
X97314855Y-93666546D01*
X97331575Y-93685842D01*
X97461500Y-93871395D01*
X97461505Y-93871401D01*
X97628599Y-94038495D01*
X97725384Y-94106265D01*
X97822165Y-94174032D01*
X97822167Y-94174033D01*
X97822170Y-94174035D01*
X98036337Y-94273903D01*
X98264592Y-94335063D01*
X98441034Y-94350500D01*
X98499999Y-94355659D01*
X98500000Y-94355659D01*
X98500001Y-94355659D01*
X98558966Y-94350500D01*
X98735408Y-94335063D01*
X98963663Y-94273903D01*
X99177830Y-94174035D01*
X99371401Y-94038495D01*
X99538495Y-93871401D01*
X99668425Y-93685842D01*
X99723002Y-93642217D01*
X99792500Y-93635023D01*
X99854855Y-93666546D01*
X99871575Y-93685842D01*
X100001500Y-93871395D01*
X100001505Y-93871401D01*
X100168599Y-94038495D01*
X100265384Y-94106265D01*
X100362165Y-94174032D01*
X100362167Y-94174033D01*
X100362170Y-94174035D01*
X100576337Y-94273903D01*
X100804592Y-94335063D01*
X100981034Y-94350500D01*
X101039999Y-94355659D01*
X101040000Y-94355659D01*
X101040001Y-94355659D01*
X101098966Y-94350500D01*
X101275408Y-94335063D01*
X101503663Y-94273903D01*
X101717830Y-94174035D01*
X101911401Y-94038495D01*
X102078495Y-93871401D01*
X102208425Y-93685842D01*
X102263002Y-93642217D01*
X102332500Y-93635023D01*
X102394855Y-93666546D01*
X102411575Y-93685842D01*
X102541500Y-93871395D01*
X102541505Y-93871401D01*
X102708599Y-94038495D01*
X102805384Y-94106265D01*
X102902165Y-94174032D01*
X102902167Y-94174033D01*
X102902170Y-94174035D01*
X103116337Y-94273903D01*
X103344592Y-94335063D01*
X103521034Y-94350500D01*
X103579999Y-94355659D01*
X103580000Y-94355659D01*
X103580001Y-94355659D01*
X103638966Y-94350500D01*
X103815408Y-94335063D01*
X104043663Y-94273903D01*
X104257830Y-94174035D01*
X104451401Y-94038495D01*
X104618495Y-93871401D01*
X104748425Y-93685842D01*
X104803002Y-93642217D01*
X104872500Y-93635023D01*
X104934855Y-93666546D01*
X104951575Y-93685842D01*
X105081500Y-93871395D01*
X105081505Y-93871401D01*
X105248599Y-94038495D01*
X105345384Y-94106265D01*
X105442165Y-94174032D01*
X105442167Y-94174033D01*
X105442170Y-94174035D01*
X105656337Y-94273903D01*
X105884592Y-94335063D01*
X106061034Y-94350500D01*
X106119999Y-94355659D01*
X106120000Y-94355659D01*
X106120001Y-94355659D01*
X106178966Y-94350500D01*
X106355408Y-94335063D01*
X106583663Y-94273903D01*
X106797830Y-94174035D01*
X106991401Y-94038495D01*
X107158495Y-93871401D01*
X107288425Y-93685842D01*
X107343002Y-93642217D01*
X107412500Y-93635023D01*
X107474855Y-93666546D01*
X107491575Y-93685842D01*
X107621500Y-93871395D01*
X107621505Y-93871401D01*
X107788599Y-94038495D01*
X107885384Y-94106265D01*
X107982165Y-94174032D01*
X107982167Y-94174033D01*
X107982170Y-94174035D01*
X108196337Y-94273903D01*
X108424592Y-94335063D01*
X108601034Y-94350500D01*
X108659999Y-94355659D01*
X108660000Y-94355659D01*
X108660001Y-94355659D01*
X108718966Y-94350500D01*
X108895408Y-94335063D01*
X109123663Y-94273903D01*
X109337830Y-94174035D01*
X109531401Y-94038495D01*
X109653329Y-93916566D01*
X109714648Y-93883084D01*
X109784340Y-93888068D01*
X109840274Y-93929939D01*
X109857189Y-93960917D01*
X109906202Y-94092328D01*
X109906206Y-94092335D01*
X109992452Y-94207544D01*
X109992455Y-94207547D01*
X110107664Y-94293793D01*
X110107671Y-94293797D01*
X110242517Y-94344091D01*
X110242516Y-94344091D01*
X110249444Y-94344835D01*
X110302127Y-94350500D01*
X112097872Y-94350499D01*
X112157483Y-94344091D01*
X112292331Y-94293796D01*
X112407546Y-94207546D01*
X112493796Y-94092331D01*
X112544091Y-93957483D01*
X112550500Y-93897873D01*
X112550499Y-92999996D01*
X114794435Y-92999996D01*
X114794435Y-93000003D01*
X114814630Y-93179249D01*
X114814633Y-93179262D01*
X114874209Y-93349520D01*
X114927309Y-93434029D01*
X114946309Y-93501266D01*
X114927309Y-93565971D01*
X114874209Y-93650479D01*
X114814633Y-93820737D01*
X114814630Y-93820750D01*
X114794435Y-93999996D01*
X114794435Y-94000003D01*
X114814630Y-94179249D01*
X114814631Y-94179254D01*
X114874211Y-94349523D01*
X114915122Y-94414632D01*
X114970184Y-94502262D01*
X115097738Y-94629816D01*
X115172855Y-94677015D01*
X115205833Y-94697737D01*
X115250478Y-94725789D01*
X115346930Y-94759539D01*
X115420745Y-94785368D01*
X115420750Y-94785369D01*
X115599996Y-94805565D01*
X115600000Y-94805565D01*
X115600004Y-94805565D01*
X115779249Y-94785369D01*
X115779252Y-94785368D01*
X115779255Y-94785368D01*
X115949522Y-94725789D01*
X116102262Y-94629816D01*
X116229816Y-94502262D01*
X116325789Y-94349522D01*
X116385368Y-94179255D01*
X116385956Y-94174035D01*
X116405565Y-94000003D01*
X116405565Y-93999996D01*
X116385369Y-93820750D01*
X116385368Y-93820745D01*
X116325788Y-93650475D01*
X116272691Y-93565973D01*
X116253690Y-93498736D01*
X116272691Y-93434027D01*
X116325788Y-93349524D01*
X116325789Y-93349522D01*
X116385368Y-93179255D01*
X116385369Y-93179249D01*
X116405565Y-93000003D01*
X116405565Y-92999996D01*
X116385369Y-92820750D01*
X116385368Y-92820745D01*
X116343909Y-92702262D01*
X116325789Y-92650478D01*
X116229816Y-92497738D01*
X116102262Y-92370184D01*
X116066613Y-92347784D01*
X132030935Y-92347784D01*
X132030935Y-92347791D01*
X132051130Y-92527037D01*
X132051131Y-92527042D01*
X132110711Y-92697311D01*
X132193969Y-92829815D01*
X132206684Y-92850050D01*
X132334238Y-92977604D01*
X132486978Y-93073577D01*
X132657245Y-93133156D01*
X132657250Y-93133157D01*
X132836496Y-93153353D01*
X132836500Y-93153353D01*
X132836504Y-93153353D01*
X133015749Y-93133157D01*
X133015752Y-93133156D01*
X133015755Y-93133156D01*
X133186022Y-93073577D01*
X133338762Y-92977604D01*
X133466316Y-92850050D01*
X133562289Y-92697310D01*
X133621868Y-92527043D01*
X133638520Y-92379254D01*
X133642065Y-92347791D01*
X133642065Y-92347784D01*
X133625413Y-92199996D01*
X143194435Y-92199996D01*
X143194435Y-92200003D01*
X143214630Y-92379249D01*
X143214631Y-92379254D01*
X143274211Y-92549523D01*
X143337646Y-92650478D01*
X143370184Y-92702262D01*
X143497738Y-92829816D01*
X143650478Y-92925789D01*
X143798554Y-92977603D01*
X143820745Y-92985368D01*
X143820750Y-92985369D01*
X143999996Y-93005565D01*
X144000000Y-93005565D01*
X144000004Y-93005565D01*
X144179249Y-92985369D01*
X144179252Y-92985368D01*
X144179255Y-92985368D01*
X144349522Y-92925789D01*
X144502262Y-92829816D01*
X144629816Y-92702262D01*
X144725789Y-92549522D01*
X144785368Y-92379255D01*
X144786977Y-92364977D01*
X144805565Y-92200003D01*
X144805565Y-92199996D01*
X144785369Y-92020750D01*
X144785368Y-92020745D01*
X144752141Y-91925788D01*
X144725789Y-91850478D01*
X144722677Y-91845526D01*
X144642530Y-91717972D01*
X144629816Y-91697738D01*
X144502262Y-91570184D01*
X144489904Y-91562419D01*
X144349523Y-91474211D01*
X144179254Y-91414631D01*
X144179249Y-91414630D01*
X144000004Y-91394435D01*
X143999996Y-91394435D01*
X143820750Y-91414630D01*
X143820745Y-91414631D01*
X143650476Y-91474211D01*
X143497737Y-91570184D01*
X143370184Y-91697737D01*
X143274211Y-91850476D01*
X143214631Y-92020745D01*
X143214630Y-92020750D01*
X143194435Y-92199996D01*
X133625413Y-92199996D01*
X133621869Y-92168538D01*
X133621868Y-92168533D01*
X133598632Y-92102128D01*
X133562289Y-91998266D01*
X133466316Y-91845526D01*
X133338762Y-91717972D01*
X133306558Y-91697737D01*
X133186023Y-91621999D01*
X133015754Y-91562419D01*
X133015749Y-91562418D01*
X132836504Y-91542223D01*
X132836496Y-91542223D01*
X132657250Y-91562418D01*
X132657245Y-91562419D01*
X132486976Y-91621999D01*
X132334237Y-91717972D01*
X132206684Y-91845525D01*
X132110711Y-91998264D01*
X132051131Y-92168533D01*
X132051130Y-92168538D01*
X132030935Y-92347784D01*
X116066613Y-92347784D01*
X116025847Y-92322169D01*
X115949523Y-92274211D01*
X115779254Y-92214631D01*
X115779249Y-92214630D01*
X115600004Y-92194435D01*
X115599996Y-92194435D01*
X115420750Y-92214630D01*
X115420745Y-92214631D01*
X115250476Y-92274211D01*
X115097737Y-92370184D01*
X114970184Y-92497737D01*
X114874211Y-92650476D01*
X114814631Y-92820745D01*
X114814630Y-92820750D01*
X114794435Y-92999996D01*
X112550499Y-92999996D01*
X112550499Y-92102128D01*
X112544091Y-92042517D01*
X112542810Y-92039083D01*
X112493797Y-91907671D01*
X112493793Y-91907664D01*
X112407547Y-91792455D01*
X112407544Y-91792452D01*
X112292335Y-91706206D01*
X112292328Y-91706202D01*
X112157482Y-91655908D01*
X112157483Y-91655908D01*
X112097883Y-91649501D01*
X112097881Y-91649500D01*
X112097873Y-91649500D01*
X112097864Y-91649500D01*
X110302129Y-91649500D01*
X110302123Y-91649501D01*
X110242516Y-91655908D01*
X110107671Y-91706202D01*
X110107664Y-91706206D01*
X109992455Y-91792452D01*
X109992452Y-91792455D01*
X109906206Y-91907664D01*
X109906203Y-91907669D01*
X109857189Y-92039083D01*
X109815317Y-92095016D01*
X109749853Y-92119433D01*
X109681580Y-92104581D01*
X109653326Y-92083430D01*
X109531402Y-91961506D01*
X109531395Y-91961501D01*
X109337834Y-91825967D01*
X109337830Y-91825965D01*
X109337828Y-91825964D01*
X109123663Y-91726097D01*
X109123659Y-91726096D01*
X109123655Y-91726094D01*
X108895413Y-91664938D01*
X108895403Y-91664936D01*
X108660001Y-91644341D01*
X108659999Y-91644341D01*
X108424596Y-91664936D01*
X108424586Y-91664938D01*
X108196344Y-91726094D01*
X108196335Y-91726098D01*
X107982171Y-91825964D01*
X107982169Y-91825965D01*
X107788597Y-91961505D01*
X107621505Y-92128597D01*
X107491575Y-92314158D01*
X107436998Y-92357783D01*
X107367500Y-92364977D01*
X107305145Y-92333454D01*
X107288425Y-92314158D01*
X107158494Y-92128597D01*
X106991402Y-91961506D01*
X106991395Y-91961501D01*
X106797834Y-91825967D01*
X106797830Y-91825965D01*
X106797828Y-91825964D01*
X106583663Y-91726097D01*
X106583659Y-91726096D01*
X106583655Y-91726094D01*
X106355413Y-91664938D01*
X106355403Y-91664936D01*
X106120001Y-91644341D01*
X106119999Y-91644341D01*
X105884596Y-91664936D01*
X105884586Y-91664938D01*
X105656344Y-91726094D01*
X105656335Y-91726098D01*
X105442171Y-91825964D01*
X105442169Y-91825965D01*
X105248597Y-91961505D01*
X105081505Y-92128597D01*
X104951575Y-92314158D01*
X104896998Y-92357783D01*
X104827500Y-92364977D01*
X104765145Y-92333454D01*
X104748425Y-92314158D01*
X104618494Y-92128597D01*
X104451402Y-91961506D01*
X104451395Y-91961501D01*
X104257834Y-91825967D01*
X104257830Y-91825965D01*
X104257828Y-91825964D01*
X104043663Y-91726097D01*
X104043659Y-91726096D01*
X104043655Y-91726094D01*
X103815413Y-91664938D01*
X103815403Y-91664936D01*
X103580001Y-91644341D01*
X103579999Y-91644341D01*
X103344596Y-91664936D01*
X103344586Y-91664938D01*
X103116344Y-91726094D01*
X103116335Y-91726098D01*
X102902171Y-91825964D01*
X102902169Y-91825965D01*
X102708597Y-91961505D01*
X102541505Y-92128597D01*
X102411575Y-92314158D01*
X102356998Y-92357783D01*
X102287500Y-92364977D01*
X102225145Y-92333454D01*
X102208425Y-92314158D01*
X102078494Y-92128597D01*
X101911402Y-91961506D01*
X101911395Y-91961501D01*
X101717834Y-91825967D01*
X101717830Y-91825965D01*
X101717828Y-91825964D01*
X101503663Y-91726097D01*
X101503659Y-91726096D01*
X101503655Y-91726094D01*
X101275413Y-91664938D01*
X101275403Y-91664936D01*
X101040001Y-91644341D01*
X101039999Y-91644341D01*
X100804596Y-91664936D01*
X100804586Y-91664938D01*
X100576344Y-91726094D01*
X100576335Y-91726098D01*
X100362171Y-91825964D01*
X100362169Y-91825965D01*
X100168597Y-91961505D01*
X100001505Y-92128597D01*
X99871575Y-92314158D01*
X99816998Y-92357783D01*
X99747500Y-92364977D01*
X99685145Y-92333454D01*
X99668425Y-92314158D01*
X99538494Y-92128597D01*
X99371402Y-91961506D01*
X99371395Y-91961501D01*
X99177834Y-91825967D01*
X99177830Y-91825965D01*
X99177828Y-91825964D01*
X98963663Y-91726097D01*
X98963659Y-91726096D01*
X98963655Y-91726094D01*
X98735413Y-91664938D01*
X98735403Y-91664936D01*
X98500001Y-91644341D01*
X98499999Y-91644341D01*
X98264596Y-91664936D01*
X98264586Y-91664938D01*
X98036344Y-91726094D01*
X98036335Y-91726098D01*
X97822171Y-91825964D01*
X97822169Y-91825965D01*
X97628597Y-91961505D01*
X97461505Y-92128597D01*
X97331575Y-92314158D01*
X97276998Y-92357783D01*
X97207500Y-92364977D01*
X97145145Y-92333454D01*
X97128425Y-92314158D01*
X96998494Y-92128597D01*
X96831402Y-91961506D01*
X96831395Y-91961501D01*
X96637834Y-91825967D01*
X96637830Y-91825965D01*
X96637828Y-91825964D01*
X96423663Y-91726097D01*
X96423659Y-91726096D01*
X96423655Y-91726094D01*
X96195413Y-91664938D01*
X96195403Y-91664936D01*
X95960001Y-91644341D01*
X95959999Y-91644341D01*
X95724596Y-91664936D01*
X95724586Y-91664938D01*
X95496344Y-91726094D01*
X95496335Y-91726098D01*
X95282171Y-91825964D01*
X95282169Y-91825965D01*
X95088597Y-91961505D01*
X94921505Y-92128597D01*
X94791575Y-92314158D01*
X94736998Y-92357783D01*
X94667500Y-92364977D01*
X94605145Y-92333454D01*
X94588425Y-92314158D01*
X94458494Y-92128597D01*
X94291402Y-91961506D01*
X94291395Y-91961501D01*
X94097834Y-91825967D01*
X94097830Y-91825965D01*
X94097828Y-91825964D01*
X93883663Y-91726097D01*
X93883659Y-91726096D01*
X93883655Y-91726094D01*
X93655413Y-91664938D01*
X93655403Y-91664936D01*
X93420001Y-91644341D01*
X93419999Y-91644341D01*
X93184596Y-91664936D01*
X93184586Y-91664938D01*
X92956344Y-91726094D01*
X92956335Y-91726098D01*
X92742171Y-91825964D01*
X92742169Y-91825965D01*
X92548597Y-91961505D01*
X92381505Y-92128597D01*
X92245965Y-92322169D01*
X92245964Y-92322171D01*
X92146098Y-92536335D01*
X92146094Y-92536344D01*
X92084938Y-92764586D01*
X92084936Y-92764596D01*
X92064341Y-92999999D01*
X90670500Y-92999999D01*
X90670500Y-90599996D01*
X130594435Y-90599996D01*
X130594435Y-90600003D01*
X130614630Y-90779249D01*
X130614631Y-90779254D01*
X130674211Y-90949523D01*
X130770184Y-91102262D01*
X130897738Y-91229816D01*
X131050478Y-91325789D01*
X131203258Y-91379249D01*
X131220745Y-91385368D01*
X131220750Y-91385369D01*
X131399996Y-91405565D01*
X131400000Y-91405565D01*
X131400004Y-91405565D01*
X131579249Y-91385369D01*
X131579252Y-91385368D01*
X131579255Y-91385368D01*
X131749522Y-91325789D01*
X131902262Y-91229816D01*
X131932082Y-91199996D01*
X140994435Y-91199996D01*
X140994435Y-91200003D01*
X141014630Y-91379249D01*
X141014631Y-91379254D01*
X141074211Y-91549523D01*
X141119751Y-91621999D01*
X141170184Y-91702262D01*
X141297738Y-91829816D01*
X141450478Y-91925789D01*
X141620745Y-91985368D01*
X141620750Y-91985369D01*
X141799996Y-92005565D01*
X141800000Y-92005565D01*
X141800004Y-92005565D01*
X141979249Y-91985369D01*
X141979252Y-91985368D01*
X141979255Y-91985368D01*
X142149522Y-91925789D01*
X142302262Y-91829816D01*
X142429816Y-91702262D01*
X142525789Y-91549522D01*
X142585368Y-91379255D01*
X142591392Y-91325789D01*
X142605565Y-91200003D01*
X142605565Y-91199996D01*
X142585369Y-91020750D01*
X142585368Y-91020745D01*
X142525788Y-90850476D01*
X142429815Y-90697737D01*
X142302262Y-90570184D01*
X142149523Y-90474211D01*
X141979254Y-90414631D01*
X141979249Y-90414630D01*
X141800004Y-90394435D01*
X141799996Y-90394435D01*
X141620750Y-90414630D01*
X141620745Y-90414631D01*
X141450476Y-90474211D01*
X141297737Y-90570184D01*
X141170184Y-90697737D01*
X141074211Y-90850476D01*
X141014631Y-91020745D01*
X141014630Y-91020750D01*
X140994435Y-91199996D01*
X131932082Y-91199996D01*
X132029816Y-91102262D01*
X132125789Y-90949522D01*
X132185368Y-90779255D01*
X132205565Y-90600000D01*
X132191392Y-90474211D01*
X132185369Y-90420750D01*
X132185368Y-90420745D01*
X132125788Y-90250476D01*
X132029815Y-90097737D01*
X131902262Y-89970184D01*
X131749523Y-89874211D01*
X131579254Y-89814631D01*
X131579249Y-89814630D01*
X131400004Y-89794435D01*
X131399996Y-89794435D01*
X131220750Y-89814630D01*
X131220745Y-89814631D01*
X131050476Y-89874211D01*
X130897737Y-89970184D01*
X130770184Y-90097737D01*
X130674211Y-90250476D01*
X130614631Y-90420745D01*
X130614630Y-90420750D01*
X130594435Y-90599996D01*
X90670500Y-90599996D01*
X90670500Y-86899996D01*
X123794435Y-86899996D01*
X123794435Y-86900003D01*
X123814630Y-87079249D01*
X123814631Y-87079254D01*
X123874211Y-87249523D01*
X123970184Y-87402262D01*
X124080241Y-87512319D01*
X124113726Y-87573642D01*
X124108742Y-87643334D01*
X124080241Y-87687681D01*
X123970184Y-87797737D01*
X123874211Y-87950476D01*
X123814631Y-88120745D01*
X123814630Y-88120750D01*
X123794435Y-88299996D01*
X123794435Y-88300003D01*
X123814630Y-88479249D01*
X123814631Y-88479254D01*
X123874211Y-88649523D01*
X123970184Y-88802262D01*
X124097738Y-88929816D01*
X124250478Y-89025789D01*
X124420745Y-89085368D01*
X124420750Y-89085369D01*
X124599996Y-89105565D01*
X124600000Y-89105565D01*
X124600004Y-89105565D01*
X124779249Y-89085369D01*
X124779252Y-89085368D01*
X124779255Y-89085368D01*
X124949522Y-89025789D01*
X125102262Y-88929816D01*
X125229816Y-88802262D01*
X125325789Y-88649522D01*
X125385368Y-88479255D01*
X125385369Y-88479249D01*
X125405565Y-88300003D01*
X125405565Y-88299996D01*
X125385369Y-88120750D01*
X125385368Y-88120745D01*
X125380056Y-88105565D01*
X125325789Y-87950478D01*
X125325188Y-87949522D01*
X125286582Y-87888080D01*
X125229816Y-87797738D01*
X125119759Y-87687681D01*
X125086274Y-87626358D01*
X125091258Y-87556666D01*
X125119759Y-87512319D01*
X125152829Y-87479249D01*
X125229816Y-87402262D01*
X125325789Y-87249522D01*
X125385368Y-87079255D01*
X125396461Y-86980800D01*
X125405565Y-86900003D01*
X125405565Y-86899996D01*
X125394298Y-86799996D01*
X126694435Y-86799996D01*
X126694435Y-86800003D01*
X126714630Y-86979249D01*
X126714631Y-86979254D01*
X126774211Y-87149523D01*
X126837646Y-87250478D01*
X126870184Y-87302262D01*
X126997738Y-87429816D01*
X127076410Y-87479249D01*
X127129040Y-87512319D01*
X127150478Y-87525789D01*
X127287234Y-87573642D01*
X127320745Y-87585368D01*
X127320750Y-87585369D01*
X127499996Y-87605565D01*
X127500000Y-87605565D01*
X127500004Y-87605565D01*
X127679249Y-87585369D01*
X127679252Y-87585368D01*
X127679255Y-87585368D01*
X127849522Y-87525789D01*
X128002262Y-87429816D01*
X128129816Y-87302262D01*
X128225789Y-87149522D01*
X128285368Y-86979255D01*
X128286390Y-86970184D01*
X128305392Y-86801541D01*
X136592890Y-86801541D01*
X136592890Y-86801548D01*
X136613085Y-86980794D01*
X136613086Y-86980799D01*
X136672666Y-87151068D01*
X136768639Y-87303807D01*
X136829770Y-87364938D01*
X136863255Y-87426261D01*
X136859131Y-87493574D01*
X136814631Y-87620745D01*
X136814630Y-87620750D01*
X136794435Y-87799996D01*
X136794435Y-87800003D01*
X136814630Y-87979249D01*
X136814631Y-87979254D01*
X136874211Y-88149523D01*
X136924662Y-88229815D01*
X136970184Y-88302262D01*
X137097738Y-88429816D01*
X137250478Y-88525789D01*
X137420745Y-88585368D01*
X137420750Y-88585369D01*
X137599996Y-88605565D01*
X137600000Y-88605565D01*
X137600004Y-88605565D01*
X137779249Y-88585369D01*
X137779252Y-88585368D01*
X137779255Y-88585368D01*
X137949522Y-88525789D01*
X138102262Y-88429816D01*
X138229816Y-88302262D01*
X138325789Y-88149522D01*
X138325789Y-88149519D01*
X138328259Y-88145590D01*
X138380594Y-88099299D01*
X138447136Y-88088342D01*
X138599996Y-88105565D01*
X138600000Y-88105565D01*
X138600004Y-88105565D01*
X138779249Y-88085369D01*
X138779252Y-88085368D01*
X138779255Y-88085368D01*
X138949522Y-88025789D01*
X139102262Y-87929816D01*
X139229816Y-87802262D01*
X139325789Y-87649522D01*
X139343119Y-87599996D01*
X140194435Y-87599996D01*
X140194435Y-87600003D01*
X140214630Y-87779249D01*
X140214631Y-87779254D01*
X140274211Y-87949523D01*
X140345366Y-88062764D01*
X140370184Y-88102262D01*
X140497738Y-88229816D01*
X140650478Y-88325789D01*
X140820745Y-88385368D01*
X140820750Y-88385369D01*
X140999996Y-88405565D01*
X141000000Y-88405565D01*
X141000004Y-88405565D01*
X141179249Y-88385369D01*
X141179252Y-88385368D01*
X141179255Y-88385368D01*
X141349522Y-88325789D01*
X141502262Y-88229816D01*
X141629816Y-88102262D01*
X141725789Y-87949522D01*
X141785368Y-87779255D01*
X141795686Y-87687681D01*
X141805565Y-87600003D01*
X141805565Y-87599996D01*
X141785369Y-87420750D01*
X141785368Y-87420745D01*
X141725789Y-87250478D01*
X141725188Y-87249522D01*
X141629815Y-87097737D01*
X141502262Y-86970184D01*
X141349523Y-86874211D01*
X141179254Y-86814631D01*
X141179249Y-86814630D01*
X141000004Y-86794435D01*
X140999996Y-86794435D01*
X140820750Y-86814630D01*
X140820745Y-86814631D01*
X140650476Y-86874211D01*
X140497737Y-86970184D01*
X140370184Y-87097737D01*
X140274211Y-87250476D01*
X140214631Y-87420745D01*
X140214630Y-87420750D01*
X140194435Y-87599996D01*
X139343119Y-87599996D01*
X139385368Y-87479255D01*
X139385369Y-87479249D01*
X139405565Y-87300003D01*
X139405565Y-87299996D01*
X139385369Y-87120750D01*
X139385368Y-87120745D01*
X139325789Y-86950478D01*
X139229816Y-86797738D01*
X139102262Y-86670184D01*
X139057269Y-86641913D01*
X139010979Y-86589579D01*
X139000022Y-86550803D01*
X138985369Y-86420750D01*
X138985368Y-86420745D01*
X138925789Y-86250478D01*
X138829816Y-86097738D01*
X138702262Y-85970184D01*
X138549523Y-85874211D01*
X138379254Y-85814631D01*
X138379249Y-85814630D01*
X138200004Y-85794435D01*
X138199996Y-85794435D01*
X138020750Y-85814630D01*
X138020745Y-85814631D01*
X137850476Y-85874211D01*
X137697736Y-85970185D01*
X137686444Y-85981477D01*
X137625119Y-86014960D01*
X137584873Y-86014793D01*
X137584630Y-86016956D01*
X137398459Y-85995980D01*
X137398451Y-85995980D01*
X137219205Y-86016175D01*
X137219200Y-86016176D01*
X137048931Y-86075756D01*
X136896192Y-86171729D01*
X136768639Y-86299282D01*
X136672666Y-86452021D01*
X136613086Y-86622290D01*
X136613085Y-86622295D01*
X136592890Y-86801541D01*
X128305392Y-86801541D01*
X128305565Y-86800003D01*
X128305565Y-86799996D01*
X128285369Y-86620750D01*
X128285368Y-86620745D01*
X128278109Y-86600000D01*
X128225789Y-86450478D01*
X128207106Y-86420745D01*
X128186582Y-86388080D01*
X128129816Y-86297738D01*
X128002262Y-86170184D01*
X127931608Y-86125789D01*
X127849523Y-86074211D01*
X127679254Y-86014631D01*
X127679249Y-86014630D01*
X127500004Y-85994435D01*
X127499996Y-85994435D01*
X127320750Y-86014630D01*
X127320745Y-86014631D01*
X127150476Y-86074211D01*
X126997737Y-86170184D01*
X126870184Y-86297737D01*
X126774211Y-86450476D01*
X126714631Y-86620745D01*
X126714630Y-86620750D01*
X126694435Y-86799996D01*
X125394298Y-86799996D01*
X125385369Y-86720750D01*
X125385368Y-86720745D01*
X125339471Y-86589579D01*
X125325789Y-86550478D01*
X125229816Y-86397738D01*
X125102262Y-86270184D01*
X124999422Y-86205565D01*
X124949523Y-86174211D01*
X124779254Y-86114631D01*
X124779249Y-86114630D01*
X124600004Y-86094435D01*
X124599996Y-86094435D01*
X124420750Y-86114630D01*
X124420745Y-86114631D01*
X124250476Y-86174211D01*
X124097737Y-86270184D01*
X123970184Y-86397737D01*
X123874211Y-86550476D01*
X123814631Y-86720745D01*
X123814630Y-86720750D01*
X123794435Y-86899996D01*
X90670500Y-86899996D01*
X90670500Y-84999996D01*
X121994435Y-84999996D01*
X121994435Y-85000003D01*
X122014630Y-85179249D01*
X122014631Y-85179254D01*
X122074211Y-85349523D01*
X122105926Y-85399996D01*
X122170184Y-85502262D01*
X122297738Y-85629816D01*
X122450478Y-85725789D01*
X122518306Y-85749523D01*
X122620745Y-85785368D01*
X122620750Y-85785369D01*
X122799996Y-85805565D01*
X122800000Y-85805565D01*
X122800004Y-85805565D01*
X122979249Y-85785369D01*
X122979252Y-85785368D01*
X122979255Y-85785368D01*
X123149522Y-85725789D01*
X123302262Y-85629816D01*
X123429816Y-85502262D01*
X123525789Y-85349522D01*
X123585368Y-85179255D01*
X123588718Y-85149522D01*
X123605565Y-85000003D01*
X123605565Y-84999996D01*
X128894435Y-84999996D01*
X128894435Y-85000003D01*
X128914630Y-85179249D01*
X128914631Y-85179254D01*
X128974211Y-85349523D01*
X129005926Y-85399996D01*
X129070184Y-85502262D01*
X129197738Y-85629816D01*
X129350478Y-85725789D01*
X129418306Y-85749523D01*
X129520745Y-85785368D01*
X129520750Y-85785369D01*
X129699996Y-85805565D01*
X129700000Y-85805565D01*
X129700004Y-85805565D01*
X129879249Y-85785369D01*
X129879252Y-85785368D01*
X129879255Y-85785368D01*
X130049522Y-85725789D01*
X130202262Y-85629816D01*
X130329816Y-85502262D01*
X130425789Y-85349522D01*
X130485368Y-85179255D01*
X130488718Y-85149522D01*
X130505565Y-85000003D01*
X130505565Y-84999996D01*
X130485369Y-84820750D01*
X130485368Y-84820745D01*
X130478108Y-84799996D01*
X135694435Y-84799996D01*
X135694435Y-84800003D01*
X135714630Y-84979249D01*
X135714631Y-84979254D01*
X135774211Y-85149523D01*
X135870184Y-85302262D01*
X135997738Y-85429816D01*
X136150478Y-85525789D01*
X136303258Y-85579249D01*
X136320745Y-85585368D01*
X136320750Y-85585369D01*
X136499996Y-85605565D01*
X136500000Y-85605565D01*
X136500004Y-85605565D01*
X136679249Y-85585369D01*
X136679252Y-85585368D01*
X136679255Y-85585368D01*
X136849522Y-85525789D01*
X137002262Y-85429816D01*
X137129816Y-85302262D01*
X137225789Y-85149522D01*
X137285368Y-84979255D01*
X137285369Y-84979249D01*
X137305565Y-84800003D01*
X137305565Y-84799996D01*
X137285369Y-84620750D01*
X137285368Y-84620745D01*
X137252141Y-84525788D01*
X137225789Y-84450478D01*
X137129816Y-84297738D01*
X137002262Y-84170184D01*
X136899422Y-84105565D01*
X136849523Y-84074211D01*
X136679254Y-84014631D01*
X136679249Y-84014630D01*
X136500004Y-83994435D01*
X136499996Y-83994435D01*
X136320750Y-84014630D01*
X136320745Y-84014631D01*
X136150476Y-84074211D01*
X135997737Y-84170184D01*
X135870184Y-84297737D01*
X135774211Y-84450476D01*
X135714631Y-84620745D01*
X135714630Y-84620750D01*
X135694435Y-84799996D01*
X130478108Y-84799996D01*
X130435861Y-84679262D01*
X130425789Y-84650478D01*
X130407106Y-84620745D01*
X130384878Y-84585368D01*
X130329816Y-84497738D01*
X130202262Y-84370184D01*
X130049523Y-84274211D01*
X129879254Y-84214631D01*
X129879249Y-84214630D01*
X129700004Y-84194435D01*
X129699996Y-84194435D01*
X129520750Y-84214630D01*
X129520745Y-84214631D01*
X129350476Y-84274211D01*
X129197737Y-84370184D01*
X129070184Y-84497737D01*
X128974211Y-84650476D01*
X128914631Y-84820745D01*
X128914630Y-84820750D01*
X128894435Y-84999996D01*
X123605565Y-84999996D01*
X123585369Y-84820750D01*
X123585368Y-84820745D01*
X123535861Y-84679262D01*
X123525789Y-84650478D01*
X123507106Y-84620745D01*
X123484878Y-84585368D01*
X123429816Y-84497738D01*
X123302262Y-84370184D01*
X123149523Y-84274211D01*
X122979254Y-84214631D01*
X122979249Y-84214630D01*
X122800004Y-84194435D01*
X122799996Y-84194435D01*
X122620750Y-84214630D01*
X122620745Y-84214631D01*
X122450476Y-84274211D01*
X122297737Y-84370184D01*
X122170184Y-84497737D01*
X122074211Y-84650476D01*
X122014631Y-84820745D01*
X122014630Y-84820750D01*
X121994435Y-84999996D01*
X90670500Y-84999996D01*
X90670500Y-82599996D01*
X102394435Y-82599996D01*
X102394435Y-82600003D01*
X102414630Y-82779249D01*
X102414631Y-82779254D01*
X102474211Y-82949523D01*
X102515122Y-83014632D01*
X102570184Y-83102262D01*
X102697738Y-83229816D01*
X102776410Y-83279249D01*
X102805833Y-83297737D01*
X102850478Y-83325789D01*
X103020745Y-83385368D01*
X103020750Y-83385369D01*
X103199996Y-83405565D01*
X103200000Y-83405565D01*
X103200004Y-83405565D01*
X103379249Y-83385369D01*
X103379252Y-83385368D01*
X103379255Y-83385368D01*
X103549522Y-83325789D01*
X103702262Y-83229816D01*
X103829816Y-83102262D01*
X103925789Y-82949522D01*
X103985368Y-82779255D01*
X103986757Y-82766928D01*
X104005565Y-82600003D01*
X104005565Y-82599996D01*
X103994298Y-82499996D01*
X114194435Y-82499996D01*
X114194435Y-82500003D01*
X114214630Y-82679249D01*
X114214631Y-82679254D01*
X114274211Y-82849523D01*
X114337646Y-82950478D01*
X114370184Y-83002262D01*
X114497738Y-83129816D01*
X114519029Y-83143194D01*
X114605833Y-83197737D01*
X114650478Y-83225789D01*
X114661984Y-83229815D01*
X114820745Y-83285368D01*
X114820750Y-83285369D01*
X114999996Y-83305565D01*
X115000000Y-83305565D01*
X115000004Y-83305565D01*
X115049430Y-83299996D01*
X118194435Y-83299996D01*
X118194435Y-83300003D01*
X118214630Y-83479249D01*
X118214631Y-83479254D01*
X118274211Y-83649523D01*
X118305926Y-83699996D01*
X118370184Y-83802262D01*
X118497738Y-83929816D01*
X118576410Y-83979249D01*
X118632721Y-84014632D01*
X118650478Y-84025789D01*
X118718306Y-84049523D01*
X118820745Y-84085368D01*
X118820750Y-84085369D01*
X118999996Y-84105565D01*
X119000000Y-84105565D01*
X119000004Y-84105565D01*
X119179249Y-84085369D01*
X119179252Y-84085368D01*
X119179255Y-84085368D01*
X119349522Y-84025789D01*
X119502262Y-83929816D01*
X119629816Y-83802262D01*
X119694074Y-83699996D01*
X140894435Y-83699996D01*
X140894435Y-83700003D01*
X140914630Y-83879249D01*
X140914631Y-83879254D01*
X140974211Y-84049523D01*
X141070184Y-84202262D01*
X141079929Y-84212007D01*
X141113414Y-84273330D01*
X141113282Y-84313585D01*
X141115411Y-84313825D01*
X141094435Y-84499996D01*
X141094435Y-84500003D01*
X141114630Y-84679249D01*
X141114633Y-84679262D01*
X141174209Y-84849519D01*
X141195893Y-84884030D01*
X141214892Y-84951267D01*
X141195893Y-85015970D01*
X141174209Y-85050480D01*
X141114633Y-85220737D01*
X141114630Y-85220750D01*
X141094435Y-85399996D01*
X141094435Y-85400003D01*
X141114630Y-85579249D01*
X141114631Y-85579254D01*
X141174211Y-85749523D01*
X141215122Y-85814632D01*
X141270184Y-85902262D01*
X141397738Y-86029816D01*
X141468392Y-86074211D01*
X141532721Y-86114632D01*
X141550478Y-86125789D01*
X141677352Y-86170184D01*
X141720745Y-86185368D01*
X141720750Y-86185369D01*
X141899996Y-86205565D01*
X141900000Y-86205565D01*
X141900004Y-86205565D01*
X142079249Y-86185369D01*
X142079252Y-86185368D01*
X142079255Y-86185368D01*
X142249522Y-86125789D01*
X142402262Y-86029816D01*
X142529816Y-85902262D01*
X142625789Y-85749522D01*
X142685368Y-85579255D01*
X142691392Y-85525789D01*
X142705565Y-85400003D01*
X142705565Y-85399996D01*
X142685369Y-85220750D01*
X142685368Y-85220745D01*
X142625788Y-85050475D01*
X142604108Y-85015973D01*
X142585107Y-84948737D01*
X142604108Y-84884027D01*
X142625788Y-84849524D01*
X142625790Y-84849519D01*
X142685368Y-84679255D01*
X142685369Y-84679249D01*
X142705565Y-84500003D01*
X142705565Y-84499996D01*
X142685369Y-84320750D01*
X142685368Y-84320745D01*
X142682863Y-84313585D01*
X142625789Y-84150478D01*
X142625188Y-84149522D01*
X142562354Y-84049522D01*
X142529816Y-83997738D01*
X142520070Y-83987992D01*
X142486585Y-83926669D01*
X142486826Y-83886428D01*
X142484589Y-83886176D01*
X142505565Y-83700003D01*
X142505565Y-83699996D01*
X142485369Y-83520750D01*
X142485368Y-83520745D01*
X142470848Y-83479249D01*
X142425789Y-83350478D01*
X142329816Y-83197738D01*
X142232074Y-83099996D01*
X146094435Y-83099996D01*
X146094435Y-83100003D01*
X146114630Y-83279249D01*
X146114631Y-83279254D01*
X146174211Y-83449523D01*
X146270184Y-83602262D01*
X146397738Y-83729816D01*
X146550478Y-83825789D01*
X146703258Y-83879249D01*
X146720745Y-83885368D01*
X146720750Y-83885369D01*
X146899996Y-83905565D01*
X146900000Y-83905565D01*
X146900004Y-83905565D01*
X147079249Y-83885369D01*
X147079252Y-83885368D01*
X147079255Y-83885368D01*
X147249522Y-83825789D01*
X147290571Y-83799996D01*
X161894435Y-83799996D01*
X161894435Y-83800003D01*
X161914630Y-83979249D01*
X161914631Y-83979254D01*
X161974211Y-84149523D01*
X162015122Y-84214632D01*
X162070184Y-84302262D01*
X162197738Y-84429816D01*
X162288080Y-84486582D01*
X162305833Y-84497737D01*
X162350478Y-84525789D01*
X162520745Y-84585368D01*
X162520750Y-84585369D01*
X162699996Y-84605565D01*
X162700000Y-84605565D01*
X162700004Y-84605565D01*
X162879249Y-84585369D01*
X162879252Y-84585368D01*
X162879255Y-84585368D01*
X163049522Y-84525789D01*
X163202262Y-84429816D01*
X163329816Y-84302262D01*
X163425789Y-84149522D01*
X163485368Y-83979255D01*
X163490456Y-83934099D01*
X163505565Y-83800003D01*
X163505565Y-83799996D01*
X163485369Y-83620750D01*
X163485368Y-83620745D01*
X163425789Y-83450478D01*
X163425188Y-83449522D01*
X163362955Y-83350478D01*
X163329816Y-83297738D01*
X163202262Y-83170184D01*
X163049523Y-83074211D01*
X162879254Y-83014631D01*
X162879249Y-83014630D01*
X162700004Y-82994435D01*
X162699996Y-82994435D01*
X162520750Y-83014630D01*
X162520745Y-83014631D01*
X162350476Y-83074211D01*
X162197737Y-83170184D01*
X162070184Y-83297737D01*
X161974211Y-83450476D01*
X161914631Y-83620745D01*
X161914630Y-83620750D01*
X161894435Y-83799996D01*
X147290571Y-83799996D01*
X147402262Y-83729816D01*
X147529816Y-83602262D01*
X147625789Y-83449522D01*
X147685368Y-83279255D01*
X147685369Y-83279249D01*
X147705565Y-83100003D01*
X147705565Y-83099996D01*
X147685369Y-82920750D01*
X147685368Y-82920745D01*
X147642326Y-82797738D01*
X147625789Y-82750478D01*
X147529816Y-82597738D01*
X147402262Y-82470184D01*
X147331608Y-82425789D01*
X147249523Y-82374211D01*
X147079254Y-82314631D01*
X147079249Y-82314630D01*
X146900004Y-82294435D01*
X146899996Y-82294435D01*
X146720750Y-82314630D01*
X146720745Y-82314631D01*
X146550476Y-82374211D01*
X146397737Y-82470184D01*
X146270184Y-82597737D01*
X146174211Y-82750476D01*
X146114631Y-82920745D01*
X146114630Y-82920750D01*
X146094435Y-83099996D01*
X142232074Y-83099996D01*
X142202262Y-83070184D01*
X142113852Y-83014632D01*
X142049523Y-82974211D01*
X141879254Y-82914631D01*
X141879249Y-82914630D01*
X141700004Y-82894435D01*
X141699996Y-82894435D01*
X141520750Y-82914630D01*
X141520745Y-82914631D01*
X141350476Y-82974211D01*
X141197737Y-83070184D01*
X141070184Y-83197737D01*
X140974211Y-83350476D01*
X140914631Y-83520745D01*
X140914630Y-83520750D01*
X140894435Y-83699996D01*
X119694074Y-83699996D01*
X119725789Y-83649522D01*
X119785368Y-83479255D01*
X119785369Y-83479249D01*
X119805565Y-83300003D01*
X119805565Y-83299996D01*
X119785369Y-83120750D01*
X119785368Y-83120745D01*
X119725789Y-82950478D01*
X119725188Y-82949522D01*
X119629815Y-82797737D01*
X119502262Y-82670184D01*
X119390559Y-82599996D01*
X131194435Y-82599996D01*
X131194435Y-82600003D01*
X131214630Y-82779249D01*
X131214631Y-82779254D01*
X131274211Y-82949523D01*
X131315122Y-83014632D01*
X131370184Y-83102262D01*
X131497738Y-83229816D01*
X131576410Y-83279249D01*
X131605833Y-83297737D01*
X131650478Y-83325789D01*
X131820745Y-83385368D01*
X131820750Y-83385369D01*
X131999996Y-83405565D01*
X132000000Y-83405565D01*
X132000004Y-83405565D01*
X132179249Y-83385369D01*
X132179252Y-83385368D01*
X132179255Y-83385368D01*
X132349522Y-83325789D01*
X132502262Y-83229816D01*
X132629816Y-83102262D01*
X132725789Y-82949522D01*
X132785368Y-82779255D01*
X132786757Y-82766928D01*
X132805565Y-82600003D01*
X132805565Y-82599996D01*
X132785369Y-82420750D01*
X132785368Y-82420745D01*
X132784198Y-82417402D01*
X133328453Y-82417402D01*
X133328453Y-82417409D01*
X133348648Y-82596655D01*
X133348649Y-82596660D01*
X133408229Y-82766929D01*
X133427588Y-82797738D01*
X133504202Y-82919668D01*
X133631756Y-83047222D01*
X133784496Y-83143195D01*
X133940368Y-83197737D01*
X133954763Y-83202774D01*
X133954768Y-83202775D01*
X134134014Y-83222971D01*
X134134018Y-83222971D01*
X134134022Y-83222971D01*
X134313267Y-83202775D01*
X134313270Y-83202774D01*
X134313273Y-83202774D01*
X134483540Y-83143195D01*
X134636280Y-83047222D01*
X134763834Y-82919668D01*
X134859807Y-82766928D01*
X134919386Y-82596661D01*
X134919387Y-82596655D01*
X134939583Y-82417409D01*
X134939583Y-82417402D01*
X134919387Y-82238156D01*
X134919386Y-82238151D01*
X134859806Y-82067882D01*
X134798418Y-81970184D01*
X134763834Y-81915144D01*
X134636280Y-81787590D01*
X134496876Y-81699996D01*
X151794435Y-81699996D01*
X151794435Y-81700003D01*
X151814630Y-81879249D01*
X151814631Y-81879254D01*
X151874211Y-82049523D01*
X151937646Y-82150478D01*
X151970184Y-82202262D01*
X152097738Y-82329816D01*
X152168392Y-82374211D01*
X152242450Y-82420745D01*
X152250478Y-82425789D01*
X152377352Y-82470184D01*
X152420745Y-82485368D01*
X152420750Y-82485369D01*
X152599996Y-82505565D01*
X152600000Y-82505565D01*
X152600004Y-82505565D01*
X152779249Y-82485369D01*
X152779252Y-82485368D01*
X152779255Y-82485368D01*
X152949522Y-82425789D01*
X153102262Y-82329816D01*
X153229816Y-82202262D01*
X153325789Y-82049522D01*
X153385368Y-81879255D01*
X153385369Y-81879249D01*
X153405565Y-81700003D01*
X153405565Y-81699996D01*
X153385369Y-81520750D01*
X153385368Y-81520745D01*
X153325789Y-81350478D01*
X153229816Y-81197738D01*
X153102262Y-81070184D01*
X153038017Y-81029816D01*
X152949523Y-80974211D01*
X152779254Y-80914631D01*
X152779249Y-80914630D01*
X152600004Y-80894435D01*
X152599996Y-80894435D01*
X152420750Y-80914630D01*
X152420745Y-80914631D01*
X152250476Y-80974211D01*
X152097737Y-81070184D01*
X151970184Y-81197737D01*
X151874211Y-81350476D01*
X151814631Y-81520745D01*
X151814630Y-81520750D01*
X151794435Y-81699996D01*
X134496876Y-81699996D01*
X134483541Y-81691617D01*
X134313272Y-81632037D01*
X134313267Y-81632036D01*
X134134022Y-81611841D01*
X134134014Y-81611841D01*
X133954768Y-81632036D01*
X133954763Y-81632037D01*
X133784494Y-81691617D01*
X133631755Y-81787590D01*
X133504202Y-81915143D01*
X133408229Y-82067882D01*
X133348649Y-82238151D01*
X133348648Y-82238156D01*
X133328453Y-82417402D01*
X132784198Y-82417402D01*
X132769085Y-82374211D01*
X132725789Y-82250478D01*
X132718043Y-82238151D01*
X132662955Y-82150478D01*
X132629816Y-82097738D01*
X132502262Y-81970184D01*
X132431608Y-81925789D01*
X132349523Y-81874211D01*
X132179254Y-81814631D01*
X132179249Y-81814630D01*
X132000004Y-81794435D01*
X131999996Y-81794435D01*
X131820750Y-81814630D01*
X131820745Y-81814631D01*
X131650476Y-81874211D01*
X131497737Y-81970184D01*
X131370184Y-82097737D01*
X131274211Y-82250476D01*
X131214631Y-82420745D01*
X131214630Y-82420750D01*
X131194435Y-82599996D01*
X119390559Y-82599996D01*
X119349523Y-82574211D01*
X119179254Y-82514631D01*
X119179249Y-82514630D01*
X119000004Y-82494435D01*
X118999996Y-82494435D01*
X118820750Y-82514630D01*
X118820745Y-82514631D01*
X118650476Y-82574211D01*
X118497737Y-82670184D01*
X118370184Y-82797737D01*
X118274211Y-82950476D01*
X118214631Y-83120745D01*
X118214630Y-83120750D01*
X118194435Y-83299996D01*
X115049430Y-83299996D01*
X115179249Y-83285369D01*
X115179252Y-83285368D01*
X115179255Y-83285368D01*
X115349522Y-83225789D01*
X115502262Y-83129816D01*
X115629816Y-83002262D01*
X115725789Y-82849522D01*
X115785368Y-82679255D01*
X115786390Y-82670184D01*
X115805565Y-82500003D01*
X115805565Y-82499996D01*
X115785369Y-82320750D01*
X115785368Y-82320745D01*
X115776162Y-82294435D01*
X115725789Y-82150478D01*
X115629816Y-81997738D01*
X115502262Y-81870184D01*
X115438017Y-81829816D01*
X115349523Y-81774211D01*
X115179254Y-81714631D01*
X115179249Y-81714630D01*
X115049362Y-81699996D01*
X122694435Y-81699996D01*
X122694435Y-81700003D01*
X122714630Y-81879249D01*
X122714631Y-81879254D01*
X122774211Y-82049523D01*
X122837646Y-82150478D01*
X122870184Y-82202262D01*
X122997738Y-82329816D01*
X123068392Y-82374211D01*
X123142450Y-82420745D01*
X123150478Y-82425789D01*
X123277352Y-82470184D01*
X123320745Y-82485368D01*
X123320750Y-82485369D01*
X123499996Y-82505565D01*
X123500000Y-82505565D01*
X123500004Y-82505565D01*
X123679249Y-82485369D01*
X123679252Y-82485368D01*
X123679255Y-82485368D01*
X123849522Y-82425789D01*
X124002262Y-82329816D01*
X124129816Y-82202262D01*
X124225789Y-82049522D01*
X124285368Y-81879255D01*
X124285369Y-81879249D01*
X124305565Y-81700003D01*
X124305565Y-81699996D01*
X124285369Y-81520750D01*
X124285368Y-81520745D01*
X124225789Y-81350478D01*
X124129816Y-81197738D01*
X124002262Y-81070184D01*
X123938017Y-81029816D01*
X123849523Y-80974211D01*
X123679254Y-80914631D01*
X123679249Y-80914630D01*
X123500004Y-80894435D01*
X123499996Y-80894435D01*
X123320750Y-80914630D01*
X123320745Y-80914631D01*
X123150476Y-80974211D01*
X122997737Y-81070184D01*
X122870184Y-81197737D01*
X122774211Y-81350476D01*
X122714631Y-81520745D01*
X122714630Y-81520750D01*
X122694435Y-81699996D01*
X115049362Y-81699996D01*
X115000004Y-81694435D01*
X114999996Y-81694435D01*
X114820750Y-81714630D01*
X114820745Y-81714631D01*
X114650476Y-81774211D01*
X114497737Y-81870184D01*
X114370184Y-81997737D01*
X114274211Y-82150476D01*
X114214631Y-82320745D01*
X114214630Y-82320750D01*
X114194435Y-82499996D01*
X103994298Y-82499996D01*
X103985369Y-82420750D01*
X103985368Y-82420745D01*
X103969085Y-82374211D01*
X103925789Y-82250478D01*
X103918043Y-82238151D01*
X103862955Y-82150478D01*
X103829816Y-82097738D01*
X103702262Y-81970184D01*
X103631608Y-81925789D01*
X103549523Y-81874211D01*
X103379254Y-81814631D01*
X103379249Y-81814630D01*
X103200004Y-81794435D01*
X103199996Y-81794435D01*
X103020750Y-81814630D01*
X103020745Y-81814631D01*
X102850476Y-81874211D01*
X102697737Y-81970184D01*
X102570184Y-82097737D01*
X102474211Y-82250476D01*
X102414631Y-82420745D01*
X102414630Y-82420750D01*
X102394435Y-82599996D01*
X90670500Y-82599996D01*
X90670500Y-79755996D01*
X103588435Y-79755996D01*
X103588435Y-79756003D01*
X103608630Y-79935249D01*
X103608631Y-79935254D01*
X103668211Y-80105523D01*
X103746310Y-80229816D01*
X103764184Y-80258262D01*
X103891738Y-80385816D01*
X104044478Y-80481789D01*
X104214745Y-80541368D01*
X104214750Y-80541369D01*
X104393996Y-80561565D01*
X104394000Y-80561565D01*
X104394004Y-80561565D01*
X104573249Y-80541369D01*
X104573252Y-80541368D01*
X104573255Y-80541368D01*
X104743522Y-80481789D01*
X104858095Y-80409798D01*
X126339441Y-80409798D01*
X126339441Y-80409805D01*
X126359636Y-80589051D01*
X126359637Y-80589056D01*
X126419217Y-80759325D01*
X126504113Y-80894435D01*
X126515190Y-80912064D01*
X126642744Y-81039618D01*
X126795484Y-81135591D01*
X126913375Y-81176842D01*
X126921503Y-81179687D01*
X126978279Y-81220409D01*
X127003768Y-81282845D01*
X127014630Y-81379250D01*
X127014631Y-81379254D01*
X127074211Y-81549523D01*
X127126059Y-81632038D01*
X127170184Y-81702262D01*
X127297738Y-81829816D01*
X127361983Y-81870184D01*
X127433536Y-81915144D01*
X127450478Y-81925789D01*
X127577352Y-81970184D01*
X127620745Y-81985368D01*
X127620750Y-81985369D01*
X127799996Y-82005565D01*
X127800000Y-82005565D01*
X127800004Y-82005565D01*
X127979249Y-81985369D01*
X127979252Y-81985368D01*
X127979255Y-81985368D01*
X128149522Y-81925789D01*
X128302262Y-81829816D01*
X128429816Y-81702262D01*
X128525789Y-81549522D01*
X128585368Y-81379255D01*
X128594753Y-81295957D01*
X128621819Y-81231544D01*
X128679413Y-81191988D01*
X128731857Y-81186620D01*
X128899997Y-81205565D01*
X128900000Y-81205565D01*
X128900004Y-81205565D01*
X129079249Y-81185369D01*
X129079252Y-81185368D01*
X129079255Y-81185368D01*
X129249522Y-81125789D01*
X129402262Y-81029816D01*
X129529816Y-80902262D01*
X129625789Y-80749522D01*
X129685368Y-80579255D01*
X129687361Y-80561565D01*
X129705565Y-80400003D01*
X129705565Y-80399996D01*
X129685369Y-80220750D01*
X129685368Y-80220745D01*
X129625788Y-80050476D01*
X129553391Y-79935258D01*
X129529816Y-79897738D01*
X129402262Y-79770184D01*
X129249523Y-79674211D01*
X129079254Y-79614631D01*
X129079249Y-79614630D01*
X128900004Y-79594435D01*
X128899996Y-79594435D01*
X128757849Y-79610450D01*
X128689027Y-79598395D01*
X128637648Y-79551046D01*
X128620024Y-79483435D01*
X128626925Y-79446275D01*
X128635859Y-79420745D01*
X128685368Y-79279255D01*
X128688243Y-79253737D01*
X128705565Y-79100003D01*
X128705565Y-79099996D01*
X128685369Y-78920750D01*
X128685368Y-78920745D01*
X128678108Y-78899996D01*
X130994435Y-78899996D01*
X130994435Y-78900003D01*
X131014630Y-79079249D01*
X131014631Y-79079254D01*
X131074211Y-79249523D01*
X131170184Y-79402262D01*
X131297738Y-79529816D01*
X131354005Y-79565171D01*
X131448321Y-79624434D01*
X131450478Y-79625789D01*
X131588860Y-79674211D01*
X131620745Y-79685368D01*
X131620750Y-79685369D01*
X131799996Y-79705565D01*
X131800000Y-79705565D01*
X131800004Y-79705565D01*
X131979249Y-79685369D01*
X131979252Y-79685368D01*
X131979255Y-79685368D01*
X132149522Y-79625789D01*
X132215756Y-79584170D01*
X132282988Y-79565171D01*
X132349823Y-79585538D01*
X132369406Y-79601484D01*
X132397738Y-79629816D01*
X132550478Y-79725789D01*
X132677352Y-79770184D01*
X132720745Y-79785368D01*
X132720750Y-79785369D01*
X132899996Y-79805565D01*
X132900000Y-79805565D01*
X132900004Y-79805565D01*
X133079249Y-79785369D01*
X133079252Y-79785368D01*
X133079255Y-79785368D01*
X133249522Y-79725789D01*
X133315756Y-79684170D01*
X133382988Y-79665171D01*
X133449823Y-79685538D01*
X133469406Y-79701484D01*
X133497738Y-79729816D01*
X133650478Y-79825789D01*
X133820745Y-79885368D01*
X133820750Y-79885369D01*
X133999996Y-79905565D01*
X134000000Y-79905565D01*
X134000004Y-79905565D01*
X134179249Y-79885369D01*
X134179252Y-79885368D01*
X134179255Y-79885368D01*
X134349522Y-79825789D01*
X134502262Y-79729816D01*
X134629816Y-79602262D01*
X134631240Y-79599996D01*
X137194435Y-79599996D01*
X137194435Y-79600003D01*
X137214630Y-79779249D01*
X137214631Y-79779254D01*
X137274211Y-79949523D01*
X137337646Y-80050478D01*
X137370184Y-80102262D01*
X137497738Y-80229816D01*
X137650478Y-80325789D01*
X137820745Y-80385368D01*
X137820750Y-80385369D01*
X137999996Y-80405565D01*
X138000000Y-80405565D01*
X138000004Y-80405565D01*
X138179249Y-80385369D01*
X138179252Y-80385368D01*
X138179255Y-80385368D01*
X138349522Y-80325789D01*
X138502262Y-80229816D01*
X138629816Y-80102262D01*
X138725789Y-79949522D01*
X138785368Y-79779255D01*
X138786390Y-79770184D01*
X138787988Y-79756000D01*
X150832435Y-79756000D01*
X150832435Y-79756007D01*
X150852630Y-79935253D01*
X150852631Y-79935258D01*
X150912211Y-80105527D01*
X150984608Y-80220745D01*
X151008184Y-80258266D01*
X151135738Y-80385820D01*
X151181592Y-80414632D01*
X151288471Y-80481789D01*
X151288478Y-80481793D01*
X151458734Y-80541368D01*
X151458745Y-80541372D01*
X151458750Y-80541373D01*
X151637996Y-80561569D01*
X151638000Y-80561569D01*
X151638004Y-80561569D01*
X151817249Y-80541373D01*
X151817252Y-80541372D01*
X151817255Y-80541372D01*
X151987522Y-80481793D01*
X152140262Y-80385820D01*
X152267816Y-80258266D01*
X152363789Y-80105526D01*
X152423368Y-79935259D01*
X152423368Y-79935256D01*
X152423369Y-79935253D01*
X152443565Y-79756007D01*
X152443565Y-79756000D01*
X152423369Y-79576754D01*
X152423368Y-79576749D01*
X152390716Y-79483435D01*
X152363789Y-79406482D01*
X152363786Y-79406478D01*
X152267815Y-79253741D01*
X152140262Y-79126188D01*
X151987523Y-79030215D01*
X151817254Y-78970635D01*
X151817249Y-78970634D01*
X151638004Y-78950439D01*
X151637996Y-78950439D01*
X151458750Y-78970634D01*
X151458745Y-78970635D01*
X151288476Y-79030215D01*
X151135737Y-79126188D01*
X151008184Y-79253741D01*
X150912211Y-79406480D01*
X150852631Y-79576749D01*
X150852630Y-79576754D01*
X150832435Y-79756000D01*
X138787988Y-79756000D01*
X138805565Y-79600003D01*
X138805565Y-79599996D01*
X138785369Y-79420750D01*
X138785368Y-79420745D01*
X138780375Y-79406476D01*
X138725789Y-79250478D01*
X138725188Y-79249522D01*
X138631237Y-79100000D01*
X138629816Y-79097738D01*
X138502262Y-78970184D01*
X138470832Y-78950435D01*
X138349523Y-78874211D01*
X138179254Y-78814631D01*
X138179249Y-78814630D01*
X138000004Y-78794435D01*
X137999996Y-78794435D01*
X137820750Y-78814630D01*
X137820745Y-78814631D01*
X137650476Y-78874211D01*
X137497737Y-78970184D01*
X137370184Y-79097737D01*
X137274211Y-79250476D01*
X137214631Y-79420745D01*
X137214630Y-79420750D01*
X137194435Y-79599996D01*
X134631240Y-79599996D01*
X134725789Y-79449522D01*
X134785368Y-79279255D01*
X134788243Y-79253737D01*
X134805565Y-79100003D01*
X134805565Y-79099996D01*
X134785369Y-78920750D01*
X134785368Y-78920745D01*
X134748237Y-78814630D01*
X134725789Y-78750478D01*
X134707106Y-78720745D01*
X134656289Y-78639870D01*
X134629816Y-78597738D01*
X134502262Y-78470184D01*
X134445992Y-78434827D01*
X134349523Y-78374211D01*
X134179254Y-78314631D01*
X134179249Y-78314630D01*
X134000004Y-78294435D01*
X133999996Y-78294435D01*
X133820750Y-78314630D01*
X133820737Y-78314633D01*
X133650481Y-78374209D01*
X133650472Y-78374213D01*
X133584244Y-78415827D01*
X133517007Y-78434827D01*
X133450172Y-78414459D01*
X133430592Y-78398514D01*
X133402262Y-78370184D01*
X133249523Y-78274211D01*
X133079254Y-78214631D01*
X133079249Y-78214630D01*
X132900004Y-78194435D01*
X132899996Y-78194435D01*
X132720750Y-78214630D01*
X132720737Y-78214633D01*
X132550481Y-78274209D01*
X132550472Y-78274213D01*
X132484244Y-78315827D01*
X132417007Y-78334827D01*
X132350172Y-78314459D01*
X132330592Y-78298514D01*
X132302262Y-78270184D01*
X132149523Y-78174211D01*
X131979254Y-78114631D01*
X131979249Y-78114630D01*
X131800004Y-78094435D01*
X131799996Y-78094435D01*
X131620750Y-78114630D01*
X131620745Y-78114631D01*
X131450476Y-78174211D01*
X131297737Y-78270184D01*
X131170184Y-78397737D01*
X131074211Y-78550476D01*
X131014631Y-78720745D01*
X131014630Y-78720750D01*
X130994435Y-78899996D01*
X128678108Y-78899996D01*
X128632717Y-78770277D01*
X128629156Y-78700498D01*
X128663885Y-78639870D01*
X128683781Y-78624331D01*
X128756575Y-78578593D01*
X128884129Y-78451039D01*
X128980102Y-78298299D01*
X129039681Y-78128032D01*
X129041191Y-78114630D01*
X129059878Y-77948780D01*
X129059878Y-77948773D01*
X129039682Y-77769527D01*
X129039681Y-77769522D01*
X128980101Y-77599253D01*
X128884128Y-77446514D01*
X128756575Y-77318961D01*
X128603836Y-77222988D01*
X128433567Y-77163408D01*
X128433562Y-77163407D01*
X128254317Y-77143212D01*
X128254309Y-77143212D01*
X128075063Y-77163407D01*
X128075058Y-77163408D01*
X127904789Y-77222988D01*
X127752050Y-77318961D01*
X127624497Y-77446514D01*
X127528524Y-77599253D01*
X127468944Y-77769522D01*
X127468943Y-77769527D01*
X127448748Y-77948773D01*
X127448748Y-77948780D01*
X127468943Y-78128026D01*
X127468946Y-78128039D01*
X127521595Y-78278499D01*
X127525157Y-78348278D01*
X127490429Y-78408905D01*
X127470527Y-78424447D01*
X127397739Y-78470182D01*
X127270184Y-78597737D01*
X127174211Y-78750476D01*
X127114631Y-78920745D01*
X127114630Y-78920750D01*
X127094435Y-79099996D01*
X127094435Y-79100003D01*
X127114630Y-79279249D01*
X127114631Y-79279254D01*
X127173831Y-79448436D01*
X127177392Y-79518215D01*
X127142663Y-79578843D01*
X127080670Y-79611070D01*
X127070673Y-79612611D01*
X126965755Y-79624432D01*
X126965751Y-79624433D01*
X126795482Y-79684013D01*
X126642743Y-79779986D01*
X126515190Y-79907539D01*
X126419217Y-80060278D01*
X126359637Y-80230547D01*
X126359636Y-80230552D01*
X126339441Y-80409798D01*
X104858095Y-80409798D01*
X104896262Y-80385816D01*
X105023816Y-80258262D01*
X105119789Y-80105522D01*
X105179368Y-79935255D01*
X105182491Y-79907539D01*
X105199565Y-79756003D01*
X105199565Y-79755996D01*
X105179369Y-79576750D01*
X105179368Y-79576745D01*
X105175318Y-79565171D01*
X105119789Y-79406478D01*
X105023816Y-79253738D01*
X104896262Y-79126184D01*
X104854595Y-79100003D01*
X104743523Y-79030211D01*
X104573254Y-78970631D01*
X104573249Y-78970630D01*
X104394004Y-78950435D01*
X104393996Y-78950435D01*
X104214750Y-78970630D01*
X104214745Y-78970631D01*
X104044476Y-79030211D01*
X103891737Y-79126184D01*
X103764184Y-79253737D01*
X103668211Y-79406476D01*
X103608631Y-79576745D01*
X103608630Y-79576750D01*
X103588435Y-79755996D01*
X90670500Y-79755996D01*
X90670500Y-77899996D01*
X112894435Y-77899996D01*
X112894435Y-77900003D01*
X112914630Y-78079249D01*
X112914631Y-78079254D01*
X112974211Y-78249523D01*
X113070184Y-78402262D01*
X113179929Y-78512007D01*
X113213414Y-78573330D01*
X113213282Y-78613585D01*
X113215411Y-78613825D01*
X113194435Y-78799996D01*
X113194435Y-78800003D01*
X113214630Y-78979249D01*
X113214631Y-78979254D01*
X113274211Y-79149523D01*
X113339694Y-79253738D01*
X113370184Y-79302262D01*
X113497738Y-79429816D01*
X113650478Y-79525789D01*
X113796102Y-79576745D01*
X113820745Y-79585368D01*
X113820750Y-79585369D01*
X113999996Y-79605565D01*
X114000000Y-79605565D01*
X114000004Y-79605565D01*
X114179249Y-79585369D01*
X114179252Y-79585368D01*
X114179255Y-79585368D01*
X114349522Y-79525789D01*
X114502262Y-79429816D01*
X114629816Y-79302262D01*
X114725789Y-79149522D01*
X114785368Y-78979255D01*
X114786339Y-78970636D01*
X114805565Y-78800003D01*
X114805565Y-78799996D01*
X114785369Y-78620750D01*
X114785368Y-78620745D01*
X114782863Y-78613585D01*
X114725789Y-78450478D01*
X114629816Y-78297738D01*
X114520070Y-78187992D01*
X114486585Y-78126669D01*
X114486826Y-78086428D01*
X114484589Y-78086176D01*
X114505565Y-77900003D01*
X114505565Y-77899996D01*
X114485369Y-77720750D01*
X114485368Y-77720745D01*
X114425788Y-77550476D01*
X114386582Y-77488080D01*
X114329816Y-77397738D01*
X114202262Y-77270184D01*
X114049523Y-77174211D01*
X113879254Y-77114631D01*
X113879249Y-77114630D01*
X113700004Y-77094435D01*
X113699996Y-77094435D01*
X113520750Y-77114630D01*
X113520745Y-77114631D01*
X113350476Y-77174211D01*
X113197737Y-77270184D01*
X113070184Y-77397737D01*
X112974211Y-77550476D01*
X112914631Y-77720745D01*
X112914630Y-77720750D01*
X112894435Y-77899996D01*
X90670500Y-77899996D01*
X90670500Y-76301541D01*
X119792890Y-76301541D01*
X119792890Y-76301548D01*
X119813085Y-76480794D01*
X119813086Y-76480799D01*
X119872666Y-76651068D01*
X119894219Y-76685369D01*
X119968639Y-76803807D01*
X120096193Y-76931361D01*
X120248933Y-77027334D01*
X120419200Y-77086913D01*
X120419205Y-77086914D01*
X120598451Y-77107110D01*
X120598455Y-77107110D01*
X120598459Y-77107110D01*
X120777704Y-77086914D01*
X120777707Y-77086913D01*
X120777710Y-77086913D01*
X120947977Y-77027334D01*
X121100717Y-76931361D01*
X121228271Y-76803807D01*
X121324244Y-76651067D01*
X121383823Y-76480800D01*
X121404020Y-76301545D01*
X121398158Y-76249522D01*
X121383824Y-76122295D01*
X121383823Y-76122290D01*
X121324243Y-75952021D01*
X121247456Y-75829816D01*
X121228271Y-75799283D01*
X121100717Y-75671729D01*
X120947978Y-75575756D01*
X120777709Y-75516176D01*
X120777704Y-75516175D01*
X120598459Y-75495980D01*
X120598451Y-75495980D01*
X120419205Y-75516175D01*
X120419200Y-75516176D01*
X120248931Y-75575756D01*
X120096192Y-75671729D01*
X119968639Y-75799282D01*
X119872666Y-75952021D01*
X119813086Y-76122290D01*
X119813085Y-76122295D01*
X119792890Y-76301541D01*
X90670500Y-76301541D01*
X90670500Y-74399996D01*
X104294435Y-74399996D01*
X104294435Y-74400003D01*
X104314630Y-74579249D01*
X104314631Y-74579254D01*
X104374211Y-74749523D01*
X104437646Y-74850478D01*
X104470184Y-74902262D01*
X104597738Y-75029816D01*
X104688080Y-75086582D01*
X104732721Y-75114632D01*
X104750478Y-75125789D01*
X104888860Y-75174211D01*
X104920745Y-75185368D01*
X104920750Y-75185369D01*
X105099996Y-75205565D01*
X105100000Y-75205565D01*
X105100004Y-75205565D01*
X105149430Y-75199996D01*
X117694435Y-75199996D01*
X117694435Y-75200003D01*
X117714630Y-75379249D01*
X117714631Y-75379254D01*
X117774211Y-75549523D01*
X117850999Y-75671729D01*
X117870184Y-75702262D01*
X117997738Y-75829816D01*
X118150478Y-75925789D01*
X118320745Y-75985368D01*
X118320750Y-75985369D01*
X118499996Y-76005565D01*
X118500000Y-76005565D01*
X118500004Y-76005565D01*
X118679249Y-75985369D01*
X118679252Y-75985368D01*
X118679255Y-75985368D01*
X118849522Y-75925789D01*
X119002262Y-75829816D01*
X119129816Y-75702262D01*
X119225789Y-75549522D01*
X119285368Y-75379255D01*
X119285369Y-75379249D01*
X119305565Y-75200003D01*
X119305565Y-75199996D01*
X119285369Y-75020750D01*
X119285368Y-75020745D01*
X119237998Y-74885369D01*
X119225789Y-74850478D01*
X119129816Y-74697738D01*
X119002262Y-74570184D01*
X118939252Y-74530592D01*
X118849523Y-74474211D01*
X118679254Y-74414631D01*
X118679249Y-74414630D01*
X118500004Y-74394435D01*
X118499996Y-74394435D01*
X118320750Y-74414630D01*
X118320745Y-74414631D01*
X118150476Y-74474211D01*
X117997737Y-74570184D01*
X117870184Y-74697737D01*
X117774211Y-74850476D01*
X117714631Y-75020745D01*
X117714630Y-75020750D01*
X117694435Y-75199996D01*
X105149430Y-75199996D01*
X105279249Y-75185369D01*
X105279252Y-75185368D01*
X105279255Y-75185368D01*
X105449522Y-75125789D01*
X105602262Y-75029816D01*
X105729816Y-74902262D01*
X105825789Y-74749522D01*
X105885368Y-74579255D01*
X105899985Y-74449523D01*
X105905565Y-74400003D01*
X105905565Y-74399996D01*
X105885369Y-74220750D01*
X105885368Y-74220745D01*
X105870848Y-74179249D01*
X105825789Y-74050478D01*
X105729816Y-73897738D01*
X105602262Y-73770184D01*
X105570897Y-73750476D01*
X105449523Y-73674211D01*
X105279254Y-73614631D01*
X105279249Y-73614630D01*
X105100004Y-73594435D01*
X105099996Y-73594435D01*
X104920750Y-73614630D01*
X104920745Y-73614631D01*
X104750476Y-73674211D01*
X104597737Y-73770184D01*
X104470184Y-73897737D01*
X104374211Y-74050476D01*
X104314631Y-74220745D01*
X104314630Y-74220750D01*
X104294435Y-74399996D01*
X90670500Y-74399996D01*
X90670500Y-72799996D01*
X94194435Y-72799996D01*
X94194435Y-72800003D01*
X94214630Y-72979249D01*
X94214631Y-72979254D01*
X94274211Y-73149523D01*
X94322292Y-73226043D01*
X94370184Y-73302262D01*
X94497738Y-73429816D01*
X94650478Y-73525789D01*
X94794196Y-73576078D01*
X94820745Y-73585368D01*
X94820750Y-73585369D01*
X94999996Y-73605565D01*
X95000000Y-73605565D01*
X95000004Y-73605565D01*
X95179249Y-73585369D01*
X95179252Y-73585368D01*
X95179255Y-73585368D01*
X95349522Y-73525789D01*
X95502262Y-73429816D01*
X95629816Y-73302262D01*
X95725789Y-73149522D01*
X95785368Y-72979255D01*
X95785369Y-72979249D01*
X95805565Y-72800003D01*
X95805565Y-72799996D01*
X95785369Y-72620750D01*
X95785368Y-72620745D01*
X95774280Y-72589057D01*
X95725789Y-72450478D01*
X95713514Y-72430943D01*
X111688000Y-72430943D01*
X111688000Y-72589057D01*
X111690949Y-72600060D01*
X111728923Y-72741783D01*
X111728926Y-72741790D01*
X111807975Y-72878709D01*
X111807979Y-72878714D01*
X111807980Y-72878716D01*
X111919784Y-72990520D01*
X111919786Y-72990521D01*
X111919790Y-72990524D01*
X112056709Y-73069573D01*
X112056716Y-73069577D01*
X112209443Y-73110500D01*
X112209445Y-73110500D01*
X112367555Y-73110500D01*
X112367557Y-73110500D01*
X112520284Y-73069577D01*
X112657216Y-72990520D01*
X112769020Y-72878716D01*
X112848077Y-72741784D01*
X112889000Y-72589057D01*
X112889000Y-72430943D01*
X112869991Y-72360000D01*
X119383159Y-72360000D01*
X119402475Y-72556129D01*
X119402476Y-72556132D01*
X119450229Y-72713553D01*
X119459688Y-72744733D01*
X119552586Y-72918532D01*
X119552590Y-72918539D01*
X119677616Y-73070883D01*
X119829960Y-73195909D01*
X119829967Y-73195913D01*
X120003766Y-73288811D01*
X120003769Y-73288811D01*
X120003773Y-73288814D01*
X120192368Y-73346024D01*
X120388500Y-73365341D01*
X120584632Y-73346024D01*
X120773227Y-73288814D01*
X120800548Y-73274211D01*
X120906560Y-73217546D01*
X120947038Y-73195910D01*
X121059835Y-73103338D01*
X121124144Y-73076026D01*
X121193012Y-73087817D01*
X121217162Y-73103337D01*
X121259395Y-73137997D01*
X121329960Y-73195909D01*
X121329967Y-73195913D01*
X121503766Y-73288811D01*
X121503769Y-73288811D01*
X121503773Y-73288814D01*
X121692368Y-73346024D01*
X121888500Y-73365341D01*
X122084632Y-73346024D01*
X122273227Y-73288814D01*
X122300548Y-73274211D01*
X122406560Y-73217546D01*
X122447038Y-73195910D01*
X122559835Y-73103338D01*
X122624144Y-73076026D01*
X122693012Y-73087817D01*
X122717162Y-73103337D01*
X122759395Y-73137997D01*
X122829960Y-73195909D01*
X122829967Y-73195913D01*
X123003766Y-73288811D01*
X123003769Y-73288811D01*
X123003773Y-73288814D01*
X123192368Y-73346024D01*
X123388500Y-73365341D01*
X123584632Y-73346024D01*
X123739381Y-73299080D01*
X123809248Y-73298457D01*
X123868361Y-73335705D01*
X123897952Y-73398999D01*
X123888627Y-73468243D01*
X123872328Y-73495049D01*
X123870185Y-73497735D01*
X123774211Y-73650476D01*
X123714631Y-73820745D01*
X123714630Y-73820750D01*
X123694435Y-73999996D01*
X123694435Y-74000003D01*
X123714630Y-74179249D01*
X123714631Y-74179254D01*
X123774211Y-74349523D01*
X123870184Y-74502262D01*
X123898514Y-74530592D01*
X123931999Y-74591915D01*
X123927015Y-74661607D01*
X123915827Y-74684244D01*
X123874213Y-74750472D01*
X123874209Y-74750481D01*
X123814633Y-74920737D01*
X123814630Y-74920750D01*
X123794435Y-75099996D01*
X123794435Y-75100003D01*
X123814630Y-75279249D01*
X123814631Y-75279254D01*
X123874211Y-75449523D01*
X123937646Y-75550478D01*
X123970184Y-75602262D01*
X124097738Y-75729816D01*
X124250478Y-75825789D01*
X124261984Y-75829815D01*
X124420745Y-75885368D01*
X124420750Y-75885369D01*
X124599996Y-75905565D01*
X124600000Y-75905565D01*
X124600004Y-75905565D01*
X124649430Y-75899996D01*
X135494435Y-75899996D01*
X135494435Y-75900003D01*
X135514630Y-76079249D01*
X135514631Y-76079254D01*
X135574211Y-76249523D01*
X135606899Y-76301545D01*
X135670184Y-76402262D01*
X135797738Y-76529816D01*
X135950478Y-76625789D01*
X136120745Y-76685368D01*
X136120750Y-76685369D01*
X136299996Y-76705565D01*
X136300000Y-76705565D01*
X136300004Y-76705565D01*
X136479249Y-76685369D01*
X136479252Y-76685368D01*
X136479255Y-76685368D01*
X136649522Y-76625789D01*
X136802262Y-76529816D01*
X136929816Y-76402262D01*
X137025789Y-76249522D01*
X137085368Y-76079255D01*
X137093671Y-76005565D01*
X137105565Y-75900003D01*
X137105565Y-75899996D01*
X137085369Y-75720750D01*
X137085368Y-75720745D01*
X137025789Y-75550478D01*
X137025188Y-75549522D01*
X136929815Y-75397737D01*
X136802262Y-75270184D01*
X136649523Y-75174211D01*
X136479254Y-75114631D01*
X136479249Y-75114630D01*
X136300004Y-75094435D01*
X136299996Y-75094435D01*
X136120750Y-75114630D01*
X136120745Y-75114631D01*
X135950476Y-75174211D01*
X135797737Y-75270184D01*
X135670184Y-75397737D01*
X135574211Y-75550476D01*
X135514631Y-75720745D01*
X135514630Y-75720750D01*
X135494435Y-75899996D01*
X124649430Y-75899996D01*
X124779249Y-75885369D01*
X124779252Y-75885368D01*
X124779255Y-75885368D01*
X124949522Y-75825789D01*
X125102262Y-75729816D01*
X125229816Y-75602262D01*
X125325789Y-75449522D01*
X125385368Y-75279255D01*
X125393671Y-75205565D01*
X125405565Y-75100003D01*
X125405565Y-75099996D01*
X125385369Y-74920750D01*
X125385368Y-74920745D01*
X125380056Y-74905565D01*
X125325789Y-74750478D01*
X125325188Y-74749522D01*
X125284171Y-74684244D01*
X125229816Y-74597738D01*
X125201484Y-74569406D01*
X125167999Y-74508083D01*
X125172983Y-74438391D01*
X125184164Y-74415765D01*
X125225789Y-74349522D01*
X125285368Y-74179255D01*
X125285369Y-74179249D01*
X125305565Y-74000003D01*
X125305565Y-73999996D01*
X125285369Y-73820750D01*
X125285368Y-73820745D01*
X125267676Y-73770184D01*
X125225789Y-73650478D01*
X125225788Y-73650476D01*
X125225787Y-73650473D01*
X125128909Y-73496294D01*
X125109908Y-73429058D01*
X125130275Y-73362223D01*
X125183543Y-73317008D01*
X125197889Y-73311667D01*
X125273227Y-73288814D01*
X125447038Y-73195910D01*
X125559835Y-73103338D01*
X125624144Y-73076026D01*
X125693012Y-73087817D01*
X125717162Y-73103337D01*
X125759395Y-73137997D01*
X125829960Y-73195909D01*
X125829967Y-73195913D01*
X126003766Y-73288811D01*
X126003769Y-73288811D01*
X126003773Y-73288814D01*
X126192368Y-73346024D01*
X126388500Y-73365341D01*
X126584632Y-73346024D01*
X126773227Y-73288814D01*
X126800548Y-73274211D01*
X126906560Y-73217546D01*
X126947038Y-73195910D01*
X127059835Y-73103338D01*
X127124144Y-73076026D01*
X127193012Y-73087817D01*
X127217162Y-73103337D01*
X127259395Y-73137997D01*
X127329960Y-73195909D01*
X127329967Y-73195913D01*
X127503766Y-73288811D01*
X127503769Y-73288811D01*
X127503773Y-73288814D01*
X127692368Y-73346024D01*
X127888500Y-73365341D01*
X128084632Y-73346024D01*
X128273227Y-73288814D01*
X128300548Y-73274211D01*
X128398087Y-73222075D01*
X128879976Y-73222075D01*
X129003962Y-73288348D01*
X129192469Y-73345531D01*
X129192465Y-73345531D01*
X129388500Y-73364838D01*
X129584532Y-73345531D01*
X129773037Y-73288348D01*
X129897023Y-73222076D01*
X129897023Y-73222075D01*
X129388501Y-72713553D01*
X129388500Y-72713553D01*
X128879976Y-73222075D01*
X128398087Y-73222075D01*
X128406560Y-73217546D01*
X128447038Y-73195910D01*
X128599383Y-73070883D01*
X128724410Y-72918538D01*
X128817314Y-72744727D01*
X128874524Y-72556132D01*
X128874524Y-72556126D01*
X128874526Y-72556122D01*
X128875713Y-72550157D01*
X128878138Y-72550639D01*
X128900206Y-72495926D01*
X128909798Y-72485147D01*
X129034946Y-72359999D01*
X128995451Y-72320504D01*
X129088500Y-72320504D01*
X129088500Y-72399496D01*
X129108944Y-72475796D01*
X129148440Y-72544205D01*
X129204295Y-72600060D01*
X129272704Y-72639556D01*
X129349004Y-72660000D01*
X129427996Y-72660000D01*
X129504296Y-72639556D01*
X129572705Y-72600060D01*
X129628560Y-72544205D01*
X129668056Y-72475796D01*
X129688500Y-72399496D01*
X129688500Y-72359999D01*
X129742053Y-72359999D01*
X129867201Y-72485147D01*
X129900686Y-72546471D01*
X129901267Y-72550160D01*
X129901287Y-72550157D01*
X129902476Y-72556135D01*
X129959686Y-72744728D01*
X130052586Y-72918532D01*
X130052590Y-72918539D01*
X130177616Y-73070883D01*
X130329960Y-73195909D01*
X130329967Y-73195913D01*
X130503766Y-73288811D01*
X130503769Y-73288811D01*
X130503773Y-73288814D01*
X130692368Y-73346024D01*
X130888500Y-73365341D01*
X131084632Y-73346024D01*
X131273227Y-73288814D01*
X131300548Y-73274211D01*
X131406560Y-73217546D01*
X131447038Y-73195910D01*
X131559835Y-73103338D01*
X131624144Y-73076026D01*
X131693012Y-73087817D01*
X131717162Y-73103337D01*
X131759395Y-73137997D01*
X131829960Y-73195909D01*
X131829967Y-73195913D01*
X132003766Y-73288811D01*
X132003769Y-73288811D01*
X132003773Y-73288814D01*
X132192368Y-73346024D01*
X132388500Y-73365341D01*
X132584632Y-73346024D01*
X132773227Y-73288814D01*
X132800548Y-73274211D01*
X132906560Y-73217546D01*
X132947038Y-73195910D01*
X133059835Y-73103338D01*
X133124144Y-73076026D01*
X133193012Y-73087817D01*
X133217162Y-73103337D01*
X133259395Y-73137997D01*
X133329960Y-73195909D01*
X133329967Y-73195913D01*
X133503766Y-73288811D01*
X133503769Y-73288811D01*
X133503773Y-73288814D01*
X133692368Y-73346024D01*
X133888500Y-73365341D01*
X134084632Y-73346024D01*
X134273227Y-73288814D01*
X134300548Y-73274211D01*
X134406560Y-73217546D01*
X134447038Y-73195910D01*
X134559835Y-73103338D01*
X134624144Y-73076026D01*
X134693012Y-73087817D01*
X134717162Y-73103337D01*
X134759395Y-73137997D01*
X134829960Y-73195909D01*
X134829967Y-73195913D01*
X135003766Y-73288811D01*
X135003769Y-73288811D01*
X135003773Y-73288814D01*
X135192368Y-73346024D01*
X135388500Y-73365341D01*
X135584632Y-73346024D01*
X135773227Y-73288814D01*
X135800548Y-73274211D01*
X135906560Y-73217546D01*
X135947038Y-73195910D01*
X136059835Y-73103338D01*
X136124144Y-73076026D01*
X136193012Y-73087817D01*
X136217162Y-73103337D01*
X136259395Y-73137997D01*
X136329960Y-73195909D01*
X136329967Y-73195913D01*
X136503766Y-73288811D01*
X136503769Y-73288811D01*
X136503773Y-73288814D01*
X136692368Y-73346024D01*
X136888500Y-73365341D01*
X136892000Y-73364996D01*
X136893820Y-73365341D01*
X136894592Y-73365341D01*
X136894592Y-73365487D01*
X136960647Y-73378011D01*
X137011360Y-73426073D01*
X137028038Y-73493923D01*
X137005386Y-73560019D01*
X136991844Y-73576078D01*
X136970183Y-73597739D01*
X136874211Y-73750476D01*
X136814631Y-73920745D01*
X136814630Y-73920750D01*
X136794435Y-74099996D01*
X136794435Y-74100003D01*
X136814630Y-74279249D01*
X136814631Y-74279254D01*
X136874211Y-74449523D01*
X136967341Y-74597737D01*
X136970184Y-74602262D01*
X137097738Y-74729816D01*
X137250478Y-74825789D01*
X137420745Y-74885368D01*
X137420750Y-74885369D01*
X137599996Y-74905565D01*
X137600000Y-74905565D01*
X137600004Y-74905565D01*
X137779249Y-74885369D01*
X137779252Y-74885368D01*
X137779255Y-74885368D01*
X137949522Y-74825789D01*
X138102262Y-74729816D01*
X138229816Y-74602262D01*
X138325789Y-74449522D01*
X138385368Y-74279255D01*
X138391960Y-74220750D01*
X138405565Y-74100003D01*
X138405565Y-74099996D01*
X138385369Y-73920750D01*
X138385368Y-73920745D01*
X138325789Y-73750478D01*
X138229816Y-73597738D01*
X138199745Y-73567667D01*
X138166260Y-73506344D01*
X138171244Y-73436652D01*
X138213116Y-73380719D01*
X138278580Y-73356302D01*
X138299576Y-73356582D01*
X138388500Y-73365341D01*
X138584632Y-73346024D01*
X138773227Y-73288814D01*
X138800548Y-73274211D01*
X138906560Y-73217546D01*
X138947038Y-73195910D01*
X139059835Y-73103338D01*
X139124144Y-73076026D01*
X139193012Y-73087817D01*
X139217162Y-73103337D01*
X139259395Y-73137997D01*
X139329960Y-73195909D01*
X139329967Y-73195913D01*
X139503766Y-73288811D01*
X139503769Y-73288811D01*
X139503773Y-73288814D01*
X139692368Y-73346024D01*
X139888500Y-73365341D01*
X140084632Y-73346024D01*
X140273227Y-73288814D01*
X140300548Y-73274211D01*
X140406560Y-73217546D01*
X140447038Y-73195910D01*
X140559835Y-73103338D01*
X140624144Y-73076026D01*
X140693012Y-73087817D01*
X140717162Y-73103337D01*
X140759395Y-73137997D01*
X140829960Y-73195909D01*
X140829967Y-73195913D01*
X141003766Y-73288811D01*
X141003769Y-73288811D01*
X141003773Y-73288814D01*
X141192368Y-73346024D01*
X141388500Y-73365341D01*
X141584632Y-73346024D01*
X141773227Y-73288814D01*
X141800548Y-73274211D01*
X141906560Y-73217546D01*
X141947038Y-73195910D01*
X142059835Y-73103338D01*
X142124144Y-73076026D01*
X142193012Y-73087817D01*
X142217162Y-73103337D01*
X142259395Y-73137997D01*
X142329960Y-73195909D01*
X142329967Y-73195913D01*
X142503766Y-73288811D01*
X142503769Y-73288811D01*
X142503773Y-73288814D01*
X142692368Y-73346024D01*
X142888500Y-73365341D01*
X143084632Y-73346024D01*
X143273227Y-73288814D01*
X143409543Y-73215951D01*
X143477943Y-73201710D01*
X143542305Y-73226043D01*
X143646169Y-73303796D01*
X143646171Y-73303797D01*
X143781017Y-73354091D01*
X143781016Y-73354091D01*
X143787944Y-73354835D01*
X143840627Y-73360500D01*
X144936372Y-73360499D01*
X144995983Y-73354091D01*
X145130831Y-73303796D01*
X145246046Y-73217546D01*
X145332296Y-73102331D01*
X145382591Y-72967483D01*
X145389000Y-72907873D01*
X145389000Y-72430943D01*
X151888000Y-72430943D01*
X151888000Y-72589057D01*
X151890949Y-72600060D01*
X151928923Y-72741783D01*
X151928926Y-72741790D01*
X152007975Y-72878709D01*
X152007979Y-72878714D01*
X152007980Y-72878716D01*
X152119784Y-72990520D01*
X152119786Y-72990521D01*
X152119790Y-72990524D01*
X152256709Y-73069573D01*
X152256716Y-73069577D01*
X152409443Y-73110500D01*
X152409445Y-73110500D01*
X152567555Y-73110500D01*
X152567557Y-73110500D01*
X152720284Y-73069577D01*
X152857216Y-72990520D01*
X152969020Y-72878716D01*
X153048077Y-72741784D01*
X153089000Y-72589057D01*
X153089000Y-72430943D01*
X153048077Y-72278216D01*
X153048073Y-72278209D01*
X152969024Y-72141290D01*
X152969018Y-72141282D01*
X152857217Y-72029481D01*
X152857209Y-72029475D01*
X152720290Y-71950426D01*
X152720286Y-71950424D01*
X152720284Y-71950423D01*
X152567557Y-71909500D01*
X152409443Y-71909500D01*
X152256716Y-71950423D01*
X152256709Y-71950426D01*
X152119790Y-72029475D01*
X152119782Y-72029481D01*
X152007981Y-72141282D01*
X152007975Y-72141290D01*
X151928926Y-72278209D01*
X151928923Y-72278216D01*
X151888000Y-72430943D01*
X145389000Y-72430943D01*
X145388999Y-71812128D01*
X145382591Y-71752517D01*
X145361802Y-71696780D01*
X145332297Y-71617671D01*
X145332293Y-71617664D01*
X145246047Y-71502455D01*
X145246044Y-71502452D01*
X145130835Y-71416206D01*
X145130828Y-71416202D01*
X144995982Y-71365908D01*
X144995983Y-71365908D01*
X144936383Y-71359501D01*
X144936381Y-71359500D01*
X144936373Y-71359500D01*
X144936364Y-71359500D01*
X143840629Y-71359500D01*
X143840623Y-71359501D01*
X143781016Y-71365908D01*
X143646171Y-71416202D01*
X143646169Y-71416203D01*
X143542306Y-71493956D01*
X143476842Y-71518373D01*
X143409542Y-71504047D01*
X143273233Y-71431188D01*
X143273227Y-71431186D01*
X143084632Y-71373976D01*
X143084629Y-71373975D01*
X142888500Y-71354659D01*
X142692370Y-71373975D01*
X142503766Y-71431188D01*
X142329967Y-71524086D01*
X142329960Y-71524090D01*
X142217165Y-71616660D01*
X142152855Y-71643973D01*
X142083987Y-71632182D01*
X142059835Y-71616660D01*
X141947039Y-71524090D01*
X141947032Y-71524086D01*
X141773233Y-71431188D01*
X141773227Y-71431186D01*
X141584632Y-71373976D01*
X141584629Y-71373975D01*
X141388500Y-71354659D01*
X141192370Y-71373975D01*
X141003766Y-71431188D01*
X140829967Y-71524086D01*
X140829960Y-71524090D01*
X140717165Y-71616660D01*
X140652855Y-71643973D01*
X140583987Y-71632182D01*
X140559835Y-71616660D01*
X140447039Y-71524090D01*
X140447032Y-71524086D01*
X140273233Y-71431188D01*
X140273227Y-71431186D01*
X140084632Y-71373976D01*
X140084629Y-71373975D01*
X139888500Y-71354659D01*
X139692370Y-71373975D01*
X139503766Y-71431188D01*
X139329967Y-71524086D01*
X139329960Y-71524090D01*
X139217165Y-71616660D01*
X139152855Y-71643973D01*
X139083987Y-71632182D01*
X139059835Y-71616660D01*
X138947039Y-71524090D01*
X138947032Y-71524086D01*
X138773233Y-71431188D01*
X138773227Y-71431186D01*
X138584632Y-71373976D01*
X138584629Y-71373975D01*
X138388500Y-71354659D01*
X138192370Y-71373975D01*
X138003766Y-71431188D01*
X137829967Y-71524086D01*
X137829960Y-71524090D01*
X137717165Y-71616660D01*
X137652855Y-71643973D01*
X137583987Y-71632182D01*
X137559835Y-71616660D01*
X137447039Y-71524090D01*
X137447032Y-71524086D01*
X137273233Y-71431188D01*
X137273227Y-71431186D01*
X137084632Y-71373976D01*
X137084629Y-71373975D01*
X136888500Y-71354659D01*
X136692370Y-71373975D01*
X136503766Y-71431188D01*
X136329967Y-71524086D01*
X136329960Y-71524090D01*
X136217165Y-71616660D01*
X136152855Y-71643973D01*
X136083987Y-71632182D01*
X136059835Y-71616660D01*
X135947039Y-71524090D01*
X135947032Y-71524086D01*
X135773233Y-71431188D01*
X135773227Y-71431186D01*
X135584632Y-71373976D01*
X135584629Y-71373975D01*
X135388500Y-71354659D01*
X135192370Y-71373975D01*
X135003766Y-71431188D01*
X134829967Y-71524086D01*
X134829960Y-71524090D01*
X134717165Y-71616660D01*
X134652855Y-71643973D01*
X134583987Y-71632182D01*
X134559835Y-71616660D01*
X134447039Y-71524090D01*
X134447032Y-71524086D01*
X134273233Y-71431188D01*
X134273227Y-71431186D01*
X134084632Y-71373976D01*
X134084629Y-71373975D01*
X133888500Y-71354659D01*
X133692370Y-71373975D01*
X133503766Y-71431188D01*
X133329967Y-71524086D01*
X133329960Y-71524090D01*
X133217165Y-71616660D01*
X133152855Y-71643973D01*
X133083987Y-71632182D01*
X133059835Y-71616660D01*
X132947039Y-71524090D01*
X132947032Y-71524086D01*
X132773233Y-71431188D01*
X132773227Y-71431186D01*
X132584632Y-71373976D01*
X132584629Y-71373975D01*
X132388500Y-71354659D01*
X132192370Y-71373975D01*
X132003766Y-71431188D01*
X131829967Y-71524086D01*
X131829960Y-71524090D01*
X131717165Y-71616660D01*
X131652855Y-71643973D01*
X131583987Y-71632182D01*
X131559835Y-71616660D01*
X131447039Y-71524090D01*
X131447032Y-71524086D01*
X131273233Y-71431188D01*
X131273227Y-71431186D01*
X131084632Y-71373976D01*
X131084629Y-71373975D01*
X130888500Y-71354659D01*
X130692370Y-71373975D01*
X130503766Y-71431188D01*
X130329967Y-71524086D01*
X130329960Y-71524090D01*
X130177616Y-71649116D01*
X130052590Y-71801460D01*
X130052586Y-71801467D01*
X129959686Y-71975271D01*
X129902476Y-72163864D01*
X129901287Y-72169843D01*
X129898876Y-72169363D01*
X129876738Y-72224140D01*
X129867202Y-72234848D01*
X129742053Y-72359999D01*
X129688500Y-72359999D01*
X129688500Y-72320504D01*
X129668056Y-72244204D01*
X129628560Y-72175795D01*
X129572705Y-72119940D01*
X129504296Y-72080444D01*
X129427996Y-72060000D01*
X129349004Y-72060000D01*
X129272704Y-72080444D01*
X129204295Y-72119940D01*
X129148440Y-72175795D01*
X129108944Y-72244204D01*
X129088500Y-72320504D01*
X128995451Y-72320504D01*
X128909798Y-72234851D01*
X128876313Y-72173528D01*
X128875732Y-72169839D01*
X128875713Y-72169843D01*
X128874526Y-72163877D01*
X128874524Y-72163870D01*
X128874524Y-72163868D01*
X128817314Y-71975273D01*
X128817311Y-71975269D01*
X128817311Y-71975266D01*
X128724413Y-71801467D01*
X128724409Y-71801460D01*
X128599383Y-71649116D01*
X128447039Y-71524090D01*
X128447031Y-71524085D01*
X128438704Y-71519634D01*
X128416603Y-71497923D01*
X128879976Y-71497923D01*
X129388500Y-72006447D01*
X129388501Y-72006447D01*
X129897022Y-71497923D01*
X129773037Y-71431651D01*
X129584530Y-71374468D01*
X129584534Y-71374468D01*
X129388500Y-71355161D01*
X129192467Y-71374468D01*
X129003966Y-71431649D01*
X128879976Y-71497923D01*
X128416603Y-71497923D01*
X128388861Y-71470670D01*
X128373403Y-71402532D01*
X128397237Y-71336853D01*
X128409467Y-71322610D01*
X128529816Y-71202262D01*
X128625789Y-71049522D01*
X128685368Y-70879255D01*
X128689783Y-70840070D01*
X128705565Y-70700003D01*
X128705565Y-70699996D01*
X128685369Y-70520750D01*
X128685368Y-70520745D01*
X128668687Y-70473074D01*
X147980000Y-70473074D01*
X147980000Y-70646925D01*
X148007197Y-70818639D01*
X148007197Y-70818642D01*
X148060918Y-70983978D01*
X148060920Y-70983981D01*
X148139847Y-71138884D01*
X148242035Y-71279533D01*
X148364967Y-71402465D01*
X148505616Y-71504653D01*
X148611326Y-71558515D01*
X148660521Y-71583581D01*
X148825858Y-71637302D01*
X148825859Y-71637302D01*
X148825862Y-71637303D01*
X148997574Y-71664500D01*
X148997575Y-71664500D01*
X150379425Y-71664500D01*
X150379426Y-71664500D01*
X150551138Y-71637303D01*
X150551141Y-71637302D01*
X150551142Y-71637302D01*
X150716478Y-71583581D01*
X150716478Y-71583580D01*
X150716481Y-71583580D01*
X150871384Y-71504653D01*
X151012033Y-71402465D01*
X151134965Y-71279533D01*
X151237153Y-71138884D01*
X151316080Y-70983981D01*
X151347868Y-70886148D01*
X151369802Y-70818642D01*
X151369802Y-70818641D01*
X151369803Y-70818638D01*
X151397000Y-70646926D01*
X151397000Y-70473074D01*
X151369803Y-70301362D01*
X151369802Y-70301358D01*
X151369802Y-70301357D01*
X151316081Y-70136021D01*
X151282535Y-70070184D01*
X151237153Y-69981116D01*
X151134965Y-69840467D01*
X151012033Y-69717535D01*
X150871384Y-69615347D01*
X150716478Y-69536418D01*
X150551141Y-69482697D01*
X150422354Y-69462299D01*
X150379426Y-69455500D01*
X148997574Y-69455500D01*
X148940336Y-69464565D01*
X148825860Y-69482697D01*
X148825857Y-69482697D01*
X148660521Y-69536418D01*
X148505615Y-69615347D01*
X148425369Y-69673649D01*
X148364967Y-69717535D01*
X148364965Y-69717537D01*
X148364964Y-69717537D01*
X148242037Y-69840464D01*
X148242037Y-69840465D01*
X148242035Y-69840467D01*
X148202825Y-69894435D01*
X148139847Y-69981115D01*
X148060918Y-70136021D01*
X148007197Y-70301357D01*
X148007197Y-70301360D01*
X147980000Y-70473074D01*
X128668687Y-70473074D01*
X128625788Y-70350476D01*
X128552508Y-70233852D01*
X128529816Y-70197738D01*
X128402262Y-70070184D01*
X128249523Y-69974211D01*
X128079254Y-69914631D01*
X128079249Y-69914630D01*
X127900004Y-69894435D01*
X127899996Y-69894435D01*
X127720750Y-69914630D01*
X127720745Y-69914631D01*
X127550476Y-69974211D01*
X127397737Y-70070184D01*
X127270184Y-70197737D01*
X127174211Y-70350476D01*
X127114631Y-70520745D01*
X127114630Y-70520750D01*
X127094435Y-70699996D01*
X127094435Y-70700003D01*
X127114630Y-70879249D01*
X127114631Y-70879254D01*
X127174211Y-71049523D01*
X127270184Y-71202262D01*
X127382508Y-71314586D01*
X127415993Y-71375909D01*
X127411009Y-71445601D01*
X127369137Y-71501534D01*
X127353281Y-71511625D01*
X127329964Y-71524088D01*
X127329960Y-71524090D01*
X127217165Y-71616660D01*
X127152855Y-71643973D01*
X127083987Y-71632182D01*
X127059835Y-71616660D01*
X126947039Y-71524090D01*
X126947032Y-71524086D01*
X126773233Y-71431188D01*
X126773227Y-71431186D01*
X126584632Y-71373976D01*
X126584629Y-71373975D01*
X126388500Y-71354659D01*
X126192370Y-71373975D01*
X126003766Y-71431188D01*
X125829967Y-71524086D01*
X125829960Y-71524090D01*
X125717165Y-71616660D01*
X125652855Y-71643973D01*
X125583987Y-71632182D01*
X125559835Y-71616660D01*
X125447039Y-71524090D01*
X125447032Y-71524086D01*
X125273233Y-71431188D01*
X125273227Y-71431186D01*
X125084632Y-71373976D01*
X125084629Y-71373975D01*
X124888500Y-71354659D01*
X124692370Y-71373975D01*
X124503766Y-71431188D01*
X124329967Y-71524086D01*
X124329960Y-71524090D01*
X124217165Y-71616660D01*
X124152855Y-71643973D01*
X124083987Y-71632182D01*
X124059835Y-71616660D01*
X123947039Y-71524090D01*
X123947032Y-71524086D01*
X123773233Y-71431188D01*
X123773227Y-71431186D01*
X123584632Y-71373976D01*
X123584629Y-71373975D01*
X123388500Y-71354659D01*
X123192370Y-71373975D01*
X123003766Y-71431188D01*
X122829967Y-71524086D01*
X122829960Y-71524090D01*
X122717165Y-71616660D01*
X122652855Y-71643973D01*
X122583987Y-71632182D01*
X122559835Y-71616660D01*
X122447039Y-71524090D01*
X122447032Y-71524086D01*
X122273233Y-71431188D01*
X122273227Y-71431186D01*
X122084632Y-71373976D01*
X122084629Y-71373975D01*
X121888500Y-71354659D01*
X121692370Y-71373975D01*
X121503766Y-71431188D01*
X121329967Y-71524086D01*
X121329960Y-71524090D01*
X121217165Y-71616660D01*
X121152855Y-71643973D01*
X121083987Y-71632182D01*
X121059835Y-71616660D01*
X120947039Y-71524090D01*
X120947032Y-71524086D01*
X120773233Y-71431188D01*
X120773227Y-71431186D01*
X120584632Y-71373976D01*
X120584629Y-71373975D01*
X120388500Y-71354659D01*
X120192370Y-71373975D01*
X120003766Y-71431188D01*
X119829967Y-71524086D01*
X119829960Y-71524090D01*
X119677616Y-71649116D01*
X119552590Y-71801460D01*
X119552586Y-71801467D01*
X119459688Y-71975266D01*
X119402475Y-72163870D01*
X119383159Y-72360000D01*
X112869991Y-72360000D01*
X112848077Y-72278216D01*
X112848073Y-72278209D01*
X112769024Y-72141290D01*
X112769018Y-72141282D01*
X112657217Y-72029481D01*
X112657209Y-72029475D01*
X112520290Y-71950426D01*
X112520286Y-71950424D01*
X112520284Y-71950423D01*
X112367557Y-71909500D01*
X112209443Y-71909500D01*
X112056716Y-71950423D01*
X112056709Y-71950426D01*
X111919790Y-72029475D01*
X111919782Y-72029481D01*
X111807981Y-72141282D01*
X111807975Y-72141290D01*
X111728926Y-72278209D01*
X111728923Y-72278216D01*
X111688000Y-72430943D01*
X95713514Y-72430943D01*
X95629815Y-72297737D01*
X95502262Y-72170184D01*
X95349523Y-72074211D01*
X95179254Y-72014631D01*
X95179249Y-72014630D01*
X95000004Y-71994435D01*
X94999996Y-71994435D01*
X94820750Y-72014630D01*
X94820745Y-72014631D01*
X94650476Y-72074211D01*
X94497737Y-72170184D01*
X94370184Y-72297737D01*
X94274211Y-72450476D01*
X94214631Y-72620745D01*
X94214630Y-72620750D01*
X94194435Y-72799996D01*
X90670500Y-72799996D01*
X90670500Y-70310000D01*
X113406334Y-70310000D01*
X114543525Y-70310000D01*
X114508430Y-70345095D01*
X114462352Y-70424905D01*
X114438500Y-70513922D01*
X114438500Y-70606078D01*
X114462352Y-70695095D01*
X114508430Y-70774905D01*
X114543525Y-70810000D01*
X113406334Y-70810000D01*
X113407683Y-70818516D01*
X113407684Y-70818523D01*
X113461384Y-70983791D01*
X113540274Y-71138622D01*
X113642418Y-71279209D01*
X113642418Y-71279210D01*
X113765289Y-71402081D01*
X113905877Y-71504225D01*
X114060706Y-71583115D01*
X114225978Y-71636816D01*
X114397608Y-71664000D01*
X114838500Y-71664000D01*
X114838500Y-70910000D01*
X115338500Y-70910000D01*
X115338500Y-71664000D01*
X115779392Y-71664000D01*
X115951021Y-71636816D01*
X116116293Y-71583115D01*
X116271122Y-71504225D01*
X116411709Y-71402081D01*
X116411710Y-71402081D01*
X116534581Y-71279210D01*
X116534581Y-71279209D01*
X116636725Y-71138622D01*
X116715615Y-70983791D01*
X116769315Y-70818523D01*
X116769316Y-70818516D01*
X116770666Y-70810000D01*
X115633475Y-70810000D01*
X115668570Y-70774905D01*
X115714648Y-70695095D01*
X115738500Y-70606078D01*
X115738500Y-70513922D01*
X115714648Y-70424905D01*
X115668570Y-70345095D01*
X115633475Y-70310000D01*
X116770666Y-70310000D01*
X116769316Y-70301483D01*
X116769315Y-70301476D01*
X116715615Y-70136208D01*
X116636725Y-69981377D01*
X116534581Y-69840790D01*
X116534581Y-69840789D01*
X116411710Y-69717918D01*
X116271122Y-69615774D01*
X116116293Y-69536884D01*
X115951021Y-69483183D01*
X115779392Y-69456000D01*
X115338500Y-69456000D01*
X115338500Y-70210000D01*
X114838500Y-70210000D01*
X114838500Y-69456000D01*
X114397608Y-69456000D01*
X114225978Y-69483183D01*
X114060706Y-69536884D01*
X113905877Y-69615774D01*
X113765290Y-69717918D01*
X113765289Y-69717918D01*
X113642418Y-69840789D01*
X113642418Y-69840790D01*
X113540274Y-69981377D01*
X113461384Y-70136208D01*
X113407684Y-70301476D01*
X113407683Y-70301483D01*
X113406334Y-70310000D01*
X90670500Y-70310000D01*
X90670500Y-65552135D01*
X97649500Y-65552135D01*
X97649500Y-67647870D01*
X97649501Y-67647876D01*
X97655908Y-67707483D01*
X97706202Y-67842328D01*
X97706206Y-67842335D01*
X97792452Y-67957544D01*
X97792455Y-67957547D01*
X97907664Y-68043793D01*
X97907671Y-68043797D01*
X98042517Y-68094091D01*
X98042516Y-68094091D01*
X98049444Y-68094835D01*
X98102127Y-68100500D01*
X101397872Y-68100499D01*
X101457483Y-68094091D01*
X101592331Y-68043796D01*
X101707546Y-67957546D01*
X101793796Y-67842331D01*
X101844091Y-67707483D01*
X101850500Y-67647873D01*
X101850499Y-65599996D01*
X127794435Y-65599996D01*
X127794435Y-65600003D01*
X127814630Y-65779249D01*
X127814631Y-65779254D01*
X127874211Y-65949523D01*
X127970184Y-66102262D01*
X128097738Y-66229816D01*
X128250478Y-66325789D01*
X128420745Y-66385368D01*
X128420750Y-66385369D01*
X128599996Y-66405565D01*
X128600000Y-66405565D01*
X128600004Y-66405565D01*
X128779249Y-66385369D01*
X128779252Y-66385368D01*
X128779255Y-66385368D01*
X128949522Y-66325789D01*
X129102262Y-66229816D01*
X129229816Y-66102262D01*
X129325789Y-65949522D01*
X129385368Y-65779255D01*
X129405565Y-65600000D01*
X129400172Y-65552135D01*
X162649500Y-65552135D01*
X162649500Y-67647870D01*
X162649501Y-67647876D01*
X162655908Y-67707483D01*
X162706202Y-67842328D01*
X162706206Y-67842335D01*
X162792452Y-67957544D01*
X162792455Y-67957547D01*
X162907664Y-68043793D01*
X162907671Y-68043797D01*
X163042517Y-68094091D01*
X163042516Y-68094091D01*
X163049444Y-68094835D01*
X163102127Y-68100500D01*
X166397872Y-68100499D01*
X166457483Y-68094091D01*
X166592331Y-68043796D01*
X166707546Y-67957546D01*
X166793796Y-67842331D01*
X166844091Y-67707483D01*
X166850500Y-67647873D01*
X166850499Y-65552128D01*
X166844091Y-65492517D01*
X166793796Y-65357669D01*
X166793795Y-65357668D01*
X166793793Y-65357664D01*
X166707547Y-65242455D01*
X166707544Y-65242452D01*
X166592335Y-65156206D01*
X166592328Y-65156202D01*
X166457482Y-65105908D01*
X166457483Y-65105908D01*
X166397883Y-65099501D01*
X166397881Y-65099500D01*
X166397873Y-65099500D01*
X166397864Y-65099500D01*
X163102129Y-65099500D01*
X163102123Y-65099501D01*
X163042516Y-65105908D01*
X162907671Y-65156202D01*
X162907664Y-65156206D01*
X162792455Y-65242452D01*
X162792452Y-65242455D01*
X162706206Y-65357664D01*
X162706202Y-65357671D01*
X162655908Y-65492517D01*
X162649501Y-65552116D01*
X162649501Y-65552123D01*
X162649500Y-65552135D01*
X129400172Y-65552135D01*
X129400171Y-65552129D01*
X129385369Y-65420750D01*
X129385368Y-65420745D01*
X129325788Y-65250476D01*
X129234950Y-65105909D01*
X129229816Y-65097738D01*
X129102262Y-64970184D01*
X129085370Y-64959570D01*
X128949523Y-64874211D01*
X128779254Y-64814631D01*
X128779249Y-64814630D01*
X128600004Y-64794435D01*
X128599996Y-64794435D01*
X128420750Y-64814630D01*
X128420745Y-64814631D01*
X128250476Y-64874211D01*
X128097737Y-64970184D01*
X127970184Y-65097737D01*
X127874211Y-65250476D01*
X127814631Y-65420745D01*
X127814630Y-65420750D01*
X127794435Y-65599996D01*
X101850499Y-65599996D01*
X101850499Y-65552128D01*
X101844091Y-65492517D01*
X101793796Y-65357669D01*
X101793795Y-65357668D01*
X101793793Y-65357664D01*
X101707547Y-65242455D01*
X101707544Y-65242452D01*
X101592335Y-65156206D01*
X101592328Y-65156202D01*
X101457482Y-65105908D01*
X101457483Y-65105908D01*
X101397883Y-65099501D01*
X101397881Y-65099500D01*
X101397873Y-65099500D01*
X101397864Y-65099500D01*
X98102129Y-65099500D01*
X98102123Y-65099501D01*
X98042516Y-65105908D01*
X97907671Y-65156202D01*
X97907664Y-65156206D01*
X97792455Y-65242452D01*
X97792452Y-65242455D01*
X97706206Y-65357664D01*
X97706202Y-65357671D01*
X97655908Y-65492517D01*
X97649501Y-65552116D01*
X97649501Y-65552123D01*
X97649500Y-65552135D01*
X90670500Y-65552135D01*
X90670500Y-63499994D01*
X91244357Y-63499994D01*
X91244357Y-63500005D01*
X91264890Y-63747812D01*
X91264892Y-63747824D01*
X91325936Y-63988881D01*
X91425826Y-64216606D01*
X91561833Y-64424782D01*
X91561836Y-64424785D01*
X91730256Y-64607738D01*
X91926491Y-64760474D01*
X91926493Y-64760475D01*
X92136658Y-64874211D01*
X92145190Y-64878828D01*
X92380386Y-64959571D01*
X92625665Y-65000500D01*
X92874335Y-65000500D01*
X93119614Y-64959571D01*
X93354810Y-64878828D01*
X93573509Y-64760474D01*
X93769744Y-64607738D01*
X93938164Y-64424785D01*
X94074173Y-64216607D01*
X94174063Y-63988881D01*
X94235108Y-63747821D01*
X94255643Y-63500000D01*
X94255643Y-63499994D01*
X105744357Y-63499994D01*
X105744357Y-63500005D01*
X105764890Y-63747812D01*
X105764892Y-63747824D01*
X105825936Y-63988881D01*
X105925826Y-64216606D01*
X106061833Y-64424782D01*
X106061836Y-64424785D01*
X106230256Y-64607738D01*
X106426491Y-64760474D01*
X106426493Y-64760475D01*
X106636658Y-64874211D01*
X106645190Y-64878828D01*
X106880386Y-64959571D01*
X107125665Y-65000500D01*
X107374335Y-65000500D01*
X107619614Y-64959571D01*
X107854810Y-64878828D01*
X108073509Y-64760474D01*
X108269744Y-64607738D01*
X108438164Y-64424785D01*
X108574173Y-64216607D01*
X108674063Y-63988881D01*
X108735108Y-63747821D01*
X108755643Y-63500000D01*
X108755643Y-63499994D01*
X156244357Y-63499994D01*
X156244357Y-63500005D01*
X156264890Y-63747812D01*
X156264892Y-63747824D01*
X156325936Y-63988881D01*
X156425826Y-64216606D01*
X156561833Y-64424782D01*
X156561836Y-64424785D01*
X156730256Y-64607738D01*
X156926491Y-64760474D01*
X156926493Y-64760475D01*
X157136658Y-64874211D01*
X157145190Y-64878828D01*
X157380386Y-64959571D01*
X157625665Y-65000500D01*
X157874335Y-65000500D01*
X158119614Y-64959571D01*
X158354810Y-64878828D01*
X158573509Y-64760474D01*
X158769744Y-64607738D01*
X158938164Y-64424785D01*
X159074173Y-64216607D01*
X159174063Y-63988881D01*
X159235108Y-63747821D01*
X159255643Y-63500000D01*
X159255643Y-63499994D01*
X170744357Y-63499994D01*
X170744357Y-63500005D01*
X170764890Y-63747812D01*
X170764892Y-63747824D01*
X170825936Y-63988881D01*
X170925826Y-64216606D01*
X171061833Y-64424782D01*
X171061836Y-64424785D01*
X171230256Y-64607738D01*
X171426491Y-64760474D01*
X171426493Y-64760475D01*
X171636658Y-64874211D01*
X171645190Y-64878828D01*
X171880386Y-64959571D01*
X172125665Y-65000500D01*
X172374335Y-65000500D01*
X172619614Y-64959571D01*
X172854810Y-64878828D01*
X173073509Y-64760474D01*
X173269744Y-64607738D01*
X173438164Y-64424785D01*
X173574173Y-64216607D01*
X173674063Y-63988881D01*
X173735108Y-63747821D01*
X173755643Y-63500000D01*
X173735108Y-63252179D01*
X173674063Y-63011119D01*
X173574173Y-62783393D01*
X173438166Y-62575217D01*
X173417860Y-62553159D01*
X173269744Y-62392262D01*
X173168623Y-62313556D01*
X173127810Y-62256846D01*
X173123697Y-62227249D01*
X172379409Y-61482962D01*
X172442993Y-61465925D01*
X172557007Y-61400099D01*
X172650099Y-61307007D01*
X172715925Y-61192993D01*
X172732962Y-61129410D01*
X173473434Y-61869882D01*
X173573731Y-61716369D01*
X173673587Y-61488717D01*
X173734612Y-61247738D01*
X173734614Y-61247729D01*
X173755141Y-61000005D01*
X173755141Y-60999994D01*
X173734614Y-60752270D01*
X173734612Y-60752261D01*
X173673587Y-60511282D01*
X173573732Y-60283632D01*
X173461515Y-60111870D01*
X173441328Y-60044981D01*
X173460508Y-59977795D01*
X173491013Y-59944782D01*
X173492329Y-59943796D01*
X173492331Y-59943796D01*
X173607546Y-59857546D01*
X173693796Y-59742331D01*
X173744091Y-59607483D01*
X173750500Y-59547873D01*
X173750499Y-57452128D01*
X173744091Y-57392517D01*
X173700778Y-57276390D01*
X173693797Y-57257671D01*
X173693793Y-57257664D01*
X173607547Y-57142455D01*
X173607544Y-57142452D01*
X173492335Y-57056206D01*
X173492328Y-57056202D01*
X173357482Y-57005908D01*
X173357483Y-57005908D01*
X173297883Y-56999501D01*
X173297881Y-56999500D01*
X173297873Y-56999500D01*
X173297864Y-56999500D01*
X171202129Y-56999500D01*
X171202123Y-56999501D01*
X171142516Y-57005908D01*
X171007671Y-57056202D01*
X171007664Y-57056206D01*
X170892455Y-57142452D01*
X170892452Y-57142455D01*
X170806206Y-57257664D01*
X170806202Y-57257671D01*
X170755908Y-57392517D01*
X170749501Y-57452116D01*
X170749501Y-57452123D01*
X170749500Y-57452135D01*
X170749500Y-59547870D01*
X170749501Y-59547876D01*
X170755908Y-59607483D01*
X170806202Y-59742328D01*
X170806206Y-59742335D01*
X170892452Y-59857544D01*
X170892455Y-59857547D01*
X171008986Y-59944783D01*
X171050857Y-60000717D01*
X171055841Y-60070408D01*
X171038484Y-60111870D01*
X170926267Y-60283631D01*
X170826412Y-60511282D01*
X170765387Y-60752261D01*
X170765385Y-60752270D01*
X170744859Y-60999994D01*
X170744859Y-61000005D01*
X170765385Y-61247729D01*
X170765387Y-61247738D01*
X170826412Y-61488717D01*
X170926266Y-61716364D01*
X171026564Y-61869882D01*
X171767037Y-61129408D01*
X171784075Y-61192993D01*
X171849901Y-61307007D01*
X171942993Y-61400099D01*
X172057007Y-61465925D01*
X172120590Y-61482962D01*
X171374100Y-62229450D01*
X171363482Y-62276148D01*
X171331376Y-62313556D01*
X171230255Y-62392262D01*
X171061833Y-62575217D01*
X170925826Y-62783393D01*
X170825936Y-63011118D01*
X170764892Y-63252175D01*
X170764890Y-63252187D01*
X170744357Y-63499994D01*
X159255643Y-63499994D01*
X159235108Y-63252179D01*
X159174063Y-63011119D01*
X159074173Y-62783393D01*
X158938166Y-62575217D01*
X158916557Y-62551744D01*
X158769744Y-62392262D01*
X158573509Y-62239526D01*
X158573507Y-62239525D01*
X158573506Y-62239524D01*
X158354811Y-62121172D01*
X158354802Y-62121169D01*
X158119616Y-62040429D01*
X157874335Y-61999500D01*
X157625665Y-61999500D01*
X157380383Y-62040429D01*
X157145197Y-62121169D01*
X157145188Y-62121172D01*
X156926493Y-62239524D01*
X156730257Y-62392261D01*
X156561833Y-62575217D01*
X156425826Y-62783393D01*
X156325936Y-63011118D01*
X156264892Y-63252175D01*
X156264890Y-63252187D01*
X156244357Y-63499994D01*
X108755643Y-63499994D01*
X108735108Y-63252179D01*
X108674063Y-63011119D01*
X108574173Y-62783393D01*
X108438166Y-62575217D01*
X108417860Y-62553159D01*
X108269744Y-62392262D01*
X108168623Y-62313556D01*
X108127810Y-62256846D01*
X108123697Y-62227249D01*
X107379409Y-61482962D01*
X107442993Y-61465925D01*
X107557007Y-61400099D01*
X107650099Y-61307007D01*
X107715925Y-61192993D01*
X107732962Y-61129410D01*
X108473434Y-61869882D01*
X108573731Y-61716369D01*
X108673587Y-61488717D01*
X108734612Y-61247738D01*
X108734614Y-61247729D01*
X108755141Y-61000005D01*
X108755141Y-60999994D01*
X108734614Y-60752270D01*
X108734612Y-60752261D01*
X108673587Y-60511282D01*
X108573732Y-60283632D01*
X108461515Y-60111870D01*
X108441328Y-60044981D01*
X108460508Y-59977795D01*
X108491013Y-59944782D01*
X108492329Y-59943796D01*
X108492331Y-59943796D01*
X108607546Y-59857546D01*
X108693796Y-59742331D01*
X108744091Y-59607483D01*
X108750500Y-59547873D01*
X108750499Y-58499994D01*
X156244859Y-58499994D01*
X156244859Y-58500005D01*
X156265385Y-58747729D01*
X156265387Y-58747738D01*
X156326412Y-58988717D01*
X156426266Y-59216364D01*
X156526564Y-59369882D01*
X157267037Y-58629409D01*
X157284075Y-58692993D01*
X157349901Y-58807007D01*
X157442993Y-58900099D01*
X157557007Y-58965925D01*
X157620590Y-58982962D01*
X156879942Y-59723609D01*
X156926768Y-59760055D01*
X156926770Y-59760056D01*
X157145385Y-59878364D01*
X157145396Y-59878369D01*
X157380506Y-59959083D01*
X157625707Y-60000000D01*
X157874293Y-60000000D01*
X158119493Y-59959083D01*
X158354603Y-59878369D01*
X158354614Y-59878364D01*
X158573228Y-59760057D01*
X158573231Y-59760055D01*
X158620056Y-59723609D01*
X157879409Y-58982962D01*
X157942993Y-58965925D01*
X158057007Y-58900099D01*
X158150099Y-58807007D01*
X158215925Y-58692993D01*
X158232962Y-58629410D01*
X158973434Y-59369882D01*
X159073731Y-59216369D01*
X159173587Y-58988717D01*
X159234612Y-58747738D01*
X159234614Y-58747729D01*
X159255141Y-58500005D01*
X159255141Y-58499994D01*
X159234614Y-58252270D01*
X159234612Y-58252261D01*
X159173587Y-58011282D01*
X159073731Y-57783630D01*
X158973434Y-57630116D01*
X158232962Y-58370589D01*
X158215925Y-58307007D01*
X158150099Y-58192993D01*
X158057007Y-58099901D01*
X157942993Y-58034075D01*
X157879410Y-58017037D01*
X158620057Y-57276390D01*
X158620056Y-57276389D01*
X158573229Y-57239943D01*
X158354614Y-57121635D01*
X158354603Y-57121630D01*
X158119493Y-57040916D01*
X157874293Y-57000000D01*
X157625707Y-57000000D01*
X157380506Y-57040916D01*
X157145396Y-57121630D01*
X157145390Y-57121632D01*
X156926761Y-57239949D01*
X156879942Y-57276388D01*
X156879942Y-57276390D01*
X157620590Y-58017037D01*
X157557007Y-58034075D01*
X157442993Y-58099901D01*
X157349901Y-58192993D01*
X157284075Y-58307007D01*
X157267037Y-58370589D01*
X156526564Y-57630116D01*
X156426267Y-57783632D01*
X156326412Y-58011282D01*
X156265387Y-58252261D01*
X156265385Y-58252270D01*
X156244859Y-58499994D01*
X108750499Y-58499994D01*
X108750499Y-57452128D01*
X108744091Y-57392517D01*
X108700778Y-57276390D01*
X108693797Y-57257671D01*
X108693793Y-57257664D01*
X108607547Y-57142455D01*
X108607544Y-57142452D01*
X108492335Y-57056206D01*
X108492328Y-57056202D01*
X108357482Y-57005908D01*
X108357483Y-57005908D01*
X108297883Y-56999501D01*
X108297881Y-56999500D01*
X108297873Y-56999500D01*
X108297864Y-56999500D01*
X106202129Y-56999500D01*
X106202123Y-56999501D01*
X106142516Y-57005908D01*
X106007671Y-57056202D01*
X106007664Y-57056206D01*
X105892455Y-57142452D01*
X105892452Y-57142455D01*
X105806206Y-57257664D01*
X105806202Y-57257671D01*
X105755908Y-57392517D01*
X105749501Y-57452116D01*
X105749501Y-57452123D01*
X105749500Y-57452135D01*
X105749500Y-59547870D01*
X105749501Y-59547876D01*
X105755908Y-59607483D01*
X105806202Y-59742328D01*
X105806206Y-59742335D01*
X105892452Y-59857544D01*
X105892455Y-59857547D01*
X106008986Y-59944783D01*
X106050857Y-60000717D01*
X106055841Y-60070408D01*
X106038484Y-60111870D01*
X105926267Y-60283631D01*
X105826412Y-60511282D01*
X105765387Y-60752261D01*
X105765385Y-60752270D01*
X105744859Y-60999994D01*
X105744859Y-61000005D01*
X105765385Y-61247729D01*
X105765387Y-61247738D01*
X105826412Y-61488717D01*
X105926266Y-61716364D01*
X106026564Y-61869882D01*
X106767037Y-61129408D01*
X106784075Y-61192993D01*
X106849901Y-61307007D01*
X106942993Y-61400099D01*
X107057007Y-61465925D01*
X107120590Y-61482962D01*
X106374100Y-62229450D01*
X106363482Y-62276148D01*
X106331376Y-62313556D01*
X106230255Y-62392262D01*
X106061833Y-62575217D01*
X105925826Y-62783393D01*
X105825936Y-63011118D01*
X105764892Y-63252175D01*
X105764890Y-63252187D01*
X105744357Y-63499994D01*
X94255643Y-63499994D01*
X94235108Y-63252179D01*
X94174063Y-63011119D01*
X94074173Y-62783393D01*
X93938166Y-62575217D01*
X93916557Y-62551744D01*
X93769744Y-62392262D01*
X93573509Y-62239526D01*
X93573507Y-62239525D01*
X93573506Y-62239524D01*
X93354811Y-62121172D01*
X93354802Y-62121169D01*
X93119616Y-62040429D01*
X92874335Y-61999500D01*
X92625665Y-61999500D01*
X92380383Y-62040429D01*
X92145197Y-62121169D01*
X92145188Y-62121172D01*
X91926493Y-62239524D01*
X91730257Y-62392261D01*
X91561833Y-62575217D01*
X91425826Y-62783393D01*
X91325936Y-63011118D01*
X91264892Y-63252175D01*
X91264890Y-63252187D01*
X91244357Y-63499994D01*
X90670500Y-63499994D01*
X90670500Y-58499994D01*
X91244859Y-58499994D01*
X91244859Y-58500005D01*
X91265385Y-58747729D01*
X91265387Y-58747738D01*
X91326412Y-58988717D01*
X91426266Y-59216364D01*
X91526564Y-59369882D01*
X92267037Y-58629409D01*
X92284075Y-58692993D01*
X92349901Y-58807007D01*
X92442993Y-58900099D01*
X92557007Y-58965925D01*
X92620590Y-58982962D01*
X91879942Y-59723609D01*
X91926768Y-59760055D01*
X91926770Y-59760056D01*
X92145385Y-59878364D01*
X92145396Y-59878369D01*
X92380506Y-59959083D01*
X92625707Y-60000000D01*
X92874293Y-60000000D01*
X93119493Y-59959083D01*
X93354603Y-59878369D01*
X93354614Y-59878364D01*
X93573228Y-59760057D01*
X93573231Y-59760055D01*
X93620056Y-59723609D01*
X92879409Y-58982962D01*
X92942993Y-58965925D01*
X93057007Y-58900099D01*
X93150099Y-58807007D01*
X93215925Y-58692993D01*
X93232962Y-58629410D01*
X93973434Y-59369882D01*
X94073731Y-59216369D01*
X94173587Y-58988717D01*
X94234612Y-58747738D01*
X94234614Y-58747729D01*
X94255141Y-58500005D01*
X94255141Y-58499994D01*
X94234614Y-58252270D01*
X94234612Y-58252261D01*
X94173587Y-58011282D01*
X94073731Y-57783630D01*
X93973434Y-57630116D01*
X93232962Y-58370589D01*
X93215925Y-58307007D01*
X93150099Y-58192993D01*
X93057007Y-58099901D01*
X92942993Y-58034075D01*
X92879410Y-58017037D01*
X93620057Y-57276390D01*
X93620056Y-57276389D01*
X93573229Y-57239943D01*
X93354614Y-57121635D01*
X93354603Y-57121630D01*
X93119493Y-57040916D01*
X92874293Y-57000000D01*
X92625707Y-57000000D01*
X92380506Y-57040916D01*
X92145396Y-57121630D01*
X92145390Y-57121632D01*
X91926761Y-57239949D01*
X91879942Y-57276388D01*
X91879942Y-57276390D01*
X92620590Y-58017037D01*
X92557007Y-58034075D01*
X92442993Y-58099901D01*
X92349901Y-58192993D01*
X92284075Y-58307007D01*
X92267037Y-58370589D01*
X91526564Y-57630116D01*
X91426267Y-57783632D01*
X91326412Y-58011282D01*
X91265387Y-58252261D01*
X91265385Y-58252270D01*
X91244859Y-58499994D01*
X90670500Y-58499994D01*
X90670500Y-54352135D01*
X97649500Y-54352135D01*
X97649500Y-56447870D01*
X97649501Y-56447876D01*
X97655908Y-56507483D01*
X97706202Y-56642328D01*
X97706206Y-56642335D01*
X97792452Y-56757544D01*
X97792455Y-56757547D01*
X97907664Y-56843793D01*
X97907671Y-56843797D01*
X98042517Y-56894091D01*
X98042516Y-56894091D01*
X98049444Y-56894835D01*
X98102127Y-56900500D01*
X101397872Y-56900499D01*
X101457483Y-56894091D01*
X101592331Y-56843796D01*
X101707546Y-56757546D01*
X101793796Y-56642331D01*
X101844091Y-56507483D01*
X101850500Y-56447873D01*
X101850499Y-54352128D01*
X101844091Y-54292517D01*
X101839144Y-54279254D01*
X101793797Y-54157671D01*
X101793793Y-54157664D01*
X101750622Y-54099996D01*
X125094435Y-54099996D01*
X125094435Y-54100003D01*
X125114630Y-54279249D01*
X125114631Y-54279254D01*
X125174211Y-54449523D01*
X125237646Y-54550478D01*
X125270184Y-54602262D01*
X125397738Y-54729816D01*
X125550478Y-54825789D01*
X125720745Y-54885368D01*
X125720750Y-54885369D01*
X125898018Y-54905342D01*
X125962432Y-54932408D01*
X126001987Y-54990003D01*
X126007355Y-55014678D01*
X126014630Y-55079250D01*
X126014631Y-55079254D01*
X126074211Y-55249523D01*
X126170184Y-55402262D01*
X126297738Y-55529816D01*
X126450478Y-55625789D01*
X126620745Y-55685368D01*
X126620750Y-55685369D01*
X126799996Y-55705565D01*
X126800000Y-55705565D01*
X126800004Y-55705565D01*
X126979249Y-55685369D01*
X126979252Y-55685368D01*
X126979255Y-55685368D01*
X127149522Y-55625789D01*
X127302262Y-55529816D01*
X127429816Y-55402262D01*
X127525789Y-55249522D01*
X127585368Y-55079255D01*
X127585369Y-55079249D01*
X127605565Y-54900003D01*
X127605565Y-54899996D01*
X127585369Y-54720750D01*
X127585368Y-54720745D01*
X127543909Y-54602262D01*
X127525789Y-54550478D01*
X127431235Y-54399996D01*
X135794435Y-54399996D01*
X135794435Y-54400003D01*
X135814630Y-54579249D01*
X135814631Y-54579254D01*
X135874211Y-54749523D01*
X135959569Y-54885368D01*
X135970184Y-54902262D01*
X136097738Y-55029816D01*
X136250478Y-55125789D01*
X136420745Y-55185368D01*
X136420750Y-55185369D01*
X136599996Y-55205565D01*
X136600000Y-55205565D01*
X136600004Y-55205565D01*
X136779249Y-55185369D01*
X136779252Y-55185368D01*
X136779255Y-55185368D01*
X136949522Y-55125789D01*
X137102262Y-55029816D01*
X137229816Y-54902262D01*
X137325789Y-54749522D01*
X137385368Y-54579255D01*
X137385369Y-54579249D01*
X137405565Y-54400003D01*
X137405565Y-54399996D01*
X137400172Y-54352135D01*
X162649500Y-54352135D01*
X162649500Y-56447870D01*
X162649501Y-56447876D01*
X162655908Y-56507483D01*
X162706202Y-56642328D01*
X162706206Y-56642335D01*
X162792452Y-56757544D01*
X162792455Y-56757547D01*
X162907664Y-56843793D01*
X162907671Y-56843797D01*
X163042517Y-56894091D01*
X163042516Y-56894091D01*
X163049444Y-56894835D01*
X163102127Y-56900500D01*
X166397872Y-56900499D01*
X166457483Y-56894091D01*
X166592331Y-56843796D01*
X166707546Y-56757546D01*
X166793796Y-56642331D01*
X166844091Y-56507483D01*
X166850500Y-56447873D01*
X166850499Y-54352128D01*
X166844091Y-54292517D01*
X166839144Y-54279254D01*
X166793797Y-54157671D01*
X166793793Y-54157664D01*
X166707547Y-54042455D01*
X166707544Y-54042452D01*
X166592335Y-53956206D01*
X166592328Y-53956202D01*
X166457482Y-53905908D01*
X166457483Y-53905908D01*
X166397883Y-53899501D01*
X166397881Y-53899500D01*
X166397873Y-53899500D01*
X166397864Y-53899500D01*
X163102129Y-53899500D01*
X163102123Y-53899501D01*
X163042516Y-53905908D01*
X162907671Y-53956202D01*
X162907664Y-53956206D01*
X162792455Y-54042452D01*
X162792452Y-54042455D01*
X162706206Y-54157664D01*
X162706202Y-54157671D01*
X162655908Y-54292517D01*
X162649501Y-54352116D01*
X162649501Y-54352123D01*
X162649500Y-54352135D01*
X137400172Y-54352135D01*
X137385369Y-54220750D01*
X137385368Y-54220745D01*
X137344916Y-54105140D01*
X137325789Y-54050478D01*
X137229816Y-53897738D01*
X137102262Y-53770184D01*
X137070897Y-53750476D01*
X136949523Y-53674211D01*
X136779254Y-53614631D01*
X136779249Y-53614630D01*
X136600004Y-53594435D01*
X136599996Y-53594435D01*
X136420750Y-53614630D01*
X136420745Y-53614631D01*
X136250476Y-53674211D01*
X136097737Y-53770184D01*
X135970184Y-53897737D01*
X135874211Y-54050476D01*
X135814631Y-54220745D01*
X135814630Y-54220750D01*
X135794435Y-54399996D01*
X127431235Y-54399996D01*
X127429816Y-54397738D01*
X127302262Y-54270184D01*
X127149523Y-54174211D01*
X126979254Y-54114631D01*
X126979250Y-54114630D01*
X126801980Y-54094657D01*
X126737566Y-54067590D01*
X126698011Y-54009995D01*
X126692644Y-53985320D01*
X126685369Y-53920749D01*
X126685368Y-53920745D01*
X126677934Y-53899500D01*
X126625789Y-53750478D01*
X126529816Y-53597738D01*
X126402262Y-53470184D01*
X126338017Y-53429816D01*
X126249523Y-53374211D01*
X126079254Y-53314631D01*
X126079249Y-53314630D01*
X125900004Y-53294435D01*
X125899996Y-53294435D01*
X125720750Y-53314630D01*
X125720745Y-53314631D01*
X125550476Y-53374211D01*
X125397737Y-53470184D01*
X125270184Y-53597737D01*
X125174211Y-53750476D01*
X125114631Y-53920745D01*
X125114630Y-53920750D01*
X125094435Y-54099996D01*
X101750622Y-54099996D01*
X101707547Y-54042455D01*
X101707544Y-54042452D01*
X101592335Y-53956206D01*
X101592328Y-53956202D01*
X101457482Y-53905908D01*
X101457483Y-53905908D01*
X101397883Y-53899501D01*
X101397881Y-53899500D01*
X101397873Y-53899500D01*
X101397864Y-53899500D01*
X98102129Y-53899500D01*
X98102123Y-53899501D01*
X98042516Y-53905908D01*
X97907671Y-53956202D01*
X97907664Y-53956206D01*
X97792455Y-54042452D01*
X97792452Y-54042455D01*
X97706206Y-54157664D01*
X97706202Y-54157671D01*
X97655908Y-54292517D01*
X97649501Y-54352116D01*
X97649501Y-54352123D01*
X97649500Y-54352135D01*
X90670500Y-54352135D01*
X90670500Y-52799996D01*
X117994435Y-52799996D01*
X117994435Y-52800003D01*
X118014630Y-52979249D01*
X118014631Y-52979254D01*
X118074211Y-53149523D01*
X118165266Y-53294435D01*
X118170184Y-53302262D01*
X118297738Y-53429816D01*
X118450478Y-53525789D01*
X118620745Y-53585368D01*
X118620750Y-53585369D01*
X118799996Y-53605565D01*
X118800000Y-53605565D01*
X118800004Y-53605565D01*
X118979249Y-53585369D01*
X118979252Y-53585368D01*
X118979255Y-53585368D01*
X119149522Y-53525789D01*
X119302262Y-53429816D01*
X119429816Y-53302262D01*
X119525789Y-53149522D01*
X119585368Y-52979255D01*
X119605565Y-52800000D01*
X119585368Y-52620745D01*
X119525789Y-52450478D01*
X119429816Y-52297738D01*
X119302262Y-52170184D01*
X119149523Y-52074211D01*
X118979254Y-52014631D01*
X118979249Y-52014630D01*
X118800004Y-51994435D01*
X118799996Y-51994435D01*
X118620750Y-52014630D01*
X118620745Y-52014631D01*
X118450476Y-52074211D01*
X118297737Y-52170184D01*
X118170184Y-52297737D01*
X118074211Y-52450476D01*
X118014631Y-52620745D01*
X118014630Y-52620750D01*
X117994435Y-52799996D01*
X90670500Y-52799996D01*
X90670500Y-51599996D01*
X120594435Y-51599996D01*
X120594435Y-51600003D01*
X120614630Y-51779249D01*
X120614631Y-51779254D01*
X120674211Y-51949523D01*
X120715122Y-52014632D01*
X120770184Y-52102262D01*
X120897738Y-52229816D01*
X120988080Y-52286582D01*
X121005833Y-52297737D01*
X121050478Y-52325789D01*
X121220745Y-52385368D01*
X121220750Y-52385369D01*
X121399996Y-52405565D01*
X121400000Y-52405565D01*
X121400004Y-52405565D01*
X121579249Y-52385369D01*
X121579252Y-52385368D01*
X121579255Y-52385368D01*
X121749522Y-52325789D01*
X121902262Y-52229816D01*
X122029816Y-52102262D01*
X122125789Y-51949522D01*
X122185368Y-51779255D01*
X122205565Y-51600000D01*
X122185368Y-51420745D01*
X122125789Y-51250478D01*
X122029816Y-51097738D01*
X121902262Y-50970184D01*
X121749523Y-50874211D01*
X121579254Y-50814631D01*
X121579249Y-50814630D01*
X121400004Y-50794435D01*
X121399996Y-50794435D01*
X121220750Y-50814630D01*
X121220745Y-50814631D01*
X121050476Y-50874211D01*
X120897737Y-50970184D01*
X120770184Y-51097737D01*
X120674211Y-51250476D01*
X120614631Y-51420745D01*
X120614630Y-51420750D01*
X120594435Y-51599996D01*
X90670500Y-51599996D01*
X90670500Y-49330943D01*
X111688000Y-49330943D01*
X111688000Y-49489056D01*
X111728923Y-49641783D01*
X111728926Y-49641790D01*
X111807975Y-49778709D01*
X111807979Y-49778714D01*
X111807980Y-49778716D01*
X111919784Y-49890520D01*
X111919786Y-49890521D01*
X111919790Y-49890524D01*
X112056709Y-49969573D01*
X112056716Y-49969577D01*
X112209443Y-50010500D01*
X112209445Y-50010500D01*
X112367555Y-50010500D01*
X112367557Y-50010500D01*
X112520284Y-49969577D01*
X112657216Y-49890520D01*
X112769020Y-49778716D01*
X112848077Y-49641784D01*
X112889000Y-49489057D01*
X112889000Y-49330943D01*
X151888000Y-49330943D01*
X151888000Y-49489056D01*
X151928923Y-49641783D01*
X151928926Y-49641790D01*
X152007975Y-49778709D01*
X152007979Y-49778714D01*
X152007980Y-49778716D01*
X152119784Y-49890520D01*
X152119786Y-49890521D01*
X152119790Y-49890524D01*
X152256709Y-49969573D01*
X152256716Y-49969577D01*
X152409443Y-50010500D01*
X152409445Y-50010500D01*
X152567555Y-50010500D01*
X152567557Y-50010500D01*
X152720284Y-49969577D01*
X152857216Y-49890520D01*
X152969020Y-49778716D01*
X153048077Y-49641784D01*
X153089000Y-49489057D01*
X153089000Y-49330943D01*
X153048077Y-49178216D01*
X153048073Y-49178209D01*
X152969024Y-49041290D01*
X152969018Y-49041282D01*
X152857217Y-48929481D01*
X152857209Y-48929475D01*
X152720290Y-48850426D01*
X152720286Y-48850424D01*
X152720284Y-48850423D01*
X152567557Y-48809500D01*
X152409443Y-48809500D01*
X152256716Y-48850423D01*
X152256709Y-48850426D01*
X152119790Y-48929475D01*
X152119782Y-48929481D01*
X152007981Y-49041282D01*
X152007975Y-49041290D01*
X151928926Y-49178209D01*
X151928923Y-49178216D01*
X151888000Y-49330943D01*
X112889000Y-49330943D01*
X112848077Y-49178216D01*
X112848073Y-49178209D01*
X112769024Y-49041290D01*
X112769018Y-49041282D01*
X112657217Y-48929481D01*
X112657209Y-48929475D01*
X112520290Y-48850426D01*
X112520286Y-48850424D01*
X112520284Y-48850423D01*
X112367557Y-48809500D01*
X112209443Y-48809500D01*
X112056716Y-48850423D01*
X112056709Y-48850426D01*
X111919790Y-48929475D01*
X111919782Y-48929481D01*
X111807981Y-49041282D01*
X111807975Y-49041290D01*
X111728926Y-49178209D01*
X111728923Y-49178216D01*
X111688000Y-49330943D01*
X90670500Y-49330943D01*
X90670500Y-45799996D01*
X145594435Y-45799996D01*
X145594435Y-45800003D01*
X145614630Y-45979249D01*
X145614631Y-45979254D01*
X145674211Y-46149523D01*
X145723522Y-46228000D01*
X145770184Y-46302262D01*
X145897738Y-46429816D01*
X146050478Y-46525789D01*
X146198325Y-46577523D01*
X146220745Y-46585368D01*
X146220750Y-46585369D01*
X146399996Y-46605565D01*
X146400000Y-46605565D01*
X146400004Y-46605565D01*
X146579249Y-46585369D01*
X146579252Y-46585368D01*
X146579255Y-46585368D01*
X146749522Y-46525789D01*
X146902262Y-46429816D01*
X147029816Y-46302262D01*
X147076480Y-46227996D01*
X167088435Y-46227996D01*
X167088435Y-46228003D01*
X167108630Y-46407249D01*
X167108631Y-46407254D01*
X167168211Y-46577523D01*
X167264184Y-46730262D01*
X167391738Y-46857816D01*
X167544478Y-46953789D01*
X167714745Y-47013368D01*
X167714750Y-47013369D01*
X167893996Y-47033565D01*
X167894000Y-47033565D01*
X167894004Y-47033565D01*
X168073249Y-47013369D01*
X168073252Y-47013368D01*
X168073255Y-47013368D01*
X168243522Y-46953789D01*
X168396262Y-46857816D01*
X168523816Y-46730262D01*
X168619789Y-46577522D01*
X168679368Y-46407255D01*
X168699565Y-46228000D01*
X168679368Y-46048745D01*
X168619789Y-45878478D01*
X168523816Y-45725738D01*
X168396262Y-45598184D01*
X168243523Y-45502211D01*
X168073254Y-45442631D01*
X168073249Y-45442630D01*
X167894004Y-45422435D01*
X167893996Y-45422435D01*
X167714750Y-45442630D01*
X167714745Y-45442631D01*
X167544476Y-45502211D01*
X167391737Y-45598184D01*
X167264184Y-45725737D01*
X167168211Y-45878476D01*
X167108631Y-46048745D01*
X167108630Y-46048750D01*
X167088435Y-46227996D01*
X147076480Y-46227996D01*
X147125789Y-46149522D01*
X147185368Y-45979255D01*
X147205565Y-45800000D01*
X147185368Y-45620745D01*
X147125789Y-45450478D01*
X147120858Y-45442631D01*
X147029815Y-45297737D01*
X146902262Y-45170184D01*
X146749523Y-45074211D01*
X146579254Y-45014631D01*
X146579249Y-45014630D01*
X146400004Y-44994435D01*
X146399996Y-44994435D01*
X146220750Y-45014630D01*
X146220745Y-45014631D01*
X146050476Y-45074211D01*
X145897737Y-45170184D01*
X145770184Y-45297737D01*
X145674211Y-45450476D01*
X145614631Y-45620745D01*
X145614630Y-45620750D01*
X145594435Y-45799996D01*
X90670500Y-45799996D01*
X90670500Y-43188389D01*
X93899500Y-43188389D01*
X93899500Y-43911610D01*
X93910759Y-43982701D01*
X93926598Y-44082701D01*
X93980127Y-44247445D01*
X94058768Y-44401788D01*
X94160586Y-44541928D01*
X94283072Y-44664414D01*
X94423212Y-44766232D01*
X94577555Y-44844873D01*
X94742299Y-44898402D01*
X94913389Y-44925500D01*
X94913390Y-44925500D01*
X95086610Y-44925500D01*
X95086611Y-44925500D01*
X95257701Y-44898402D01*
X95422445Y-44844873D01*
X95576788Y-44766232D01*
X95716928Y-44664414D01*
X95839414Y-44541928D01*
X95899682Y-44458975D01*
X95955012Y-44416311D01*
X96024626Y-44410332D01*
X96086421Y-44442938D01*
X96100315Y-44458973D01*
X96160586Y-44541928D01*
X96283072Y-44664414D01*
X96423212Y-44766232D01*
X96577555Y-44844873D01*
X96742299Y-44898402D01*
X96913389Y-44925500D01*
X96913390Y-44925500D01*
X97086610Y-44925500D01*
X97086611Y-44925500D01*
X97257701Y-44898402D01*
X97422445Y-44844873D01*
X97576788Y-44766232D01*
X97716928Y-44664414D01*
X97839414Y-44541928D01*
X97899682Y-44458975D01*
X97955012Y-44416311D01*
X98024626Y-44410332D01*
X98086421Y-44442938D01*
X98100315Y-44458973D01*
X98160586Y-44541928D01*
X98283072Y-44664414D01*
X98423212Y-44766232D01*
X98577555Y-44844873D01*
X98742299Y-44898402D01*
X98913389Y-44925500D01*
X98913390Y-44925500D01*
X99086610Y-44925500D01*
X99086611Y-44925500D01*
X99257701Y-44898402D01*
X99422445Y-44844873D01*
X99576788Y-44766232D01*
X99716928Y-44664414D01*
X99824472Y-44556869D01*
X99885791Y-44523387D01*
X99955483Y-44528371D01*
X100011417Y-44570242D01*
X100017688Y-44579456D01*
X100057285Y-44643652D01*
X100057288Y-44643656D01*
X100181344Y-44767712D01*
X100330666Y-44859814D01*
X100497203Y-44914999D01*
X100599991Y-44925500D01*
X101400008Y-44925499D01*
X101400016Y-44925498D01*
X101400019Y-44925498D01*
X101456302Y-44919748D01*
X101502797Y-44914999D01*
X101669334Y-44859814D01*
X101818656Y-44767712D01*
X101942712Y-44643656D01*
X102034814Y-44494334D01*
X102089999Y-44327797D01*
X102100500Y-44225009D01*
X102100499Y-43088389D01*
X112899500Y-43088389D01*
X112899500Y-43811611D01*
X112926598Y-43982701D01*
X112980127Y-44147445D01*
X113058768Y-44301788D01*
X113160586Y-44441928D01*
X113283072Y-44564414D01*
X113423212Y-44666232D01*
X113577555Y-44744873D01*
X113742299Y-44798402D01*
X113913389Y-44825500D01*
X113913390Y-44825500D01*
X114086610Y-44825500D01*
X114086611Y-44825500D01*
X114257701Y-44798402D01*
X114422445Y-44744873D01*
X114576788Y-44666232D01*
X114716928Y-44564414D01*
X114824836Y-44456505D01*
X114886155Y-44423023D01*
X114955847Y-44428007D01*
X115011781Y-44469878D01*
X115018053Y-44479093D01*
X115057682Y-44543343D01*
X115181654Y-44667315D01*
X115330875Y-44759356D01*
X115330880Y-44759358D01*
X115497302Y-44814505D01*
X115497309Y-44814506D01*
X115600019Y-44824999D01*
X115749999Y-44824999D01*
X115750000Y-44824998D01*
X115750000Y-43730330D01*
X115769745Y-43750075D01*
X115855255Y-43799444D01*
X115950630Y-43825000D01*
X116049370Y-43825000D01*
X116144745Y-43799444D01*
X116230255Y-43750075D01*
X116250000Y-43730330D01*
X116250000Y-44824999D01*
X116399972Y-44824999D01*
X116399986Y-44824998D01*
X116502697Y-44814505D01*
X116669119Y-44759358D01*
X116669124Y-44759356D01*
X116818345Y-44667315D01*
X116942315Y-44543345D01*
X117034356Y-44394124D01*
X117034358Y-44394119D01*
X117089505Y-44227697D01*
X117089506Y-44227690D01*
X117099999Y-44124986D01*
X117100000Y-44124973D01*
X117100000Y-43700000D01*
X116280330Y-43700000D01*
X116300075Y-43680255D01*
X116349444Y-43594745D01*
X116375000Y-43499370D01*
X116375000Y-43400630D01*
X116349444Y-43305255D01*
X116300075Y-43219745D01*
X116280330Y-43200000D01*
X117099999Y-43200000D01*
X117099999Y-43088389D01*
X156586500Y-43088389D01*
X156586500Y-43811611D01*
X156613598Y-43982701D01*
X156667127Y-44147445D01*
X156745768Y-44301788D01*
X156847586Y-44441928D01*
X156970072Y-44564414D01*
X157110212Y-44666232D01*
X157264555Y-44744873D01*
X157429299Y-44798402D01*
X157600389Y-44825500D01*
X157600390Y-44825500D01*
X157773610Y-44825500D01*
X157773611Y-44825500D01*
X157944701Y-44798402D01*
X158109445Y-44744873D01*
X158263788Y-44666232D01*
X158403928Y-44564414D01*
X158526414Y-44441928D01*
X158586682Y-44358975D01*
X158642012Y-44316311D01*
X158711626Y-44310332D01*
X158773421Y-44342938D01*
X158787315Y-44358973D01*
X158847586Y-44441928D01*
X158970072Y-44564414D01*
X159110212Y-44666232D01*
X159264555Y-44744873D01*
X159429299Y-44798402D01*
X159600389Y-44825500D01*
X159600390Y-44825500D01*
X159773610Y-44825500D01*
X159773611Y-44825500D01*
X159944701Y-44798402D01*
X160109445Y-44744873D01*
X160263788Y-44666232D01*
X160403928Y-44564414D01*
X160526414Y-44441928D01*
X160586682Y-44358975D01*
X160642012Y-44316311D01*
X160711626Y-44310332D01*
X160773421Y-44342938D01*
X160787315Y-44358973D01*
X160847586Y-44441928D01*
X160970072Y-44564414D01*
X161110212Y-44666232D01*
X161264555Y-44744873D01*
X161429299Y-44798402D01*
X161600389Y-44825500D01*
X161600390Y-44825500D01*
X161773610Y-44825500D01*
X161773611Y-44825500D01*
X161944701Y-44798402D01*
X162109445Y-44744873D01*
X162263788Y-44666232D01*
X162403928Y-44564414D01*
X162526414Y-44441928D01*
X162586682Y-44358975D01*
X162642012Y-44316311D01*
X162711626Y-44310332D01*
X162773421Y-44342938D01*
X162787315Y-44358973D01*
X162847586Y-44441928D01*
X162970072Y-44564414D01*
X163110212Y-44666232D01*
X163264555Y-44744873D01*
X163429299Y-44798402D01*
X163600389Y-44825500D01*
X163600390Y-44825500D01*
X163773610Y-44825500D01*
X163773611Y-44825500D01*
X163944701Y-44798402D01*
X164109445Y-44744873D01*
X164263788Y-44666232D01*
X164403928Y-44564414D01*
X164526414Y-44441928D01*
X164586991Y-44358550D01*
X164642321Y-44315885D01*
X164711934Y-44309906D01*
X164773729Y-44342512D01*
X164787628Y-44358551D01*
X164847967Y-44441602D01*
X164970397Y-44564032D01*
X165110475Y-44665804D01*
X165264744Y-44744408D01*
X165429415Y-44797914D01*
X165429414Y-44797914D01*
X165436999Y-44799115D01*
X165437000Y-44799114D01*
X165437000Y-43730330D01*
X165456745Y-43750075D01*
X165542255Y-43799444D01*
X165637630Y-43825000D01*
X165736370Y-43825000D01*
X165831745Y-43799444D01*
X165917255Y-43750075D01*
X165937000Y-43730330D01*
X165937000Y-44799115D01*
X165944584Y-44797914D01*
X166109255Y-44744408D01*
X166263524Y-44665804D01*
X166403598Y-44564035D01*
X166511199Y-44456434D01*
X166572522Y-44422949D01*
X166642214Y-44427933D01*
X166698148Y-44469804D01*
X166704418Y-44479016D01*
X166713864Y-44494331D01*
X166743222Y-44541929D01*
X166744288Y-44543656D01*
X166868344Y-44667712D01*
X167017666Y-44759814D01*
X167184203Y-44814999D01*
X167286991Y-44825500D01*
X168087008Y-44825499D01*
X168087016Y-44825498D01*
X168087019Y-44825498D01*
X168143302Y-44819748D01*
X168189797Y-44814999D01*
X168356334Y-44759814D01*
X168505656Y-44667712D01*
X168629712Y-44543656D01*
X168721814Y-44394334D01*
X168776999Y-44227797D01*
X168787500Y-44125009D01*
X168787499Y-42774992D01*
X168776999Y-42672203D01*
X168721814Y-42505666D01*
X168629712Y-42356344D01*
X168505656Y-42232288D01*
X168380559Y-42155128D01*
X168356336Y-42140187D01*
X168356331Y-42140185D01*
X168354862Y-42139698D01*
X168189797Y-42085001D01*
X168189795Y-42085000D01*
X168087010Y-42074500D01*
X167286998Y-42074500D01*
X167286980Y-42074501D01*
X167184203Y-42085000D01*
X167184200Y-42085001D01*
X167017668Y-42140185D01*
X167017663Y-42140187D01*
X166868342Y-42232289D01*
X166744289Y-42356342D01*
X166744288Y-42356344D01*
X166704466Y-42420907D01*
X166704420Y-42420981D01*
X166652472Y-42467705D01*
X166583509Y-42478928D01*
X166519427Y-42451084D01*
X166511200Y-42443565D01*
X166403602Y-42335967D01*
X166263524Y-42234195D01*
X166109257Y-42155591D01*
X165944589Y-42102087D01*
X165944581Y-42102085D01*
X165937000Y-42100884D01*
X165937000Y-43169670D01*
X165917255Y-43149925D01*
X165831745Y-43100556D01*
X165736370Y-43075000D01*
X165637630Y-43075000D01*
X165542255Y-43100556D01*
X165456745Y-43149925D01*
X165437000Y-43169670D01*
X165437000Y-42100884D01*
X165436999Y-42100884D01*
X165429418Y-42102085D01*
X165429410Y-42102087D01*
X165264742Y-42155591D01*
X165110475Y-42234195D01*
X164970397Y-42335967D01*
X164847965Y-42458399D01*
X164847961Y-42458404D01*
X164787627Y-42541448D01*
X164732297Y-42584114D01*
X164662684Y-42590093D01*
X164600889Y-42557488D01*
X164586991Y-42541449D01*
X164586990Y-42541448D01*
X164526414Y-42458072D01*
X164403928Y-42335586D01*
X164263788Y-42233768D01*
X164109445Y-42155127D01*
X163944701Y-42101598D01*
X163944699Y-42101597D01*
X163944698Y-42101597D01*
X163813271Y-42080781D01*
X163773611Y-42074500D01*
X163600389Y-42074500D01*
X163560728Y-42080781D01*
X163429302Y-42101597D01*
X163264552Y-42155128D01*
X163110211Y-42233768D01*
X163030256Y-42291859D01*
X162970072Y-42335586D01*
X162970070Y-42335588D01*
X162970069Y-42335588D01*
X162847588Y-42458069D01*
X162847581Y-42458078D01*
X162787317Y-42541023D01*
X162731987Y-42583689D01*
X162662374Y-42589667D01*
X162600579Y-42557061D01*
X162586683Y-42541023D01*
X162526655Y-42458404D01*
X162526414Y-42458072D01*
X162403928Y-42335586D01*
X162263788Y-42233768D01*
X162109445Y-42155127D01*
X161944701Y-42101598D01*
X161944699Y-42101597D01*
X161944698Y-42101597D01*
X161813271Y-42080781D01*
X161773611Y-42074500D01*
X161600389Y-42074500D01*
X161560728Y-42080781D01*
X161429302Y-42101597D01*
X161264552Y-42155128D01*
X161110211Y-42233768D01*
X161030256Y-42291859D01*
X160970072Y-42335586D01*
X160970070Y-42335588D01*
X160970069Y-42335588D01*
X160847588Y-42458069D01*
X160847581Y-42458078D01*
X160787317Y-42541023D01*
X160731987Y-42583689D01*
X160662374Y-42589667D01*
X160600579Y-42557061D01*
X160586683Y-42541023D01*
X160526655Y-42458404D01*
X160526414Y-42458072D01*
X160403928Y-42335586D01*
X160263788Y-42233768D01*
X160109445Y-42155127D01*
X159944701Y-42101598D01*
X159944699Y-42101597D01*
X159944698Y-42101597D01*
X159813271Y-42080781D01*
X159773611Y-42074500D01*
X159600389Y-42074500D01*
X159560728Y-42080781D01*
X159429302Y-42101597D01*
X159264552Y-42155128D01*
X159110211Y-42233768D01*
X159030256Y-42291859D01*
X158970072Y-42335586D01*
X158970070Y-42335588D01*
X158970069Y-42335588D01*
X158847588Y-42458069D01*
X158847581Y-42458078D01*
X158787317Y-42541023D01*
X158731987Y-42583689D01*
X158662374Y-42589667D01*
X158600579Y-42557061D01*
X158586683Y-42541023D01*
X158526655Y-42458404D01*
X158526414Y-42458072D01*
X158403928Y-42335586D01*
X158263788Y-42233768D01*
X158109445Y-42155127D01*
X157944701Y-42101598D01*
X157944699Y-42101597D01*
X157944698Y-42101597D01*
X157813271Y-42080781D01*
X157773611Y-42074500D01*
X157600389Y-42074500D01*
X157560728Y-42080781D01*
X157429302Y-42101597D01*
X157264552Y-42155128D01*
X157110211Y-42233768D01*
X157030256Y-42291859D01*
X156970072Y-42335586D01*
X156970070Y-42335588D01*
X156970069Y-42335588D01*
X156847588Y-42458069D01*
X156847588Y-42458070D01*
X156847586Y-42458072D01*
X156813009Y-42505663D01*
X156745768Y-42598211D01*
X156667128Y-42752552D01*
X156613597Y-42917302D01*
X156597759Y-43017302D01*
X156586500Y-43088389D01*
X117099999Y-43088389D01*
X117099999Y-42775028D01*
X117099998Y-42775013D01*
X117089505Y-42672302D01*
X117034358Y-42505880D01*
X117034356Y-42505875D01*
X116942315Y-42356654D01*
X116818345Y-42232684D01*
X116765350Y-42199996D01*
X133594435Y-42199996D01*
X133594435Y-42200003D01*
X133614630Y-42379249D01*
X133614631Y-42379254D01*
X133674211Y-42549523D01*
X133709490Y-42605668D01*
X133770184Y-42702262D01*
X133897738Y-42829816D01*
X134050478Y-42925789D01*
X134220745Y-42985368D01*
X134220750Y-42985369D01*
X134399996Y-43005565D01*
X134400000Y-43005565D01*
X134400004Y-43005565D01*
X134579249Y-42985369D01*
X134579252Y-42985368D01*
X134579255Y-42985368D01*
X134749522Y-42925789D01*
X134902262Y-42829816D01*
X135029816Y-42702262D01*
X135125789Y-42549522D01*
X135185368Y-42379255D01*
X135185369Y-42379249D01*
X135205565Y-42200003D01*
X135205565Y-42199996D01*
X135185369Y-42020750D01*
X135185368Y-42020745D01*
X135125788Y-41850476D01*
X135029815Y-41697737D01*
X134902262Y-41570184D01*
X134749523Y-41474211D01*
X134579254Y-41414631D01*
X134579249Y-41414630D01*
X134400004Y-41394435D01*
X134399996Y-41394435D01*
X134220750Y-41414630D01*
X134220745Y-41414631D01*
X134050476Y-41474211D01*
X133897737Y-41570184D01*
X133770184Y-41697737D01*
X133674211Y-41850476D01*
X133614631Y-42020745D01*
X133614630Y-42020750D01*
X133594435Y-42199996D01*
X116765350Y-42199996D01*
X116669124Y-42140643D01*
X116669119Y-42140641D01*
X116502697Y-42085494D01*
X116502690Y-42085493D01*
X116399986Y-42075000D01*
X116250000Y-42075000D01*
X116250000Y-43169670D01*
X116230255Y-43149925D01*
X116144745Y-43100556D01*
X116049370Y-43075000D01*
X115950630Y-43075000D01*
X115855255Y-43100556D01*
X115769745Y-43149925D01*
X115750000Y-43169670D01*
X115750000Y-42075000D01*
X115600027Y-42075000D01*
X115600012Y-42075001D01*
X115497302Y-42085494D01*
X115330880Y-42140641D01*
X115330875Y-42140643D01*
X115181654Y-42232684D01*
X115057684Y-42356654D01*
X115018053Y-42420907D01*
X114966105Y-42467631D01*
X114897142Y-42478853D01*
X114833060Y-42451010D01*
X114824833Y-42443491D01*
X114716930Y-42335588D01*
X114716928Y-42335586D01*
X114576788Y-42233768D01*
X114422445Y-42155127D01*
X114257701Y-42101598D01*
X114257699Y-42101597D01*
X114257698Y-42101597D01*
X114126271Y-42080781D01*
X114086611Y-42074500D01*
X113913389Y-42074500D01*
X113873728Y-42080781D01*
X113742302Y-42101597D01*
X113577552Y-42155128D01*
X113423211Y-42233768D01*
X113343256Y-42291859D01*
X113283072Y-42335586D01*
X113283070Y-42335588D01*
X113283069Y-42335588D01*
X113160588Y-42458069D01*
X113160588Y-42458070D01*
X113160586Y-42458072D01*
X113126009Y-42505663D01*
X113058768Y-42598211D01*
X112980128Y-42752552D01*
X112926597Y-42917302D01*
X112910759Y-43017302D01*
X112899500Y-43088389D01*
X102100499Y-43088389D01*
X102100499Y-42874992D01*
X102089999Y-42772203D01*
X102034814Y-42605666D01*
X101942712Y-42456344D01*
X101818656Y-42332288D01*
X101693559Y-42255128D01*
X101669336Y-42240187D01*
X101669331Y-42240185D01*
X101649966Y-42233768D01*
X101502797Y-42185001D01*
X101502795Y-42185000D01*
X101400010Y-42174500D01*
X100599998Y-42174500D01*
X100599980Y-42174501D01*
X100497203Y-42185000D01*
X100497200Y-42185001D01*
X100330668Y-42240185D01*
X100330663Y-42240187D01*
X100181342Y-42332289D01*
X100057287Y-42456344D01*
X100017688Y-42520544D01*
X99965739Y-42567268D01*
X99896777Y-42578489D01*
X99832695Y-42550645D01*
X99824469Y-42543127D01*
X99716930Y-42435588D01*
X99716928Y-42435586D01*
X99576788Y-42333768D01*
X99422445Y-42255127D01*
X99257701Y-42201598D01*
X99257699Y-42201597D01*
X99257698Y-42201597D01*
X99126271Y-42180781D01*
X99086611Y-42174500D01*
X98913389Y-42174500D01*
X98873728Y-42180781D01*
X98742302Y-42201597D01*
X98577552Y-42255128D01*
X98423211Y-42333768D01*
X98391712Y-42356654D01*
X98283072Y-42435586D01*
X98283070Y-42435588D01*
X98283069Y-42435588D01*
X98160588Y-42558069D01*
X98160581Y-42558078D01*
X98100317Y-42641023D01*
X98044987Y-42683689D01*
X97975374Y-42689667D01*
X97913579Y-42657061D01*
X97899683Y-42641023D01*
X97839418Y-42558078D01*
X97839414Y-42558072D01*
X97716928Y-42435586D01*
X97576788Y-42333768D01*
X97422445Y-42255127D01*
X97257701Y-42201598D01*
X97257699Y-42201597D01*
X97257698Y-42201597D01*
X97126271Y-42180781D01*
X97086611Y-42174500D01*
X96913389Y-42174500D01*
X96873728Y-42180781D01*
X96742302Y-42201597D01*
X96577552Y-42255128D01*
X96423211Y-42333768D01*
X96391712Y-42356654D01*
X96283072Y-42435586D01*
X96283070Y-42435588D01*
X96283069Y-42435588D01*
X96160588Y-42558069D01*
X96160581Y-42558078D01*
X96100317Y-42641023D01*
X96044987Y-42683689D01*
X95975374Y-42689667D01*
X95913579Y-42657061D01*
X95899683Y-42641023D01*
X95839418Y-42558078D01*
X95839414Y-42558072D01*
X95716928Y-42435586D01*
X95576788Y-42333768D01*
X95422445Y-42255127D01*
X95257701Y-42201598D01*
X95257699Y-42201597D01*
X95257698Y-42201597D01*
X95126271Y-42180781D01*
X95086611Y-42174500D01*
X94913389Y-42174500D01*
X94873728Y-42180781D01*
X94742302Y-42201597D01*
X94577552Y-42255128D01*
X94423211Y-42333768D01*
X94391712Y-42356654D01*
X94283072Y-42435586D01*
X94283070Y-42435588D01*
X94283069Y-42435588D01*
X94160588Y-42558069D01*
X94160588Y-42558070D01*
X94160586Y-42558072D01*
X94126009Y-42605663D01*
X94058768Y-42698211D01*
X93980128Y-42852552D01*
X93926597Y-43017302D01*
X93899500Y-43188389D01*
X90670500Y-43188389D01*
X90670500Y-36692500D01*
X90690185Y-36625461D01*
X90742989Y-36579706D01*
X90794500Y-36568500D01*
X175143500Y-36568500D01*
X175210539Y-36588185D01*
G37*
%TD.AperFunction*%
%TD*%
M02*
