%TF.GenerationSoftware,KiCad,Pcbnew,8.0.3-8.0.3-0~ubuntu24.04.1*%
%TF.CreationDate,2024-08-04T08:10:13-05:00*%
%TF.ProjectId,FRCMotorTester,4652434d-6f74-46f7-9254-65737465722e,rev?*%
%TF.SameCoordinates,Original*%
%TF.FileFunction,Soldermask,Bot*%
%TF.FilePolarity,Negative*%
%FSLAX46Y46*%
G04 Gerber Fmt 4.6, Leading zero omitted, Abs format (unit mm)*
G04 Created by KiCad (PCBNEW 8.0.3-8.0.3-0~ubuntu24.04.1) date 2024-08-04 08:10:13*
%MOMM*%
%LPD*%
G01*
G04 APERTURE LIST*
G04 Aperture macros list*
%AMRoundRect*
0 Rectangle with rounded corners*
0 $1 Rounding radius*
0 $2 $3 $4 $5 $6 $7 $8 $9 X,Y pos of 4 corners*
0 Add a 4 corners polygon primitive as box body*
4,1,4,$2,$3,$4,$5,$6,$7,$8,$9,$2,$3,0*
0 Add four circle primitives for the rounded corners*
1,1,$1+$1,$2,$3*
1,1,$1+$1,$4,$5*
1,1,$1+$1,$6,$7*
1,1,$1+$1,$8,$9*
0 Add four rect primitives between the rounded corners*
20,1,$1+$1,$2,$3,$4,$5,0*
20,1,$1+$1,$4,$5,$6,$7,0*
20,1,$1+$1,$6,$7,$8,$9,0*
20,1,$1+$1,$8,$9,$2,$3,0*%
G04 Aperture macros list end*
%ADD10C,0.990600*%
%ADD11R,1.700000X1.700000*%
%ADD12O,1.700000X1.700000*%
%ADD13C,4.300000*%
%ADD14O,0.900000X1.600000*%
%ADD15RoundRect,0.250000X-0.750000X-1.550000X0.750000X-1.550000X0.750000X1.550000X-0.750000X1.550000X0*%
%ADD16O,2.000000X3.600000*%
%ADD17RoundRect,0.250000X1.550000X-0.750000X1.550000X0.750000X-1.550000X0.750000X-1.550000X-0.750000X0*%
%ADD18O,3.600000X2.000000*%
%ADD19O,2.620000X1.412000*%
%ADD20C,1.204000*%
%ADD21RoundRect,0.102000X0.500000X0.500000X-0.500000X0.500000X-0.500000X-0.500000X0.500000X-0.500000X0*%
%ADD22C,0.800000*%
%ADD23R,2.000000X2.000000*%
%ADD24C,2.000000*%
%ADD25R,3.200000X2.000000*%
G04 APERTURE END LIST*
D10*
%TO.C,J7*%
X146410000Y-102900000D03*
X138790000Y-103916000D03*
X138790000Y-101884000D03*
%TD*%
D11*
%TO.C,J9*%
X111200000Y-93000000D03*
D12*
X108660000Y-93000000D03*
X106120000Y-93000000D03*
X103580000Y-93000000D03*
X101040000Y-93000000D03*
X98500000Y-93000000D03*
X95960000Y-93000000D03*
X93420000Y-93000000D03*
%TD*%
D13*
%TO.C,H3*%
X99000000Y-100500000D03*
%TD*%
D11*
%TO.C,J3*%
X167675000Y-75475000D03*
D12*
X170215000Y-75475000D03*
X172755000Y-75475000D03*
%TD*%
D14*
%TO.C,J1*%
X130300000Y-105000000D03*
X123700000Y-105000000D03*
%TD*%
D15*
%TO.C,J2*%
X113832000Y-41870500D03*
D16*
X118832000Y-41870500D03*
%TD*%
D17*
%TO.C,J8*%
X95722500Y-82500000D03*
D18*
X95722500Y-77500000D03*
%TD*%
D11*
%TO.C,J4*%
X167675000Y-91575000D03*
D12*
X170215000Y-91575000D03*
X172755000Y-91575000D03*
%TD*%
D13*
%TO.C,H2*%
X165000000Y-42672000D03*
%TD*%
D11*
%TO.C,J6*%
X167675000Y-80575000D03*
D12*
X170215000Y-80575000D03*
X172755000Y-80575000D03*
%TD*%
D11*
%TO.C,J5*%
X167700000Y-86100000D03*
D12*
X170240000Y-86100000D03*
X172780000Y-86100000D03*
%TD*%
D13*
%TO.C,H1*%
X99060000Y-42500000D03*
%TD*%
%TO.C,H4*%
X165100000Y-100500000D03*
%TD*%
D19*
%TO.C,DS1*%
X115088500Y-70560000D03*
X149688500Y-70560000D03*
D20*
X120388500Y-72360000D03*
X121888500Y-72360000D03*
X123388500Y-72360000D03*
X124888500Y-72360000D03*
X126388500Y-72360000D03*
X127888500Y-72360000D03*
X129388500Y-72360000D03*
X130888500Y-72360000D03*
X132388500Y-72360000D03*
X133888500Y-72360000D03*
X135388500Y-72360000D03*
X136888500Y-72360000D03*
X138388500Y-72360000D03*
X139888500Y-72360000D03*
X141388500Y-72360000D03*
X142888500Y-72360000D03*
D21*
X144388500Y-72360000D03*
D22*
X112288500Y-49410000D03*
X112288500Y-72510000D03*
X152488500Y-49410000D03*
X152488500Y-72510000D03*
%TD*%
D23*
%TO.C,SW3*%
X172250000Y-58500000D03*
D24*
X172250000Y-63500000D03*
X172250000Y-61000000D03*
D25*
X164750000Y-66600000D03*
X164750000Y-55400000D03*
D24*
X157750000Y-63500000D03*
X157750000Y-58500000D03*
%TD*%
D23*
%TO.C,SW2*%
X107250000Y-58500000D03*
D24*
X107250000Y-63500000D03*
X107250000Y-61000000D03*
D25*
X99750000Y-66600000D03*
X99750000Y-55400000D03*
D24*
X92750000Y-63500000D03*
X92750000Y-58500000D03*
%TD*%
M02*
