%TF.GenerationSoftware,KiCad,Pcbnew,8.0.4-8.0.4-0~ubuntu24.04.1*%
%TF.CreationDate,2024-08-11T21:40:18-05:00*%
%TF.ProjectId,FRCMotorTester,4652434d-6f74-46f7-9254-65737465722e,rev?*%
%TF.SameCoordinates,Original*%
%TF.FileFunction,Paste,Top*%
%TF.FilePolarity,Positive*%
%FSLAX46Y46*%
G04 Gerber Fmt 4.6, Leading zero omitted, Abs format (unit mm)*
G04 Created by KiCad (PCBNEW 8.0.4-8.0.4-0~ubuntu24.04.1) date 2024-08-11 21:40:18*
%MOMM*%
%LPD*%
G01*
G04 APERTURE LIST*
G04 Aperture macros list*
%AMRoundRect*
0 Rectangle with rounded corners*
0 $1 Rounding radius*
0 $2 $3 $4 $5 $6 $7 $8 $9 X,Y pos of 4 corners*
0 Add a 4 corners polygon primitive as box body*
4,1,4,$2,$3,$4,$5,$6,$7,$8,$9,$2,$3,0*
0 Add four circle primitives for the rounded corners*
1,1,$1+$1,$2,$3*
1,1,$1+$1,$4,$5*
1,1,$1+$1,$6,$7*
1,1,$1+$1,$8,$9*
0 Add four rect primitives between the rounded corners*
20,1,$1+$1,$2,$3,$4,$5,0*
20,1,$1+$1,$4,$5,$6,$7,0*
20,1,$1+$1,$6,$7,$8,$9,0*
20,1,$1+$1,$8,$9,$2,$3,0*%
G04 Aperture macros list end*
%ADD10RoundRect,0.200000X-0.200000X-0.275000X0.200000X-0.275000X0.200000X0.275000X-0.200000X0.275000X0*%
%ADD11RoundRect,0.200000X0.200000X0.275000X-0.200000X0.275000X-0.200000X-0.275000X0.200000X-0.275000X0*%
%ADD12RoundRect,0.200000X0.275000X-0.200000X0.275000X0.200000X-0.275000X0.200000X-0.275000X-0.200000X0*%
%ADD13RoundRect,0.250000X0.475000X-0.250000X0.475000X0.250000X-0.475000X0.250000X-0.475000X-0.250000X0*%
%ADD14RoundRect,0.140000X-0.140000X-0.170000X0.140000X-0.170000X0.140000X0.170000X-0.140000X0.170000X0*%
%ADD15RoundRect,0.135000X-0.185000X0.135000X-0.185000X-0.135000X0.185000X-0.135000X0.185000X0.135000X0*%
%ADD16RoundRect,0.140000X-0.170000X0.140000X-0.170000X-0.140000X0.170000X-0.140000X0.170000X0.140000X0*%
%ADD17R,1.295400X1.549400*%
%ADD18RoundRect,0.135000X0.135000X0.185000X-0.135000X0.185000X-0.135000X-0.185000X0.135000X-0.185000X0*%
%ADD19RoundRect,0.250000X-0.250000X-0.475000X0.250000X-0.475000X0.250000X0.475000X-0.250000X0.475000X0*%
%ADD20RoundRect,0.100000X-0.100000X-0.575000X0.100000X-0.575000X0.100000X0.575000X-0.100000X0.575000X0*%
%ADD21O,0.900000X1.600000*%
%ADD22RoundRect,0.250000X-0.550000X-0.450000X0.550000X-0.450000X0.550000X0.450000X-0.550000X0.450000X0*%
%ADD23RoundRect,0.250000X-0.700000X-0.700000X0.700000X-0.700000X0.700000X0.700000X-0.700000X0.700000X0*%
%ADD24RoundRect,0.225000X-0.225000X-0.250000X0.225000X-0.250000X0.225000X0.250000X-0.225000X0.250000X0*%
%ADD25RoundRect,0.225000X0.225000X0.375000X-0.225000X0.375000X-0.225000X-0.375000X0.225000X-0.375000X0*%
%ADD26RoundRect,0.140000X0.170000X-0.140000X0.170000X0.140000X-0.170000X0.140000X-0.170000X-0.140000X0*%
%ADD27RoundRect,0.135000X0.185000X-0.135000X0.185000X0.135000X-0.185000X0.135000X-0.185000X-0.135000X0*%
%ADD28RoundRect,0.150000X0.587500X0.150000X-0.587500X0.150000X-0.587500X-0.150000X0.587500X-0.150000X0*%
%ADD29RoundRect,0.225000X-0.225000X-0.375000X0.225000X-0.375000X0.225000X0.375000X-0.225000X0.375000X0*%
%ADD30RoundRect,0.375000X-0.375000X0.625000X-0.375000X-0.625000X0.375000X-0.625000X0.375000X0.625000X0*%
%ADD31RoundRect,0.500000X-1.400000X0.500000X-1.400000X-0.500000X1.400000X-0.500000X1.400000X0.500000X0*%
%ADD32RoundRect,0.225000X0.225000X0.250000X-0.225000X0.250000X-0.225000X-0.250000X0.225000X-0.250000X0*%
%ADD33RoundRect,0.225000X-0.375000X0.225000X-0.375000X-0.225000X0.375000X-0.225000X0.375000X0.225000X0*%
%ADD34RoundRect,0.140000X0.140000X0.170000X-0.140000X0.170000X-0.140000X-0.170000X0.140000X-0.170000X0*%
%ADD35RoundRect,0.150000X-0.150000X0.587500X-0.150000X-0.587500X0.150000X-0.587500X0.150000X0.587500X0*%
%ADD36RoundRect,0.225000X-0.250000X0.225000X-0.250000X-0.225000X0.250000X-0.225000X0.250000X0.225000X0*%
%ADD37RoundRect,0.135000X-0.135000X-0.185000X0.135000X-0.185000X0.135000X0.185000X-0.135000X0.185000X0*%
%ADD38RoundRect,0.250000X0.250000X0.475000X-0.250000X0.475000X-0.250000X-0.475000X0.250000X-0.475000X0*%
%ADD39RoundRect,0.150000X0.150000X-0.512500X0.150000X0.512500X-0.150000X0.512500X-0.150000X-0.512500X0*%
%ADD40RoundRect,0.075000X0.441942X0.548008X-0.548008X-0.441942X-0.441942X-0.548008X0.548008X0.441942X0*%
%ADD41RoundRect,0.075000X-0.441942X0.548008X-0.548008X0.441942X0.441942X-0.548008X0.548008X-0.441942X0*%
%ADD42RoundRect,0.150000X0.825000X0.150000X-0.825000X0.150000X-0.825000X-0.150000X0.825000X-0.150000X0*%
%ADD43RoundRect,0.218750X-0.218750X-0.256250X0.218750X-0.256250X0.218750X0.256250X-0.218750X0.256250X0*%
%ADD44R,0.800000X2.700000*%
%ADD45R,1.400000X1.200000*%
%ADD46RoundRect,0.225000X0.375000X-0.225000X0.375000X0.225000X-0.375000X0.225000X-0.375000X-0.225000X0*%
G04 APERTURE END LIST*
D10*
%TO.C,R18*%
X145165000Y-41900000D03*
X146815000Y-41900000D03*
%TD*%
D11*
%TO.C,R17*%
X146815000Y-44000000D03*
X145165000Y-44000000D03*
%TD*%
D12*
%TO.C,R15*%
X143326000Y-52189000D03*
X143326000Y-50539000D03*
%TD*%
%TO.C,R13*%
X131654500Y-52619000D03*
X131654500Y-50969000D03*
%TD*%
%TO.C,R12*%
X102500000Y-80825000D03*
X102500000Y-79175000D03*
%TD*%
D13*
%TO.C,C22*%
X123272500Y-52744000D03*
X123272500Y-50844000D03*
%TD*%
D14*
%TO.C,C2*%
X142020000Y-87500000D03*
X142980000Y-87500000D03*
%TD*%
D15*
%TO.C,R16*%
X141040000Y-50854000D03*
X141040000Y-51874000D03*
%TD*%
D16*
%TO.C,C39*%
X144373600Y-69020000D03*
X144373600Y-69980000D03*
%TD*%
%TO.C,C32*%
X169672000Y-57940000D03*
X169672000Y-58900000D03*
%TD*%
D17*
%TO.C,SW1*%
X156418701Y-87441150D03*
X156418701Y-93941152D03*
X151918699Y-87441150D03*
X151918699Y-93941152D03*
%TD*%
D18*
%TO.C,R2*%
X149810000Y-90900000D03*
X148790000Y-90900000D03*
%TD*%
D11*
%TO.C,R1*%
X134325000Y-101600000D03*
X132675000Y-101600000D03*
%TD*%
D19*
%TO.C,C24*%
X141290000Y-37592000D03*
X143190000Y-37592000D03*
%TD*%
D15*
%TO.C,R11*%
X136000000Y-76990000D03*
X136000000Y-78010000D03*
%TD*%
D20*
%TO.C,J1*%
X125700000Y-102325000D03*
X126350000Y-102325000D03*
X127000000Y-102325000D03*
X127650000Y-102325000D03*
X128300000Y-102325000D03*
D21*
X123700000Y-105000000D03*
D22*
X123800000Y-102550000D03*
D23*
X125800000Y-105000000D03*
X128200000Y-105000000D03*
D22*
X130200000Y-102550000D03*
D21*
X130300000Y-105000000D03*
%TD*%
D16*
%TO.C,C35*%
X138430000Y-69070800D03*
X138430000Y-70030800D03*
%TD*%
D15*
%TO.C,R10*%
X137490000Y-76990000D03*
X137490000Y-78010000D03*
%TD*%
D16*
%TO.C,C36*%
X139903200Y-69020000D03*
X139903200Y-69980000D03*
%TD*%
D24*
%TO.C,C41*%
X135125000Y-66700000D03*
X136675000Y-66700000D03*
%TD*%
%TO.C,C43*%
X120225000Y-95968000D03*
X121775000Y-95968000D03*
%TD*%
D16*
%TO.C,C38*%
X142900400Y-69020000D03*
X142900400Y-69980000D03*
%TD*%
D25*
%TO.C,D2*%
X139150000Y-45000000D03*
X135850000Y-45000000D03*
%TD*%
D26*
%TO.C,C33*%
X169672000Y-62964000D03*
X169672000Y-62004000D03*
%TD*%
D19*
%TO.C,C1*%
X142050000Y-89400000D03*
X143950000Y-89400000D03*
%TD*%
D27*
%TO.C,R5*%
X128000000Y-94510000D03*
X128000000Y-93490000D03*
%TD*%
D28*
%TO.C,D5*%
X161637500Y-92550000D03*
X161637500Y-90650000D03*
X159762500Y-91600000D03*
%TD*%
%TO.C,D7*%
X161637500Y-82050000D03*
X161637500Y-80150000D03*
X159762500Y-81100000D03*
%TD*%
D29*
%TO.C,D11*%
X119350000Y-98900000D03*
X122650000Y-98900000D03*
%TD*%
D30*
%TO.C,U7*%
X140800000Y-56850000D03*
X138500000Y-56850000D03*
D31*
X138500000Y-63150000D03*
D30*
X136200000Y-56850000D03*
%TD*%
D16*
%TO.C,C5*%
X132300000Y-95920000D03*
X132300000Y-96880000D03*
%TD*%
D13*
%TO.C,C23*%
X126320500Y-52744000D03*
X126320500Y-50844000D03*
%TD*%
D32*
%TO.C,C40*%
X133775000Y-70000000D03*
X132225000Y-70000000D03*
%TD*%
D14*
%TO.C,C10*%
X143020000Y-85400000D03*
X143980000Y-85400000D03*
%TD*%
D33*
%TO.C,D12*%
X106000000Y-46850000D03*
X106000000Y-50150000D03*
%TD*%
D34*
%TO.C,C17*%
X149780000Y-88500000D03*
X148820000Y-88500000D03*
%TD*%
D35*
%TO.C,D4*%
X103950000Y-85562500D03*
X102050000Y-85562500D03*
X103000000Y-87437500D03*
%TD*%
D36*
%TO.C,C42*%
X129700000Y-67525000D03*
X129700000Y-69075000D03*
%TD*%
D14*
%TO.C,C8*%
X143020000Y-84300000D03*
X143980000Y-84300000D03*
%TD*%
D28*
%TO.C,D8*%
X161637500Y-75950000D03*
X161637500Y-74050000D03*
X159762500Y-75000000D03*
%TD*%
D26*
%TO.C,C9*%
X134500000Y-77980000D03*
X134500000Y-77020000D03*
%TD*%
%TO.C,C15*%
X131500000Y-77980000D03*
X131500000Y-77020000D03*
%TD*%
D16*
%TO.C,C37*%
X141376400Y-69020000D03*
X141376400Y-69980000D03*
%TD*%
D26*
%TO.C,C30*%
X103632000Y-62964000D03*
X103632000Y-62004000D03*
%TD*%
D37*
%TO.C,R4*%
X153490000Y-85000000D03*
X154510000Y-85000000D03*
%TD*%
D32*
%TO.C,C47*%
X123575000Y-83600000D03*
X122025000Y-83600000D03*
%TD*%
D36*
%TO.C,C46*%
X130600000Y-95925000D03*
X130600000Y-97475000D03*
%TD*%
D38*
%TO.C,C28*%
X133538000Y-39624000D03*
X131638000Y-39624000D03*
%TD*%
D16*
%TO.C,C16*%
X102500000Y-49520000D03*
X102500000Y-50480000D03*
%TD*%
D39*
%TO.C,U4*%
X126050000Y-98637500D03*
X127000000Y-98637500D03*
X127950000Y-98637500D03*
X127950000Y-96362500D03*
X127000000Y-96362500D03*
X126050000Y-96362500D03*
%TD*%
D37*
%TO.C,R8*%
X157190000Y-103200000D03*
X158210000Y-103200000D03*
%TD*%
D36*
%TO.C,C26*%
X141500000Y-44945000D03*
X141500000Y-46495000D03*
%TD*%
D40*
%TO.C,U1*%
X139664481Y-85638819D03*
X139310928Y-85285266D03*
X138957375Y-84931713D03*
X138603821Y-84578159D03*
X138250268Y-84224606D03*
X137896714Y-83871052D03*
X137543161Y-83517499D03*
X137189608Y-83163946D03*
X136836054Y-82810392D03*
X136482501Y-82456839D03*
X136128948Y-82103286D03*
X135775394Y-81749732D03*
X135421841Y-81396179D03*
X135068287Y-81042625D03*
X134714734Y-80689072D03*
X134361181Y-80335519D03*
D41*
X131638819Y-80335519D03*
X131285266Y-80689072D03*
X130931713Y-81042625D03*
X130578159Y-81396179D03*
X130224606Y-81749732D03*
X129871052Y-82103286D03*
X129517499Y-82456839D03*
X129163946Y-82810392D03*
X128810392Y-83163946D03*
X128456839Y-83517499D03*
X128103286Y-83871052D03*
X127749732Y-84224606D03*
X127396179Y-84578159D03*
X127042625Y-84931713D03*
X126689072Y-85285266D03*
X126335519Y-85638819D03*
D40*
X126335519Y-88361181D03*
X126689072Y-88714734D03*
X127042625Y-89068287D03*
X127396179Y-89421841D03*
X127749732Y-89775394D03*
X128103286Y-90128948D03*
X128456839Y-90482501D03*
X128810392Y-90836054D03*
X129163946Y-91189608D03*
X129517499Y-91543161D03*
X129871052Y-91896714D03*
X130224606Y-92250268D03*
X130578159Y-92603821D03*
X130931713Y-92957375D03*
X131285266Y-93310928D03*
X131638819Y-93664481D03*
D41*
X134361181Y-93664481D03*
X134714734Y-93310928D03*
X135068287Y-92957375D03*
X135421841Y-92603821D03*
X135775394Y-92250268D03*
X136128948Y-91896714D03*
X136482501Y-91543161D03*
X136836054Y-91189608D03*
X137189608Y-90836054D03*
X137543161Y-90482501D03*
X137896714Y-90128948D03*
X138250268Y-89775394D03*
X138603821Y-89421841D03*
X138957375Y-89068287D03*
X139310928Y-88714734D03*
X139664481Y-88361181D03*
%TD*%
D42*
%TO.C,U2*%
X111875000Y-83310000D03*
X111875000Y-82040000D03*
X111875000Y-80770000D03*
X111875000Y-79500000D03*
X111875000Y-78230000D03*
X111875000Y-76960000D03*
X111875000Y-75690000D03*
X106925000Y-75690000D03*
X106925000Y-76960000D03*
X106925000Y-78230000D03*
X106925000Y-79500000D03*
X106925000Y-80770000D03*
X106925000Y-82040000D03*
X106925000Y-83310000D03*
%TD*%
D15*
%TO.C,R19*%
X109000000Y-47490000D03*
X109000000Y-48510000D03*
%TD*%
D13*
%TO.C,C25*%
X135452000Y-52314000D03*
X135452000Y-50414000D03*
%TD*%
D27*
%TO.C,R6*%
X126000000Y-94510000D03*
X126000000Y-93490000D03*
%TD*%
D30*
%TO.C,U5*%
X128608000Y-56850000D03*
X126308000Y-56850000D03*
D31*
X126308000Y-63150000D03*
D30*
X124008000Y-56850000D03*
%TD*%
D26*
%TO.C,C31*%
X94996000Y-61440000D03*
X94996000Y-60480000D03*
%TD*%
D28*
%TO.C,Q2*%
X127937500Y-40485100D03*
X127937500Y-38585100D03*
X126062500Y-39535100D03*
%TD*%
D37*
%TO.C,R7*%
X157190000Y-105200000D03*
X158210000Y-105200000D03*
%TD*%
D16*
%TO.C,C3*%
X146100000Y-77520000D03*
X146100000Y-78480000D03*
%TD*%
D34*
%TO.C,C11*%
X123400000Y-88300000D03*
X122440000Y-88300000D03*
%TD*%
D15*
%TO.C,R20*%
X109000000Y-49990000D03*
X109000000Y-51010000D03*
%TD*%
%TO.C,R14*%
X129114500Y-51284000D03*
X129114500Y-52304000D03*
%TD*%
D28*
%TO.C,D6*%
X161637500Y-87050000D03*
X161637500Y-85150000D03*
X159762500Y-86100000D03*
%TD*%
D13*
%TO.C,C27*%
X138500000Y-52314000D03*
X138500000Y-50414000D03*
%TD*%
D43*
%TO.C,D1*%
X153412500Y-105200000D03*
X154987500Y-105200000D03*
%TD*%
D16*
%TO.C,C4*%
X139500000Y-77520000D03*
X139500000Y-78480000D03*
%TD*%
%TO.C,C29*%
X103632000Y-57968000D03*
X103632000Y-58928000D03*
%TD*%
D27*
%TO.C,R9*%
X140500000Y-81510000D03*
X140500000Y-80490000D03*
%TD*%
D26*
%TO.C,C7*%
X133000000Y-77980000D03*
X133000000Y-77020000D03*
%TD*%
D27*
%TO.C,R3*%
X127000000Y-78010000D03*
X127000000Y-76990000D03*
%TD*%
D37*
%TO.C,R21*%
X144890000Y-83100000D03*
X145910000Y-83100000D03*
%TD*%
D44*
%TO.C,L1*%
X138209200Y-41500000D03*
X136009200Y-41500000D03*
%TD*%
D45*
%TO.C,Y2*%
X141300000Y-78500000D03*
X143500000Y-78500000D03*
X143500000Y-76800000D03*
X141300000Y-76800000D03*
%TD*%
D43*
%TO.C,D10*%
X153412500Y-103200000D03*
X154987500Y-103200000D03*
%TD*%
D14*
%TO.C,C14*%
X115020000Y-78300000D03*
X115980000Y-78300000D03*
%TD*%
D39*
%TO.C,U6*%
X141290000Y-42637500D03*
X142240000Y-42637500D03*
X143190000Y-42637500D03*
X143190000Y-40362500D03*
X142240000Y-40362500D03*
X141290000Y-40362500D03*
%TD*%
D34*
%TO.C,C12*%
X123400000Y-86900000D03*
X122440000Y-86900000D03*
%TD*%
D16*
%TO.C,C6*%
X133700000Y-95920000D03*
X133700000Y-96880000D03*
%TD*%
D26*
%TO.C,C34*%
X160528000Y-61440000D03*
X160528000Y-60480000D03*
%TD*%
D46*
%TO.C,D3*%
X132588000Y-46608000D03*
X132588000Y-43308000D03*
%TD*%
D14*
%TO.C,C13*%
X115020000Y-80800000D03*
X115980000Y-80800000D03*
%TD*%
M02*
