%TF.GenerationSoftware,KiCad,Pcbnew,8.0.2-8.0.2-0~ubuntu22.04.1*%
%TF.CreationDate,2024-05-19T11:55:34-05:00*%
%TF.ProjectId,FRCMotorTester,4652434d-6f74-46f7-9254-65737465722e,rev?*%
%TF.SameCoordinates,Original*%
%TF.FileFunction,Soldermask,Top*%
%TF.FilePolarity,Negative*%
%FSLAX46Y46*%
G04 Gerber Fmt 4.6, Leading zero omitted, Abs format (unit mm)*
G04 Created by KiCad (PCBNEW 8.0.2-8.0.2-0~ubuntu22.04.1) date 2024-05-19 11:55:34*
%MOMM*%
%LPD*%
G01*
G04 APERTURE LIST*
G04 Aperture macros list*
%AMRoundRect*
0 Rectangle with rounded corners*
0 $1 Rounding radius*
0 $2 $3 $4 $5 $6 $7 $8 $9 X,Y pos of 4 corners*
0 Add a 4 corners polygon primitive as box body*
4,1,4,$2,$3,$4,$5,$6,$7,$8,$9,$2,$3,0*
0 Add four circle primitives for the rounded corners*
1,1,$1+$1,$2,$3*
1,1,$1+$1,$4,$5*
1,1,$1+$1,$6,$7*
1,1,$1+$1,$8,$9*
0 Add four rect primitives between the rounded corners*
20,1,$1+$1,$2,$3,$4,$5,0*
20,1,$1+$1,$4,$5,$6,$7,0*
20,1,$1+$1,$6,$7,$8,$9,0*
20,1,$1+$1,$8,$9,$2,$3,0*%
%AMFreePoly0*
4,1,6,1.000000,0.000000,0.500000,-0.750000,-0.500000,-0.750000,-0.500000,0.750000,0.500000,0.750000,1.000000,0.000000,1.000000,0.000000,$1*%
%AMFreePoly1*
4,1,6,0.500000,-0.750000,-0.650000,-0.750000,-0.150000,0.000000,-0.650000,0.750000,0.500000,0.750000,0.500000,-0.750000,0.500000,-0.750000,$1*%
G04 Aperture macros list end*
%ADD10RoundRect,0.135000X0.135000X0.185000X-0.135000X0.185000X-0.135000X-0.185000X0.135000X-0.185000X0*%
%ADD11RoundRect,0.250000X0.475000X-0.250000X0.475000X0.250000X-0.475000X0.250000X-0.475000X-0.250000X0*%
%ADD12RoundRect,0.140000X-0.140000X-0.170000X0.140000X-0.170000X0.140000X0.170000X-0.140000X0.170000X0*%
%ADD13RoundRect,0.135000X-0.185000X0.135000X-0.185000X-0.135000X0.185000X-0.135000X0.185000X0.135000X0*%
%ADD14RoundRect,0.140000X0.170000X-0.140000X0.170000X0.140000X-0.170000X0.140000X-0.170000X-0.140000X0*%
%ADD15C,1.000000*%
%ADD16C,4.300000*%
%ADD17RoundRect,0.140000X-0.170000X0.140000X-0.170000X-0.140000X0.170000X-0.140000X0.170000X0.140000X0*%
%ADD18R,1.295400X1.549400*%
%ADD19R,1.700000X1.700000*%
%ADD20O,1.700000X1.700000*%
%ADD21RoundRect,0.250000X-0.250000X-0.475000X0.250000X-0.475000X0.250000X0.475000X-0.250000X0.475000X0*%
%ADD22RoundRect,0.050000X0.387500X0.050000X-0.387500X0.050000X-0.387500X-0.050000X0.387500X-0.050000X0*%
%ADD23RoundRect,0.050000X0.050000X0.387500X-0.050000X0.387500X-0.050000X-0.387500X0.050000X-0.387500X0*%
%ADD24R,3.200000X3.200000*%
%ADD25RoundRect,0.100000X-0.100000X-0.575000X0.100000X-0.575000X0.100000X0.575000X-0.100000X0.575000X0*%
%ADD26O,0.900000X1.600000*%
%ADD27RoundRect,0.250000X-0.550000X-0.450000X0.550000X-0.450000X0.550000X0.450000X-0.550000X0.450000X0*%
%ADD28RoundRect,0.250000X-0.700000X-0.700000X0.700000X-0.700000X0.700000X0.700000X-0.700000X0.700000X0*%
%ADD29R,1.150000X1.000000*%
%ADD30RoundRect,0.125000X-0.250000X-0.125000X0.250000X-0.125000X0.250000X0.125000X-0.250000X0.125000X0*%
%ADD31R,3.400000X4.300000*%
%ADD32RoundRect,0.225000X0.225000X0.375000X-0.225000X0.375000X-0.225000X-0.375000X0.225000X-0.375000X0*%
%ADD33RoundRect,0.250000X-0.750000X-1.550000X0.750000X-1.550000X0.750000X1.550000X-0.750000X1.550000X0*%
%ADD34O,2.000000X3.600000*%
%ADD35RoundRect,0.135000X0.185000X-0.135000X0.185000X0.135000X-0.185000X0.135000X-0.185000X-0.135000X0*%
%ADD36RoundRect,0.150000X0.587500X0.150000X-0.587500X0.150000X-0.587500X-0.150000X0.587500X-0.150000X0*%
%ADD37RoundRect,0.225000X-0.225000X-0.375000X0.225000X-0.375000X0.225000X0.375000X-0.225000X0.375000X0*%
%ADD38RoundRect,0.375000X-0.375000X0.625000X-0.375000X-0.625000X0.375000X-0.625000X0.375000X0.625000X0*%
%ADD39RoundRect,0.500000X-1.400000X0.500000X-1.400000X-0.500000X1.400000X-0.500000X1.400000X0.500000X0*%
%ADD40R,1.400000X1.200000*%
%ADD41RoundRect,0.140000X0.140000X0.170000X-0.140000X0.170000X-0.140000X-0.170000X0.140000X-0.170000X0*%
%ADD42RoundRect,0.250000X1.550000X-0.750000X1.550000X0.750000X-1.550000X0.750000X-1.550000X-0.750000X0*%
%ADD43O,3.600000X2.000000*%
%ADD44RoundRect,0.150000X-0.150000X0.587500X-0.150000X-0.587500X0.150000X-0.587500X0.150000X0.587500X0*%
%ADD45RoundRect,0.150000X-0.587500X-0.150000X0.587500X-0.150000X0.587500X0.150000X-0.587500X0.150000X0*%
%ADD46RoundRect,0.150000X0.150000X-0.587500X0.150000X0.587500X-0.150000X0.587500X-0.150000X-0.587500X0*%
%ADD47RoundRect,0.250000X0.250000X0.475000X-0.250000X0.475000X-0.250000X-0.475000X0.250000X-0.475000X0*%
%ADD48RoundRect,0.225000X0.225000X0.250000X-0.225000X0.250000X-0.225000X-0.250000X0.225000X-0.250000X0*%
%ADD49RoundRect,0.135000X-0.135000X-0.185000X0.135000X-0.185000X0.135000X0.185000X-0.135000X0.185000X0*%
%ADD50FreePoly0,180.000000*%
%ADD51FreePoly1,180.000000*%
%ADD52RoundRect,0.218750X-0.218750X-0.256250X0.218750X-0.256250X0.218750X0.256250X-0.218750X0.256250X0*%
%ADD53R,0.800000X2.700000*%
%ADD54RoundRect,0.075000X-0.075000X0.437500X-0.075000X-0.437500X0.075000X-0.437500X0.075000X0.437500X0*%
%ADD55RoundRect,0.075000X-0.437500X0.075000X-0.437500X-0.075000X0.437500X-0.075000X0.437500X0.075000X0*%
%ADD56R,4.250000X4.250000*%
%ADD57RoundRect,0.150000X0.512500X0.150000X-0.512500X0.150000X-0.512500X-0.150000X0.512500X-0.150000X0*%
%ADD58RoundRect,0.225000X0.375000X-0.225000X0.375000X0.225000X-0.375000X0.225000X-0.375000X-0.225000X0*%
%ADD59C,0.800000*%
%ADD60RoundRect,0.102000X0.500000X0.500000X-0.500000X0.500000X-0.500000X-0.500000X0.500000X-0.500000X0*%
%ADD61C,1.204000*%
%ADD62O,2.620000X1.412000*%
%ADD63R,2.000000X2.000000*%
%ADD64C,2.000000*%
%ADD65R,3.200000X2.000000*%
G04 APERTURE END LIST*
D10*
%TO.C,R3*%
X146306000Y-97028000D03*
X145286000Y-97028000D03*
%TD*%
D11*
%TO.C,C22*%
X123456500Y-56752000D03*
X123456500Y-54852000D03*
%TD*%
D12*
%TO.C,C2*%
X141252000Y-88392000D03*
X142212000Y-88392000D03*
%TD*%
D13*
%TO.C,R16*%
X141224000Y-54862000D03*
X141224000Y-55882000D03*
%TD*%
D14*
%TO.C,C39*%
X144373600Y-75511600D03*
X144373600Y-74551600D03*
%TD*%
D15*
%TO.C,TP4*%
X150622000Y-96520000D03*
%TD*%
D16*
%TO.C,H3*%
X99060000Y-108712000D03*
%TD*%
D17*
%TO.C,C32*%
X169672000Y-57940000D03*
X169672000Y-58900000D03*
%TD*%
D18*
%TO.C,SW1*%
X148625999Y-106374001D03*
X148625999Y-99873999D03*
X153126001Y-106374001D03*
X153126001Y-99873999D03*
%TD*%
D17*
%TO.C,C8*%
X143459200Y-105692000D03*
X143459200Y-106652000D03*
%TD*%
D19*
%TO.C,J3*%
X114158000Y-112928000D03*
D20*
X111618000Y-112928000D03*
X109078000Y-112928000D03*
%TD*%
D21*
%TO.C,C24*%
X141290000Y-37592000D03*
X143190000Y-37592000D03*
%TD*%
D15*
%TO.C,TP14*%
X114681000Y-68072000D03*
%TD*%
D22*
%TO.C,U2*%
X136025500Y-95056000D03*
X136025500Y-94656000D03*
X136025500Y-94256000D03*
X136025500Y-93856000D03*
X136025500Y-93456000D03*
X136025500Y-93056000D03*
X136025500Y-92656000D03*
X136025500Y-92256000D03*
X136025500Y-91856000D03*
X136025500Y-91456000D03*
X136025500Y-91056000D03*
X136025500Y-90656000D03*
X136025500Y-90256000D03*
X136025500Y-89856000D03*
D23*
X135188000Y-89018500D03*
X134788000Y-89018500D03*
X134388000Y-89018500D03*
X133988000Y-89018500D03*
X133588000Y-89018500D03*
X133188000Y-89018500D03*
X132788000Y-89018500D03*
X132388000Y-89018500D03*
X131988000Y-89018500D03*
X131588000Y-89018500D03*
X131188000Y-89018500D03*
X130788000Y-89018500D03*
X130388000Y-89018500D03*
X129988000Y-89018500D03*
D22*
X129150500Y-89856000D03*
X129150500Y-90256000D03*
X129150500Y-90656000D03*
X129150500Y-91056000D03*
X129150500Y-91456000D03*
X129150500Y-91856000D03*
X129150500Y-92256000D03*
X129150500Y-92656000D03*
X129150500Y-93056000D03*
X129150500Y-93456000D03*
X129150500Y-93856000D03*
X129150500Y-94256000D03*
X129150500Y-94656000D03*
X129150500Y-95056000D03*
D23*
X129988000Y-95893500D03*
X130388000Y-95893500D03*
X130788000Y-95893500D03*
X131188000Y-95893500D03*
X131588000Y-95893500D03*
X131988000Y-95893500D03*
X132388000Y-95893500D03*
X132788000Y-95893500D03*
X133188000Y-95893500D03*
X133588000Y-95893500D03*
X133988000Y-95893500D03*
X134388000Y-95893500D03*
X134788000Y-95893500D03*
X135188000Y-95893500D03*
D24*
X132588000Y-92456000D03*
%TD*%
D15*
%TO.C,TP10*%
X114681000Y-64897000D03*
%TD*%
D25*
%TO.C,J1*%
X129764000Y-110609000D03*
X130414000Y-110609000D03*
X131064000Y-110609000D03*
X131714000Y-110609000D03*
X132364000Y-110609000D03*
D26*
X127764000Y-113284000D03*
D27*
X127864000Y-110834000D03*
D28*
X129864000Y-113284000D03*
X132264000Y-113284000D03*
D27*
X134264000Y-110834000D03*
D26*
X134364000Y-113284000D03*
%TD*%
D14*
%TO.C,C35*%
X138430000Y-75562400D03*
X138430000Y-74602400D03*
%TD*%
D29*
%TO.C,Y1*%
X135777000Y-82996000D03*
X137527000Y-82996000D03*
X137527000Y-81596000D03*
X135777000Y-81596000D03*
%TD*%
D14*
%TO.C,C36*%
X139903200Y-75511600D03*
X139903200Y-74551600D03*
%TD*%
D17*
%TO.C,C16*%
X125476000Y-99596000D03*
X125476000Y-100556000D03*
%TD*%
D12*
%TO.C,C41*%
X135664000Y-74676000D03*
X136624000Y-74676000D03*
%TD*%
D30*
%TO.C,U1*%
X137508000Y-99187000D03*
X137508000Y-100457000D03*
X137508000Y-101727000D03*
X137508000Y-102997000D03*
X142908000Y-102997000D03*
X142908000Y-101727000D03*
X142908000Y-100457000D03*
X142908000Y-99187000D03*
D31*
X140208000Y-101092000D03*
%TD*%
D12*
%TO.C,C43*%
X122456000Y-105664000D03*
X123416000Y-105664000D03*
%TD*%
D14*
%TO.C,C38*%
X142900400Y-75511600D03*
X142900400Y-74551600D03*
%TD*%
D15*
%TO.C,TP19*%
X123240800Y-83489800D03*
%TD*%
D32*
%TO.C,D2*%
X138708400Y-45770800D03*
X135408400Y-45770800D03*
%TD*%
D14*
%TO.C,C33*%
X169672000Y-62964000D03*
X169672000Y-62004000D03*
%TD*%
D33*
%TO.C,J2*%
X113832000Y-41870500D03*
D34*
X118832000Y-41870500D03*
%TD*%
D12*
%TO.C,C1*%
X141252000Y-91440000D03*
X142212000Y-91440000D03*
%TD*%
D35*
%TO.C,R5*%
X131191000Y-100586000D03*
X131191000Y-99566000D03*
%TD*%
D36*
%TO.C,D5*%
X165275500Y-100264000D03*
X165275500Y-98364000D03*
X163400500Y-99314000D03*
%TD*%
%TO.C,D7*%
X165275500Y-78659000D03*
X165275500Y-76759000D03*
X163400500Y-77709000D03*
%TD*%
D37*
%TO.C,D11*%
X121286000Y-107696000D03*
X124586000Y-107696000D03*
%TD*%
D38*
%TO.C,U7*%
X140984000Y-60858000D03*
X138684000Y-60858000D03*
D39*
X138684000Y-67158000D03*
D38*
X136384000Y-60858000D03*
%TD*%
D35*
%TO.C,R15*%
X143510000Y-55882000D03*
X143510000Y-54862000D03*
%TD*%
%TO.C,R13*%
X131838500Y-56312000D03*
X131838500Y-55292000D03*
%TD*%
D40*
%TO.C,Y2*%
X114570000Y-92012000D03*
X112370000Y-92012000D03*
X112370000Y-93712000D03*
X114570000Y-93712000D03*
%TD*%
D41*
%TO.C,C5*%
X125956000Y-96520000D03*
X124996000Y-96520000D03*
%TD*%
D15*
%TO.C,TP11*%
X114681000Y-61468000D03*
%TD*%
D11*
%TO.C,C23*%
X126504500Y-56752000D03*
X126504500Y-54852000D03*
%TD*%
D41*
%TO.C,C40*%
X133525200Y-74676000D03*
X132565200Y-74676000D03*
%TD*%
D42*
%TO.C,J8*%
X95648000Y-85226000D03*
D43*
X95648000Y-80226000D03*
%TD*%
D44*
%TO.C,D4*%
X104768000Y-89892500D03*
X102868000Y-89892500D03*
X103818000Y-91767500D03*
%TD*%
D13*
%TO.C,R1*%
X133096000Y-85342000D03*
X133096000Y-86362000D03*
%TD*%
D17*
%TO.C,C21*%
X109660000Y-92382000D03*
X109660000Y-93342000D03*
%TD*%
D14*
%TO.C,C42*%
X130911600Y-75511600D03*
X130911600Y-74551600D03*
%TD*%
D45*
%TO.C,D9*%
X133682500Y-106238000D03*
X133682500Y-108138000D03*
X135557500Y-107188000D03*
%TD*%
D46*
%TO.C,D8*%
X107254000Y-106347500D03*
X109154000Y-106347500D03*
X108204000Y-104472500D03*
%TD*%
D14*
%TO.C,C9*%
X131064000Y-85824000D03*
X131064000Y-84864000D03*
%TD*%
D41*
%TO.C,C15*%
X125956000Y-93472000D03*
X124996000Y-93472000D03*
%TD*%
D19*
%TO.C,J4*%
X172798500Y-97028000D03*
D20*
X172798500Y-99568000D03*
X172798500Y-102108000D03*
%TD*%
D16*
%TO.C,H2*%
X165100000Y-42672000D03*
%TD*%
D14*
%TO.C,C37*%
X141376400Y-75511600D03*
X141376400Y-74551600D03*
%TD*%
%TO.C,C30*%
X103632000Y-62964000D03*
X103632000Y-62004000D03*
%TD*%
D15*
%TO.C,TP8*%
X120777000Y-67183000D03*
%TD*%
D10*
%TO.C,R4*%
X146306000Y-94996000D03*
X145286000Y-94996000D03*
%TD*%
D17*
%TO.C,C20*%
X117280000Y-92382000D03*
X117280000Y-93342000D03*
%TD*%
D13*
%TO.C,R8*%
X122428000Y-99566000D03*
X122428000Y-100586000D03*
%TD*%
D15*
%TO.C,TP16*%
X103530400Y-81102200D03*
%TD*%
%TO.C,TP17*%
X117983000Y-86715600D03*
%TD*%
%TO.C,TP22*%
X118770400Y-79806800D03*
%TD*%
D14*
%TO.C,C17*%
X109406000Y-76578000D03*
X109406000Y-75618000D03*
%TD*%
D47*
%TO.C,C28*%
X133538000Y-39624000D03*
X131638000Y-39624000D03*
%TD*%
D17*
%TO.C,C44*%
X134112000Y-99596000D03*
X134112000Y-100556000D03*
%TD*%
D12*
%TO.C,C19*%
X116292000Y-89306000D03*
X117252000Y-89306000D03*
%TD*%
D19*
%TO.C,J6*%
X172745000Y-75057000D03*
D20*
X172745000Y-77597000D03*
X172745000Y-80137000D03*
%TD*%
D15*
%TO.C,TP21*%
X116433600Y-77216000D03*
%TD*%
D17*
%TO.C,C45*%
X132588000Y-99596000D03*
X132588000Y-100556000D03*
%TD*%
D48*
%TO.C,C26*%
X143015000Y-45720000D03*
X141465000Y-45720000D03*
%TD*%
D10*
%TO.C,R2*%
X136654000Y-85471000D03*
X135634000Y-85471000D03*
%TD*%
D11*
%TO.C,C25*%
X135636000Y-56322000D03*
X135636000Y-54422000D03*
%TD*%
D35*
%TO.C,R6*%
X129794000Y-100586000D03*
X129794000Y-99566000D03*
%TD*%
D38*
%TO.C,U5*%
X128792000Y-60858000D03*
X126492000Y-60858000D03*
D39*
X126492000Y-67158000D03*
D38*
X124192000Y-60858000D03*
%TD*%
D14*
%TO.C,C31*%
X94996000Y-61440000D03*
X94996000Y-60480000D03*
%TD*%
D13*
%TO.C,R12*%
X102294000Y-83716000D03*
X102294000Y-84736000D03*
%TD*%
D49*
%TO.C,R18*%
X146302000Y-40132000D03*
X147322000Y-40132000D03*
%TD*%
D10*
%TO.C,R17*%
X147322000Y-41656000D03*
X146302000Y-41656000D03*
%TD*%
D50*
%TO.C,JP1*%
X127217000Y-44615100D03*
D51*
X125767000Y-44615100D03*
%TD*%
D49*
%TO.C,R10*%
X124966000Y-91948000D03*
X125986000Y-91948000D03*
%TD*%
D36*
%TO.C,Q2*%
X127937500Y-40485100D03*
X127937500Y-38585100D03*
X126062500Y-39535100D03*
%TD*%
D17*
%TO.C,C14*%
X127000000Y-99596000D03*
X127000000Y-100556000D03*
%TD*%
D15*
%TO.C,TP12*%
X114681000Y-58039000D03*
%TD*%
D49*
%TO.C,R7*%
X145286000Y-93472000D03*
X146306000Y-93472000D03*
%TD*%
D17*
%TO.C,C3*%
X139700000Y-81816000D03*
X139700000Y-82776000D03*
%TD*%
D10*
%TO.C,R11*%
X125986000Y-90424000D03*
X124966000Y-90424000D03*
%TD*%
D17*
%TO.C,C13*%
X128397000Y-99596000D03*
X128397000Y-100556000D03*
%TD*%
D41*
%TO.C,C11*%
X125956000Y-88900000D03*
X124996000Y-88900000D03*
%TD*%
D15*
%TO.C,TP9*%
X144653000Y-67183000D03*
%TD*%
D19*
%TO.C,J5*%
X172745000Y-86756000D03*
D20*
X172745000Y-89296000D03*
X172745000Y-91836000D03*
%TD*%
D14*
%TO.C,C18*%
X112454000Y-76578000D03*
X112454000Y-75618000D03*
%TD*%
D16*
%TO.C,H1*%
X99060000Y-42672000D03*
%TD*%
D13*
%TO.C,R14*%
X129298500Y-55292000D03*
X129298500Y-56312000D03*
%TD*%
D36*
%TO.C,D6*%
X165275500Y-89215000D03*
X165275500Y-87315000D03*
X163400500Y-88265000D03*
%TD*%
D11*
%TO.C,C27*%
X138684000Y-56322000D03*
X138684000Y-54422000D03*
%TD*%
D52*
%TO.C,D1*%
X140944500Y-93472000D03*
X142519500Y-93472000D03*
%TD*%
D16*
%TO.C,H4*%
X165100000Y-108712000D03*
%TD*%
D17*
%TO.C,C4*%
X133096000Y-82324000D03*
X133096000Y-83284000D03*
%TD*%
%TO.C,C29*%
X103632000Y-57968000D03*
X103632000Y-58928000D03*
%TD*%
D14*
%TO.C,C7*%
X129032000Y-85824000D03*
X129032000Y-84864000D03*
%TD*%
D53*
%TO.C,L1*%
X138209200Y-42316400D03*
X136009200Y-42316400D03*
%TD*%
D35*
%TO.C,R9*%
X123952000Y-100586000D03*
X123952000Y-99566000D03*
%TD*%
D54*
%TO.C,U3*%
X113710000Y-80474500D03*
X113060000Y-80474500D03*
X112410000Y-80474500D03*
X111760000Y-80474500D03*
X111110000Y-80474500D03*
X110460000Y-80474500D03*
X109810000Y-80474500D03*
D55*
X108922500Y-81362000D03*
X108922500Y-82012000D03*
X108922500Y-82662000D03*
X108922500Y-83312000D03*
X108922500Y-83962000D03*
X108922500Y-84612000D03*
X108922500Y-85262000D03*
D54*
X109810000Y-86149500D03*
X110460000Y-86149500D03*
X111110000Y-86149500D03*
X111760000Y-86149500D03*
X112410000Y-86149500D03*
X113060000Y-86149500D03*
X113710000Y-86149500D03*
D55*
X114597500Y-85262000D03*
X114597500Y-84612000D03*
X114597500Y-83962000D03*
X114597500Y-83312000D03*
X114597500Y-82662000D03*
X114597500Y-82012000D03*
X114597500Y-81362000D03*
D56*
X111760000Y-83312000D03*
%TD*%
D15*
%TO.C,TP18*%
X124561600Y-85572600D03*
%TD*%
%TO.C,TP13*%
X114681000Y-54864000D03*
%TD*%
%TO.C,TP7*%
X132588000Y-50673000D03*
%TD*%
D57*
%TO.C,U6*%
X143377500Y-42098000D03*
X143377500Y-41148000D03*
X143377500Y-40198000D03*
X141102500Y-40198000D03*
X141102500Y-41148000D03*
X141102500Y-42098000D03*
%TD*%
D41*
%TO.C,C12*%
X125956000Y-87376000D03*
X124996000Y-87376000D03*
%TD*%
%TO.C,C6*%
X125956000Y-94996000D03*
X124996000Y-94996000D03*
%TD*%
D17*
%TO.C,C10*%
X141097000Y-105692000D03*
X141097000Y-106652000D03*
%TD*%
D15*
%TO.C,TP15*%
X103505000Y-78155800D03*
%TD*%
D14*
%TO.C,C34*%
X160528000Y-61440000D03*
X160528000Y-60480000D03*
%TD*%
D15*
%TO.C,TP20*%
X127050800Y-82245200D03*
%TD*%
D58*
%TO.C,D3*%
X132588000Y-46608000D03*
X132588000Y-43308000D03*
%TD*%
D59*
%TO.C,DS1*%
X152488500Y-72510000D03*
X152488500Y-49410000D03*
X112288500Y-72510000D03*
X112288500Y-49410000D03*
D60*
X144388500Y-72360000D03*
D61*
X142888500Y-72360000D03*
X141388500Y-72360000D03*
X139888500Y-72360000D03*
X138388500Y-72360000D03*
X136888500Y-72360000D03*
X135388500Y-72360000D03*
X133888500Y-72360000D03*
X132388500Y-72360000D03*
X130888500Y-72360000D03*
X129388500Y-72360000D03*
X127888500Y-72360000D03*
X126388500Y-72360000D03*
X124888500Y-72360000D03*
X123388500Y-72360000D03*
X121888500Y-72360000D03*
X120388500Y-72360000D03*
D62*
X149688500Y-70560000D03*
X115088500Y-70560000D03*
%TD*%
D63*
%TO.C,SW3*%
X172858000Y-58460000D03*
D64*
X172858000Y-63460000D03*
X172858000Y-60960000D03*
D65*
X165358000Y-66560000D03*
X165358000Y-55360000D03*
D64*
X158358000Y-63460000D03*
X158358000Y-58460000D03*
%TD*%
D63*
%TO.C,SW2*%
X106818000Y-58460000D03*
D64*
X106818000Y-63460000D03*
X106818000Y-60960000D03*
D65*
X99318000Y-66560000D03*
X99318000Y-55360000D03*
D64*
X92318000Y-63460000D03*
X92318000Y-58460000D03*
%TD*%
M02*
