M48
; DRILL file {KiCad 8.0.4-8.0.4-0~ubuntu24.04.1} date 2024-08-11T21:40:20-0500
; FORMAT={-:-/ absolute / inch / decimal}
; #@! TF.CreationDate,2024-08-11T21:40:20-05:00
; #@! TF.GenerationSoftware,Kicad,Pcbnew,8.0.4-8.0.4-0~ubuntu24.04.1
; #@! TF.FileFunction,Plated,1,4,PTH
FMAT,2
INCH
; #@! TA.AperFunction,Plated,PTH,ViaDrill
T1C0.0118
; #@! TA.AperFunction,Plated,PTH,ComponentDrill
T2C0.0197
; #@! TA.AperFunction,Plated,PTH,ComponentDrill
T3C0.0236
; #@! TA.AperFunction,Plated,PTH,ComponentDrill
T4C0.0276
; #@! TA.AperFunction,Plated,PTH,ComponentDrill
T5C0.0394
; #@! TA.AperFunction,Plated,PTH,ComponentDrill
T6C0.0551
; #@! TA.AperFunction,Plated,PTH,ComponentDrill
T7C0.0591
%
G90
G05
T1
X3.7402Y-2.3425
X3.7402Y-2.8661
X4.0394Y-2.0315
X4.063Y-3.252
X4.0787Y-2.3583
X4.0787Y-2.4016
X4.0787Y-3.063
X4.1378Y-2.9291
X4.1732Y-2.0315
X4.2913Y-2.0551
X4.4764Y-3.0669
X4.4764Y-3.2283
X4.4882Y-3.1024
X4.5276Y-3.248
X4.5512Y-3.6614
X4.5512Y-3.7008
X4.5709Y-3.2244
X4.6002Y-3.0827
X4.6299Y-3.8189
X4.6654Y-2.9606
X4.6693Y-3.7795
X4.6772Y-2.0787
X4.685Y-3.2795
X4.7402Y-3.2913
X4.748Y-3.004
X4.7795Y-2.0315
X4.7913Y-3.3976
X4.8189Y-3.5079
X4.8346Y-3.3465
X4.8622Y-3.2165
X4.8976Y-1.9606
X4.9016Y-2.9134
X4.9055Y-2.9567
X4.9055Y-3.4213
X4.9055Y-3.4764
X4.9567Y-2.1299
X4.9921Y-2.1614
X5.0Y-3.7402
X5.0Y-3.937
X5.0061Y-3.1655
X5.0197Y-3.4173
X5.0236Y-1.9606
X5.0272Y-3.0248
X5.0315Y-3.1969
X5.0354Y-2.7835
X5.0354Y-3.1142
X5.0367Y-3.1507
X5.0433Y-2.6811
X5.0494Y-3.0688
X5.063Y-1.6693
X5.063Y-2.5827
X5.0845Y-3.9794
X5.1063Y-3.3465
X5.1496Y-2.9961
X5.1654Y-1.6378
X5.1732Y-3.5669
X5.1811Y-1.9843
X5.189Y-3.1063
X5.1969Y-3.252
X5.2087Y-3.8504
X5.2219Y-3.7398
X5.2283Y-3.2126
X5.2298Y-3.6357
X5.2323Y-3.1102
X5.252Y-3.0
X5.2677Y-3.9606
X5.2742Y-3.7347
X5.2742Y-3.8819
X5.2756Y-3.1142
X5.2756Y-3.2874
X5.2809Y-3.2448
X5.2913Y-1.6614
X5.3046Y-2.9937
X5.3614Y-3.1002
X5.3661Y-2.9882
X5.374Y-3.3386
X5.378Y-2.1417
X5.4055Y-3.9173
X5.4094Y-3.4174
X5.4173Y-2.9173
X5.4173Y-3.4567
X5.4213Y-2.6811
X5.4331Y-3.1339
X5.4409Y-3.4094
X5.4567Y-3.437
X5.4921Y-3.9488
X5.4961Y-3.0157
X5.5276Y-2.685
X5.5394Y-3.5472
X5.5512Y-3.4488
X5.5748Y-3.937
X5.5787Y-3.2953
X5.5827Y-3.5906
X5.5866Y-2.6811
X5.5866Y-3.3268
X5.5866Y-3.3622
X5.6299Y-3.4055
X5.6417Y-1.9252
X5.6496Y-2.685
X5.6496Y-3.5906
X5.6575Y-3.9173
X5.6614Y-4.1614
X5.6693Y-3.6299
X5.7008Y-1.4961
X5.7022Y-2.6552
X5.7126Y-3.7205
X5.7205Y-3.9173
X5.748Y-3.0157
X5.7559Y-3.6969
X5.7638Y-1.8031
X5.7835Y-3.2717
X5.8543Y-1.6496
X5.8583Y-3.9291
X5.8937Y-4.1102
X5.8972Y-3.7722
X5.9173Y-3.748
X5.9528Y-4.0157
X6.0433Y-3.2992
X6.2126Y-3.1929
X6.2165Y-2.9528
X6.2323Y-3.3661
X6.2638Y-3.0551
X6.2721Y-4.0315
X6.2835Y-4.1417
X6.2874Y-3.7047
X6.3386Y-3.8583
X6.4055Y-2.8583
X6.4055Y-3.0906
X6.4055Y-3.2992
X6.4055Y-3.5079
X6.6811Y-2.3583
T3
X4.7397Y-2.8488
X4.7988Y-2.8488
X4.8578Y-2.8488
X4.9169Y-2.8488
X4.9759Y-2.8488
X5.035Y-2.8488
X5.094Y-2.8488
X5.1531Y-2.8488
X5.2121Y-2.8488
X5.2712Y-2.8488
X5.3303Y-2.8488
X5.3893Y-2.8488
X5.4484Y-2.8488
X5.5074Y-2.8488
X5.5665Y-2.8488
X5.6255Y-2.8488
X5.6846Y-2.8488
T5
X3.6516Y-2.3031
X3.6516Y-2.5
X3.678Y-3.6614
X3.778Y-3.6614
X3.878Y-3.6614
X3.978Y-3.6614
X4.078Y-3.6614
X4.178Y-3.6614
X4.2224Y-2.3031
X4.2224Y-2.4016
X4.2224Y-2.5
X4.278Y-3.6614
X4.378Y-3.6614
X6.2106Y-2.3031
X6.2106Y-2.5
X6.6014Y-2.9715
X6.6014Y-3.1722
X6.6014Y-3.6053
X6.6024Y-3.3898
X6.7014Y-2.9715
X6.7014Y-3.1722
X6.7014Y-3.6053
X6.7024Y-3.3898
X6.7815Y-2.3031
X6.7815Y-2.4016
X6.7815Y-2.5
X6.8014Y-2.9715
X6.8014Y-3.1722
X6.8014Y-3.6053
X6.8024Y-3.3898
T6
X3.7686Y-3.0512
X3.7686Y-3.248
X4.4816Y-1.6484
X4.6784Y-1.6484
T2
G00X4.8701Y-4.1476
M15
G01X4.8701Y-4.1201
M16
G05
G00X5.1299Y-4.1476
M15
G01X5.1299Y-4.1201
M16
G05
T4
G00X4.5429Y-2.778
M15
G01X4.5192Y-2.778
M16
G05
G00X5.9051Y-2.778
M15
G01X5.8814Y-2.778
M16
G05
T7
G00X3.9528Y-2.1811
M15
G01X3.9016Y-2.1811
M16
G05
G00X3.9528Y-2.622
M15
G01X3.9016Y-2.622
M16
G05
G00X6.5118Y-2.1811
M15
G01X6.4606Y-2.1811
M16
G05
G00X6.5118Y-2.622
M15
G01X6.4606Y-2.622
M16
G05
M30
