%TF.GenerationSoftware,KiCad,Pcbnew,8.0.6-8.0.6-0~ubuntu24.04.1*%
%TF.CreationDate,2024-11-25T05:53:42-06:00*%
%TF.ProjectId,FRCMotorTester,4652434d-6f74-46f7-9254-65737465722e,rev?*%
%TF.SameCoordinates,Original*%
%TF.FileFunction,Legend,Bot*%
%TF.FilePolarity,Positive*%
%FSLAX46Y46*%
G04 Gerber Fmt 4.6, Leading zero omitted, Abs format (unit mm)*
G04 Created by KiCad (PCBNEW 8.0.6-8.0.6-0~ubuntu24.04.1) date 2024-11-25 05:53:42*
%MOMM*%
%LPD*%
G01*
G04 APERTURE LIST*
%ADD10C,0.150000*%
%ADD11C,0.508000*%
%ADD12C,0.120000*%
%ADD13C,0.127000*%
%ADD14C,0.200000*%
G04 APERTURE END LIST*
D10*
X150747785Y-48079819D02*
X150747785Y-47079819D01*
X150747785Y-47079819D02*
X150509690Y-47079819D01*
X150509690Y-47079819D02*
X150366833Y-47127438D01*
X150366833Y-47127438D02*
X150271595Y-47222676D01*
X150271595Y-47222676D02*
X150223976Y-47317914D01*
X150223976Y-47317914D02*
X150176357Y-47508390D01*
X150176357Y-47508390D02*
X150176357Y-47651247D01*
X150176357Y-47651247D02*
X150223976Y-47841723D01*
X150223976Y-47841723D02*
X150271595Y-47936961D01*
X150271595Y-47936961D02*
X150366833Y-48032200D01*
X150366833Y-48032200D02*
X150509690Y-48079819D01*
X150509690Y-48079819D02*
X150747785Y-48079819D01*
X149795404Y-48032200D02*
X149652547Y-48079819D01*
X149652547Y-48079819D02*
X149414452Y-48079819D01*
X149414452Y-48079819D02*
X149319214Y-48032200D01*
X149319214Y-48032200D02*
X149271595Y-47984580D01*
X149271595Y-47984580D02*
X149223976Y-47889342D01*
X149223976Y-47889342D02*
X149223976Y-47794104D01*
X149223976Y-47794104D02*
X149271595Y-47698866D01*
X149271595Y-47698866D02*
X149319214Y-47651247D01*
X149319214Y-47651247D02*
X149414452Y-47603628D01*
X149414452Y-47603628D02*
X149604928Y-47556009D01*
X149604928Y-47556009D02*
X149700166Y-47508390D01*
X149700166Y-47508390D02*
X149747785Y-47460771D01*
X149747785Y-47460771D02*
X149795404Y-47365533D01*
X149795404Y-47365533D02*
X149795404Y-47270295D01*
X149795404Y-47270295D02*
X149747785Y-47175057D01*
X149747785Y-47175057D02*
X149700166Y-47127438D01*
X149700166Y-47127438D02*
X149604928Y-47079819D01*
X149604928Y-47079819D02*
X149366833Y-47079819D01*
X149366833Y-47079819D02*
X149223976Y-47127438D01*
X148271595Y-48079819D02*
X148843023Y-48079819D01*
X148557309Y-48079819D02*
X148557309Y-47079819D01*
X148557309Y-47079819D02*
X148652547Y-47222676D01*
X148652547Y-47222676D02*
X148747785Y-47317914D01*
X148747785Y-47317914D02*
X148843023Y-47365533D01*
X170783332Y-54207200D02*
X170640475Y-54254819D01*
X170640475Y-54254819D02*
X170402380Y-54254819D01*
X170402380Y-54254819D02*
X170307142Y-54207200D01*
X170307142Y-54207200D02*
X170259523Y-54159580D01*
X170259523Y-54159580D02*
X170211904Y-54064342D01*
X170211904Y-54064342D02*
X170211904Y-53969104D01*
X170211904Y-53969104D02*
X170259523Y-53873866D01*
X170259523Y-53873866D02*
X170307142Y-53826247D01*
X170307142Y-53826247D02*
X170402380Y-53778628D01*
X170402380Y-53778628D02*
X170592856Y-53731009D01*
X170592856Y-53731009D02*
X170688094Y-53683390D01*
X170688094Y-53683390D02*
X170735713Y-53635771D01*
X170735713Y-53635771D02*
X170783332Y-53540533D01*
X170783332Y-53540533D02*
X170783332Y-53445295D01*
X170783332Y-53445295D02*
X170735713Y-53350057D01*
X170735713Y-53350057D02*
X170688094Y-53302438D01*
X170688094Y-53302438D02*
X170592856Y-53254819D01*
X170592856Y-53254819D02*
X170354761Y-53254819D01*
X170354761Y-53254819D02*
X170211904Y-53302438D01*
X169878570Y-53254819D02*
X169640475Y-54254819D01*
X169640475Y-54254819D02*
X169449999Y-53540533D01*
X169449999Y-53540533D02*
X169259523Y-54254819D01*
X169259523Y-54254819D02*
X169021428Y-53254819D01*
X168735713Y-53254819D02*
X168116666Y-53254819D01*
X168116666Y-53254819D02*
X168449999Y-53635771D01*
X168449999Y-53635771D02*
X168307142Y-53635771D01*
X168307142Y-53635771D02*
X168211904Y-53683390D01*
X168211904Y-53683390D02*
X168164285Y-53731009D01*
X168164285Y-53731009D02*
X168116666Y-53826247D01*
X168116666Y-53826247D02*
X168116666Y-54064342D01*
X168116666Y-54064342D02*
X168164285Y-54159580D01*
X168164285Y-54159580D02*
X168211904Y-54207200D01*
X168211904Y-54207200D02*
X168307142Y-54254819D01*
X168307142Y-54254819D02*
X168592856Y-54254819D01*
X168592856Y-54254819D02*
X168688094Y-54207200D01*
X168688094Y-54207200D02*
X168735713Y-54159580D01*
X105783332Y-54207200D02*
X105640475Y-54254819D01*
X105640475Y-54254819D02*
X105402380Y-54254819D01*
X105402380Y-54254819D02*
X105307142Y-54207200D01*
X105307142Y-54207200D02*
X105259523Y-54159580D01*
X105259523Y-54159580D02*
X105211904Y-54064342D01*
X105211904Y-54064342D02*
X105211904Y-53969104D01*
X105211904Y-53969104D02*
X105259523Y-53873866D01*
X105259523Y-53873866D02*
X105307142Y-53826247D01*
X105307142Y-53826247D02*
X105402380Y-53778628D01*
X105402380Y-53778628D02*
X105592856Y-53731009D01*
X105592856Y-53731009D02*
X105688094Y-53683390D01*
X105688094Y-53683390D02*
X105735713Y-53635771D01*
X105735713Y-53635771D02*
X105783332Y-53540533D01*
X105783332Y-53540533D02*
X105783332Y-53445295D01*
X105783332Y-53445295D02*
X105735713Y-53350057D01*
X105735713Y-53350057D02*
X105688094Y-53302438D01*
X105688094Y-53302438D02*
X105592856Y-53254819D01*
X105592856Y-53254819D02*
X105354761Y-53254819D01*
X105354761Y-53254819D02*
X105211904Y-53302438D01*
X104878570Y-53254819D02*
X104640475Y-54254819D01*
X104640475Y-54254819D02*
X104449999Y-53540533D01*
X104449999Y-53540533D02*
X104259523Y-54254819D01*
X104259523Y-54254819D02*
X104021428Y-53254819D01*
X103688094Y-53350057D02*
X103640475Y-53302438D01*
X103640475Y-53302438D02*
X103545237Y-53254819D01*
X103545237Y-53254819D02*
X103307142Y-53254819D01*
X103307142Y-53254819D02*
X103211904Y-53302438D01*
X103211904Y-53302438D02*
X103164285Y-53350057D01*
X103164285Y-53350057D02*
X103116666Y-53445295D01*
X103116666Y-53445295D02*
X103116666Y-53540533D01*
X103116666Y-53540533D02*
X103164285Y-53683390D01*
X103164285Y-53683390D02*
X103735713Y-54254819D01*
X103735713Y-54254819D02*
X103116666Y-54254819D01*
D11*
%TO.C,SW1*%
X156781000Y-83200000D02*
G75*
G02*
X156019000Y-83200000I-381000J0D01*
G01*
X156019000Y-83200000D02*
G75*
G02*
X156781000Y-83200000I381000J0D01*
G01*
D12*
%TO.C,J7*%
X137130000Y-100360000D02*
X148070000Y-100360000D01*
X137130000Y-105440000D02*
X137130000Y-100360000D01*
X148070000Y-100360000D02*
X148070000Y-105440000D01*
X148070000Y-105440000D02*
X137130000Y-105440000D01*
D13*
%TO.C,DS1*%
X111688500Y-49960000D02*
X111688500Y-71960000D01*
X112788500Y-73110000D02*
X151988500Y-73110000D01*
X151988500Y-48810000D02*
X112788500Y-48810000D01*
X153088500Y-71960000D02*
X153088500Y-49960000D01*
D14*
X144488500Y-73860000D02*
G75*
G02*
X144288500Y-73860000I-100000J0D01*
G01*
X144288500Y-73860000D02*
G75*
G02*
X144488500Y-73860000I100000J0D01*
G01*
D12*
%TO.C,SW3*%
X158650000Y-55100000D02*
X158650000Y-57500000D01*
X158650000Y-59700000D02*
X158650000Y-62300000D01*
X158650000Y-64500000D02*
X158650000Y-66900000D01*
X158650000Y-66900000D02*
X162750000Y-66900000D01*
X162750000Y-55100000D02*
X158650000Y-55100000D01*
X164750000Y-60500000D02*
X164750000Y-61500000D01*
X165250000Y-61000000D02*
X164250000Y-61000000D01*
X166750000Y-55100000D02*
X170850000Y-55100000D01*
X166750000Y-66900000D02*
X170850000Y-66900000D01*
X170850000Y-55100000D02*
X170850000Y-66900000D01*
X171950000Y-56900000D02*
X172250000Y-57200000D01*
X172250000Y-57200000D02*
X172550000Y-56900000D01*
X172550000Y-56900000D02*
X171950000Y-56900000D01*
X167750000Y-61000000D02*
G75*
G02*
X161750000Y-61000000I-3000000J0D01*
G01*
X161750000Y-61000000D02*
G75*
G02*
X167750000Y-61000000I3000000J0D01*
G01*
%TO.C,SW2*%
X93650000Y-55100000D02*
X93650000Y-57500000D01*
X93650000Y-59700000D02*
X93650000Y-62300000D01*
X93650000Y-64500000D02*
X93650000Y-66900000D01*
X93650000Y-66900000D02*
X97750000Y-66900000D01*
X97750000Y-55100000D02*
X93650000Y-55100000D01*
X99750000Y-60500000D02*
X99750000Y-61500000D01*
X100250000Y-61000000D02*
X99250000Y-61000000D01*
X101750000Y-55100000D02*
X105850000Y-55100000D01*
X101750000Y-66900000D02*
X105850000Y-66900000D01*
X105850000Y-55100000D02*
X105850000Y-66900000D01*
X106950000Y-56900000D02*
X107250000Y-57200000D01*
X107250000Y-57200000D02*
X107550000Y-56900000D01*
X107550000Y-56900000D02*
X106950000Y-56900000D01*
X102750000Y-61000000D02*
G75*
G02*
X96750000Y-61000000I-3000000J0D01*
G01*
X96750000Y-61000000D02*
G75*
G02*
X102750000Y-61000000I3000000J0D01*
G01*
%TD*%
M02*
