%TF.GenerationSoftware,KiCad,Pcbnew,8.0.2-8.0.2-0~ubuntu22.04.1*%
%TF.CreationDate,2024-05-19T11:55:34-05:00*%
%TF.ProjectId,FRCMotorTester,4652434d-6f74-46f7-9254-65737465722e,rev?*%
%TF.SameCoordinates,Original*%
%TF.FileFunction,Legend,Bot*%
%TF.FilePolarity,Positive*%
%FSLAX46Y46*%
G04 Gerber Fmt 4.6, Leading zero omitted, Abs format (unit mm)*
G04 Created by KiCad (PCBNEW 8.0.2-8.0.2-0~ubuntu22.04.1) date 2024-05-19 11:55:34*
%MOMM*%
%LPD*%
G01*
G04 APERTURE LIST*
%ADD10C,0.150000*%
%ADD11C,0.508000*%
%ADD12C,0.127000*%
%ADD13C,0.200000*%
%ADD14C,0.120000*%
G04 APERTURE END LIST*
D10*
X150747785Y-48079819D02*
X150747785Y-47079819D01*
X150747785Y-47079819D02*
X150509690Y-47079819D01*
X150509690Y-47079819D02*
X150366833Y-47127438D01*
X150366833Y-47127438D02*
X150271595Y-47222676D01*
X150271595Y-47222676D02*
X150223976Y-47317914D01*
X150223976Y-47317914D02*
X150176357Y-47508390D01*
X150176357Y-47508390D02*
X150176357Y-47651247D01*
X150176357Y-47651247D02*
X150223976Y-47841723D01*
X150223976Y-47841723D02*
X150271595Y-47936961D01*
X150271595Y-47936961D02*
X150366833Y-48032200D01*
X150366833Y-48032200D02*
X150509690Y-48079819D01*
X150509690Y-48079819D02*
X150747785Y-48079819D01*
X149795404Y-48032200D02*
X149652547Y-48079819D01*
X149652547Y-48079819D02*
X149414452Y-48079819D01*
X149414452Y-48079819D02*
X149319214Y-48032200D01*
X149319214Y-48032200D02*
X149271595Y-47984580D01*
X149271595Y-47984580D02*
X149223976Y-47889342D01*
X149223976Y-47889342D02*
X149223976Y-47794104D01*
X149223976Y-47794104D02*
X149271595Y-47698866D01*
X149271595Y-47698866D02*
X149319214Y-47651247D01*
X149319214Y-47651247D02*
X149414452Y-47603628D01*
X149414452Y-47603628D02*
X149604928Y-47556009D01*
X149604928Y-47556009D02*
X149700166Y-47508390D01*
X149700166Y-47508390D02*
X149747785Y-47460771D01*
X149747785Y-47460771D02*
X149795404Y-47365533D01*
X149795404Y-47365533D02*
X149795404Y-47270295D01*
X149795404Y-47270295D02*
X149747785Y-47175057D01*
X149747785Y-47175057D02*
X149700166Y-47127438D01*
X149700166Y-47127438D02*
X149604928Y-47079819D01*
X149604928Y-47079819D02*
X149366833Y-47079819D01*
X149366833Y-47079819D02*
X149223976Y-47127438D01*
X148271595Y-48079819D02*
X148843023Y-48079819D01*
X148557309Y-48079819D02*
X148557309Y-47079819D01*
X148557309Y-47079819D02*
X148652547Y-47222676D01*
X148652547Y-47222676D02*
X148747785Y-47317914D01*
X148747785Y-47317914D02*
X148843023Y-47365533D01*
X171391332Y-54167200D02*
X171248475Y-54214819D01*
X171248475Y-54214819D02*
X171010380Y-54214819D01*
X171010380Y-54214819D02*
X170915142Y-54167200D01*
X170915142Y-54167200D02*
X170867523Y-54119580D01*
X170867523Y-54119580D02*
X170819904Y-54024342D01*
X170819904Y-54024342D02*
X170819904Y-53929104D01*
X170819904Y-53929104D02*
X170867523Y-53833866D01*
X170867523Y-53833866D02*
X170915142Y-53786247D01*
X170915142Y-53786247D02*
X171010380Y-53738628D01*
X171010380Y-53738628D02*
X171200856Y-53691009D01*
X171200856Y-53691009D02*
X171296094Y-53643390D01*
X171296094Y-53643390D02*
X171343713Y-53595771D01*
X171343713Y-53595771D02*
X171391332Y-53500533D01*
X171391332Y-53500533D02*
X171391332Y-53405295D01*
X171391332Y-53405295D02*
X171343713Y-53310057D01*
X171343713Y-53310057D02*
X171296094Y-53262438D01*
X171296094Y-53262438D02*
X171200856Y-53214819D01*
X171200856Y-53214819D02*
X170962761Y-53214819D01*
X170962761Y-53214819D02*
X170819904Y-53262438D01*
X170486570Y-53214819D02*
X170248475Y-54214819D01*
X170248475Y-54214819D02*
X170057999Y-53500533D01*
X170057999Y-53500533D02*
X169867523Y-54214819D01*
X169867523Y-54214819D02*
X169629428Y-53214819D01*
X169343713Y-53214819D02*
X168724666Y-53214819D01*
X168724666Y-53214819D02*
X169057999Y-53595771D01*
X169057999Y-53595771D02*
X168915142Y-53595771D01*
X168915142Y-53595771D02*
X168819904Y-53643390D01*
X168819904Y-53643390D02*
X168772285Y-53691009D01*
X168772285Y-53691009D02*
X168724666Y-53786247D01*
X168724666Y-53786247D02*
X168724666Y-54024342D01*
X168724666Y-54024342D02*
X168772285Y-54119580D01*
X168772285Y-54119580D02*
X168819904Y-54167200D01*
X168819904Y-54167200D02*
X168915142Y-54214819D01*
X168915142Y-54214819D02*
X169200856Y-54214819D01*
X169200856Y-54214819D02*
X169296094Y-54167200D01*
X169296094Y-54167200D02*
X169343713Y-54119580D01*
X122673904Y-78626819D02*
X122102476Y-78626819D01*
X122388190Y-79626819D02*
X122388190Y-78626819D01*
X121769142Y-79626819D02*
X121769142Y-78626819D01*
X121769142Y-78626819D02*
X121388190Y-78626819D01*
X121388190Y-78626819D02*
X121292952Y-78674438D01*
X121292952Y-78674438D02*
X121245333Y-78722057D01*
X121245333Y-78722057D02*
X121197714Y-78817295D01*
X121197714Y-78817295D02*
X121197714Y-78960152D01*
X121197714Y-78960152D02*
X121245333Y-79055390D01*
X121245333Y-79055390D02*
X121292952Y-79103009D01*
X121292952Y-79103009D02*
X121388190Y-79150628D01*
X121388190Y-79150628D02*
X121769142Y-79150628D01*
X120245333Y-79626819D02*
X120816761Y-79626819D01*
X120531047Y-79626819D02*
X120531047Y-78626819D01*
X120531047Y-78626819D02*
X120626285Y-78769676D01*
X120626285Y-78769676D02*
X120721523Y-78864914D01*
X120721523Y-78864914D02*
X120816761Y-78912533D01*
X105351332Y-54167200D02*
X105208475Y-54214819D01*
X105208475Y-54214819D02*
X104970380Y-54214819D01*
X104970380Y-54214819D02*
X104875142Y-54167200D01*
X104875142Y-54167200D02*
X104827523Y-54119580D01*
X104827523Y-54119580D02*
X104779904Y-54024342D01*
X104779904Y-54024342D02*
X104779904Y-53929104D01*
X104779904Y-53929104D02*
X104827523Y-53833866D01*
X104827523Y-53833866D02*
X104875142Y-53786247D01*
X104875142Y-53786247D02*
X104970380Y-53738628D01*
X104970380Y-53738628D02*
X105160856Y-53691009D01*
X105160856Y-53691009D02*
X105256094Y-53643390D01*
X105256094Y-53643390D02*
X105303713Y-53595771D01*
X105303713Y-53595771D02*
X105351332Y-53500533D01*
X105351332Y-53500533D02*
X105351332Y-53405295D01*
X105351332Y-53405295D02*
X105303713Y-53310057D01*
X105303713Y-53310057D02*
X105256094Y-53262438D01*
X105256094Y-53262438D02*
X105160856Y-53214819D01*
X105160856Y-53214819D02*
X104922761Y-53214819D01*
X104922761Y-53214819D02*
X104779904Y-53262438D01*
X104446570Y-53214819D02*
X104208475Y-54214819D01*
X104208475Y-54214819D02*
X104017999Y-53500533D01*
X104017999Y-53500533D02*
X103827523Y-54214819D01*
X103827523Y-54214819D02*
X103589428Y-53214819D01*
X103256094Y-53310057D02*
X103208475Y-53262438D01*
X103208475Y-53262438D02*
X103113237Y-53214819D01*
X103113237Y-53214819D02*
X102875142Y-53214819D01*
X102875142Y-53214819D02*
X102779904Y-53262438D01*
X102779904Y-53262438D02*
X102732285Y-53310057D01*
X102732285Y-53310057D02*
X102684666Y-53405295D01*
X102684666Y-53405295D02*
X102684666Y-53500533D01*
X102684666Y-53500533D02*
X102732285Y-53643390D01*
X102732285Y-53643390D02*
X103303713Y-54214819D01*
X103303713Y-54214819D02*
X102684666Y-54214819D01*
X122673904Y-82182819D02*
X122102476Y-82182819D01*
X122388190Y-83182819D02*
X122388190Y-82182819D01*
X121769142Y-83182819D02*
X121769142Y-82182819D01*
X121769142Y-82182819D02*
X121388190Y-82182819D01*
X121388190Y-82182819D02*
X121292952Y-82230438D01*
X121292952Y-82230438D02*
X121245333Y-82278057D01*
X121245333Y-82278057D02*
X121197714Y-82373295D01*
X121197714Y-82373295D02*
X121197714Y-82516152D01*
X121197714Y-82516152D02*
X121245333Y-82611390D01*
X121245333Y-82611390D02*
X121292952Y-82659009D01*
X121292952Y-82659009D02*
X121388190Y-82706628D01*
X121388190Y-82706628D02*
X121769142Y-82706628D01*
X120864380Y-82182819D02*
X120245333Y-82182819D01*
X120245333Y-82182819D02*
X120578666Y-82563771D01*
X120578666Y-82563771D02*
X120435809Y-82563771D01*
X120435809Y-82563771D02*
X120340571Y-82611390D01*
X120340571Y-82611390D02*
X120292952Y-82659009D01*
X120292952Y-82659009D02*
X120245333Y-82754247D01*
X120245333Y-82754247D02*
X120245333Y-82992342D01*
X120245333Y-82992342D02*
X120292952Y-83087580D01*
X120292952Y-83087580D02*
X120340571Y-83135200D01*
X120340571Y-83135200D02*
X120435809Y-83182819D01*
X120435809Y-83182819D02*
X120721523Y-83182819D01*
X120721523Y-83182819D02*
X120816761Y-83135200D01*
X120816761Y-83135200D02*
X120864380Y-83087580D01*
X125340904Y-78626819D02*
X124769476Y-78626819D01*
X125055190Y-79626819D02*
X125055190Y-78626819D01*
X124436142Y-79626819D02*
X124436142Y-78626819D01*
X124436142Y-78626819D02*
X124055190Y-78626819D01*
X124055190Y-78626819D02*
X123959952Y-78674438D01*
X123959952Y-78674438D02*
X123912333Y-78722057D01*
X123912333Y-78722057D02*
X123864714Y-78817295D01*
X123864714Y-78817295D02*
X123864714Y-78960152D01*
X123864714Y-78960152D02*
X123912333Y-79055390D01*
X123912333Y-79055390D02*
X123959952Y-79103009D01*
X123959952Y-79103009D02*
X124055190Y-79150628D01*
X124055190Y-79150628D02*
X124436142Y-79150628D01*
X123483761Y-78722057D02*
X123436142Y-78674438D01*
X123436142Y-78674438D02*
X123340904Y-78626819D01*
X123340904Y-78626819D02*
X123102809Y-78626819D01*
X123102809Y-78626819D02*
X123007571Y-78674438D01*
X123007571Y-78674438D02*
X122959952Y-78722057D01*
X122959952Y-78722057D02*
X122912333Y-78817295D01*
X122912333Y-78817295D02*
X122912333Y-78912533D01*
X122912333Y-78912533D02*
X122959952Y-79055390D01*
X122959952Y-79055390D02*
X123531380Y-79626819D01*
X123531380Y-79626819D02*
X122912333Y-79626819D01*
D11*
%TO.C,SW1*%
X149006999Y-108026200D02*
G75*
G02*
X148244999Y-108026200I-381000J0D01*
G01*
X148244999Y-108026200D02*
G75*
G02*
X149006999Y-108026200I381000J0D01*
G01*
D12*
%TO.C,DS1*%
X111688500Y-49960000D02*
X111688500Y-71960000D01*
X112788500Y-73110000D02*
X151988500Y-73110000D01*
X151988500Y-48810000D02*
X112788500Y-48810000D01*
X153088500Y-71960000D02*
X153088500Y-49960000D01*
D13*
X144488500Y-73860000D02*
G75*
G02*
X144288500Y-73860000I-100000J0D01*
G01*
X144288500Y-73860000D02*
G75*
G02*
X144488500Y-73860000I100000J0D01*
G01*
D14*
%TO.C,SW3*%
X159258000Y-55060000D02*
X159258000Y-57460000D01*
X159258000Y-59660000D02*
X159258000Y-62260000D01*
X159258000Y-64460000D02*
X159258000Y-66860000D01*
X159258000Y-66860000D02*
X163358000Y-66860000D01*
X163358000Y-55060000D02*
X159258000Y-55060000D01*
X165358000Y-60460000D02*
X165358000Y-61460000D01*
X165858000Y-60960000D02*
X164858000Y-60960000D01*
X167358000Y-55060000D02*
X171458000Y-55060000D01*
X167358000Y-66860000D02*
X171458000Y-66860000D01*
X171458000Y-55060000D02*
X171458000Y-66860000D01*
X172558000Y-56860000D02*
X172858000Y-57160000D01*
X172858000Y-57160000D02*
X173158000Y-56860000D01*
X173158000Y-56860000D02*
X172558000Y-56860000D01*
X168358000Y-60960000D02*
G75*
G02*
X162358000Y-60960000I-3000000J0D01*
G01*
X162358000Y-60960000D02*
G75*
G02*
X168358000Y-60960000I3000000J0D01*
G01*
%TO.C,TP1*%
X122112000Y-77724000D02*
G75*
G02*
X120712000Y-77724000I-700000J0D01*
G01*
X120712000Y-77724000D02*
G75*
G02*
X122112000Y-77724000I700000J0D01*
G01*
%TO.C,SW2*%
X93218000Y-55060000D02*
X93218000Y-57460000D01*
X93218000Y-59660000D02*
X93218000Y-62260000D01*
X93218000Y-64460000D02*
X93218000Y-66860000D01*
X93218000Y-66860000D02*
X97318000Y-66860000D01*
X97318000Y-55060000D02*
X93218000Y-55060000D01*
X99318000Y-60460000D02*
X99318000Y-61460000D01*
X99818000Y-60960000D02*
X98818000Y-60960000D01*
X101318000Y-55060000D02*
X105418000Y-55060000D01*
X101318000Y-66860000D02*
X105418000Y-66860000D01*
X105418000Y-55060000D02*
X105418000Y-66860000D01*
X106518000Y-56860000D02*
X106818000Y-57160000D01*
X106818000Y-57160000D02*
X107118000Y-56860000D01*
X107118000Y-56860000D02*
X106518000Y-56860000D01*
X102318000Y-60960000D02*
G75*
G02*
X96318000Y-60960000I-3000000J0D01*
G01*
X96318000Y-60960000D02*
G75*
G02*
X102318000Y-60960000I3000000J0D01*
G01*
%TO.C,TP3*%
X122112000Y-81280000D02*
G75*
G02*
X120712000Y-81280000I-700000J0D01*
G01*
X120712000Y-81280000D02*
G75*
G02*
X122112000Y-81280000I700000J0D01*
G01*
%TO.C,TP2*%
X124779000Y-77724000D02*
G75*
G02*
X123379000Y-77724000I-700000J0D01*
G01*
X123379000Y-77724000D02*
G75*
G02*
X124779000Y-77724000I700000J0D01*
G01*
%TD*%
M02*
